<svg viewBox="0 0 330 200" xmlns="http://www.w3.org/2000/svg"><g><g><g><g><g><line x1="48.8125" y1="177" x2="43.8125" y2="177" style="visibility: inherit;" fill="rgb(0, 0, 0)" stroke="rgb(204, 204, 204)" stroke-width="1px"></line><line x1="48.8125" y1="159.30000000000007" x2="43.8125" y2="159.30000000000007" style="visibility: inherit;" fill="rgb(0, 0, 0)" stroke="rgb(204, 204, 204)" stroke-width="1px"></line><line x1="48.8125" y1="141.60000000000005" x2="43.8125" y2="141.60000000000005" style="visibility: inherit;" fill="rgb(0, 0, 0)" stroke="rgb(204, 204, 204)" stroke-width="1px"></line><line x1="48.8125" y1="123.90000000000003" x2="43.8125" y2="123.90000000000003" style="visibility: inherit;" fill="rgb(0, 0, 0)" stroke="rgb(204, 204, 204)" stroke-width="1px"></line><line x1="48.8125" y1="106.20000000000002" x2="43.8125" y2="106.20000000000002" style="visibility: inherit;" fill="rgb(0, 0, 0)" stroke="rgb(204, 204, 204)" stroke-width="1px"></line><line x1="48.8125" y1="88.5" x2="43.8125" y2="88.5" style="visibility: inherit;" fill="rgb(0, 0, 0)" stroke="rgb(204, 204, 204)" stroke-width="1px"></line><line x1="48.8125" y1="70.79999999999998" x2="43.8125" y2="70.79999999999998" style="visibility: inherit;" fill="rgb(0, 0, 0)" stroke="rgb(204, 204, 204)" stroke-width="1px"></line><line x1="48.8125" y1="53.100000000000065" x2="43.8125" y2="53.100000000000065" style="visibility: inherit;" fill="rgb(0, 0, 0)" stroke="rgb(204, 204, 204)" stroke-width="1px"></line><line x1="48.8125" y1="35.400000000000034" x2="43.8125" y2="35.400000000000034" style="visibility: inherit;" fill="rgb(0, 0, 0)" stroke="rgb(204, 204, 204)" stroke-width="1px"></line><line x1="48.8125" y1="17.700000000000017" x2="43.8125" y2="17.700000000000017" style="visibility: inherit;" fill="rgb(0, 0, 0)" stroke="rgb(204, 204, 204)" stroke-width="1px"></line><line x1="48.8125" y1="0" x2="43.8125" y2="0" style="visibility: inherit;" fill="rgb(0, 0, 0)" stroke="rgb(204, 204, 204)" stroke-width="1px"></line></g><g transform="translate(38.8125, 0)"><text x="0" y="177" dx="0em" dy="0.3em" style="text-anchor: end; visibility: hidden; font-family: &quot;Helvetica Neue&quot;, sans-serif; font-size: 12px; font-weight: 200;" fill="rgb(50, 49, 63)" stroke="none" stroke-width="1px">0.68</text><text x="0" y="159.30000000000007" dx="0em" dy="0.3em" style="text-anchor: end; visibility: inherit; font-family: &quot;Helvetica Neue&quot;, sans-serif; font-size: 12px; font-weight: 200;" fill="rgb(50, 49, 63)" stroke="none" stroke-width="1px">0.7</text><text x="0" y="141.60000000000005" dx="0em" dy="0.3em" style="text-anchor: end; visibility: hidden; font-family: &quot;Helvetica Neue&quot;, sans-serif; font-size: 12px; font-weight: 200;" fill="rgb(50, 49, 63)" stroke="none" stroke-width="1px">0.72</text><text x="0" y="123.90000000000003" dx="0em" dy="0.3em" style="text-anchor: end; visibility: inherit; font-family: &quot;Helvetica Neue&quot;, sans-serif; font-size: 12px; font-weight: 200;" fill="rgb(50, 49, 63)" stroke="none" stroke-width="1px">0.74</text><text x="0" y="106.20000000000002" dx="0em" dy="0.3em" style="text-anchor: end; visibility: hidden; font-family: &quot;Helvetica Neue&quot;, sans-serif; font-size: 12px; font-weight: 200;" fill="rgb(50, 49, 63)" stroke="none" stroke-width="1px">0.76</text><text x="0" y="88.5" dx="0em" dy="0.3em" style="text-anchor: end; visibility: inherit; font-family: &quot;Helvetica Neue&quot;, sans-serif; font-size: 12px; font-weight: 200;" fill="rgb(50, 49, 63)" stroke="none" stroke-width="1px">0.78</text><text x="0" y="70.79999999999998" dx="0em" dy="0.3em" style="text-anchor: end; visibility: hidden; font-family: &quot;Helvetica Neue&quot;, sans-serif; font-size: 12px; font-weight: 200;" fill="rgb(50, 49, 63)" stroke="none" stroke-width="1px">0.8</text><text x="0" y="53.100000000000065" dx="0em" dy="0.3em" style="text-anchor: end; visibility: inherit; font-family: &quot;Helvetica Neue&quot;, sans-serif; font-size: 12px; font-weight: 200;" fill="rgb(50, 49, 63)" stroke="none" stroke-width="1px">0.82</text><text x="0" y="35.400000000000034" dx="0em" dy="0.3em" style="text-anchor: end; visibility: hidden; font-family: &quot;Helvetica Neue&quot;, sans-serif; font-size: 12px; font-weight: 200;" fill="rgb(50, 49, 63)" stroke="none" stroke-width="1px">0.84</text><text x="0" y="17.700000000000017" dx="0em" dy="0.3em" style="text-anchor: end; visibility: inherit; font-family: &quot;Helvetica Neue&quot;, sans-serif; font-size: 12px; font-weight: 200;" fill="rgb(50, 49, 63)" stroke="none" stroke-width="1px">0.86</text><text x="0" y="0" dx="0em" dy="0.3em" style="text-anchor: end; visibility: hidden; font-family: &quot;Helvetica Neue&quot;, sans-serif; font-size: 12px; font-weight: 200;" fill="rgb(50, 49, 63)" stroke="none" stroke-width="1px">0.88</text></g><line x1="48.8125" y1="0" x2="48.8125" y2="177" fill="rgb(0, 0, 0)" stroke="rgb(204, 204, 204)" stroke-width="1px"></line></g></g><g transform="translate(48, 0)" clip-path="url(#clip_0)"><clipPath id="clip_0"><rect width="281" height="177"></rect></clipPath><g><g><g><line x1="0" y1="0" x2="0" y2="177" fill="rgb(0, 0, 0)" stroke="rgb(60, 60, 60)" stroke-width="1px" opacity="0.25"></line><line x1="35.1484375" y1="0" x2="35.1484375" y2="177" fill="rgb(0, 0, 0)" stroke="rgb(60, 60, 60)" stroke-width="1px" opacity="0.25"></line><line x1="70.296875" y1="0" x2="70.296875" y2="177" fill="rgb(0, 0, 0)" stroke="rgb(60, 60, 60)" stroke-width="1px" opacity="0.25"></line><line x1="105.4453125" y1="0" x2="105.4453125" y2="177" fill="rgb(0, 0, 0)" stroke="rgb(60, 60, 60)" stroke-width="1px" opacity="0.25"></line><line x1="140.59375" y1="0" x2="140.59375" y2="177" fill="rgb(0, 0, 0)" stroke="rgb(60, 60, 60)" stroke-width="1px" opacity="0.25"></line><line x1="175.7421875" y1="0" x2="175.7421875" y2="177" fill="rgb(0, 0, 0)" stroke="rgb(60, 60, 60)" stroke-width="1px" opacity="0.25"></line><line x1="210.890625" y1="0" x2="210.890625" y2="177" fill="rgb(0, 0, 0)" stroke="rgb(60, 60, 60)" stroke-width="1px" opacity="0.25"></line><line x1="246.0390625" y1="0" x2="246.0390625" y2="177" fill="rgb(0, 0, 0)" stroke="rgb(60, 60, 60)" stroke-width="1px" opacity="0.25"></line><line x1="281.1875" y1="0" x2="281.1875" y2="177" fill="rgb(0, 0, 0)" stroke="rgb(60, 60, 60)" stroke-width="1px" opacity="0.25"></line></g><g><line x1="0" y1="177" x2="281.1875" y2="177" fill="rgb(0, 0, 0)" stroke="rgb(60, 60, 60)" stroke-width="1px" opacity="0.25"></line><line x1="0" y1="159.30000000000007" x2="281.1875" y2="159.30000000000007" fill="rgb(0, 0, 0)" stroke="rgb(60, 60, 60)" stroke-width="1px" opacity="0.25"></line><line x1="0" y1="141.60000000000005" x2="281.1875" y2="141.60000000000005" fill="rgb(0, 0, 0)" stroke="rgb(60, 60, 60)" stroke-width="1px" opacity="0.25"></line><line x1="0" y1="123.90000000000003" x2="281.1875" y2="123.90000000000003" fill="rgb(0, 0, 0)" stroke="rgb(60, 60, 60)" stroke-width="1px" opacity="0.25"></line><line x1="0" y1="106.20000000000002" x2="281.1875" y2="106.20000000000002" fill="rgb(0, 0, 0)" stroke="rgb(60, 60, 60)" stroke-width="1px" opacity="0.25"></line><line x1="0" y1="88.5" x2="281.1875" y2="88.5" fill="rgb(0, 0, 0)" stroke="rgb(60, 60, 60)" stroke-width="1px" opacity="0.25"></line><line x1="0" y1="70.79999999999998" x2="281.1875" y2="70.79999999999998" fill="rgb(0, 0, 0)" stroke="rgb(60, 60, 60)" stroke-width="1px" opacity="0.25"></line><line x1="0" y1="53.100000000000065" x2="281.1875" y2="53.100000000000065" fill="rgb(0, 0, 0)" stroke="rgb(60, 60, 60)" stroke-width="1px" opacity="0.25"></line><line x1="0" y1="35.400000000000034" x2="281.1875" y2="35.400000000000034" fill="rgb(0, 0, 0)" stroke="rgb(60, 60, 60)" stroke-width="1px" opacity="0.25"></line><line x1="0" y1="17.700000000000017" x2="281.1875" y2="17.700000000000017" fill="rgb(0, 0, 0)" stroke="rgb(60, 60, 60)" stroke-width="1px" opacity="0.25"></line><line x1="0" y1="0" x2="281.1875" y2="0" fill="rgb(0, 0, 0)" stroke="rgb(60, 60, 60)" stroke-width="1px" opacity="0.25"></line></g></g></g><g><g><line x1="0" y1="778.8000000000002" x2="281.1875" y2="778.8000000000002" fill="rgb(0, 0, 0)" stroke="rgb(153, 153, 153)" stroke-width="1.5px"></line></g></g><g><g><line x1="35.1484375" y1="0" x2="35.1484375" y2="177" fill="rgb(0, 0, 0)" stroke="rgb(153, 153, 153)" stroke-width="1.5px"></line></g></g><g><g><g><g><g><path stroke="rgb(255, 112, 67)" stroke-width="2px" d="M44.28703125,177.0091194896372L44.919703125,176.72960507329165L45.060296875,173.19489200460853L45.13059375,169.29065028266615L45.200890625,166.70737347100462L45.69296875,165.2646634538532L46.044453125000004,161.0873113038997L46.185046875000005,160.17879372673335L46.25534375,157.16914886225862L46.53653125,152.84308235263924L46.888015625,150.4379831906756L46.958312500000005,148.110423010519L47.169203125,145.54574994343938L47.590984375000005,144.4955916816997L47.66128125,141.99630683469155L47.801875,139.9196969474481L48.012765625,140.0400723412082L48.153359375,138.22264026629702L48.223656250000005,137.11022405245367L48.36425,134.3059284822581L48.50484375,134.32107935392014L48.575140624999996,131.2208037616718L49.067218749999995,128.7851434984046L49.62959375,127.53942359198251L49.699890624999995,125.9658719313446L49.7701875,126.30474560720886L50.051375,127.64156444032106L50.75434375,127.50694061069305L50.824640625,124.80329316488064L50.965234375,121.9437603758499L51.246421874999996,119.60176150181843L51.4573125,119.0568309342906L51.527609375,118.80622709610859L51.59790625,118.0942662480505L51.808796875,118.23574573007144L52.652359375,118.316295598603L53.074140625,117.78418143833701L53.28503125,117.12258707917337L53.425625000000004,117.4226991541376L53.495921875,117.36926155939466L53.636515625,115.67141243904874L53.917703125,117.56544984859643L54.198890625000004,115.0345849635375L54.339484375000005,112.83147880220878L54.69096875,111.35637771893609L55.675125,109.30339637594308L56.026609375,109.81859257224848L56.09690625,108.02903303808796L56.378093750000005,107.19006672221289L56.448390625,105.66436119174438L56.729578125,105.19642464296481L56.799875,103.43085356478167L56.94046875,101.33598809699689L57.151359375,103.13425583186843L57.50284375,103.1444700835183L57.57314062499999,102.1028260776455L57.6434375,102.51205979983004L57.994921874999996,101.88098140526952L58.06521875,102.84754022083256L58.135515625,101.8977500707524L58.346406249999994,102.261292729279L58.979078125,99.91051694919148L59.119671874999995,99.2799294422698L59.541453125,99.10786545149644L59.963234375,96.91691171179839L60.033531249999996,97.59265658955016L60.4553125,96.94915484453263L60.666203125,97.77906761060666L60.947390625,98.3406360197162L61.228578125,97.46969595352944L61.369171875,97.17057770506867L61.650359375,96.01884070840445L61.72065625,94.71778635682453L61.790953125,93.04019915950414L61.931546875,92.92653244925116L62.28303125,92.35021042776512L62.634515625,90.79681949817959L62.7048125,91.63270205104389L62.775109375,90.87221834844634L63.8295625,91.23277127154307L64.321640625,90.40677263827403L64.74342187500001,89.3641779234019L64.81371875,87.75174568044915L64.9543125,86.83300363628669L65.09490625000001,87.22451539367422L65.37609375000001,86.36504544644879L66.008765625,86.94449361064153L66.149359375,88.17102089780583L66.21965625,89.40169716815006L66.43054687499999,90.5279834332549L66.852328125,90.66183992762618L67.414703125,90.5850254549266L67.485,90.78333810543488L67.695890625,90.09264125100917L67.7661875,89.39222168161386L68.398859375,88.26923425910609L68.46915625,87.67392411854365L69.242421875,87.28677166245149L69.4533125,87.837229230721L69.52360937499999,88.08371706833336L69.664203125,87.40405512306823L69.804796875,86.98654926200894L70.78895312499999,86.40708014441083L71.1404375,85.25144340341905L71.28103125,83.50622351416327L71.49192187499999,82.46940961708208L71.632515625,82.8258946071353L71.984,82.37842319538674L72.05429687499999,82.75581559230118L72.476078125,82.49426282804394L72.616671875,80.85645370868471L72.68696875,79.18497401753255L72.8275625,78.72036293116263L72.897859375,78.92454698973457L73.10875,79.49309594503352L73.24934375000001,79.71545694255371L73.60082812499999,80.28357652854383L73.671125,79.64563003844525L74.30379687499999,78.33222242982143L74.444390625,78.40399287596018L74.725578125,79.93284020556476L74.79587500000001,79.51770518704609L74.86617187499999,80.32890074506524L75.147359375,79.54809686846605L75.428546875,79.92202632458914L75.49884375,79.93904664925013L75.709734375,79.48988794849024L75.85032812499999,78.5422399787176L75.920625,78.51448477181636L75.990921875,79.9857172283645L76.06121875000001,79.64825203608045L76.13151562499999,78.8046372178202L76.2018125,78.2466712519634L76.34240625000001,77.30277137057342L76.412703125,76.01755605883137L76.7641875,76.78715284912077L76.834484375,77.49666791123332L77.115671875,76.43566143047892L77.32656250000001,76.42279483682094L77.46715625,75.85166431672945L77.88893750000001,76.53426478630206L78.02953125,75.17051879183606L78.381015625,74.18151199834242L78.662203125,73.99980607189823L78.7325,73.05404320832382L78.87309375000001,72.80379153519851L79.71665625,71.65605527865411L80.208734375,72.35018078157249L80.27903124999999,73.18478524850873L80.419625,72.92814662578638L80.48992187500001,73.61265003380727L80.56021874999999,72.7361345762131L80.630515625,72.41669495194208L80.771109375,71.32423053237703L80.982,71.57920419395977L81.2631875,71.74710237539814L81.333484375,72.00707178465292L81.614671875,71.98662417825784L81.82556249999999,71.26258684830209L82.10674999999999,71.44347389961277L82.31764062500001,70.14404935132256L82.38793749999999,69.62798500098727L82.458234375,69.92894780341994L82.52853125,69.1849081347438L82.598828125,68.81604062317085L82.739421875,70.16422686280364L82.80971875,70.677409627411L82.880015625,69.66217439296975L83.09090624999999,70.16372006880052L83.161203125,69.28622240819148L83.2315,68.49341202537289L83.37209374999999,67.4153925422517L83.5126875,67.00403781419375L83.58298437500001,67.12773919970735L84.0750625,67.36165598039823L84.285953125,67.95364855158265L84.56714062500001,67.8122175346949L84.77803125,68.1313315351738L84.91862499999999,67.75680108170056L85.05921875,67.86300722717125L85.34040625,67.63487806143011L85.62159375,68.18569784769898L85.832484375,68.31823228231775L85.90278125,67.23343143917454L85.973078125,67.22494585572124L86.043375,68.51219668988023L86.46515624999999,68.0917448571558L86.8869375,67.42306948014803L87.02753125,66.8870398071479L87.097828125,67.52170854154456L87.37901562500001,67.35781588983045L87.58990625,66.2190598530056L87.66020312500001,66.90663541909876L87.87109375,66.28586756866403L87.941390625,66.36462727702416L88.0116875,65.21422657136165L88.15228125,65.9303125861765L88.292875,67.38316192944889L88.71465625,67.45090193520946L88.925546875,66.73559533745468L88.99584375,67.68041898203634L89.206734375,67.46857988255448L89.27703125000001,66.86237001545014L89.34732812499999,66.88424860479314L89.487921875,66.1527594804757L89.55821875,66.72705713038057L89.98,66.47425966465964L90.2611875,66.68028679771409L90.33148437499999,66.92535232920167L90.472078125,67.0599896181435L90.61267187499999,67.2250559323878L90.753265625,67.84089729731859L90.82356250000001,68.0668620579659L90.89385937499999,67.41110795737856L90.96415625,66.65911591987812L91.034453125,66.32214738332051L91.24534375,65.38705672459727L91.3859375,64.45955815191202L91.52653125,64.56519628660655L91.737421875,64.42361143529853L91.87801562499999,64.7248286192724L91.9483125,64.17533158012289L92.018609375,64.99223529558517L92.44039062499999,65.89138146649644L92.5106875,66.25312186636071L92.65128125000001,66.87866219153891L92.862171875,65.88362492501417L93.143359375,65.25045346694424L93.35425000000001,65.5024085085651L93.565140625,65.50963354907375L93.63543750000001,64.80486203725232L93.77603125,63.98654335409927L93.91662500000001,63.02007492112311L94.05721875,62.60552558181038L94.408703125,63.48646194528618L94.61959375,64.22563925727478L94.7601875,64.69871942612072L95.814640625,64.74961251667581L96.095828125,64.49534016387058L96.236421875,64.36927825801862L96.30671875,64.64081311942401L96.58790625,63.94822942999885L96.7285,64.8629347787066L96.798796875,63.95909706911387L97.0096875,63.98558655593196L97.15028124999999,63.045311986668935L97.290875,63.7709214564526L97.501765625,63.18904950925713L97.642359375,62.62138870478377L97.71265625,62.2241755062001L97.85324999999999,61.712718477212505L98.13443749999999,61.516454247568646L98.41562499999999,62.48359569560931L98.907703125,61.67860462015095L98.978,60.916301349264984L99.048296875,61.327523386699966L99.11859374999999,61.397828667775784L99.2591875,61.86965640586058L99.470078125,62.32373275428262L99.540375,62.50396999846181L99.61067187500001,62.687864629139355L99.8215625,63.46741559531529L99.89185937500001,62.56029813732788L99.96215624999999,62.56015141123798L100.032453125,63.591602911504424L100.594828125,63.42930571564375L100.66512499999999,63.16190323522045L100.87601562500001,62.27461894634098L101.36809375,62.45617328370092L101.578984375,62.07766296168806L102.14135937500001,60.95733961395875L102.21165624999999,60.27693139453886L102.35225,59.834858478103484L102.42254687500001,59.573460625035366L102.49284374999999,59.86363573001083L102.70373437500001,59.03320822649334L102.77403125,58.765623681124L102.914625,58.10224107967383L103.05521875,57.33650436164798L103.406703125,56.14924409932809L103.477,56.606179396710644L103.7581875,56.43691957753619L103.828484375,56.22697302745941L103.89878125,55.82629339722446L103.96907812500001,55.18684069283205L104.17996875,55.07980603352985L104.25026562500001,55.31354074919342L104.3205625,55.54913915841996L104.53145312500001,55.61445430620154L104.60175,57.126560732175605L105.164125,57.04958753428539L105.4453125,56.156318276881436L105.58590625,55.88941044650308L105.7265,54.90663421632941L105.796796875,54.65886948271164L106.0076875,54.101183105894535L106.218578125,53.664629037671375L106.288875,53.45433567600641L106.35917187499999,53.32256399845642L106.42946875,53.55115659710627L106.64035937499999,53.42930390869165L107.20273437499999,52.64525766335771L107.343328125,52.936080091474054L107.483921875,52.41695868042109L107.624515625,54.22701691351092L107.6948125,54.17151242543221L107.90570312499999,55.03045270561273L108.046296875,54.7156168017426L108.18689062499999,54.58907557802493L108.538375,54.88275457915033L109.030453125,54.42794529041724L109.10075,53.67970388680989L109.311640625,53.36996026542947L109.45223437499999,53.23761981918031L109.874015625,54.24693453270423L109.94431250000001,55.88640468395681L110.08490625,57.74085511913911L110.22550000000001,58.125410160760694L110.5066875,57.70105949387751L110.787875,56.51182916240374L110.92846875000001,56.426770340207824L111.27995312499999,55.60227245880891L111.35025,55.50100570485506L111.420546875,54.99583279042642L111.912625,54.77152353962464L111.982921875,53.94846000893308L112.404703125,53.146193489810216L112.685890625,53.23288683146292L112.75618750000001,53.15352816356082L112.82648437499999,53.43553068786089L113.45915625,52.74674174776534L113.59975,51.89868755874993L113.810640625,52.489613236568744L114.232421875,51.85766413841927L114.30271875,53.03077742127297L114.58390625,52.662029483520385L114.794796875,52.67899475418186L114.86509375,52.30286251201123L114.935390625,51.93547074124709L115.919546875,52.409240720176356L116.1304375,52.91956396446216L116.341328125,52.77885640009025L116.411625,52.13490263563075L116.481921875,51.863239091210744L116.69281249999999,53.87959778033168L116.763109375,54.84862654582035L116.83340625,56.261603131032615L117.887859375,55.692535832522125L118.09875,55.14336185541012L118.23934374999999,56.682394157461175L118.309640625,57.19802021161682L118.45023437500001,56.753405932223785L118.52053124999999,56.10362205273749L118.73142187500001,55.30814631508834L118.9423125,55.70711974284461L119.01260937500001,55.60980003011633L119.153203125,56.061019848862685L119.293796875,56.848792717424814L119.434390625,56.299296951130145L119.574984375,56.31805753943472L119.78587499999999,56.450522911271975L119.92646875,55.841268760404304L120.06706249999999,55.35696658159283L120.20765625,54.96134227043896L120.34825,54.597102157990264L120.48884375,54.447904688579385L121.1918125,53.878782004536475L121.473,54.12966173588501L121.7541875,54.004528174531885L121.82448437500001,53.71231223925351L121.89478125,53.23465292257549L122.035375,53.53543120175128L122.246265625,53.5729433756389L122.45715625,53.19270279087955L122.59775,52.61648761996814L122.80864062500001,52.92424083457868L123.23042187499999,52.40687310068884L123.371015625,52.449885431631756L123.51160937499999,52.365877420959606L123.58190625,53.46185597247499L123.792796875,55.770685844553626L123.86309375,55.86125695628637L123.93339062499999,56.52295224493477L124.14428125,56.939981016507375L124.70665625,56.836353726555814L125.058140625,56.586458084635396L125.198734375,57.1330917376586L125.620515625,57.26855299977976L125.901703125,56.384797989398336L125.97200000000001,56.365736047119L126.04229687499999,57.301882922952885L126.11259375,56.2268392891838L126.534375,56.49788161189541L126.745265625,56.500057373267495L127.23734375000001,56.39419074558573L127.3779375,56.26071617063765L127.58882812499999,56.28423808255367L127.659125,56.2224152878409L127.870015625,56.398077093720374L127.9403125,55.9753058432525L128.291796875,56.231592156337655L128.36209375,56.13298058718661L128.432390625,55.9878823656822L128.64328125,56.23974456602441L128.854171875,55.41749815840724L128.92446875000002,55.51220546855396L128.99476562499999,55.356140799289406L129.0650625,54.81584563249953L129.135359375,54.39437441927193L129.557140625,53.73784276846746L129.978921875,54.49517285274678L130.400703125,54.00048916127133L130.681890625,54.57103044165858L130.822484375,54.69028206101605L131.17396875,55.02909300692515L131.45515625000002,54.340923228141364L131.947234375,54.43765938000027L132.087828125,53.36243216544672L132.29871875,54.50167859857687L132.4393125,53.84702369834254L132.509609375,53.28614457934175L132.7205,53.10692163996127L132.790796875,52.82420738460338L132.931390625,53.21625256967674L133.0016875,54.390409021500346L133.212578125,53.895968348640125L134.407625,54.28277117326594L134.477921875,55.86655464919649L134.54821875,55.1027804574651L134.61851562500001,55.29998366744961L134.899703125,56.13907959195376L135.11059375,56.38407618524583L135.39178125,55.46790403259858L135.462078125,55.57341000058415L135.532375,54.6134384765636L135.8135625,53.73301019433784L135.88385937500001,53.80889461695001L135.95415624999998,53.35824290335991L136.09475,52.813376146068904L136.23534375,51.43815038450376L136.3759375,51.33168751314196L136.51653124999999,52.34286614704658L137.07890625,51.848405718189966L137.430390625,51.066441541686046L137.5006875,50.334344226528046L138.133359375,50.623739133573636L138.20365625,50.90209747085325L138.97692187500002,51.65479323546839L139.32840625,51.48039178060678L139.53929687500002,51.43354736217712L139.60959375,51.08827927554785L139.820484375,51.75211257611443L139.961078125,51.36110989066236L140.031375,50.474783901061315L140.59375,50.32499372202963L140.664046875,50.198958655853616L140.73434375,50.17299799871316L140.80464062500002,49.75047758338991L141.01553124999998,50.37458934660552L141.156125,51.663613707564025L141.226421875,52.904089559452416L141.29671875,53.80559608359795L141.85909375,54.247144464428274L142.210578125,54.5167943189647L142.280875,54.28731500319577L142.491765625,54.15097975212561L142.98384374999998,54.31666564244183L143.1244375,54.54399818531958L143.82740625,54.89359771868203L144.178890625,54.214263057261434L144.2491875,53.80935523999675L144.38978125,54.5435862516256L144.46007812500002,53.55585517871101L144.881859375,54.252780988773665L144.95215625,53.90911464251401L145.3739375,53.01266026449821L145.444234375,52.679163559665014L146.07690624999998,51.91245201113348L146.35809375,50.79803774468647L146.49868750000002,50.63162213251033L146.779875,51.33560640586727L147.412546875,51.22721222044247L147.55314062500003,50.61878698687396L147.76403125,50.430723056328645L147.904625,50.98164329195713L147.974921875,50.72194197950762L148.32640625,51.02279428363033L148.537296875,51.57232565372456L148.88878125,51.22386657082154L149.02937500000002,51.19152465974551L149.3105625,51.059624442611394L149.45115625,50.292830287570325L149.521453125,49.235477244571314L149.59175000000002,48.70365434986198L149.73234374999998,47.78822122514046L149.8729375,47.21244465242336L150.224421875,46.75264717712733L150.4353125,46.54847516560494L150.57590625,46.11509558682542L150.786796875,46.16729093989386L150.9976875,45.34226252746441L151.278875,45.768620301970316L151.489765625,45.990816325355354L151.77095312499998,46.233861957509305L151.84125,45.525355370466485L151.911546875,44.62995841448591L152.403625,44.078826776742545L152.54421875,44.42700563133542L152.68481250000002,45.44412113180758L152.89570312499998,44.42521400973678L152.966,43.45579883815739L153.38778125,44.76923389411675L153.458078125,44.942799679419466L153.739265625,45.69978654266697L154.020453125,46.17577020569368L154.23134375,46.69138781291409L154.30164062499998,47.01755241651L154.3719375,46.895478688070455L154.442234375,47.44603595303175L154.582828125,46.73632969929335L154.79371875,46.58114100109884L155.28579687500002,46.52293040774316L155.35609374999999,46.20932854636081L155.707578125,45.82837957320294L155.84817187500002,46.803226476297965L155.91846875,46.31552314264894L155.98876562499998,46.15761184523993L156.6214375,46.3514994874655L156.902625,45.6764452651276L156.972921875,44.965980730613495L157.04321875,44.99184033277538L157.113515625,45.09998400855122L157.254109375,44.6323974463086L157.60559375,44.90474728834795L157.675890625,45.42613080944892L157.81648437500002,44.97245441204211L157.88678125,45.622967208720326L157.95707812499998,45.12630079887583L158.16796875,44.809707189963575L158.3085625,44.77339725359721L158.37885937500002,44.405642199227174L158.44915625,44.64362892844335L159.081828125,44.02108314003195L159.29271875,43.63229550999756L159.925390625,43.45902863200382L160.34717187500002,42.702901308987634L160.41746875,42.57488556041167L160.83925,42.42672713478345L160.90954687500002,43.14979629511299L160.97984375000001,42.361207982326476L161.12043749999998,43.29734882713521L161.54221875,46.18987282575665L161.964,50.54106176389507L162.03429687500002,52.883021149035415L162.596671875,54.421776369867004L162.66696875,54.23306216045074L162.877859375,53.47112454134232L163.08874999999998,54.4707274845743L163.3699375,53.7568409942382L163.51053125,53.68717383422555L163.79171875,54.17448609513875L164.21349999999998,53.845092672198916L164.4946875,54.612629761522456L164.56498437500002,54.702849835501524L164.77587499999998,54.38686370385902L164.91646875,53.869292278354195L165.12735937500003,54.15756738101541L165.408546875,54.69929905983301L165.549140625,55.15454984617192L165.689734375,54.56930709172201L165.76003125,55.26678029109064L165.830328125,53.98372084551775L166.32240625,54.29310649223403L166.463,55.19078435856238L166.53329687500002,55.39732222179791L166.955078125,55.49640089611866L167.025375,54.648001586590425L167.095671875,54.333806710562214L167.236265625,53.98673849000366L167.37685937499998,53.62184307335487L168.220421875,53.14948649978989L168.85309375,53.07210393991498L169.13428125000002,53.08747282462895L169.485765625,53.09636196626725L169.5560625,52.396725132744095L169.90754687499998,51.47816303145608L169.97784375,51.64121089847664L170.048140625,51.24666785493362L170.329328125,51.03402622921497L170.399625,51.0388302423281L170.82140625000002,52.01764409827854L171.10259375,51.50558575722988L171.172890625,51.335177696679935L171.2431875,51.03481992568088L171.38378125,50.01002878860946L171.454078125,50.31102493094279L171.8055625,49.37603533478543L172.016453125,49.5429962578897L172.157046875,49.56618412696591L172.3679375,49.68669891406708L172.578828125,50.175169265444865L172.78971875000002,50.08865142796871L172.93031249999999,49.17082735778057L173.35209375000002,49.39223866891001L173.42239062500002,49.24428304920039L173.56298437499998,49.34478073580216L173.703578125,49.74131161406747L174.33625,50.61382352645063L174.406546875,50.450768774210545L174.47684375,49.613201655259786L174.547140625,49.97794332146644L175.53129687499998,49.61674882424842L175.812484375,49.9927026608801L176.09367187499998,49.650574319352856L176.16396874999998,50.371225867627714L176.374859375,49.852795551910035L176.44515625,49.418571840625674L176.656046875,48.85252846717461L176.796640625,48.30541323733556L176.937234375,48.536824028534284L177.28871875,48.456898755469894L177.499609375,47.86136962144863L177.640203125,47.38022275920602L177.7105,46.599122131678854L177.85109375,46.599652560047645L178.06198437499998,46.12612114668997L178.272875,46.228063565075104L178.41346875,45.870792840701654L178.62435937499998,46.02710752865906L178.83525,45.98489370129752L178.905546875,47.20456061757821L179.1164375,47.40568682622461L179.327328125,48.250957219085365L179.889703125,48.2407971342021L179.96,49.112533909209915L180.10059375,47.900335908865L180.452078125,47.759201341239674L180.8035625,47.54776129319856L180.873859375,47.30389891876689L180.94415625,47.99985595229873L181.08475,48.49616028325235L181.155046875,48.23906027486666L181.295640625,50.11726154896492L181.436234375,50.11897131712078L181.64712500000002,50.393800970065556L181.71742187499999,51.58551600524645L181.998609375,51.38155237156339L182.35009374999998,51.379291433693325L182.4906875,51.38685350265368L182.91246875,51.27866303135983L182.982765625,51.13678297853612L183.0530625,51.70206374598072L183.123359375,51.04489736781268L183.19365625,52.1279789529671L183.404546875,51.986321603988415L183.54514062500002,52.01105599820028L183.75603124999998,52.167363876068265L183.826328125,51.62306409142562L184.03721875,51.29950004122034L184.17781250000002,51.12211231580358L184.31840624999998,50.67114353362996L184.388703125,49.84110709790616L184.459,49.475244139525884L184.74018750000002,49.10696411222271L185.021375,49.38555115484861L185.091671875,49.36900569898225L185.16196875,49.42273741393235L185.44315625,48.98924340817061L185.51345312499998,48.2910033473388L185.654046875,48.55750601971067L185.72434375,49.07873261091369L185.8649375,48.20510303564137L185.935234375,48.38663999224866L186.00553125,49.74250753816325L186.146125,48.55844829699717L186.216421875,48.9285867240425L186.35701562499997,48.52297626277962L186.56790625,49.12847696992496L186.70850000000002,48.180610039813985L186.778796875,49.07095804768146L187.200578125,49.20179051137329L187.27087500000002,48.526832843922875L187.34117187500001,48.38641436302751L187.622359375,48.01348060795411L187.762953125,47.09579967973269L187.903546875,46.00501175737216L188.184734375,46.155269391080765L188.6768125,46.29912381450515L188.887703125,47.516140273286396L189.028296875,47.67613748350544L189.168890625,47.38738720839697L189.2391875,46.74880735694313L189.520375,47.517969435581534L189.66096875,47.62615653503954L189.731265625,47.338217987451L189.80156250000002,47.56251865668489L190.01245312499998,47.30133341393281L190.08275,46.48311361914011L190.293640625,46.650803240296625L190.36393750000002,46.225620106011434L190.57482812499998,45.92366839788153L190.78571875,46.67665415736903L191.06690625,46.64945202544678L191.48868750000003,45.77221799209846L191.558984375,44.702237580932945L191.769875,44.25424079994508L191.840171875,44.6675717541396L191.980765625,44.25735404192028L192.121359375,44.69929361248856L192.19165625,45.56677685766243L192.33225000000002,44.9730021257368L192.402546875,44.34345543594773L192.54314062499998,45.4562343901535L192.6134375,45.98533867537154L192.683734375,45.60809236878916L192.75403125,44.88184996256146L192.89462500000002,44.01952637283128L193.03521875,44.93467809404248L193.10551562499998,44.92166424989858L193.386703125,45.02595252524381L193.457,46.01350389158375L193.59759375,45.967910886759995L193.808484375,47.304496761617344L193.949078125,47.335461203604495L194.15996875,46.867075072561875L195.00353125,45.889308671387056L195.28471875,46.81273436836008L195.49560937500002,46.99216415963849L195.84709375,47.069856645674406L195.9876875,46.66689297986068L196.19857812499998,46.071324022882095L196.62035937500002,45.87843637880593L196.69065625,45.15599930769076L196.83124999999998,45.23675972651586L197.042140625,45.35322207210373L197.25303125,46.1442083771156L197.323328125,45.18794045605708L197.393625,45.983951012517224L198.026296875,46.029238802324414L198.09659375,45.006619140208585L198.166890625,44.67791386486445L198.23718749999998,44.241282102219145L198.37778125,44.47702372310653L198.518375,44.146899518705766L198.729265625,44.02292042585714L199.08075,44.18745505175332L199.22134375000002,44.101065661154394L199.29164062499999,45.601271516375846L199.36193749999998,44.4719922817618L199.432234375,44.233077849472664L199.994609375,43.361363989256034L200.62728125,43.44379324411338L200.978765625,44.21965074682646L201.541140625,44.592645741354346L201.6114375,44.66366883648084L201.822328125,45.752976097805856L202.103515625,46.95782376957578L202.31440625000002,47.12774315359755L202.59559375,47.93096581458707L202.806484375,47.27665352937268L203.017375,46.958360261839175L203.08767187499998,46.81376210467704L203.15796875,46.71505343951489L203.2985625,46.42754035252847L203.8609375,45.43797388010722L204.00153125,45.11926804922004L204.142125,45.674591753264565L204.28271875000002,45.898406713720306L204.634203125,46.0348809641184L204.98568749999998,45.616563395810715L205.5480625,45.160117554174974L205.61835937499998,44.825623431386816L205.68865625,44.82312499103077L205.96984375000002,45.21406987480324L206.180734375,44.768173022666815L206.391625,46.57825950794091L206.954,46.67284359205212L207.09459375,47.31874655545005L207.37578125000002,46.66073527872487L207.446078125,46.74979966966552L207.516375,46.76493026091782L207.58667187499998,46.42006635698175L207.727265625,46.46804291883305L207.867859375,46.396740538189306L208.07874999999999,46.75933763328871L208.289640625,46.30839824498207L208.3599375,46.5134009898419L208.50053125000002,46.59174678279322L208.641125,46.42661487967763L209.133203125,46.70104327876555L209.414390625,46.832992897723756L209.554984375,46.14730989847229L209.695578125,45.40540816815533L209.836171875,45.54697320704801L209.90646875000002,45.42254997062611L210.0470625,46.31544706210286L210.257953125,46.08267608760423L210.398546875,46.996757148542684L210.6094375,47.2883377118728L210.75003125,48.37381457470687L210.960921875,48.0763233783552L211.03121875,48.214436621689515L211.10151562500002,48.94432539730556L211.804484375,48.01586115403947L211.87478124999998,47.031784929453494L212.015375,46.494331475516816L212.085671875,46.22313912028176L212.15596875,46.68713341420761L212.226265625,47.22864079705471L212.43715625,47.35962995893715L212.507453125,46.63602199351496L212.648046875,45.78174968803444L212.8589375,45.74976603631487L212.99953125,44.97746601166554L213.140125,44.49953596320941L213.28071874999998,43.95649046484431L213.913390625,43.57994316564239L213.9836875,43.39203340412905L214.19457812500002,43.67717794011074L214.335171875,44.228215224360554L214.475765625,43.8887632524966L214.616359375,44.326895791971964L214.75695312500002,43.54557508097511L214.82725,43.75604428784243L215.038140625,43.89225033148287L215.459921875,46.119664689313396L215.53021875,46.24043514362069L215.81140624999998,46.76440966018154L216.022296875,47.08574854392671L216.2331875,47.093634465577736L216.37378124999998,45.942776174615005L216.444078125,45.85103887612394L216.72526562500002,44.754751536485514L217.006453125,44.709033474281796L217.21734375,45.36021679351347L217.28764062500002,45.26161082174136L217.35793750000002,44.60537904205094L217.428234375,45.7874731780839L217.639125,44.51794135314739L217.9203125,43.0738812219513L218.06090625,42.761854977607754L218.34209375,42.05401656484463L218.412390625,41.60858906280674L218.552984375,41.853888525289534L218.62328125,42.31370717642872L218.974765625,41.84025942213583L219.18565625,43.261056520431794L219.25595312500002,43.685730457695L219.396546875,44.34797895419396L219.537140625,43.55651956566706L219.677734375,43.70400096403364L219.74803125,44.35600223410444L219.958921875,44.252146807242184L220.02921874999998,43.805709598968946L220.1698125,43.122930305339L220.380703125,43.077428360606916L220.45100000000002,43.01917970837519L220.59159375,43.16136433286715L221.013375,43.403554466326085L221.224265625,42.467991175771175L221.43515625,41.59628109361182L221.50545312499997,42.1215008957131L221.786640625,41.36339655391609L222.208421875,41.32813189143627L223.12228125,40.38510411805811L223.40346875,39.1393274510863L223.54406250000002,38.58824467334259L223.895546875,38.41525813757434L224.1064375,38.89179450373615L224.24703125,39.6545069668926L224.52821875,39.521671660764696L224.879703125,39.86258680653691L225.16089062499998,39.62080874510039L225.442078125,39.55982226773361L225.65296874999999,39.24611748824131L226.28564062499998,39.207482163916694L226.63712500000003,38.41782590515197L227.34009375,38.02688028223179L227.410390625,39.160213574714845L227.48068750000002,38.81424496576699L227.69157812499998,38.44611031142344L227.761875,38.98617815930396L228.11335937500002,38.45794095733197L228.25395312499998,38.110623803556535L228.535140625,38.62426607258536L228.6054375,37.500284965358446L228.67573437500002,36.77865866598617L228.74603125,36.209499110072585L228.81632812499998,36.438284203985745L228.88662499999998,36.145436928270556L228.956921875,35.95093310269462L229.519296875,35.71228810195689L229.7301875,35.69272100896114L230.15196875,35.298512939952786L230.43315625,34.21117760316969L231.136125,34.29082768136044L231.20642187500002,33.37462092657097L231.27671875000001,34.054263937786175L231.76879687500002,33.47153675397823L232.12028125,33.01658908693L232.33117187500002,33.175272342928025L232.471765625,32.77325717958638L232.5420625,31.878444164162403L232.612359375,31.93675481531099L232.68265625,31.7335305024356L232.96384375,32.297434283773015L233.52621875,32.06727323843825L233.596515625,31.36174082723079L233.80740625,31.626511167243734L233.94799999999998,30.724162934237768L234.018296875,31.121209596250736L234.158890625,30.8849183733671L234.51037499999998,30.68333485748036L235.002453125,29.856055883169034L235.143046875,29.449594018699685L235.3539375,29.468552195692155L235.49453125,29.267223776698273L235.846015625,28.78214428542279L236.05690625,28.698657489585003L236.26779687500002,28.819727489898014L236.90046875000002,28.506585211377825L236.970765625,29.00869244739303L237.18165625,28.342432125039466L237.392546875,28.337754956754566L237.533140625,28.213066160695632L237.60343749999998,28.26717973987573L238.02521875000002,28.009667539074314L238.23610937499998,27.79109260578403L238.30640625,27.10855006903435L238.447,26.688277843495086L238.657890625,26.05518618488955L238.798484375,25.63943907541335L238.939078125,25.93158591282159L239.14996875,26.5498556045971L239.220265625,25.593359273479507L239.2905625,25.15002272896035L239.782640625,24.71311200537724L240.13412499999998,24.758775060985215L240.27471875,24.701041323400148L240.345015625,23.81097873100552L240.4153125,23.148358435750936L240.6965,22.704963554297848L240.76679687499998,22.454866896899404L241.11828125000002,22.265780728868805L241.188578125,21.87246972408269L241.469765625,21.81122316757171L241.68065625,21.639546636026324L241.750953125,21.512093105784743L241.891546875,20.858150584845532L242.383625,19.661546045120076L242.453921875,20.92588225492412L242.80540625,20.651680141980478L243.64896875000002,20.417155593870177L244.000453125,20.481437705981108L244.141046875,20.115021034191955L244.21134375000003,19.581840138991595L244.422234375,18.61819656708704L244.49253125,18.706377247053894L245.125203125,18.834223707887674L245.546984375,18.784083516973595L245.82817187499998,18.89079454710682L245.89846875,18.70750708796467L245.968765625,19.153983327848806" style="fill: none;" fill="none"></path></g></g></g></g><g opacity="0.2"><g><g><g><path stroke="rgb(255, 112, 67)" stroke-width="2px" d="M38.311796875000006,219.2673385620118L38.452390625,147.2807395935059L38.874171875,55.254162597656276L38.944468750000006,159.31620483398441L39.014765625,135.55586700439457L39.08506250000001,162.64832382202152L39.155359375,156.73355941772465L39.717734375,226.01597671508796L39.928625,225.9180725097657L40.139515624999994,163.7151420593262L40.2098125,132.51408462524418L40.280109374999995,115.40448074340824L40.35040625,48.799237060546886L40.701890625,253.79376296997077L41.264265625,134.35738449096684L41.3345625,174.74118118286137L41.75634375,96.43132095336917L42.318718749999995,58.51876144409182L42.529609375,106.84630279541018L42.59990625,65.04795913696292L43.091984375,83.22100524902346L43.302875,40.78122024536134L43.44346875,11.858967590332043L44.00584375,-69.35088272094728L44.216734375,-19.055129241943376L44.28703125,54.15020828247073L44.919703125,167.9452789306641L45.060296875,59.720619964599635L45.13059375,41.34163742065431L45.200890625,80.33789520263674L45.69296875,116.08305816650395L46.044453125000004,15.970944213867199L46.185046875000005,128.0341232299805L46.25534375,48.76885299682618L46.53653125,-5.696269226074236L46.888015625,60.79756622314456L46.958312500000005,59.92318038940432L47.169203125,46.80739288330079L47.590984375000005,103.42978363037112L47.66128125,42.76631240844728L47.801875,56.23995666503909L48.012765625,144.96142272949223L48.153359375,62.86368255615237L48.223656250000005,90.3443801879883L48.36425,14.81634979248048L48.50484375,134.97519378662113L48.575140624999996,-4.359370422363298L49.067218749999995,20.92354660034181L49.62959375,71.69194107055667L49.699890624999995,54.568833160400416L49.7701875,141.8622482299805L50.051375,189.7239006042481L50.75434375,121.184204864502L50.824640625,-3.5828887939453296L50.965234375,-15.317889404296892L51.246421874999996,5.988091278076183L51.4573125,92.34635238647463L51.527609375,106.39729385375979L51.59790625,82.48841171264651L51.808796875,125.3805816650391L52.652359375,122.42319946289066L53.074140625,90.39839630126956L53.28503125,82.75849227905276L53.425625000000004,133.15214996337895L53.495921875,114.54359893798832L53.636515625,25.109795379638683L53.917703125,219.45639495849616L54.339484375000005,-7.667857360839861L54.69096875,30.021885681152355L55.675125,-4.794875335693376L56.026609375,138.67529754638676L56.09690625,7.024525451660168L56.378093750000005,59.48092346191409L56.448390625,18.259877014160168L56.729578125,78.19413070678713L56.799875,0.8194244384765739L56.94046875,-21.269789886474626L57.151359375,209.10893325805668L57.50284375,103.75050430297854L57.57314062499999,39.886578369140636L57.6434375,127.11584930419926L57.994921874999996,63.69418029785159L58.06521875,161.70641784667973L58.135515625,43.69809036254884L58.346406249999994,124.67499618530277L58.979078125,-45.901137542724626L59.119671874999995,59.93330841064456L59.541453125,88.3086479187012L59.963234375,-41.38741607666017L60.033531249999996,140.4915893554688L60.4553125,55.868595886230494L60.666203125,151.05173950195316L60.947390625,134.58357696533207L61.228578125,40.96014862060548L61.369171875,77.66072158813479L61.650359375,20.5082977294922L61.72065625,8.98260955810548L61.790953125,-18.062583160400408L61.931546875,85.361393737793L62.28303125,53.80585556030276L62.634515625,-13.59274978637697L62.7048125,148.07072525024418L62.775109375,39.28564910888673L63.8295625,115.80284957885746L64.321640625,33.86378173828126L64.74342187500001,17.675827789306652L64.81371875,-23.60598678588869L64.9543125,23.107823181152355L65.09490625000001,114.49633483886723L65.37609375000001,26.244133758544933L66.008765625,127.64588241577152L66.149359375,174.67703704833988L66.21965625,176.55072097778324L66.43054687499999,170.6021965026856L66.852328125,100.21582489013674L67.414703125,85.08118515014651L67.485,105.04689102172854L67.695890625,40.22755508422853L67.7661875,38.63745574951173L68.398859375,6.595772552490246L68.46915625,44.22137145996095L69.242421875,58.927258300781276L69.4533125,128.30082778930668L69.52360937499999,106.26562957763674L69.664203125,37.097996520996105L69.804796875,55.98000411987307L70.78895312499999,43.22882537841798L71.1404375,-1.1420356750488452L71.28103125,-47.386580657959L71.49192187499999,4.458760070800793L71.632515625,109.73278884887698L71.984,48.49877243041993L72.05429687499999,111.41741638183598L72.476078125,62.56996994018557L72.616671875,-44.280654144287126L72.68696875,-48.90240783691408L72.8275625,43.01276092529298L72.897859375,94.66229324340823L73.10875,123.43937759399418L73.24934375000001,96.9512260437012L73.60082812499999,124.44205169677738L73.671125,29.92398147583009L74.30379687499999,-24.311572265625017L74.444390625,84.02787094116213L74.725578125,200.047730255127L74.79587500000001,46.81752090454103L74.86617187499999,144.39087753295902L75.147359375,17.729843902587902L75.428546875,109.60112457275393L75.49884375,81.29330520629885L75.709734375,43.66433029174806L75.85032812499999,2.7741325378418082L75.920625,76.29006271362307L75.990921875,198.17404632568363L76.06121875000001,52.47570877075198L76.13151562499999,10.721253204345714L76.2018125,33.11430816650392L76.34240625000001,0.7822883605957145L76.412703125,-28.403292846679705L76.7641875,139.45177917480473L76.834484375,135.39381866455082L77.115671875,-10.328150939941423L77.32656250000001,75.36841278076174L77.46715625,28.95169143676759L77.88893750000001,132.70314102172856L78.02953125,-37.27543945312502L78.381015625,-7.529441070556658L78.662203125,58.95764236450198L78.7325,-5.3924285888672046L78.87309375000001,52.00644378662112L79.71665625,-23.90982742309572L80.208734375,130.25553588867191L80.27903124999999,142.93919448852543L80.419625,51.439274597167994L80.48992187500001,131.03201751708988L80.56021874999999,-0.922595214843767L80.630515625,45.524510192871105L80.771109375,-20.807276916503923L80.982,93.11945800781253L81.2631875,85.95557098388674L81.333484375,94.04448394775393L81.614671875,70.2503860473633L81.82556249999999,9.681443023681652L82.10674999999999,86.85358886718753L82.31764062500001,-40.735846710205095L82.38793749999999,25.521668243408214L82.458234375,95.69197540283206L82.52853125,5.393914031982433L82.598828125,37.14188461303712L82.739421875,186.10819702148441L82.80971875,114.87782363891606L82.880015625,-17.910662841796892L83.09090624999999,113.49028472900395L83.161203125,-6.628047180175798L83.37209374999999,-26.114360046386736L83.5126875,31.264256286621105L83.58298437500001,77.8902900695801L84.0750625,87.74147872924807L84.285953125,119.60085754394535L84.56714062500001,55.45672302246096L84.77803125,96.04645614624026L84.91862499999999,34.95085601806642L85.05921875,77.17795257568362L85.34040625,47.60075454711915L85.62159375,116.61984329223637L85.832484375,79.98679046630862L85.90278125,-28.39316482543947L85.973078125,66.47601013183596L86.043375,182.26292495727543L86.46515624999999,30.89289550781251L86.8869375,8.192623901367199L87.02753125,19.350327301025402L87.097828125,123.87150650024418L87.37901562500001,52.789677429199244L87.58990625,-35.118170928955095L87.66020312500001,128.16241149902348L87.87109375,10.920437622070324L87.941390625,73.39682464599612L88.0116875,-37.61304016113283L88.15228125,130.00571136474613L88.292875,197.52247695922856L88.71465625,73.52511291503909L88.925546875,2.527684020996105L88.99584375,152.57769470214848L89.206734375,48.41437225341798L89.27703125000001,12.280968475341808L89.34732812499999,68.85609512329104L89.487921875,0.1611030578613395L89.55821875,118.58805541992191L89.98,43.62381820678712L90.2611875,85.32088165283206L90.33148437499999,89.11888961791995L90.472078125,79.2643249511719L90.61267187499999,82.20145111083987L90.753265625,123.76685028076176L90.82356250000001,88.60573654174807L90.89385937499999,7.753742980957043L90.96415625,-1.813861083984392L91.034453125,35.61255340576173L91.24534375,-19.905883026123064L91.3859375,-20.213099670410173L91.52653125,74.2171943664551L91.737421875,51.476410675048854L91.87801562499999,92.29233627319338L91.9483125,13.84405975341798L92.018609375,139.87715606689457L92.44039062499999,148.38131790161137L92.5106875,99.4663513183594L92.65128125000001,124.35765151977543L92.862171875,-25.61808700561525L93.143359375,6.980637359619152L93.35425000000001,88.70701675415042L93.565140625,66.17554550170901L93.63543750000001,-0.2001296997070483L93.91662500000001,-26.25277633666994L94.05721875,24.28604965209962L94.408703125,144.97492675781254L94.61959375,132.6491249084473L94.7601875,108.52080230712893L95.814640625,69.46715240478518L96.095828125,40.90950851440431L96.236421875,52.66814117431643L96.30671875,89.86161117553713L96.58790625,-0.42294616699220455L96.7285,149.9342811584473L96.798796875,-20.155707550048845L97.0096875,66.45237808227542L97.15028124999999,-24.571524810791033L97.290875,131.42701034545902L97.501765625,8.901585388183605L97.642359375,9.627426910400402L97.71265625,25.119923400878918L97.85324999999999,13.908203887939464L98.13443749999999,43.16130523681642L98.41562499999999,152.98619155883793L98.907703125,-13.694029998779314L98.978,-10.500327301025408L99.048296875,99.87484817504885L99.11859374999999,67.99183731079104L99.2591875,106.14746932983401L99.470078125,104.95911483764651L99.540375,79.43650131225588L99.61067187500001,79.9732864379883L99.8215625,136.78135757446293L99.89185937500001,-22.79574508666994L99.96215624999999,62.546337890625026L100.032453125,160.74763183593754L100.594828125,48.134163665771496L100.66512499999999,37.94875030517579L100.87601562500001,-21.4284622192383L101.36809375,79.59179763793948L101.578984375,26.335285949707043L102.14135937500001,-44.88495941162111L102.21165624999999,-4.035273742675798L102.35225,18.030308532714855L102.42254687500001,34.84282379150392L102.49284374999999,87.32960586547854L102.70373437500001,-19.60541839599611L102.77403125,33.41477279663087L102.914625,-4.774619293212908L103.406703125,-56.48154373168947L103.477,99.97275238037112L103.7581875,40.36597137451173L103.828484375,36.28437881469728L103.89878125,17.75009994506837L103.96907812500001,-5.605117034912126L104.17996875,44.89994888305665L104.25026562500001,77.55268936157229L104.3205625,77.97469024658206L104.53145312500001,61.83400039672854L104.60175,201.171940612793L105.164125,49.71413497924807L105.4453125,-29.00422210693361L105.58590625,30.433758544921886L105.7265,-38.85878677368166L105.796796875,31.011055755615246L106.0076875,0.8531845092773551L106.218578125,11.966999816894543L106.288875,33.36075668334962L106.35917187499999,40.72720413208009L106.42946875,75.40892486572268L106.64035937499999,41.77376632690431L107.20273437499999,-22.37712020874025L107.343328125,80.77340011596682L107.483921875,2.709988403320324L107.624515625,227.60270004272468L107.6948125,48.853253173828136L107.90570312499999,137.3586547851563L108.046296875,24.529122161865246L108.18689062499999,42.45234375000001L108.538375,83.05895690917971L109.030453125,10.778645324707043L109.10075,-18.153735351562517L109.311640625,23.62435226440431L109.45223437499999,40.5246437072754L109.874015625,151.23404388427738L109.94431250000001,213.47411041259772L110.08490625,236.04609375000007L110.22550000000001,95.11130218505862L110.5066875,16.875714111328136L110.787875,-57.933226776123064L110.92846875000001,48.23881988525392L111.27995312499999,-23.788291168212908L111.35025,45.74732666015626L111.420546875,6.325691986083996L111.912625,33.154820251464855L111.982921875,-25.391894531250017L112.404703125,-24.210292053222673L112.685890625,61.594303894042994L112.75618750000001,45.49750213623048L112.82648437499999,80.64848785400393L113.45915625,-13.73791809082033L113.59975,-29.97988815307619L113.810640625,109.55723648071292L114.232421875,-9.187060546875017L114.30271875,166.37881164550785L114.58390625,17.024258422851574L114.794796875,54.319008636474635L114.86509375,15.93380813598634L114.935390625,16.4030731201172L115.919546875,98.24086074829104L116.1304375,102.29882125854495L116.341328125,39.16073684692384L116.411625,-10.203238677978533L116.481921875,25.558804321289074L116.69281249999999,249.16188125610358L116.763109375,148.71891860961918L116.83340625,193.16742782592777L117.887859375,0.5425918579101676L118.09875,1.9098747253418082L118.23934374999999,205.89835052490238L118.309640625,107.20078353881838L118.45023437500001,13.62799530029298L118.52053124999999,-6.935263824462908L118.73142187500001,-21.880847167968767L118.9423125,94.42934875488284L119.01260937500001,46.16257553100587L119.153203125,99.87147216796878L119.293796875,133.35133438110356L119.434390625,2.926052856445324L119.574984375,58.14064865112307L119.78587499999999,69.32198410034182L119.92646875,-3.3702003479004077L120.06706249999999,8.28040008544923L120.20765625,16.497601318359386L120.34825,19.178150939941418L120.48884375,39.93721847534181L121.1918125,-1.4830123901367358L121.473,78.5384834289551L121.7541875,41.82778244018556L121.82448437500001,25.271843719482433L121.89478125,6.737564849853527L122.035375,82.81926040649417L122.246265625,57.2257507324219L122.45715625,16.160000610351574L122.59775,-3.511992645263689L122.80864062500001,82.9070365905762L123.23042187499999,1.9942749023437614L123.371015625,56.641701507568385L123.51160937499999,44.17748336791993L123.58190625,160.3053749084473L123.792796875,280.8862197875977L123.86309375,64.69347839355471L123.93339062499999,121.0592926025391L124.14428125,97.61967544555667L124.70665625,46.72636871337892L125.058140625,32.202786254882824L125.198734375,110.47888641357424L125.620515625,70.49008255004885L125.901703125,-29.885359954834L125.97200000000001,54.50468902587893L126.04229687499999,148.71216659545902L126.11259375,-48.7606155395508L126.534375,82.97118072509768L126.745265625,56.712597656250026L127.23734375000001,46.05116729736329L127.3779375,43.218697357177746L127.58882812499999,58.58290557861331L127.659125,50.180023956298854L127.870015625,73.5690010070801L127.9403125,14.644173431396496L128.291796875,81.28992919921878L128.36209375,46.49004821777345L128.432390625,41.797398376464855L128.64328125,80.87468032836917L128.854171875,-25.017157745361345L128.92446875000002,64.77787857055667L128.99476562499999,40.085762786865246L129.0650625,1.9436347961425895L129.135359375,13.145226287841808L129.557140625,-10.523959350585955L129.978921875,128.63167648315434L130.400703125,5.569466400146496L130.681890625,110.43499832153323L130.822484375,66.36797790527346L131.17396875,88.21074371337893L131.45515625000002,-13.062716674804705L131.947234375,63.913620758056666L132.087828125,-51.97457427978517L132.29871875,166.12223510742191L132.4393125,-10.301142883300798L132.509609375,-1.678820800781267L132.7205,35.54165725708009L132.790796875,25.11317138671876L132.931390625,91.64751892089846L133.0016875,169.50161819458012L133.212578125,5.41754608154298L134.407625,92.21131210327151L134.477921875,211.18180160522468L134.54821875,-19.80460281372072L134.61851562500001,74.64257125854495L134.899703125,138.44910507202152L135.11059375,80.41891937255862L135.39178125,-34.41933746337892L135.462078125,65.92572097778323L135.532375,-39.58800430297853L135.8135625,-32.670565795898455L135.88385937500001,61.25670318603518L135.95415624999998,9.124401855468761L136.09475,-0.6727706909179858L136.23534375,-83.57062454223632L136.3759375,40.879124450683605L136.51653124999999,151.62903671264652L137.07890625,3.2940376281738395L137.430390625,-25.72611923217775L137.5006875,-21.5668785095215L138.133359375,79.0482604980469L138.20365625,78.2447708129883L138.97692187500002,125.5966461181641L139.32840625,34.34655075073243L139.53929687500002,46.83102493286134L139.60959375,17.162674713134777L139.820484375,116.9844520568848L139.961078125,12.935913848876964L140.031375,-36.63399810791017L140.59375,35.602425384521496L140.664046875,37.81033401489259L140.73434375,47.62101058959962L140.80464062500002,8.212879943847668L141.01553124999998,111.73476104736332L141.156125,178.40414886474613L141.226421875,174.87959747314457L141.29671875,142.45642547607426L141.85909375,97.67031555175784L142.210578125,81.03672866821292L142.280875,31.716641235351574L142.491765625,40.7407081604004L142.98384374999998,70.61499481201174L143.1244375,76.90787200927737L143.82740625,89.28768997192385L144.178890625,-12.623835754394548L144.2491875,13.96897201538087L144.38978125,126.79175262451176L144.46007812500002,-43.64258880615236L144.881859375,122.83844833374027L144.95215625,20.086296844482433L145.3739375,-35.21945114135744L145.444234375,19.853352355957043L146.07690624999998,-23.558722686767595L146.35809375,-58.905516815185564L146.49868750000002,34.24864654541017L146.779875,120.6440437316895L147.412546875,40.555027770996105L147.55314062500003,-9.28834075927736L147.76403125,31.912449645996105L147.904625,105.23257141113284L147.974921875,25.146931457519543L148.32640625,80.65186386108401L148.537296875,105.69508438110354L148.88878125,16.90272216796876L149.02937500000002,48.00587539672853L149.3105625,38.06691055297853L149.45115625,-25.24335021972658L149.8729375,-9.517909240722673L150.224421875,1.4473617553711051L150.4353125,26.42981414794923L150.57590625,3.4088218688964957L150.786796875,51.310986328125026L150.9976875,-35.965548706054705L151.278875,87.78874282836917L151.489765625,67.8905570983887L151.77095312499998,70.1896179199219L151.84125,-24.311572265625017L152.403625,-10.250502777099626L152.54421875,78.75117187500003L152.68481250000002,145.71764831542973L152.89570312499998,-56.029158782959L152.966,-52.12311859130861L153.38778125,174.2719161987305L153.458078125,62.0568168640137L153.739265625,120.34357910156254L154.020453125,93.11270599365237L154.23134375,97.53865127563479L154.30164062499998,79.18330078125003L154.3719375,34.85632781982423L154.442234375,101.74515609741213L154.582828125,-23.26163406372072L154.79371875,31.27438430786134L155.28579687500002,40.78122024536134L155.35609374999999,15.275486755371105L155.707578125,8.250016021728527L155.84817187500002,142.96957855224613L155.91846875,-1.7969810485840014L155.98876562499998,30.578926849365246L156.6214375,65.48008804321292L156.902625,-20.925437164306658L156.972921875,-25.131941986084L157.04321875,47.543362426757824L157.113515625,55.77069168090823L157.254109375,-1.5066444396972827L157.60559375,71.7797172546387L157.675890625,96.87695388793948L157.81648437500002,0.201615142822277L157.88678125,109.82056503295901L157.95707812499998,-3.890105438232439L158.16796875,13.563851165771496L158.3085625,41.18971710205079L158.37885937500002,8.108223724365246L158.44915625,68.13362960815432L159.081828125,-17.42789382934572L159.29271875,5.25549774169923L159.925390625,26.35554199218751L160.34717187500002,-31.9379722595215L160.41746875,29.937485504150402L160.83925,27.80047302246095L160.90954687500002,114.53347091674809L160.97984375000001,-35.49290771484377L161.12043749999998,135.7212913513184L161.54221875,331.7727745056153L162.596671875,206.357487487793L162.66696875,35.59904937744142L162.877859375,-21.76606292724611L163.08874999999998,153.17862396240238L163.3699375,-16.739188385009783L163.51053125,46.80739288330079L163.79171875,102.29882125854495L164.21349999999998,21.31516342163087L164.4946875,130.4142082214356L164.56498437500002,63.61315612792971L164.77587499999998,23.178719329833996L164.91646875,2.7505004882812614L165.12735937500003,82.63020401000979L165.408546875,108.20683364868167L165.549140625,100.12129669189456L165.689734375,-3.238536071777361L165.76003125,124.1618431091309L165.830328125,-72.75727386474611L166.32240625,84.85499267578128L166.463,143.86759643554691L166.53329687500002,75.80054168701174L166.955078125,65.28427963256838L167.025375,-29.16627044677736L167.095671875,23.293503570556652L167.236265625,19.69805603027345L167.37685937499998,17.57117156982423L168.220421875,6.4809883117675895L168.85309375,45.42660598754884L169.13428125000002,54.605969238281276L169.485765625,53.974655914306666L169.5560625,-16.732436370849626L169.90754687499998,-39.2841636657715L169.97784375,67.7521408081055L170.048140625,12.26071243286134L170.329328125,30.021885681152355L170.399625,51.51354675292971L170.82140625000002,148.74255065917973L171.10259375,0.903824615478527L171.172890625,34.49509506225587L171.2431875,21.35229949951173L171.38378125,-51.26561279296877L171.454078125,80.05768661499026L171.8055625,-43.02815551757814L172.016453125,66.04388122558596L172.157046875,51.85789947509768L172.3679375,61.59767990112307L172.578828125,98.45354919433596L172.78971875000002,41.53744583129884L172.93031249999999,-41.546088409423845L173.35209375000002,71.27669219970706L173.42239062500002,34.62000732421876L173.56298437499998,59.2783630371094L173.703578125,88.93658523559573L174.33625,136.85900573730473L174.406546875,34.33304672241212L174.47684375,-33.18034286499025L174.547140625,86.03321914672854L175.53129687499998,13.911579895019543L175.812484375,87.15742950439456L176.09367187499998,15.829151916503918L176.16396874999998,121.61295776367191L176.374859375,-1.3986122131347827L176.44515625,6.491116333007824L176.656046875,-7.107440185546892L176.796640625,-5.784045410156267L176.937234375,71.41510848999026L177.28871875,40.555027770996105L177.499609375,-11.01685638427736L177.7105,-30.62808151245119L177.85109375,46.6520965576172L178.06198437499998,-0.6930267333984546L178.272875,56.30747680664065L178.41346875,10.545700836181652L178.62435937499998,61.482895660400416L178.83525,41.81090240478517L178.905546875,167.80348663330082L179.1164375,67.29300384521487L179.327328125,131.8321311950684L179.889703125,47.236145782470714L179.96,135.31279449462895L180.10059375,-71.96728820800783L180.452078125,33.803013610839855L180.8035625,26.639126586914074L180.873859375,23.18884735107423L180.94415625,116.82240371704106L181.08475,97.57578735351565L181.155046875,22.81411056518556L181.295640625,235.8570373535157L181.436234375,50.288056182861354L181.64712500000002,77.57294540405276L181.71742187499999,169.4408500671387L181.998609375,31.210240173339855L182.35009374999998,51.15569000244143L182.4906875,52.13473205566409L182.91246875,40.57865982055665L182.982765625,37.10474853515626L183.0530625,107.60928039550784L183.123359375,-13.950606536865251L183.19365625,159.24868469238285L183.404546875,37.97575836181642L183.54514062500002,54.45742492675784L183.75603124999998,67.6272285461426L183.826328125,-2.212229919433611L184.03721875,19.296311187744152L184.17781250000002,33.57682113647462L184.31840624999998,6.06573944091798L184.388703125,-32.25869293212892L184.459,13.28701858520509L184.74018750000002,12.679337310791027L185.021375,76.94163208007815L185.091671875,47.7324188232422L185.16196875,54.73763351440432L185.44315625,6.109627532958996L185.51345312499998,-20.77689285278322L185.654046875,74.91940383911135L185.72434375,100.63782577514651L185.8649375,-38.213969421386736L185.935234375,66.34434585571292L186.00553125,183.86652832031254L186.146125,-68.57102508544924L186.216421875,85.54369812011721L186.35701562499997,8.398560333251964L186.56790625,109.02720336914065L186.70850000000002,-45.58716888427736L186.778796875,137.14934234619145L187.200578125,62.14459304809573L187.27087500000002,-18.244887542724626L187.34117187500001,34.49509506225587L187.622359375,11.119622039794933L187.762953125,-43.689852905273455L187.903546875,-61.90678710937502L188.184734375,61.02038269042971L188.6768125,60.530861663818385L188.887703125,167.91827087402348L189.028296875,63.50512390136721L189.168890625,18.820294189453136L189.2391875,-16.428595733642595L189.520375,123.61492996215824L189.66096875,58.32970504760745L189.731265625,18.85067825317384L189.80156250000002,69.75411300659182L190.01245312499998,21.46033172607423L190.08275,-34.469977569580095L190.293640625,63.24179534912112L190.36393750000002,4.1582954406738395L190.57482812499998,16.048592376708996L190.78571875,121.17745285034184L191.06690625,43.958042907714855L191.48868750000003,-41.022807312011736L191.769875,-0.07184143066407955L191.840171875,85.56395416259768L191.980765625,3.6687744140625114L192.121359375,88.42680816650393L192.19165625,131.4000022888184L192.33225000000002,-13.778430175781267L192.402546875,-17.94779891967775L192.54314062499998,155.56208496093754L192.6134375,98.3387649536133L192.683734375,8.28040008544923L192.75403125,-26.978617858886736L192.89462500000002,-41.3063919067383L193.03521875,135.488346862793L193.10551562499998,43.633946228027355L193.386703125,55.345314788818385L193.457,143.7325561523438L193.59759375,41.456421661376964L193.808484375,179.56211929321293L193.949078125,50.39946441650393L194.15996875,0.5189598083496207L195.00353125,-50.86386795043947L195.28471875,138.1891525268555L195.49560937500002,64.74749450683596L195.84709375,54.75788955688479L195.9876875,6.791580963134777L196.19857812499998,-12.863532257080095L196.62035937500002,26.79104690551759L196.69065625,-26.333800506591814L196.83124999999998,53.2285583496094L197.042140625,56.878022003173854L197.25303125,124.41841964721684L197.323328125,-49.44256896972658L197.393625,124.75602035522465L198.026296875,50.51087265014651L198.09659375,-56.19120712280275L198.166890625,12.149304199218761L198.23718749999998,1.0321128845214957L198.37778125,67.80615692138674L198.518375,11.477478790283214L198.729265625,31.753777313232433L199.08075,60.47009353637698L199.22134375000002,35.551785278320324L199.29164062499999,194.06544570922856L199.36193749999998,-67.28476638793947L199.432234375,20.589321899414074L199.994609375,-42.90661926269533L200.62728125,51.601322937011744L200.978765625,121.00190048217777L201.541140625,81.50599365234378L201.6114375,51.692475128173854L201.822328125,153.55673675537113L202.103515625,166.19650726318363L202.31440625000002,63.94400482177737L202.59559375,127.42306594848637L202.806484375,-17.478533935546892L203.017375,15.457791137695324L203.08767187499998,32.50325088500978L203.15796875,36.94607620239259L203.2985625,17.972916412353527L203.8609375,-52.49785537719728L204.00153125,13.577355194091808L204.142125,100.63444976806643L204.28271875000002,68.04922943115237L204.634203125,59.541691589355494L204.98568749999998,4.215687561035168L205.5480625,-0.014449310302751428L205.61835937499998,11.72055130004884L205.68865625,44.57585220336915L205.96984375000002,83.90633468627932L206.180734375,0.6371200561523551L206.391625,225.72564010620124L206.954,56.03402023315432L207.09459375,111.245240020752L207.37578125000002,-18.464328002929705L207.446078125,55.56475524902346L207.516375,48.262451934814464L207.58667187499998,12.287720489501964L207.727265625,51.21645812988284L207.867859375,39.33966522216798L208.07874999999999,82.64708404541018L208.289640625,1.6769302368164176L208.3599375,66.80348281860354L208.50053125000002,54.34601669311526L208.641125,30.08265380859376L209.133203125,73.8627136230469L209.414390625,59.89279632568362L209.554984375,-21.718798828125017L209.695578125,-28.025180053710955L209.836171875,59.558571624755885L209.90646875000002,33.10755615234376L210.0470625,134.69160919189457L210.257953125,23.04367904663087L210.398546875,137.47006301879887L210.6094375,76.14827041625979L210.75003125,155.81190948486332L210.960921875,18.63123779296876L211.03121875,61.88464050292971L211.10151562500002,121.18758087158207L211.804484375,-43.88228530883791L212.015375,-6.702319335937517L212.085671875,19.380711364746105L212.15596875,92.6130569458008L212.226265625,100.82688217163088L212.43715625,60.32492523193362L212.507453125,-24.986773681640642L212.648046875,-38.774386596679705L212.8589375,42.58400802612306L212.99953125,-31.465331268310564L213.28071874999998,-9.79474182128908L213.913390625,6.308811950683605L213.9836875,24.79245071411134L214.19457812500002,71.90125350952151L214.335171875,98.7708938598633L214.475765625,10.289124298095714L214.616359375,87.69421463012698L214.75695312500002,-33.79140014648439L214.82725,64.58882217407229L215.038140625,57.37429504394534L215.459921875,266.595581817627L215.53021875,58.19466476440432L215.81140624999998,98.62910156250003L216.022296875,78.8929641723633L216.2331875,47.87421112060548L216.37378124999998,-67.97347183227541L216.444078125,36.77052383422853L216.72526562500002,-63.76021499633791L217.006453125,40.18366699218751L217.21734375,109.81718902587893L217.28764062500002,35.50114517211915L217.35793750000002,-20.351515960693376L217.428234375,162.79686813354496L217.639125,-81.14665145874022L217.9203125,-99.86661071777343L218.06090625,11.875847625732433L218.34209375,-28.011676025390642L218.412390625,-2.482310485839861L218.552984375,66.13503341674807L218.62328125,87.8292549133301L218.974765625,-5.024443817138689L219.18565625,183.90028839111332L219.25595312500002,85.72262649536135L219.396546875,109.90158920288088L219.537140625,-34.78732223510744L219.677734375,58.30269699096682L219.74803125,108.8955390930176L219.958921875,33.97181396484376L220.02921874999998,-0.3858100891113452L220.1698125,-24.463492584228533L220.380703125,38.573311614990246L220.45100000000002,37.2532928466797L220.59159375,57.235878753662135L221.013375,67.37740402221682L221.224265625,-50.14140243530275L221.43515625,-44.69252700805666L221.50545312499997,94.1120040893555L221.786640625,-33.679991912841814L222.208421875,37.837342071533214L223.12228125,-52.963744354248064L223.54406250000002,-15.962706756591814L223.895546875,21.291531372070324L224.1064375,86.06360321044924L224.24703125,115.15465621948246L224.52821875,26.372422027587902L224.879703125,73.60951309204104L225.16089062499998,15.687359619140636L225.442078125,33.52280502319337L225.65296874999999,8.192623901367199L226.28564062499998,35.38298492431642L226.63712500000003,-39.75005264282228L227.34009375,-0.6727706909179858L227.410390625,151.34882812500004L227.48068750000002,4.566792297363293L227.69157812499998,2.0044029235839957L227.761875,92.44763259887698L228.11335937500002,-13.832446289062517L228.25395312499998,3.7295425415039176L228.535140625,89.46999435424807L228.6054375,-73.76332397460939L228.74603125,-20.1320755004883L228.81632812499998,59.08593063354495L228.88662499999998,7.1561897277832145L228.956921875,16.696785736083996L229.519296875,12.088536071777355L229.7301875,33.75574951171876L230.15196875,-3.724681091308611L230.43315625,-73.42572326660158L231.136125,42.175511169433605L231.20642187500002,-57.32216949462892L231.27671875000001,101.3332832336426L231.76879687500002,-24.21366806030275L232.12028125,-12.019530487060564L232.33117187500002,48.88363723754884L232.471765625,-7.023040008544939L232.5420625,-56.70098419189455L232.612359375,37.709053802490246L232.68265625,11.615895080566418L232.96384375,88.11959152221682L233.52621875,9.283074188232433L233.596515625,-38.48067398071291L233.80740625,57.83680801391604L233.94799999999998,-58.60167617797853L234.018296875,70.42593841552737L234.158890625,7.493790435791027L234.51037499999998,10.72800521850587L235.002453125,-52.03871841430666L235.143046875,-10.787287902832048L235.3539375,31.34528045654298L235.49453125,9.337090301513683L235.846015625,-19.237433624267595L236.05690625,20.43402557373048L236.26779687500002,40.804852294921886L236.90046875000002,-2.492438507080095L236.970765625,78.71403579711917L237.18165625,-37.61304016113283L237.392546875,27.874745178222668L237.533140625,15.869664001464855L237.60343749999998,33.624085235595714L238.02521875000002,2.5175559997558707L238.23610937499998,6.153515625000011L238.30640625,-40.45901412963869L238.798484375,-15.517073822021501L238.939078125,54.85241775512698L239.14996875,87.75498275756838L239.220265625,-69.09430618286135L239.782640625,-18.538600158691423L240.13412499999998,29.279164123535168L240.27471875,18.985718536376964L240.345015625,-64.30037612915041L240.76679687499998,-2.30338211059572L241.11828125000002,3.547238159179699L241.188578125,-17.063285064697283L241.469765625,15.748127746582043L241.68065625,4.6444404602050895L241.750953125,8.894833374023449L241.891546875,-43.87890930175783L242.383625,-98.79641647338866L242.453921875,146.08900909423832L242.80540625,-6.493006896972673L243.64896875000002,-2.7996551513672046L244.000453125,26.84506301879884L244.141046875,-16.158515167236345L244.422234375,-76.77809829711916L244.49253125,27.43586425781251L245.125203125,31.49044876098634L245.546984375,13.820427703857433L245.82817187499998,29.45471649169923L245.89846875,0.5628479003906364L245.968765625,63.3532035827637" style="fill: none;" fill="none"></path></g></g></g></g></g></g><g transform="translate(48, 177)" clip-path="url(#clip_1)"><clipPath id="clip_1"><rect width="281" height="23"></rect></clipPath><g><g><line x1="0" y1="0" x2="0" y2="5" style="visibility: inherit;" fill="rgb(0, 0, 0)" stroke="rgb(204, 204, 204)" stroke-width="1px"></line><line x1="35.1484375" y1="0" x2="35.1484375" y2="5" style="visibility: inherit;" fill="rgb(0, 0, 0)" stroke="rgb(204, 204, 204)" stroke-width="1px"></line><line x1="70.296875" y1="0" x2="70.296875" y2="5" style="visibility: inherit;" fill="rgb(0, 0, 0)" stroke="rgb(204, 204, 204)" stroke-width="1px"></line><line x1="105.4453125" y1="0" x2="105.4453125" y2="5" style="visibility: inherit;" fill="rgb(0, 0, 0)" stroke="rgb(204, 204, 204)" stroke-width="1px"></line><line x1="140.59375" y1="0" x2="140.59375" y2="5" style="visibility: inherit;" fill="rgb(0, 0, 0)" stroke="rgb(204, 204, 204)" stroke-width="1px"></line><line x1="175.7421875" y1="0" x2="175.7421875" y2="5" style="visibility: inherit;" fill="rgb(0, 0, 0)" stroke="rgb(204, 204, 204)" stroke-width="1px"></line><line x1="210.890625" y1="0" x2="210.890625" y2="5" style="visibility: inherit;" fill="rgb(0, 0, 0)" stroke="rgb(204, 204, 204)" stroke-width="1px"></line><line x1="246.0390625" y1="0" x2="246.0390625" y2="5" style="visibility: inherit;" fill="rgb(0, 0, 0)" stroke="rgb(204, 204, 204)" stroke-width="1px"></line><line x1="281.1875" y1="0" x2="281.1875" y2="5" style="visibility: inherit;" fill="rgb(0, 0, 0)" stroke="rgb(204, 204, 204)" stroke-width="1px"></line></g><g transform="translate(0, 8)"><text x="0" y="0" dx="0em" dy="0.95em" style="text-anchor: middle; visibility: hidden; font-family: &quot;Helvetica Neue&quot;, sans-serif; font-size: 12px; font-weight: 200;" fill="rgb(50, 49, 63)" stroke="none" stroke-width="1px">-500</text><text x="35.1484375" y="0" dx="0em" dy="0.95em" style="text-anchor: middle; visibility: inherit; font-family: &quot;Helvetica Neue&quot;, sans-serif; font-size: 12px; font-weight: 200;" fill="rgb(50, 49, 63)" stroke="none" stroke-width="1px">0</text><text x="70.296875" y="0" dx="0em" dy="0.95em" style="text-anchor: middle; visibility: inherit; font-family: &quot;Helvetica Neue&quot;, sans-serif; font-size: 12px; font-weight: 200;" fill="rgb(50, 49, 63)" stroke="none" stroke-width="1px">500</text><text x="105.4453125" y="0" dx="0em" dy="0.95em" style="text-anchor: middle; visibility: inherit; font-family: &quot;Helvetica Neue&quot;, sans-serif; font-size: 12px; font-weight: 200;" fill="rgb(50, 49, 63)" stroke="none" stroke-width="1px">1k</text><text x="140.59375" y="0" dx="0em" dy="0.95em" style="text-anchor: middle; visibility: inherit; font-family: &quot;Helvetica Neue&quot;, sans-serif; font-size: 12px; font-weight: 200;" fill="rgb(50, 49, 63)" stroke="none" stroke-width="1px">1.5k</text><text x="175.7421875" y="0" dx="0em" dy="0.95em" style="text-anchor: middle; visibility: inherit; font-family: &quot;Helvetica Neue&quot;, sans-serif; font-size: 12px; font-weight: 200;" fill="rgb(50, 49, 63)" stroke="none" stroke-width="1px">2k</text><text x="210.890625" y="0" dx="0em" dy="0.95em" style="text-anchor: middle; visibility: inherit; font-family: &quot;Helvetica Neue&quot;, sans-serif; font-size: 12px; font-weight: 200;" fill="rgb(50, 49, 63)" stroke="none" stroke-width="1px">2.5k</text><text x="246.0390625" y="0" dx="0em" dy="0.95em" style="text-anchor: middle; visibility: inherit; font-family: &quot;Helvetica Neue&quot;, sans-serif; font-size: 12px; font-weight: 200;" fill="rgb(50, 49, 63)" stroke="none" stroke-width="1px">3k</text><text x="281.1875" y="0" dx="0em" dy="0.95em" style="text-anchor: middle; visibility: hidden; font-family: &quot;Helvetica Neue&quot;, sans-serif; font-size: 12px; font-weight: 200;" fill="rgb(50, 49, 63)" stroke="none" stroke-width="1px">3.5k</text></g><line x1="0" y1="0" x2="281.1875" y2="0" fill="rgb(0, 0, 0)" stroke="rgb(204, 204, 204)" stroke-width="1px"></line></g></g></g></g></svg>