<svg viewBox="0 0 330 200" xmlns="http://www.w3.org/2000/svg"><g><g><g><g><g><line x1="58.515625" y1="177" x2="53.515625" y2="177" style="visibility: inherit;" fill="rgb(0, 0, 0)" stroke="rgb(204, 204, 204)" stroke-width="1px"></line><line x1="58.515625" y1="163.3846153846154" x2="53.515625" y2="163.3846153846154" style="visibility: inherit;" fill="rgb(0, 0, 0)" stroke="rgb(204, 204, 204)" stroke-width="1px"></line><line x1="58.515625" y1="149.76923076923075" x2="53.515625" y2="149.76923076923075" style="visibility: inherit;" fill="rgb(0, 0, 0)" stroke="rgb(204, 204, 204)" stroke-width="1px"></line><line x1="58.515625" y1="136.15384615384613" x2="53.515625" y2="136.15384615384613" style="visibility: inherit;" fill="rgb(0, 0, 0)" stroke="rgb(204, 204, 204)" stroke-width="1px"></line><line x1="58.515625" y1="122.53846153846149" x2="53.515625" y2="122.53846153846149" style="visibility: inherit;" fill="rgb(0, 0, 0)" stroke="rgb(204, 204, 204)" stroke-width="1px"></line><line x1="58.515625" y1="108.92307692307686" x2="53.515625" y2="108.92307692307686" style="visibility: inherit;" fill="rgb(0, 0, 0)" stroke="rgb(204, 204, 204)" stroke-width="1px"></line><line x1="58.515625" y1="95.30769230769239" x2="53.515625" y2="95.30769230769239" style="visibility: inherit;" fill="rgb(0, 0, 0)" stroke="rgb(204, 204, 204)" stroke-width="1px"></line><line x1="58.515625" y1="81.69230769230775" x2="53.515625" y2="81.69230769230775" style="visibility: inherit;" fill="rgb(0, 0, 0)" stroke="rgb(204, 204, 204)" stroke-width="1px"></line><line x1="58.515625" y1="68.07692307692312" x2="53.515625" y2="68.07692307692312" style="visibility: inherit;" fill="rgb(0, 0, 0)" stroke="rgb(204, 204, 204)" stroke-width="1px"></line><line x1="58.515625" y1="54.46153846153851" x2="53.515625" y2="54.46153846153851" style="visibility: inherit;" fill="rgb(0, 0, 0)" stroke="rgb(204, 204, 204)" stroke-width="1px"></line><line x1="58.515625" y1="40.84615384615387" x2="53.515625" y2="40.84615384615387" style="visibility: inherit;" fill="rgb(0, 0, 0)" stroke="rgb(204, 204, 204)" stroke-width="1px"></line><line x1="58.515625" y1="27.230769230769255" x2="53.515625" y2="27.230769230769255" style="visibility: inherit;" fill="rgb(0, 0, 0)" stroke="rgb(204, 204, 204)" stroke-width="1px"></line><line x1="58.515625" y1="13.615384615384613" x2="53.515625" y2="13.615384615384613" style="visibility: inherit;" fill="rgb(0, 0, 0)" stroke="rgb(204, 204, 204)" stroke-width="1px"></line><line x1="58.515625" y1="0" x2="53.515625" y2="0" style="visibility: inherit;" fill="rgb(0, 0, 0)" stroke="rgb(204, 204, 204)" stroke-width="1px"></line></g><g transform="translate(48.515625, 0)"><text x="0" y="177" dx="0em" dy="0.3em" style="text-anchor: end; visibility: hidden; font-family: &quot;Helvetica Neue&quot;, sans-serif; font-size: 12px; font-weight: 200;" fill="rgb(50, 49, 63)" stroke="none" stroke-width="1px">0.255</text><text x="0" y="163.3846153846154" dx="0em" dy="0.3em" style="text-anchor: end; visibility: inherit; font-family: &quot;Helvetica Neue&quot;, sans-serif; font-size: 12px; font-weight: 200;" fill="rgb(50, 49, 63)" stroke="none" stroke-width="1px">0.26</text><text x="0" y="149.76923076923075" dx="0em" dy="0.3em" style="text-anchor: end; visibility: hidden; font-family: &quot;Helvetica Neue&quot;, sans-serif; font-size: 12px; font-weight: 200;" fill="rgb(50, 49, 63)" stroke="none" stroke-width="1px">0.265</text><text x="0" y="136.15384615384613" dx="0em" dy="0.3em" style="text-anchor: end; visibility: inherit; font-family: &quot;Helvetica Neue&quot;, sans-serif; font-size: 12px; font-weight: 200;" fill="rgb(50, 49, 63)" stroke="none" stroke-width="1px">0.27</text><text x="0" y="122.53846153846149" dx="0em" dy="0.3em" style="text-anchor: end; visibility: hidden; font-family: &quot;Helvetica Neue&quot;, sans-serif; font-size: 12px; font-weight: 200;" fill="rgb(50, 49, 63)" stroke="none" stroke-width="1px">0.275</text><text x="0" y="108.92307692307686" dx="0em" dy="0.3em" style="text-anchor: end; visibility: inherit; font-family: &quot;Helvetica Neue&quot;, sans-serif; font-size: 12px; font-weight: 200;" fill="rgb(50, 49, 63)" stroke="none" stroke-width="1px">0.28</text><text x="0" y="95.30769230769239" dx="0em" dy="0.3em" style="text-anchor: end; visibility: hidden; font-family: &quot;Helvetica Neue&quot;, sans-serif; font-size: 12px; font-weight: 200;" fill="rgb(50, 49, 63)" stroke="none" stroke-width="1px">0.285</text><text x="0" y="81.69230769230775" dx="0em" dy="0.3em" style="text-anchor: end; visibility: inherit; font-family: &quot;Helvetica Neue&quot;, sans-serif; font-size: 12px; font-weight: 200;" fill="rgb(50, 49, 63)" stroke="none" stroke-width="1px">0.29</text><text x="0" y="68.07692307692312" dx="0em" dy="0.3em" style="text-anchor: end; visibility: hidden; font-family: &quot;Helvetica Neue&quot;, sans-serif; font-size: 12px; font-weight: 200;" fill="rgb(50, 49, 63)" stroke="none" stroke-width="1px">0.295</text><text x="0" y="54.46153846153851" dx="0em" dy="0.3em" style="text-anchor: end; visibility: inherit; font-family: &quot;Helvetica Neue&quot;, sans-serif; font-size: 12px; font-weight: 200;" fill="rgb(50, 49, 63)" stroke="none" stroke-width="1px">0.3</text><text x="0" y="40.84615384615387" dx="0em" dy="0.3em" style="text-anchor: end; visibility: hidden; font-family: &quot;Helvetica Neue&quot;, sans-serif; font-size: 12px; font-weight: 200;" fill="rgb(50, 49, 63)" stroke="none" stroke-width="1px">0.305</text><text x="0" y="27.230769230769255" dx="0em" dy="0.3em" style="text-anchor: end; visibility: inherit; font-family: &quot;Helvetica Neue&quot;, sans-serif; font-size: 12px; font-weight: 200;" fill="rgb(50, 49, 63)" stroke="none" stroke-width="1px">0.31</text><text x="0" y="13.615384615384613" dx="0em" dy="0.3em" style="text-anchor: end; visibility: hidden; font-family: &quot;Helvetica Neue&quot;, sans-serif; font-size: 12px; font-weight: 200;" fill="rgb(50, 49, 63)" stroke="none" stroke-width="1px">0.315</text><text x="0" y="0" dx="0em" dy="0.3em" style="text-anchor: end; visibility: hidden; font-family: &quot;Helvetica Neue&quot;, sans-serif; font-size: 12px; font-weight: 200;" fill="rgb(50, 49, 63)" stroke="none" stroke-width="1px">0.32</text></g><line x1="58.515625" y1="0" x2="58.515625" y2="177" fill="rgb(0, 0, 0)" stroke="rgb(204, 204, 204)" stroke-width="1px"></line></g></g><g transform="translate(58, 0)" clip-path="url(#clip_0)"><clipPath id="clip_0"><rect width="271" height="177"></rect></clipPath><g><g><g><line x1="0" y1="0" x2="0" y2="177" fill="rgb(0, 0, 0)" stroke="rgb(60, 60, 60)" stroke-width="1px" opacity="0.25"></line><line x1="33.935546875" y1="0" x2="33.935546875" y2="177" fill="rgb(0, 0, 0)" stroke="rgb(60, 60, 60)" stroke-width="1px" opacity="0.25"></line><line x1="67.87109375" y1="0" x2="67.87109375" y2="177" fill="rgb(0, 0, 0)" stroke="rgb(60, 60, 60)" stroke-width="1px" opacity="0.25"></line><line x1="101.806640625" y1="0" x2="101.806640625" y2="177" fill="rgb(0, 0, 0)" stroke="rgb(60, 60, 60)" stroke-width="1px" opacity="0.25"></line><line x1="135.7421875" y1="0" x2="135.7421875" y2="177" fill="rgb(0, 0, 0)" stroke="rgb(60, 60, 60)" stroke-width="1px" opacity="0.25"></line><line x1="169.677734375" y1="0" x2="169.677734375" y2="177" fill="rgb(0, 0, 0)" stroke="rgb(60, 60, 60)" stroke-width="1px" opacity="0.25"></line><line x1="203.61328125" y1="0" x2="203.61328125" y2="177" fill="rgb(0, 0, 0)" stroke="rgb(60, 60, 60)" stroke-width="1px" opacity="0.25"></line><line x1="237.548828125" y1="0" x2="237.548828125" y2="177" fill="rgb(0, 0, 0)" stroke="rgb(60, 60, 60)" stroke-width="1px" opacity="0.25"></line><line x1="271.484375" y1="0" x2="271.484375" y2="177" fill="rgb(0, 0, 0)" stroke="rgb(60, 60, 60)" stroke-width="1px" opacity="0.25"></line></g><g><line x1="0" y1="177" x2="271.484375" y2="177" fill="rgb(0, 0, 0)" stroke="rgb(60, 60, 60)" stroke-width="1px" opacity="0.25"></line><line x1="0" y1="163.3846153846154" x2="271.484375" y2="163.3846153846154" fill="rgb(0, 0, 0)" stroke="rgb(60, 60, 60)" stroke-width="1px" opacity="0.25"></line><line x1="0" y1="149.76923076923075" x2="271.484375" y2="149.76923076923075" fill="rgb(0, 0, 0)" stroke="rgb(60, 60, 60)" stroke-width="1px" opacity="0.25"></line><line x1="0" y1="136.15384615384613" x2="271.484375" y2="136.15384615384613" fill="rgb(0, 0, 0)" stroke="rgb(60, 60, 60)" stroke-width="1px" opacity="0.25"></line><line x1="0" y1="122.53846153846149" x2="271.484375" y2="122.53846153846149" fill="rgb(0, 0, 0)" stroke="rgb(60, 60, 60)" stroke-width="1px" opacity="0.25"></line><line x1="0" y1="108.92307692307686" x2="271.484375" y2="108.92307692307686" fill="rgb(0, 0, 0)" stroke="rgb(60, 60, 60)" stroke-width="1px" opacity="0.25"></line><line x1="0" y1="95.30769230769239" x2="271.484375" y2="95.30769230769239" fill="rgb(0, 0, 0)" stroke="rgb(60, 60, 60)" stroke-width="1px" opacity="0.25"></line><line x1="0" y1="81.69230769230775" x2="271.484375" y2="81.69230769230775" fill="rgb(0, 0, 0)" stroke="rgb(60, 60, 60)" stroke-width="1px" opacity="0.25"></line><line x1="0" y1="68.07692307692312" x2="271.484375" y2="68.07692307692312" fill="rgb(0, 0, 0)" stroke="rgb(60, 60, 60)" stroke-width="1px" opacity="0.25"></line><line x1="0" y1="54.46153846153851" x2="271.484375" y2="54.46153846153851" fill="rgb(0, 0, 0)" stroke="rgb(60, 60, 60)" stroke-width="1px" opacity="0.25"></line><line x1="0" y1="40.84615384615387" x2="271.484375" y2="40.84615384615387" fill="rgb(0, 0, 0)" stroke="rgb(60, 60, 60)" stroke-width="1px" opacity="0.25"></line><line x1="0" y1="27.230769230769255" x2="271.484375" y2="27.230769230769255" fill="rgb(0, 0, 0)" stroke="rgb(60, 60, 60)" stroke-width="1px" opacity="0.25"></line><line x1="0" y1="13.615384615384613" x2="271.484375" y2="13.615384615384613" fill="rgb(0, 0, 0)" stroke="rgb(60, 60, 60)" stroke-width="1px" opacity="0.25"></line><line x1="0" y1="0" x2="271.484375" y2="0" fill="rgb(0, 0, 0)" stroke="rgb(60, 60, 60)" stroke-width="1px" opacity="0.25"></line></g></g></g><g><g><line x1="0" y1="871.3846153846154" x2="271.484375" y2="871.3846153846154" fill="rgb(0, 0, 0)" stroke="rgb(153, 153, 153)" stroke-width="1.5px"></line></g></g><g><g><line x1="33.935546875" y1="0" x2="33.935546875" y2="177" fill="rgb(0, 0, 0)" stroke="rgb(153, 153, 153)" stroke-width="1.5px"></line></g></g><g><g><g><g><g><path stroke="rgb(255, 112, 67)" stroke-width="2px" d="M41.80859375,-2.950491250921715L41.9443359375,1.8759470945800274L42.4873046875,10.315167709031073L42.69091796875,15.714325974836385L42.7587890625,19.314498589389757L43.36962890625,16.58706187019982L43.50537109375,18.624526445406588L43.5732421875,21.42878372639521L43.64111328125,22.662596856298933L44.1162109375,22.93481078414021L44.45556640625,25.650973996876985L44.59130859375,23.86862484533617L44.6591796875,25.263381601104925L44.9306640625,28.970265475974458L45.27001953125,29.447571997098436L45.337890625,30.646392295619023L45.54150390625,32.56002879615471L45.94873046875,32.81289691641652L46.0166015625,35.46964154831193L46.15234375,37.22627446674579L46.35595703125,35.74402805725589L46.49169921875001,36.66769478898743L46.55957031250001,36.391686970310445L46.69531249999999,38.95745692963726L46.83105468749999,38.202296966961285L46.89892578124999,41.28318554606233L47.3740234375,43.232182085316424L47.9169921875,43.761627115277605L47.98486328125,44.82623565482493L48.052734375,43.28766499974864L48.32421875,41.72092997580867L49.0029296875,39.544628422972835L49.07080078125,42.12600821983682L49.20654296875,44.434122080547496L49.47802734375,46.67699210772818L49.681640625,46.50018221759137L49.74951171875,46.68694297564184L49.8173828125,46.66305398888386L50.02099609375,46.227922060820134L50.83544921875,42.421272361488235L51.24267578125,43.32292680730143L51.4462890625,43.74756183613374L51.58203125,42.90698005376092L51.64990234375,41.922038828130724L51.78564453125,43.63223648206912L52.05712890625,41.93298623701389L52.32861328125,44.25758690292275L52.46435546875,46.019994882938846L52.8037109375,47.54938436573832L53.75390625,49.62899714330983L54.09326171875,46.836614531808294L54.1611328125,48.57182514515219L54.4326171875,49.20942337914727L54.50048828125,50.51341627745654L54.77197265625,51.65287214256679L54.83984375,53.51748730164468L54.97558593750001,55.86723280706131L55.17919921874999,50.58494073786068L55.5185546875,50.23319480536044L55.58642578125,51.310958293714734L55.654296875,51.144586094395734L55.99365234375,51.25216087321351L56.0615234375,50.199706351784045L56.12939453125,51.348336460637896L56.3330078125,50.75585816125934L56.94384765625,53.647912199201116L57.07958984375,54.369231946688174L57.48681640625,54.75485827703511L57.89404296875,57.62471388912249L57.9619140625,56.55483112112455L58.369140625,57.28100908043061L58.57275390625,56.2546218926458L58.84423828125,55.82327765163329L59.11572265625,56.4328177566956L59.25146484375,56.57014266827947L59.52294921875,57.220650515535354L59.5908203125,58.82588494470605L59.65869140625,60.91507833361719L59.79443359375,60.758190986390446L60.1337890625,61.43578825916137L60.47314453125,63.40628346002106L60.541015625,61.00902926259445L60.60888671875,61.45995125916302L61.626953125,60.945318860743924L62.10205078125,61.67785726365632L62.50927734375,63.24041277526712L62.5771484375,65.2788275329984L62.712890625,66.47751994297437L62.8486328125,65.29369639805203L63.1201171875,66.12553622790537L63.73095703124999,65.17370594429829L63.86669921874999,64.68806042507926L63.9345703125,64.34927292879479L64.13818359375,63.970618908856906L64.54541015625,63.72354160660211L65.08837890625,63.73819255372874L65.15625,64.36997273061561L65.35986328125,65.31972093154374L65.427734375,66.24818403534776L66.03857421875,67.79710705075672L66.1064453125,68.15527495076121L66.85302734375,69.17818341805797L67.056640625,67.44693834037317L67.12451171875,66.50204014593878L67.26025390625,67.91957890602167L67.39599609375,69.12615572259256L68.34619140624999,69.95275434556298L68.685546875,71.32313470062836L68.8212890625,73.57781796263453L69.02490234375,74.7042234783621L69.16064453125,73.34510841507137L69.5,74.10224057498174L69.56787109375,74.64219564179479L69.97509765625,75.53390771473865L70.11083984375,77.6993682019551L70.1787109375,79.84366612999865L70.314453125,79.90643041998472L70.38232421875,78.57909073978917L70.5859375,77.88359629859364L70.7216796875,77.51456392963873L71.06103515625,77.1750815441051L71.12890625,78.03782462185336L71.73974609375,79.82106920946227L71.87548828125,79.77643013600448L72.14697265625,77.57832253799775L72.21484375,78.24747830228064L72.28271484375,77.67284920293794L72.55419921875,78.71512711528729L72.82568359375,78.05214996905741L72.8935546875,77.89172605182952L73.09716796875,78.78714525041617L73.23291015625,80.12105769388668L73.30078125,81.02512437661197L73.36865234375,79.67302575645773L73.4365234375,80.66255218764805L73.50439453125,81.83344119166875L73.572265625,82.40242122167226L73.7080078125,83.59835098438673L73.77587890625,85.20032140767127L74.115234375,84.48465083546242L74.18310546875,83.41648980404968L74.45458984375,85.01854003051328L74.658203125,85.04942029361472L74.7939453125,85.90122440753456L75.201171875,85.31243671138095L75.3369140625,87.59481387432842L75.67626953125,89.08604733492339L75.94775390625,89.48402555868631L76.01562500000001,90.6080212883317L76.15136718750001,90.8051644840999L76.9658203125,92.6418463591951L77.44091796875,92.57393541735134L77.5087890625,92.49420240847681L77.64453125,92.81208297242364L77.71240234375,90.2878039631864L77.7802734375,91.43004551476757L77.84814453125,92.078557845724L77.98388671875,93.23938332540642L78.1875,92.22534091978655L78.458984375,92.44827418312215L78.52685546875,92.18185125676288L78.79833984375,92.27618932917272L79.001953125,93.07290963715658L79.2734375,92.31134776262381L79.47705078125,93.98455579076656L79.544921875,94.61658090669869L79.61279296875,94.58465061203356L79.6806640625,95.46863627340787L79.74853515625,95.94017105920143L79.88427734375,94.18733088450264L79.9521484375,94.55547248308511L80.02001953125,95.71368816604753L80.2236328125,94.74875281797614L80.29150390625,96.38402971226967L80.359375,97.45535398538026L80.4951171875,98.90812194541417L80.630859375,99.56205506370405L80.69873046875,99.70030046892299L81.173828125,100.29065949854406L81.37744140625,99.66644756923532L81.64892578125,100.3149328944664L81.8525390625,99.80172313943649L81.98828125,100.74355865646389L82.1240234375,101.2215302554236L82.3955078125,100.81039620816749L82.6669921875,100.42458773263218L82.87060546875,100.51737847816383L82.9384765625,102.12706765130349L83.00634765625,101.42298533837635L83.07421875,98.58656706449271L83.4814453125,98.76738821623611L83.888671875,99.55934092974316L84.0244140625,99.96824405303603L84.09228515625,98.1810426400605L84.36376953125001,98.7820063260987L84.5673828125,100.64930872513666L84.63525390625001,98.87891335340449L84.8388671875,99.66961303115814L84.90673828124999,99.86773562151116L84.974609375,101.57105625154317L85.1103515625,99.75154883823743L85.24609375,98.5001439336858L85.6533203125,98.1150122844355L85.85693359375,99.03900023583643L85.9248046875,98.50493529599454L86.12841796875,99.26519870988108L86.1962890625,99.75143097297573L86.26416015625,99.90857707087933L86.39990234375,100.88113688407502L86.4677734375,100.3358905283613L86.875,100.00877356371663L87.146484375,99.82259037444501L87.21435546875,99.84413836587424L87.35009765625,99.63464203610278L87.48583984375,100.20998043079703L87.62158203125,99.63308511439475L87.689453125,99.77782271880525L87.75732421875,100.65044332153998L87.8251953125,101.94953185823675L87.89306640625,102.62450016473699L88.0966796875,104.31332808446807L88.232421875,105.66380502134817L88.3681640625,105.7103830339035L88.57177734375,106.08912761248875L88.70751953125,105.61450708770349L88.775390625,106.07261298793479L88.84326171875,105.520571906915L89.25048828125,101.35607824930086L89.318359375,100.11632822994879L89.4541015625,100.02488294076711L89.65771484375,101.15783184985543L89.92919921875,101.94053303792572L90.1328125,101.97475053456822L90.33642578125,101.81713090226658L90.404296875,103.17888448507934L90.5400390625,104.43617874650415L90.67578125,105.75680752608832L90.8115234375,106.21554354110623L91.15087890625,105.28897806431114L91.3544921875,105.01725084017548L91.490234375,104.43300664242639L92.50830078125,104.7688266558462L92.77978515625,105.39194938022428L92.91552734375,104.0727152838101L92.98339843750001,103.22474308451102L93.25488281250001,104.12058894876083L93.39062499999999,102.4300936248575L93.45849609375,103.82292507968008L93.66210937499999,103.67026613952554L93.79785156249999,104.69590608784685L93.93359375,103.51022083746645L94.13720703125,104.40584453393369L94.27294921875,105.20370891966935L94.3408203125,105.47100677867608L94.4765625,106.03366333099912L94.748046875,105.83441400813432L95.01953125,105.85825996643459L95.49462890625,107.11393636397125L95.5625,108.15336430370229L95.63037109375,106.90581107008553L95.6982421875,106.52599014867859L95.833984375,106.59105020003351L96.03759765625,106.3201747070298L96.10546875,106.24257501364004L96.17333984375,106.37417839095626L96.376953125,104.35674759556294L96.44482421875,105.25520676654311L96.5126953125,105.37302098916248L96.58056640625,104.79425074015774L97.12353515625,104.64916892196993L97.19140625,104.45618443306587L97.39501953125,105.29961759201397L97.8701171875,104.94825649794205L98.07373046875,105.5600986885772L98.61669921875,107.09121985964566L98.6845703125,108.01358149155705L98.8203125,108.80477617116658L98.88818359375,109.71687940604117L98.9560546875,109.50049281893202L99.15966796875,110.7105082860617L99.2275390625,111.32727616550187L99.36328125,112.2390553799833L99.4990234375,113.31289550248923L99.83837890625,115.22085417401836L99.90625,114.28179863967142L100.177734375,115.00539116402146L100.24560546875,115.12880954358404L100.3134765625,115.57345017221701L100.38134765625,116.50159963330354L100.5849609375,115.76981761645618L100.65283203125,114.59902885299407L100.720703125,114.37764027099806L100.92431640625,114.2260329556037L100.9921875,113.8634507753944L101.53515625,113.78058705264004L101.806640625,115.16039140937188L101.9423828125,116.16345321499642L102.078125,117.57975334370929L102.14599609374999,118.00053340317872L102.349609375,118.6072218323605L102.55322265625,119.18681342948669L102.62109375,119.21130805116671L102.68896484375,119.2294570038647L102.7568359375,118.7980482536945L102.96044921875,119.38208741596824L103.50341796875,120.35535516127332L103.63916015625,120.36116031677112L103.77490234375,121.13426614817314L103.91064453125,117.19098478255404L103.978515625,117.44080350569669L104.18212890625,117.61070104737283L104.31787109375,117.31633698161585L104.45361328125,117.6152455155891L104.79296875,117.68040493005589L105.26806640625,118.48720540826912L105.3359375,119.47189951701012L105.53955078125,119.2318303332401L105.67529296875,119.11727967208981L106.08251953125,119.16551590313856L106.150390625,118.531415604289L106.2861328125,117.7786670056291L106.421875,117.62439349518647L106.693359375,118.01071135518434L106.96484375,119.59389612044544L107.1005859375,119.20956597566686L107.43994140625,120.21978656430022L107.5078125,119.55661438997984L107.57568359375,119.76501680630275L108.05078125,120.19712454868441L108.11865234375,121.12972317689108L108.52587890625,122.22518315128673L108.79736328125,121.80062788947862L108.865234375,121.6457114532232L108.93310546875,120.67223723573706L109.5439453125,121.43859275362398L109.6796875,122.89937842186089L109.88330078125,121.81332293564027L110.29052734375,122.5473518175072L110.35839843749999,122.00750687288078L110.62988281249999,122.26137967568182L110.83349609375,122.10785340302346L110.9013671875,122.23081932902795L110.96923828125,122.69421656978555L111.91943359375,121.67606498923018L112.123046875,120.72736505288943L112.32666015625,121.63209589203097L112.39453125,122.51638668551641L112.46240234375,123.04224746632822L112.666015625,119.52438534981201L112.73388671875,118.27735860365243L112.8017578125,117.52747001914875L113.81982421875,118.29642675349973L114.0234375,119.01094281677729L114.1591796875,116.06580971970976L114.22705078125,115.41823694416547L114.36279296875,115.70935339726108L114.4306640625,116.54005842069083L114.63427734375,117.73835023980783L114.837890625,116.71519357095595L114.90576171875,116.81984001451262L115.04150390625,116.36351932978897L115.17724609375,115.50562494411008L115.31298828125,116.504324258455L115.44873046875,116.82153513443416L115.65234375,116.06451719193007L115.7880859375,116.69165449036714L115.923828125,117.51065612202541L116.0595703125,117.96989621277893L116.1953125,118.60171344874365L116.3310546875,118.38334068273414L117.009765625,119.21069985683646L117.28125,118.73819119474827L117.552734375,118.67495914074247L117.62060546875,119.13448700503956L117.6884765625,119.95519168896769L117.82421875,119.55778486461821L118.02783203125,119.99048446317123L118.2314453125,120.14543694039872L118.3671875,121.04874076379772L118.57080078125001,120.00510213693725L118.97802734374999,120.82709725443695L119.11376953124999,120.61053354730814L119.24951171874999,120.39775242047577L119.3173828125,117.86999364237806L119.52099609375,115.34298869797874L119.5888671875,116.08728510741696L119.65673828125,115.44269439112921L119.8603515625,114.98889809811888L120.4033203125,114.51058546886922L120.74267578125,114.73050618814268L120.87841796875,114.47924509807316L121.28564453125,114.70778572349178L121.55712890625,116.085595175169L121.625,115.24237899287023L121.69287109375,111.77707910691119L121.7607421875,112.7697965577306L122.16796875,113.19493373159266L122.37158203125,113.74996176735704L122.8466796875,113.83967305800064L122.982421875,114.12608373574547L123.18603515625,113.76872911697842L123.25390625,114.31199327367582L123.45751953125,114.13531434181635L123.525390625,115.04941205619795L123.86474609375,114.78216372393577L123.9326171875,115.19939929192316L124.00048828125,115.39303504209157L124.2041015625,114.86368691399252L124.40771484375,116.16321865825087L124.4755859375,116.53409496052423L124.54345703125,116.75468338050146L124.611328125,117.67462522406703L124.67919921875,118.21422595404425L125.08642578125,119.29624608171501L125.49365234375,118.8107693892976L125.90087890625,119.5296837555866L126.17236328125,117.92223901623738L126.30810546875,117.640565867128L126.6474609375,117.07367389533445L126.91894531250001,117.62824164353573L127.39404296875,117.41507890833896L127.52978515625,118.93618229592022L127.73339843749999,115.92236040416037L127.869140625,116.70201740631786L127.93701171875,117.48273076534016L128.140625,118.00372318890169L128.20849609375,118.8078851900394L128.34423828125,118.46026262444448L128.412109375,116.09140817287732L128.61572265625,116.76022194501004L129.76953125,116.45750971895843L129.83740234375,113.49387207827539L129.9052734375,114.46449040707353L129.97314453125,114.43073644197602L130.24462890625,111.72019708777833L130.4482421875,111.32551635868465L130.7197265625,112.12365101655594L130.78759765625,111.97162466237837L130.85546875,112.4375511815706L131.126953125,113.413189890571L131.19482421875,113.23166138971692L131.2626953125,113.58205828210603L131.3984375,114.14821794349827L131.5341796875,116.39403065762612L131.669921875,116.1136158352459L131.8056640625,114.63184281795581L132.3486328125,115.23894769295151L132.68798828125,116.47320471268242L132.755859375,117.4732066216566L133.36669921875,117.87013133820513L133.4345703125,118.0165300989579L134.18115234375,116.4205921536503L134.5205078125,117.1535243476055L134.72412109375,117.32015196613447L134.7919921875,117.92177704368837L134.99560546875,116.6274602091557L135.13134765625,116.83513397922077L135.19921875,118.16576258532069L135.7421875,118.30147159262961L135.81005859375,119.28115066513621L135.87792968749997,119.06944223248121L135.94580078125,119.58469276439989L136.14941406249997,118.90624978729159L136.28515625,118.56809414732083L136.35302734375,117.78275962386357L136.42089843749997,117.12471758662215L136.9638671875,115.74987370910867L137.30322265625,116.19619065539004L137.37109375,116.49558698207545L137.57470703125,116.63330412206828L138.0498046875,116.1107024442072L138.185546875,114.92271993085318L138.8642578125,113.89308439399272L139.20361328125,114.90273564354585L139.271484375,115.21174144645332L139.4072265625,113.03554052075357L139.47509765625,114.57167485385109L139.88232421875,113.8655136760872L139.9501953125,114.63013569560194L140.357421875,116.03128852417666L140.42529296875,117.01912515012478L141.0361328125,118.11719794928092L141.3076171875,119.85747123154283L141.443359375,119.67735425850799L141.71484375,119.18205718359292L142.32568359375,119.82398794727756L142.46142578125,120.74705180755973L142.6650390625,121.11131814917385L142.80078125,119.57725889679647L142.86865234375,119.42335810371083L143.2080078125,118.56105748528361L143.41162109375,118.61099630085315L143.7509765625,118.63243366682761L143.88671875,118.44285605369164L144.158203125,118.27086303342955L144.2939453125,119.50713437574579L144.36181640624997,120.79728569487904L144.4296875,121.6589688025644L144.5654296875,123.0162713843739L144.701171875,124.05549074886312L145.04052734375,125.01228107703649L145.244140625,125.41229408204364L145.3798828125,126.55433110227534L145.58349609375,126.58332670880327L145.787109375,127.61309011750944L146.05859375,127.44903111403761L146.26220703125,126.85276173508531L146.53369140625,126.5634978795805L146.6015625,127.7766948020298L146.66943359375,129.06936906969958L147.14453125,129.44116133304667L147.2802734375,128.87863788043563L147.416015625,127.67556594883709L147.61962890625,129.0448245016417L147.6875,130.260132360255L148.0947265625,127.3902372656229L148.16259765625,126.29487764039935L148.43408203125,125.85701680270088L148.70556640625,125.13049424871974L148.9091796875,123.84097499155163L148.97705078125,123.06174091982075L149.044921875,122.9848748867561L149.11279296875,121.05491034254322L149.24853515625,122.01777474480392L149.4521484375,122.23038838645957L149.92724609375,122.17429224769847L149.9951171875,122.76389329073561L150.33447265625,123.4246678769899L150.47021484375,122.57336106459954L150.5380859375,123.09792401311321L150.60595703125,123.04559287997162L151.216796875,123.08189040717815L151.48828125,124.17262568751697L151.55615234375,124.92246551885694L151.6240234375,124.78838482158785L151.69189453125,124.12707247866126L151.82763671875,124.49550328094844L152.1669921875,123.91286102932028L152.23486328125,122.0214255657242L152.37060546875,122.93074757216573L152.4384765625,121.89860706225546L152.50634765625,122.58188862688871L152.7099609375,122.991476690689L152.84570312499997,122.73482976301952L152.91357421875,122.87073394691237L152.9814453125,123.37573160513564L153.59228515625,123.99806657503837L153.7958984375,124.71708128228917L154.40673828125,125.17591856026803L154.81396484375,126.30108174984926L154.8818359375,126.16850971544197L155.2890625,126.52884902196394L155.35693359375,123.35943130965524L155.4248046875,124.45050959175924L155.560546875,122.62995336240144L155.9677734375,120.87193784349192L156.375,119.35407396490282L156.44287109375,117.66234670361442L156.98583984375,115.36661845317259L157.0537109375,114.73304058199754L157.25732421875,115.84568440497122L157.4609375,114.19387916480942L157.732421875,114.79889968862079L157.8681640625,114.79517978908953L158.1396484375,113.8665372405444L158.546875,114.29424384355701L158.818359375,113.49899077281225L158.88623046875,113.13092692121006L159.08984375,113.58381031924287L159.2255859375,114.3287834198695L159.42919921875,113.97723861965824L159.70068359375,112.65850351987577L159.83642578125,112.27014466537167L159.97216796875,113.26208817131999L160.0400390625,112.71249831612775L160.10791015625,114.60176334704971L160.5830078125,114.00453236017914L160.71875,111.96317577293972L160.78662109375003,112.14808017906121L161.19384765625,111.73131197722445L161.26171875,113.04642579681854L161.32958984374997,113.58619478369587L161.46533203125,114.54358506602907L161.60107421874997,114.94471940443611L162.41552734375,115.5281068608688L163.0263671875,115.52417129726206L163.2978515625,115.05729628547556L163.63720703125,114.84536665126268L163.705078125,115.85317473764766L164.04443359375,116.9724082263553L164.1123046875,117.18112911249361L164.18017578125,117.44500093475673L164.45166015625,117.8062751860221L164.51953125,117.8084378306827L164.9267578125,116.72696194414036L165.1982421875,116.68797329416705L165.26611328125,117.31523784978316L165.333984375,118.2159934426675L165.4697265625,119.5442591563912L165.53759765625,118.90021050616053L165.876953125,120.06135429557145L166.08056640625,119.26723534441625L166.21630859375,118.7471007463654L166.419921875,118.86777470070959L166.62353515625,118.51276874951813L166.8271484375,118.5234175471617L166.962890625,119.57274097657557L167.3701171875,119.00052731389346L167.43798828125,119.45540934495733L167.57373046875,120.12658066709591L167.70947265625,119.72261893796293L168.3203125,116.8253426079882L168.38818359375,117.07890227868393L168.4560546875,118.3971793149336L168.52392578125,118.03053926447915L169.47412109375,118.62379863052954L169.74560546875,118.04048498825799L170.01708984375,118.42987426038475L170.08496093749997,117.924923830262L170.28857421875,118.21393824244427L170.35644531249997,118.70483249010073L170.56005859375,119.63932635275332L170.69580078125,120.20060141477903L170.83154296875,120.15966577522258L171.1708984375,120.48688629763124L171.37451171875,121.4872534406169L171.51025390625,121.58737672007891L171.578125,122.61705826427146L171.7138671875,122.52021263263721L171.91748046875,123.65819816356924L172.12109375,123.9288595588441L172.2568359375,124.11120626658828L172.46044921875,124.07926427676438L172.6640625,123.67063600330518L172.73193359375,120.80237330140073L172.935546875,121.1003698154181L173.13916015625,120.51337674665257L173.68212890625,119.65481590068639L173.75,117.96770745372714L173.8857421875,119.70951383053094L174.22509765625,119.52454860447406L174.564453125,119.86911192950241L174.63232421875,120.00057550766947L174.7001953125,119.26123864932568L174.8359375,118.46818652587336L174.90380859375,118.69709473520415L175.03955078125,113.91782646838317L175.17529296875,114.03855599346034L175.37890625,114.27413959103589L175.44677734375,113.71007857713538L175.71826171875,114.17035958678673L176.0576171875,113.60011500100359L176.193359375,113.98277008679554L176.6005859375,114.16015526501724L176.66845703125,114.53850859704525L176.736328125,114.62388964637965L176.80419921875,115.58723536850242L176.8720703125,114.2438250335191L177.07568359375,114.5878074893321L177.21142578125003,114.92218873103408L177.4150390625,114.81398505987767L177.48291015625003,115.57326186447003L177.6865234375,115.96159295696816L177.822265625,116.33969545192157L177.9580078125,116.99523898960344L178.02587890625003,118.10383081124934L178.09375,118.98477146867575L178.365234375,119.67921938538106L178.63671875,119.22272298545133L178.70458984375,119.39619760166556L178.7724609375,119.42939377307678L179.0439453125,119.93148836242779L179.11181640624997,120.93546206024169L179.24755859375,120.49497997875434L179.3154296875,119.19448960711884L179.451171875,120.40147510807651L179.51904296875,119.77809599414644L179.5869140625,118.43389837099556L179.72265625,120.29721879380008L179.79052734375,119.33856784556318L179.92626953125,119.51824446721383L180.1298828125,118.49577752124216L180.265625,119.75459107784113L180.33349609375,118.66133261572716L180.74072265625,118.62781390179602L180.80859375,119.96776459166364L180.87646484375,120.18603417842012L181.14794921875,120.50876622569638L181.28369140625,121.81136642263536L181.41943359375,123.43212696619781L181.69091796875,123.38955807520239L182.166015625,123.16345048926385L182.36962890625,122.50730115572892L182.50537109375,122.69784618971046L182.64111328125,123.3075091954028L182.708984375,124.34886894166495L182.98046875,123.1635069178709L183.1162109375,123.09616072021744L183.18408203125,123.68148162656824L183.251953125,124.01099514631787L183.45556640625,124.34918628270664L183.5234375,125.24908269697934L183.72705078125,124.94094420354149L183.794921875,124.88358690982761L183.99853515625,125.33336080239997L184.2021484375,123.34924655888764L184.4736328125,123.50380621956268L184.880859375,124.78567284666931L184.94873046875,126.2926549677887L185.15234375,127.00683713738344L185.22021484375,125.46147082050707L185.35595703125,125.73747337413533L185.49169921875,124.90097208989113L185.5595703125,124.78194174833982L185.69531250000003,125.44384712572628L185.76318359375,126.46420981589807L185.89892578125,125.36163930855332L185.96679687500003,123.959888029915L186.03466796875,124.02163596712212L186.1025390625,124.84607251218884L186.23828125000003,126.5882842243791L186.3740234375,124.81807090822895L186.44189453125,124.82088583664152L186.71337890625,124.97890070476882L186.78124999999997,123.53122214342652L186.9169921875,123.28329915722581L187.12060546875,121.38063468171123L187.25634765625,121.99569060863665L187.4599609375,122.66004288544016L188.2744140625,123.85714663324913L188.5458984375,122.68135094429937L188.74951171875,122.7797677435719L189.0888671875,122.69245866363292L189.224609375,123.43196352364924L189.42822265625,124.25516445532911L189.83544921875,124.07856877927304L189.9033203125,125.25180425787755L190.0390625,125.17299269904353L190.24267578125,124.90756048021527L190.4462890625,125.06572198738947L190.51416015625,126.06323924602145L190.58203125,125.73834625459548L191.19287109375,125.32389884330276L191.2607421875,126.55126488845981L191.32861328125,126.96564645205757L191.396484375,127.82954112962264L191.5322265625,127.09568366060795L191.66796875,127.80105779222094L191.87158203125,127.37880279379442L192.2109375,127.41423593550527L192.3466796875,127.44378741908776L192.41455078125,122.23129885550796L192.482421875,123.89609446582394L192.55029296875,124.20948003752707L193.09326171875,125.7369867651615L193.7041015625,125.22274681647048L194.04345703125,124.5632956500447L194.58642578125,124.2391384281404L194.654296875,123.70368117072891L194.85791015625,121.84166757393487L195.12939453125,121.6413310782537L195.3330078125,121.65112844189775L195.6044921875,120.6207368664007L195.80810546874997,121.73201226357602L196.01171875,122.27727227098333L196.07958984374997,122.36776754743101L196.1474609375,122.07556692451107L196.283203125,122.15624084506817L196.826171875,123.68077981968082L196.9619140625,124.78252051596432L197.09765625,124.0456249164934L197.2333984375,123.70472484059053L197.57275390625,124.06897326087517L197.912109375,124.53820424550213L198.455078125,125.49643235832792L198.52294921875,125.75098838663803L198.5908203125,125.12300135741467L198.8623046875,123.85704448630165L199.06591796875,124.50374014041138L199.26953125,121.91515606227136L199.8125,121.94106063587648L199.9482421875,121.10136439297618L200.2197265625,122.16804441136625L200.28759765625,121.33201875174316L200.35546875,121.03266974665917L200.42333984375,121.15679827134952L200.55908203125,121.02078400052099L200.69482421875,121.39879740655934L200.8984375,121.45983452111531L201.10205078125,121.88557584659603L201.169921875,121.81073275001056L201.3056640625,121.53835141421975L201.44140625,121.19362457786514L201.91650390625,121.05948235526364L202.18798828125,121.36867169299876L202.32373046875,122.38721579493301L202.45947265625,123.53734372518161L202.59521484375,122.40678517752008L202.66308593750003,122.46731046888921L202.798828125,121.38120843779086L203.00244140625,121.70574523275137L203.13818359375,121.40182494408177L203.341796875,121.42583952079337L203.47753906250003,120.22468541260038L203.68115234375,120.60459551102608L203.74902343749997,120.59327967316369L203.81689453125,118.93869562662852L204.49560546875,120.27090155981818L204.56347656249997,121.92799851012474L204.69921875,121.97349247984168L204.76708984375,122.41252638254524L204.8349609375,122.23565276733305L204.90283203125,121.69082433629872L205.1064453125,121.6149443661072L205.17431640625,122.60536368956343L205.31005859375,123.92554780939278L205.513671875,123.71627067681897L205.6494140625,124.97193525095852L205.78515625,125.69498277303033L205.9208984375,126.6435965053309L206.53173828125,127.39786575523044L206.599609375,128.03891062611245L206.80322265625,127.2407003124824L206.93896484375,126.29594267645778L207.07470703125,126.80059003401007L207.21044921875,126.23832206456453L207.34619140625,126.69213515154914L207.4140625,126.63440606604001L207.61767578125,126.20251623230754L208.02490234375,121.22506706498393L208.0927734375,120.48806846490234L208.3642578125,119.3472739304132L208.56787109375,118.89917777416763L208.771484375,118.92956679992449L208.9072265625,120.73796883283785L208.97509765625,120.29731588794948L209.24658203125,121.68944265692708L209.51806640625,121.70042828047687L209.7216796875,121.12280485000039L209.78955078125,121.60414606898792L209.857421875,122.83960141110417L209.92529296875,122.69257923153071L210.12890625,124.6230107651236L210.400390625,127.00040617764323L210.5361328125,127.13331998527417L210.8076171875,127.93094545759614L210.87548828125,128.45280311252083L211.01123046875,128.24903752243583L211.0791015625,127.9842202336588L211.41845703125003,128.63384012420735L211.6220703125,125.34426331892732L211.68994140625003,124.70897479545636L211.82568359375,123.84869943682759L211.96142578125003,125.13691197695049L212.09716796875,125.24874576850257L212.1650390625,124.92882371008241L212.36865234375,124.92887659858138L212.4365234375,125.57048640761688L212.572265625,126.14112193683656L212.77587890624997,125.8947168377023L212.84375,125.96029602649634L212.9794921875,126.42560492538134L213.38671875,125.47216225746742L213.59033203125,126.81776933900713L213.7939453125,128.1212192038527L213.86181640625,127.35237157297172L214.13330078125,128.5654406289746L214.54052734375,128.1938683635195L215.4228515625,129.70264843694767L215.6943359375,131.77197417957763L215.830078125,132.36008050571618L216.16943359375,132.55940606163847L216.373046875,133.20859603583858L216.5087890625,132.39206988215483L216.7802734375,133.13212669064183L217.11962890625,133.20346552719198L217.39111328125,133.7200821490842L217.66259765625,133.70882821469695L217.8662109375,133.92643199066248L218.47705078125,134.07101260274328L218.81640625,135.05300810886138L219.4951171875,135.12295165802024L219.56298828125,132.70750922453686L219.63085937500003,132.6292959702028L219.83447265625,133.20354963918987L219.90234375000003,132.92383231152883L220.24169921875,133.55271947955882L220.37744140625,133.68423025034951L220.64892578125,131.42134158159627L220.71679687499997,133.3232749045509L220.78466796875,134.34901441368217L220.8525390625,135.04165057234363L220.92041015625,134.53929517672537L220.98828124999997,134.14942425746108L221.05615234375,134.5150285606667L221.59912109375,134.91455054778078L221.802734375,134.85028276708636L222.2099609375,135.08951258017464L222.4814453125,136.60149219141672L223.16015625,136.52139421525092L223.22802734375,138.21247653929288L223.2958984375,137.3010581034407L223.77099609375,138.55766847364976L224.1103515625,139.4991625764121L224.31396484375,138.8769507531277L224.44970703125,139.6171123521159L224.517578125,141.05820765426205L224.58544921875,140.6571780029703L224.6533203125,141.33254969554616L224.9248046875,139.65851393280957L225.4677734375,139.88869735744677L225.53564453125,141.27001304328866L225.7392578125,140.246164429451L225.875,141.37985829067665L225.94287109375,141.0931969035397L226.07861328125,141.34243944492107L226.41796875,142.124117553546L226.89306640625,143.05487255280957L227.02880859375,143.75705239319217L227.232421875,144.59221672787544L227.3681640625,144.9677225718979L227.70751953125,145.79012814461078L227.9111328125,145.55912879685823L228.11474609375003,145.22230213636644L228.7255859375,145.5759726071653L228.79345703125,145.38765854704212L228.9970703125,146.37125660289252L229.20068359374997,146.19702984332656L229.33642578125,146.58108876029075L229.404296875,146.35519016885723L229.8115234375,146.76109995285861L230.01513671874997,147.09655315109157L230.0830078125,148.0086684334176L230.21875,148.9473794910662L230.42236328125,150.43502812487608L230.55810546875,151.03726810987297L230.69384765625,150.81353080231713L230.8974609375,150.29055250696752L230.96533203125,151.8268916988755L231.033203125,151.8581162329093L231.50830078125,152.49553375719915L231.84765625,152.1551738270487L231.9833984375,151.96369200530975L232.05126953125,153.2894139910018L232.119140625,154.52117666785918L232.390625,155.47961516553235L232.45849609375,156.13619612149344L232.7978515625,156.19163301182448L232.86572265625,157.06907102625559L233.13720703125,156.6443338112011L233.3408203125,157.031230244486L233.40869140625,157.29179341714382L233.54443359375,157.98367681733566L234.01953125,160.0174084924549L234.08740234375,157.4542449521853L234.4267578125,158.09751351358221L235.2412109375,158.08149806378114L235.58056640625,157.99050684456284L235.71630859375,158.06486839614553L235.7841796875,158.11606074647736L235.98779296875,159.6117891398302L236.0556640625,159.58740857493672L236.66650390625,160.32574078443844L237.07373046875,160.15858896918076L237.34521484375,160.1799238560216L237.41308593750003,160.84122428813419L237.48095703125,160.74211684979275" style="fill: none;" fill="none"></path></g></g></g></g><g opacity="0.2"><g><g><g><path stroke="rgb(255, 112, 67)" stroke-width="2px" d="M35.29296875,-7.732172892643831L35.564453125,36.37535960857687L36.37890625,-35.835565291918215L36.7861328125,-25.67427090498117L36.921875,3.3416172541105027L36.98974609375,-15.108099130483737L37.12548828125,1.696138418637787L37.53271484375,78.00266306216902L37.6005859375,-95.18471475747913L37.80419921875,-36.34147942983185L38.34716796874999,15.640914201736479L38.55078125,-40.416303744682864L38.75439453125,11.626468475048398L38.822265625,40.47047242751489L38.89013671875,48.63140146548932L38.9580078125,127.64725294479959L39.29736328125,-333.70002073508044L39.84033203125,75.61884498596193L39.908203125,6.933818633739804L40.3154296875,49.037658471327575L40.8583984375,106.51921055867123L41.06201171875,16.374140739440946L41.1298828125,88.14204586469211L41.60498046875,47.181179193350005L41.80859375,105.83930220970743L41.9443359375,140.1786503791809L42.4873046875,258.079529945667L42.69091796875,177.9865212073693L42.7587890625,130.00015134077807L43.36962890625,-69.12835126656748L43.50537109375,84.03289340092589L43.5732421875,113.32933099453267L43.64111328125,63.91400120808531L44.1162109375,32.21451203639691L44.45556640625,120.00733269177952L44.59130859375,-39.19347502635074L44.6591796875,75.49922396586493L44.9306640625,164.81814589867227L45.27001953125,47.237256618646484L45.337890625,76.06762669636656L45.54150390625,106.23387303719156L45.94873046875,42.70115287487326L46.0166015625,140.95131776883053L46.15234375,108.01211984340962L46.35595703125,-24.85518341798044L46.49169921875001,74.96709708067088L46.55957031250001,24.78835146243756L46.69531249999999,148.2835831458752L46.83105468749999,5.599484296945434L46.89892578124999,176.01553361232465L47.3740234375,129.54219922652612L47.9169921875,67.49743795394899L47.98486328125,93.13090786567103L48.052734375,-27.34726095199585L49.0029296875,-62.66743656305164L49.07080078125,164.70615335611197L49.20654296875,155.22687732256378L49.47802734375,155.48178208791293L49.681640625,37.833616128334654L49.74951171875,55.93461370468141L49.8173828125,45.46834252430844L50.02099609375,24.253384186671354L50.83544921875,-151.66401474292462L51.24267578125,89.72747072806727L51.4462890625,65.80367247874922L51.58203125,-1.1495271646059564L51.64990234375,-10.159489521613466L51.78564453125,134.85251228625958L52.05712890625,-49.47925967436569L52.32861328125,170.3617767554063L52.46435546875,142.41525506973267L52.8037109375,131.87724373890805L53.75390625,165.20736056107742L54.09326171875,-109.56780338287348L54.1611328125,146.5088259623601L54.4326171875,85.46745294791003L54.50048828125,125.21644669312698L54.77197265625,117.40521031159622L54.83984375,161.88515859383804L54.97558593750001,193.39032447338104L55.17919921874999,-260.70863765936633L55.5185546875,29.363327980041532L55.58642578125,115.68458285698526L55.654296875,41.14202191279486L55.99365234375,57.7615529207083L56.0615234375,-13.889815037067109L56.12939453125,121.73218015524058L56.3330078125,14.227454699002777L56.94384765625,233.033452804272L57.07958984375,99.37725134996269L57.48681640625,78.95784583458536L57.89404296875,238.78483794285702L57.9619140625,-11.365519358561585L58.369140625,103.63954144257767L58.57275390625,-9.62987841092621L58.84423828125,27.98484585835385L59.11572265625,95.98184845997739L59.25146484375,65.52709959103514L59.52294921875,99.86945045911351L59.5908203125,164.60552237584042L59.65869140625,199.27760201234085L59.79443359375,50.31648346093985L60.1337890625,106.75342104985165L60.47314453125,195.82571592697732L60.541015625,-100.85137510299677L60.60888671875,92.04774520947385L61.626953125,25.875409511419463L62.10205078125,111.8231124511132L62.50927734375,170.68103665571948L62.5771484375,206.05574776576117L62.712890625,149.62043325717633L62.8486328125,-17.168761913592988L63.1201171875,124.31368941527148L63.73095703124999,-1.6844132863558343L63.86669921874999,30.435859460097106L63.9345703125,40.35839873093829L64.13818359375,37.04991179246173L64.54541015625,46.088440363223754L65.08837890625,64.78794881013724L65.15625,109.81049284568202L65.35986328125,133.8871041077834L65.427734375,133.52775412339432L66.03857421875,180.44832829328686L66.1064453125,94.29847069887016L66.85302734375,144.10780323468722L67.056640625,-59.815197504483734L67.12451171875,-3.1973676131321724L67.26025390625,172.8405450307406L67.39599609375,158.73394813904397L68.34619140624999,131.5454861200773L68.685546875,173.7704889040727L68.8212890625,242.68075822866882L69.02490234375,159.45581311445972L69.16064453125,-29.238636457003054L69.5,131.4274070262909L69.56787109375,115.64984893798828L69.97509765625,143.46181726455688L70.11083984375,243.1517761395528L70.1787109375,244.1636449923882L70.314453125,84.73016870938815L70.38232421875,-23.727304898775515L70.5859375,24.124998532808746L70.7216796875,48.909922049595764L71.06103515625,50.78798829592192L71.12890625,145.2801541548509L71.73974609375,219.18297798816974L71.87548828125,76.27854598485507L72.14697265625,-95.11743807792658L72.21484375,130.956876039505L72.28271484375,32.29306912422183L72.55419921875,161.2349526148576L72.82568359375,25.43109127191397L72.8935546875,65.12725375248839L73.09716796875,150.20709564135626L73.23291015625,186.77249847925629L73.30078125,153.4809298148522L73.36865234375,-28.94494007183954L73.4365234375,160.3387688123263L73.50439453125,176.32927503952615L73.572265625,128.4256822696099L73.7080078125,180.55050119986902L73.77587890625,215.3568095794091L74.115234375,26.210981369018583L74.18310546875,-3.74653684175928L74.45458984375,216.02620848325583L74.658203125,87.57997314746565L74.7939453125,155.84949093598587L75.201171875,36.86309524682852L75.3369140625,275.785348039407L75.67626953125,212.2905673797314L75.94775390625,122.42986123378462L76.01562500000001,183.8380504021278L76.15136718750001,107.1888935015752L76.9658203125,245.57255987020642L77.44091796875,86.90866712423473L77.5087890625,85.83029255500209L77.64453125,119.42886686325073L77.71240234375,-121.46059986261218L77.7802734375,187.41929598955008L77.84814453125,146.673893231612L77.98388671875,191.1360282072654L78.1875,6.558724770179197L78.458984375,111.31411446057835L78.52685546875,69.59737928097067L78.79833984375,100.28658210314238L79.001953125,160.83591831647433L79.2734375,27.432430469072784L79.47705078125,236.75939600284283L79.544921875,148.63368157240063L79.61279296875,91.8513524899116L79.6806640625,171.25804171195398L79.74853515625,136.43022751808167L79.88427734375,-56.55686374811023L79.9521484375,126.2634958120493L80.02001953125,195.61982818750235L80.2236328125,11.391771059769866L80.29150390625,237.85546214763934L80.4951171875,224.9513243161715L80.630859375,156.37780358241156L80.69873046875,111.72824340600235L81.173828125,151.7252438251789L81.37744140625,45.20832505592935L81.64892578125,156.96698174109827L81.8525390625,54.907690781813415L81.98828125,183.24100030385532L82.1240234375,143.14263851826007L82.3955078125,64.70492825141322L82.6669921875,66.50005509303168L82.87060546875,108.68683433532716L82.9384765625,244.02324854410614L83.00634765625,39.28083570186911L83.07421875,-152.05972172663758L83.4814453125,114.76527015979475L83.888671875,169.70954192601718L84.0244140625,136.23099440794726L84.09228515625,-60.49770278197067L84.36376953125001,152.20064405294568L84.5673828125,266.81945231327643L84.63525390625001,-58.84475777699396L84.8388671875,170.19102870501007L84.90673828124999,117.55745524626514L84.974609375,253.82044543669775L85.24609375,-13.594739033625672L85.6533203125,63.58045820089488L85.85693359375,181.97873073357803L85.9248046875,50.516446957221405L86.12841796875,167.64831106479352L86.1962890625,143.53039240837097L86.26416015625,114.07164678206811L86.39990234375,188.6211058176481L86.4677734375,51.09832125443681L86.875,70.4405695108267L87.146484375,82.97740426430337L87.21435546875,101.79555988311769L87.35009765625,80.64463206437918L87.48583984375,152.41018372315628L87.62158203125,47.24391124798703L87.689453125,112.93362401081967L87.75732421875,180.03728320048407L87.8251953125,220.23862943282495L87.89306640625,164.13766947159402L88.0966796875,258.3573201436263L88.232421875,228.9507565498352L88.3681640625,109.96614624903754L88.57177734375,140.7233561369089L88.70751953125,62.17706179618837L88.775390625,148.03289838937613L88.84326171875,54.915400413366484L89.25048828125,-280.70506844153766L89.318359375,-13.711438509134155L89.4541015625,91.62225470176112L89.65771484375,205.34163299890668L89.92919921875,173.9713450945341L90.1328125,105.12612071404092L90.33642578125,87.2897663850051L90.404296875,228.78098234763513L90.67578125,227.7435094026419L90.8115234375,148.6194796195397L91.15087890625,19.5797243851882L91.3544921875,79.86425504317653L91.490234375,50.31364307036769L92.50830078125,135.8976948628059L92.77978515625,163.19165710302502L92.91552734375,-18.379336375456575L92.98339843750001,24.463086164914642L93.25488281250001,187.3836693763733L93.45849609375,233.44547174527096L93.66210937499999,89.4541440010071L93.79785156249999,200.2672752417051L94.27294921875,179.68832093018753L94.3408203125,130.439681493319L94.4765625,158.623659830827L94.748046875,87.20009119694052L95.01953125,108.08970308303834L95.49462890625,224.68497683451727L95.63037109375,-10.037920805124145L95.6982421875,70.90217355581431L95.833984375,112.69649197505072L96.03759765625,80.88638987907999L96.10546875,98.95241007438075L96.17333984375,118.74441388937144L96.376953125,-85.37530418542713L96.44482421875,189.79654059043298L96.5126953125,116.46463526212254L96.58056640625,50.2778541491582L97.12353515625,90.97643103966348L97.19140625,86.25984076353221L97.39501953125,184.86594717319196L97.8701171875,71.78577848581168L98.07373046875,163.3357866360591L98.61669921875,251.7435518503189L98.88818359375,196.01021958314456L98.9560546875,89.01883385731625L99.15966796875,225.29480869036456L99.2275390625,169.7596139541039L99.36328125,198.65949244682605L99.83837890625,296.2215118591602L99.90625,25.158413776984588L100.177734375,183.70934013219983L100.24560546875,126.85218704663792L100.3134765625,157.82721431438742L100.38134765625,204.73959192862878L100.5849609375,46.17146092194781L100.65283203125,3.2020323459918814L100.720703125,93.30465861467216L100.92431640625,99.78943259899434L100.9921875,79.3233635242169L101.53515625,105.88377461066615L101.806640625,246.70514532235953L102.078125,252.70713406342728L102.14599609374999,158.161731169774L102.349609375,176.5339454687559L102.55322265625,174.54672707044162L102.62109375,121.55177477689891L102.68896484375,120.96421969853917L102.7568359375,77.54722672242386L102.96044921875,175.2470050775088L103.50341796875,213.48361257406384L103.63916015625,120.91682575299191L103.77490234375,195.16078049402972L103.91064453125,-260.51459840627814L103.978515625,141.37761981670673L104.18212890625,133.89513835540185L104.31787109375,89.09268401219296L104.45361328125,146.2839481830597L104.79296875,123.93194092237034L105.26806640625,195.91806919758136L105.3359375,214.00551405319803L105.53955078125,96.17726733134344L105.67529296875,108.11323774777928L106.08251953125,123.80063372391922L106.150390625,57.58098523433394L106.2861328125,45.40195853893576L106.421875,102.78661273075986L106.693359375,155.1770487565261L106.96484375,271.9509830749952L107.1005859375,82.21309573833761L107.43994140625,217.49351367583643L107.5078125,55.682062405806334L107.57568359375,139.8432408296145L108.05078125,161.83938772861777L108.11865234375,211.02886588756854L108.52587890625,227.85209347651556L108.79736328125,80.85303557836093L108.865234375,106.70034632316005L108.93310546875,26.732964002169098L109.5439453125,195.41028851729175L109.6796875,263.93641530550445L109.88330078125,16.929396519294187L110.29052734375,193.4527319119527L110.35839843749999,69.84684672722452L110.62988281249999,146.79700387441196L110.83349609375,107.2666390492366L110.9013671875,134.12066536683304L110.96923828125,167.51181000929614L111.91943359375,23.181988862844634L112.123046875,28.930452456841124L112.32666015625,209.19478511810303L112.39453125,208.12042767267963L112.46240234375,173.959902378229L112.666015625,-221.17697436992938L112.73388671875,-2.5227342752309596L112.8017578125,44.86942588365997L113.81982421875,192.8182292351356L114.1591796875,-169.47780825541565L114.22705078125,52.6199590609624L114.36279296875,143.9462255881383L114.4306640625,197.13103770292724L114.63427734375,234.0146048619197L114.837890625,17.413074456728424L114.90576171875,126.97830038804275L115.04150390625,72.05780674861029L115.17724609375,32.19341199214642L115.31298828125,213.50929782023798L115.44873046875,147.63857102394104L115.65234375,42.506220927605284L115.7880859375,177.64112971379208L115.923828125,197.12166441403903L116.0595703125,162.6185474395752L116.1953125,180.04004243703992L116.3310546875,97.14478551424467L117.009765625,199.6926236519447L117.28125,72.7664436193613L117.552734375,112.52184853186976L117.62060546875,163.85890542543854L117.6884765625,199.84555839575256L117.82421875,80.86618252900931L118.02783203125,162.12529332821188L118.2314453125,135.23669539965118L118.3671875,209.03856363663309L118.57080078125001,18.328816377199615L118.97802734374999,200.92275623174817L119.11376953124999,99.50506892571084L119.24951171874999,99.65763847644514L119.3173828125,-128.55329858339746L119.5888671875,188.66882437926074L119.65673828125,52.57459396582385L119.8603515625,70.72266087165248L120.4033203125,67.84591330014743L120.74267578125,136.18936239756073L120.87841796875,89.95875967465916L121.28564453125,137.0142118197221L121.55712890625,250.5842261497791L121.625,32.9178738960853L121.69287109375,-226.59294995894794L121.7607421875,209.7173764063762L122.16796875,154.71901548825778L122.37158203125,167.96813904322113L122.8466796875,122.60434236893289L122.982421875,142.11173904859103L123.18603515625,78.8464213701395L123.25390625,167.40915017861587L123.45751953125,96.86496646587666L123.525390625,204.4137991299996L123.86474609375,88.65201770342314L123.9326171875,155.99962586622974L124.00048828125,134.3304484990927L124.2041015625,63.08752870559694L124.40771484375,243.28738450087036L124.4755859375,152.81871304145227L124.54345703125,138.33848305848932L124.611328125,207.69830505664532L124.67919921875,171.02464276093704L125.08642578125,225.20517407930816L125.49365234375,71.2865189772386L125.90087890625,189.91356468200684L126.17236328125,-39.469074065868625L126.30810546875,90.05776757460376L126.6474609375,61.554772798831664L126.91894531250001,171.9460654625526L127.39404296875,96.5343450032748L127.52978515625,267.95443180891186L127.93701171875,193.990985925381L128.140625,169.06509788219748L128.20849609375,197.63009432645947L128.34423828125,84.38364105958206L128.412109375,-116.14484948378345L128.61572265625,182.33540263542764L129.76953125,86.77460068922778L129.83740234375,-177.13809816653907L129.9052734375,209.65817455145032L129.97314453125,111.11999405347386L130.24462890625,-154.1666422990652L130.4482421875,72.6062455910903L130.7197265625,190.43002884204572L130.78759765625,97.05470455609837L130.85546875,158.15864731715277L131.126953125,209.16053812320416L131.19482421875,95.41523111783543L131.2626953125,147.9753601917854L131.3984375,169.72455541904156L131.5341796875,336.87013845260327L131.669921875,88.58238755739653L131.8056640625,-30.86131101388193L132.3486328125,174.85462540846606L132.68798828125,237.68305043990796L132.755859375,215.68605142373306L133.36669921875,156.85628766279956L133.4345703125,132.3970352136172L134.18115234375,-40.35803516094501L134.5205078125,189.15948156210092L134.72412109375,133.69152292838464L134.7919921875,177.03669460003195L134.99560546875,-10.560065746307373L135.13134765625,137.2439588400034L135.19921875,248.9409384727478L135.7421875,131.64003054912274L135.81005859375,215.57876581412097L135.87792968749997,98.25805631050699L135.94580078125,170.23850380457367L136.14941406249997,52.20445049726047L136.28515625,85.31967148414027L136.35302734375,40.56112146377566L136.42089843749997,52.415288631732665L136.9638671875,-19.456331326411316L137.30322265625,160.0912490624648L137.37109375,145.94302016038162L137.57470703125,130.17950171690723L138.0498046875,64.70298055502086L138.185546875,-1.945242294898378L138.8642578125,12.596096662374663L139.20361328125,214.23988685241113L139.271484375,145.61596947449905L139.4072265625,-101.10214101351221L139.47509765625,265.73616792605475L139.88232421875,44.370977915250336L139.9501953125,189.88240153972922L141.3076171875,291.1709322287486L141.443359375,101.94553250532886L141.71484375,70.41922600452719L142.32568359375,183.02667254668017L142.46142578125,211.63431542653305L142.6650390625,156.9798852296976L142.80078125,-31.486602709843538L142.86865234375,104.26743006706239L143.2080078125,33.63844040723947L143.41162109375,123.52941700128409L143.7509765625,120.74388654415425L143.88671875,99.76963101900542L144.158203125,101.32884313510016L144.2939453125,241.2910768527251L145.04052734375,219.2878289772914L145.244140625,164.82869592079751L145.3798828125,239.09342609002042L145.58349609375,129.4407567060911L145.787109375,229.09784820446603L146.05859375,111.28002977371217L146.26220703125,68.08418149214526L146.53369140625,98.05224972504837L146.6015625,247.36054515838623L146.66943359375,256.4928066180303L147.14453125,166.09161472320557L147.2802734375,73.42395345981306L147.416015625,9.069305419921903L147.61962890625,264.04045475446264L148.0947265625,-155.57701794917767L148.16259765625,18.289700141319884L148.43408203125,82.68111095061671L148.70556640625,53.48782011178824L148.9091796875,-3.324049032651459L148.97705078125,46.21512178274301L149.044921875,115.4041957305028L149.11279296875,-69.28927968098566L149.24853515625,216.98459683931793L149.4521484375,143.20115056404703L149.92724609375,116.6411452476795L149.9951171875,180.92243005679205L150.33447265625,188.60617347864005L150.47021484375,38.59394810749936L150.5380859375,174.84667231486395L150.60595703125,117.88288285182074L151.216796875,126.66293588051431L151.48828125,231.78623730402728L151.55615234375,198.90534853935242L151.6240234375,111.55887497388402L151.69189453125,58.874336792872526L151.82763671875,160.85036373138428L152.1669921875,66.4188199226673L152.23486328125,-64.62795528998743L152.37060546875,212.6667568225127L152.4384765625,20.039056117718076L152.50634765625,190.01549412653998L152.7099609375,163.4153175720802L152.84570312499997,97.40455952057474L152.91357421875,136.2844749047206L152.9814453125,173.2205081352821L153.59228515625,185.42623450205878L153.7958984375,195.69022929668427L154.40673828125,170.46857544092032L154.81396484375,237.37121613209064L154.8818359375,113.08132432057309L155.2890625,162.1016775094546L155.35693359375,-189.5355103199298L156.98583984375,-111.31212781025812L157.0537109375,52.172313506786665L157.25732421875,225.71319822164685L157.4609375,-48.917105803122865L157.732421875,174.54445475798389L157.8681640625,114.42783175981964L158.1396484375,22.158799024728637L158.546875,156.53329467773438L158.818359375,34.96019587149988L158.88623046875,76.78024011391861L159.08984375,158.31251533214865L159.2255859375,187.9072750898508L159.42919921875,79.25551876654994L159.70068359375,-17.594658191387424L159.83642578125,73.91055294183585L159.97216796875,211.2421386425312L160.0400390625,58.42506815836981L160.10791015625,301.22392658086926L160.5830078125,55.00856522413402L160.71875,-89.69156169891352L160.78662109375003,130.41419913218573L161.19384765625,70.55921668272754L161.26171875,242.96792171551633L161.32958984374997,166.91167605840243L161.46533203125,209.12917209588565L161.60107421874997,154.57569749538715L162.41552734375,173.16637840637796L163.0263671875,115.13533247434178L163.2978515625,68.92850787823019L163.63720703125,93.90560410572934L163.705078125,215.43187704453103L164.04443359375,227.56290113925934L164.1123046875,137.8050577090337L164.18017578125,143.51894969206592L164.45166015625,153.50551948180566L164.51953125,118.02214314387396L164.9267578125,9.85714861062857L165.1982421875,112.83510303497316L165.26611328125,179.3028393525344L165.4697265625,250.8109704714555L165.53759765625,55.25056650088385L165.876953125,234.81616308138922L166.08056640625,40.78380808463464L166.21630859375,67.34089185641363L166.419921875,130.7944868527926L166.62353515625,83.42545558856085L166.8271484375,119.57591794087338L166.962890625,223.2869365948897L167.3701171875,62.44251658366278L167.43798828125,164.41700159586395L167.57373046875,186.46776514786941L167.70947265625,79.79283950879027L168.3203125,-169.56172150831958L168.38818359375,142.14290219086868L168.4560546875,248.7089191400088L168.52392578125,81.78760523062488L169.47412109375,177.2692820108854L169.74560546875,60.377309175638075L170.01708984375,156.92332088030304L170.08496093749997,68.00684171456558L170.28857421875,146.78556115810687L170.35644531249997,167.23475019748395L170.56005859375,212.02490970721612L170.69580078125,175.68994369873636L170.83154296875,116.11258913920477L171.1708984375,152.83778423529407L171.37451171875,220.39063090544482L171.51025390625,131.48640599617593L171.578125,224.42138858941885L171.7138671875,112.9449855731084L171.91748046875,236.17346400481006L172.12109375,150.69012434665973L172.2568359375,142.1407110324273L172.46044921875,120.92096460782567L172.6640625,83.2665560245514L172.73193359375,-162.8073538816892L172.935546875,150.5662021636963L173.13916015625,62.470920489384596L173.68212890625,34.7584469868587L173.75,-48.859242989466736L173.8857421875,291.94721097212573L174.22509765625,101.234136398022L174.564453125,153.94188462770904L174.63232421875,133.0007399412302L174.7001953125,46.148900105403044L174.8359375,40.043115377426176L174.90380859375,141.3341212639442L175.03955078125,-358.71534050427954L175.17529296875,125.97791482852057L175.37890625,137.57206452809848L175.44677734375,57.9269448060256L175.71826171875,159.69059168375458L176.0576171875,57.20426829044638L176.193359375,151.82684865364664L176.6005859375,131.70349298990692L176.66845703125,151.9579123900487L176.736328125,123.06821872637823L176.80419921875,210.8646913124965L176.8720703125,-18.624340350811252L177.07568359375,148.60925421347986L177.21142578125003,147.99435023161084L177.4150390625,104.11193897173956L177.48291015625003,190.67138088666476L177.6865234375,154.3707836041084L177.822265625,153.73753881454468L177.9580078125,181.83516927865836L178.365234375,188.3690414428711L178.63671875,74.06896558174722L178.70458984375,136.55536701129034L178.7724609375,122.7130075968229L179.0439453125,169.59681899730978L179.11181640624997,220.24564925523907L179.24755859375,76.92339579875654L179.3154296875,-9.448418030372011L179.451171875,239.79597640954532L179.51904296875,58.113193273544326L179.5869140625,-14.535719853181092L179.72265625,304.62054678109973L179.79052734375,24.50617894759546L179.92626953125,137.2924889417795L180.1298828125,17.348962783813505L180.265625,244.28277908838714L180.33349609375,10.509870364115812L180.74072265625,115.3119236139151L180.80859375,252.52543022082403L180.87646484375,141.77900758156412L181.14794921875,152.436234162404L181.28369140625,250.6768634594404L181.41943359375,283.77418998571545L181.69091796875,119.17818210675168L182.166015625,100.79428162941568L182.36962890625,57.59299602875345L182.50537109375,141.5490170992338L182.64111328125,183.62364149093628L182.708984375,227.3749890144055L182.98046875,5.889853367438718L183.1162109375,116.43322865779585L183.18408203125,181.5908956894508L183.251953125,156.61201407359198L183.45556640625,157.8089546607091L183.5234375,214.28310136611645L183.72705078125,94.45412410222569L183.794921875,119.20869601689854L183.99853515625,169.83395103307873L184.2021484375,-72.96003814843982L184.4736328125,138.79611055667584L184.880859375,251.61573427457077L185.22021484375,-27.442373459155732L185.35595703125,153.04626890329214L185.49169921875,42.13372399256781L185.5595703125,113.0044714670915L185.69531250000003,190.9365110580738L185.76318359375,227.4252233505249L185.89892578125,16.26588128163266L185.96679687500003,-14.739578742247346L186.03466796875,130.1314585392292L186.1025390625,206.4226856506788L186.3740234375,-50.343387640439545L186.44189453125,125.09942260155313L186.71337890625,140.6145286009862L186.78124999999997,-19.717809567084657L186.9169921875,98.75098580580493L187.12060546875,-66.8915031139667L188.2744140625,242.31446957588196L188.5458984375,6.331980448502776L188.74951171875,132.5185227760902L189.0888671875,114.05281905027537L189.224609375,196.60974487891565L189.42822265625,205.71546897521387L189.83544921875,106.60336727362414L189.9033203125,241.35100909379813L190.0390625,117.37404716931859L190.24267578125,98.64110326766969L190.4462890625,140.71702612363376L190.51416015625,224.77570702479437L190.58203125,93.5873992076287L191.19287109375,84.31060244486883L191.2607421875,248.01066998335034L191.32861328125,167.97276482215295L191.396484375,213.32073646325333L191.5322265625,54.47270525418796L191.66796875,197.60558581352234L191.87158203125,85.59186205497157L192.2109375,130.92076250223013L192.3466796875,130.36826595893274L192.41455078125,-393.6097821455735L192.482421875,288.6491117477417L192.55029296875,155.22314423781177L193.09326171875,276.9046242328791L193.7041015625,74.33149882463309L194.04345703125,59.301125764846816L194.58642578125,92.15900736588699L194.654296875,70.71211084952724L194.85791015625,-62.433307225887546L195.12939453125,101.81487453900853L195.3330078125,122.62073548023518L195.6044921875,18.646534351202178L195.80810546874997,231.71137272394623L196.01171875,176.24008677555966L196.07958984374997,131.32385450143082L196.1474609375,93.15712061295145L196.283203125,130.14038548102747L196.826171875,274.5619918199686L196.9619140625,233.82040330079886L197.09765625,51.11576936795164L197.2333984375,89.96606353613048L197.57275390625,160.11851681195773L197.912109375,170.97797920153693L198.455078125,220.33252462973962L198.52294921875,150.94454218791083L198.5908203125,62.97058576803943L198.8623046875,-1.43616315034717L199.26953125,-134.28147367330695L199.8125,124.50488827778744L199.9482421875,37.99470685078549L200.2197265625,227.74010093395526L200.28759765625,38.58818617233865L200.35546875,91.40516770803013L200.42333984375,133.4422177901635L200.55908203125,107.55895581612222L200.69482421875,158.81226176481982L200.8984375,127.50093225332408L201.10205078125,164.0230800005106L201.169921875,114.40316093884984L201.3056640625,94.57942590346705L201.44140625,87.07422131758472L201.91650390625,107.78269743919374L202.18798828125,151.97089703266437L202.32373046875,223.19855987108673L202.45947265625,237.37259575036856L202.59521484375,10.508166129772519L202.66308593750003,128.4579004141001L202.798828125,13.88222551345828L203.00244140625,153.82745746465832L203.13818359375,91.32060522299548L203.341796875,123.80274372834427L203.47753906250003,1.337113050314116L203.68115234375,158.20733972696158L203.74902343749997,119.47325811019311L203.81689453125,-44.829459153688845L204.56347656249997,285.94558742413153L204.69921875,126.47644395094653L204.76708984375,165.8677919461177L204.8349609375,104.72879065000096L204.90283203125,67.76386658961958L205.1064453125,114.10435185065637L205.17431640625,220.63717680711014L205.31005859375,254.59777918228738L205.513671875,103.00191433613118L205.6494140625,249.25849413871765L206.599609375,191.49046837366546L206.80322265625,48.23252947513876L206.93896484375,32.782103226735046L207.07470703125,176.75160054060132L207.21044921875,70.583806349681L207.34619140625,171.61162976118237L207.4140625,120.92023422167853L207.61767578125,83.45288564608649L208.02490234375,-371.4572514570676L208.0927734375,47.53768878716693L208.3642578125,6.427742187793456L208.56787109375,74.54509619566112L208.771484375,121.93758097061746L208.9072265625,299.74035000801086L208.97509765625,76.67977144167975L209.24658203125,259.48779559135437L209.51806640625,122.78783159989578L209.7216796875,63.94711204675528L209.78955078125,169.2494798073402L209.857421875,245.1307574052077L209.92529296875,108.13961280309239L210.12890625,315.70675349235535L210.400390625,362.32722010979285L210.5361328125,140.28983138157773L210.8076171875,206.88424911865823L210.87548828125,180.1091856589684L211.01123046875,108.0791530609131L211.0791015625,101.77105137018059L211.41845703125003,192.93711986908548L211.6220703125,-200.27827323400055L211.68994140625003,61.82412297909079L211.82568359375,38.69311831547665L211.96142578125003,252.65263914144958L212.09716796875,136.31880305363583L212.1650390625,93.26075429182788L212.36865234375,124.93411187025218L212.4365234375,189.08157370640683L212.572265625,182.62674555411706L212.77587890624997,101.50373004033017L212.84375,132.4518141746521L212.9794921875,172.48541505520163L213.38671875,31.09304468448346L213.59033203125,260.0165140078618L213.7939453125,257.1470702978281L213.86181640625,51.24561579410849L214.13330078125,248.64496977512653L214.54052734375,91.4125527235178L215.4228515625,279.0544347029466L215.830078125,190.57594376343948L216.16943359375,152.29040039502658L216.373046875,197.47119476245L216.5087890625,51.56495684843799L216.7802734375,206.38969654303332L217.11962890625,140.26524171462427L217.39111328125,184.8596171599168L217.66259765625,132.59480755145734L217.8662109375,155.46693090292126L218.47705078125,148.38299681590155L218.81640625,232.26050137556518L219.4951171875,142.04665352747992L219.56298828125,-106.39703481013959L219.63085937500003,124.88696138675398L219.83447265625,190.04901073529172L219.90234375000003,105.23454247988188L220.24169921875,195.80648242510284L220.37744140625,146.70254059938284L220.64892578125,-92.58324160942664L220.8525390625,203.60627609032852L220.92041015625,84.8106734936054L220.98828124999997,95.55570872013386L221.05615234375,170.7066001708691L221.59912109375,174.4637065117176L221.802734375,128.4883331702306L222.2099609375,158.77119783254773L222.4814453125,286.2745452293983L223.16015625,128.59237261918875L223.22802734375,305.6154544445185L223.2958984375,47.07819474660434L223.77099609375,262.95177362515375L224.1103515625,232.69942287298352L224.31396484375,77.28298924519468L224.44970703125,212.88721170792215L224.517578125,283.71527216984674L224.58544921875,100.95837505047139L224.6533203125,208.18912454751822L224.9248046875,-26.0582105563237L225.4677734375,162.6751117889698L225.53564453125,278.00990135853107L225.7392578125,38.89275719569281L225.875,253.6072132587433L225.94287109375,112.71580663094156L226.07861328125,166.0156545639038L226.41796875,219.50467250897336L227.70751953125,227.2026990376986L227.9111328125,122.6917452445397L228.11474609375003,111.8787029523116L228.7255859375,180.58702050722565L228.79345703125,126.74579413120564L228.9970703125,243.7411166062722L229.20068359374997,128.94969375316913L229.33642578125,184.60049238571756L229.404296875,123.99264412659866L229.8115234375,186.94365229973428L230.55810546875,210.65547625835126L230.69384765625,128.66484315578754L230.8974609375,98.51872301101686L230.96533203125,303.91568357210895L231.033203125,154.94916827862082L231.50830078125,215.59629508165213L231.84765625,118.46142983436584L231.9833984375,133.00804380270154L232.05126953125,284.52867887570306L232.45849609375,221.13424515724182L232.7978515625,161.67959547042847L232.86572265625,243.93089527350207L233.13720703125,114.59752480800337L233.3408203125,195.33201546852405L234.4267578125,221.7779993919226L235.2412109375,156.49604498423065L235.58056640625,148.98280615072986L235.71630859375,165.42631409718442L235.7841796875,163.1838663174556L235.98779296875,307.6820414708211L236.0556640625,157.1738433287694L236.66650390625,233.4173113015982L237.07373046875,143.61130296266998L237.34521484375,162.29198367779074L237.41308593750003,226.30708331328174L237.48095703125,150.93090831316437" style="fill: none;" fill="none"></path></g></g></g></g></g></g><g transform="translate(58, 177)" clip-path="url(#clip_1)"><clipPath id="clip_1"><rect width="271" height="23"></rect></clipPath><g><g><line x1="0" y1="0" x2="0" y2="5" style="visibility: inherit;" fill="rgb(0, 0, 0)" stroke="rgb(204, 204, 204)" stroke-width="1px"></line><line x1="33.935546875" y1="0" x2="33.935546875" y2="5" style="visibility: inherit;" fill="rgb(0, 0, 0)" stroke="rgb(204, 204, 204)" stroke-width="1px"></line><line x1="67.87109375" y1="0" x2="67.87109375" y2="5" style="visibility: inherit;" fill="rgb(0, 0, 0)" stroke="rgb(204, 204, 204)" stroke-width="1px"></line><line x1="101.806640625" y1="0" x2="101.806640625" y2="5" style="visibility: inherit;" fill="rgb(0, 0, 0)" stroke="rgb(204, 204, 204)" stroke-width="1px"></line><line x1="135.7421875" y1="0" x2="135.7421875" y2="5" style="visibility: inherit;" fill="rgb(0, 0, 0)" stroke="rgb(204, 204, 204)" stroke-width="1px"></line><line x1="169.677734375" y1="0" x2="169.677734375" y2="5" style="visibility: inherit;" fill="rgb(0, 0, 0)" stroke="rgb(204, 204, 204)" stroke-width="1px"></line><line x1="203.61328125" y1="0" x2="203.61328125" y2="5" style="visibility: inherit;" fill="rgb(0, 0, 0)" stroke="rgb(204, 204, 204)" stroke-width="1px"></line><line x1="237.548828125" y1="0" x2="237.548828125" y2="5" style="visibility: inherit;" fill="rgb(0, 0, 0)" stroke="rgb(204, 204, 204)" stroke-width="1px"></line><line x1="271.484375" y1="0" x2="271.484375" y2="5" style="visibility: inherit;" fill="rgb(0, 0, 0)" stroke="rgb(204, 204, 204)" stroke-width="1px"></line></g><g transform="translate(0, 8)"><text x="0" y="0" dx="0em" dy="0.95em" style="text-anchor: middle; visibility: hidden; font-family: &quot;Helvetica Neue&quot;, sans-serif; font-size: 12px; font-weight: 200;" fill="rgb(50, 49, 63)" stroke="none" stroke-width="1px">-500</text><text x="33.935546875" y="0" dx="0em" dy="0.95em" style="text-anchor: middle; visibility: inherit; font-family: &quot;Helvetica Neue&quot;, sans-serif; font-size: 12px; font-weight: 200;" fill="rgb(50, 49, 63)" stroke="none" stroke-width="1px">0</text><text x="67.87109375" y="0" dx="0em" dy="0.95em" style="text-anchor: middle; visibility: inherit; font-family: &quot;Helvetica Neue&quot;, sans-serif; font-size: 12px; font-weight: 200;" fill="rgb(50, 49, 63)" stroke="none" stroke-width="1px">500</text><text x="101.806640625" y="0" dx="0em" dy="0.95em" style="text-anchor: middle; visibility: inherit; font-family: &quot;Helvetica Neue&quot;, sans-serif; font-size: 12px; font-weight: 200;" fill="rgb(50, 49, 63)" stroke="none" stroke-width="1px">1k</text><text x="135.7421875" y="0" dx="0em" dy="0.95em" style="text-anchor: middle; visibility: inherit; font-family: &quot;Helvetica Neue&quot;, sans-serif; font-size: 12px; font-weight: 200;" fill="rgb(50, 49, 63)" stroke="none" stroke-width="1px">1.5k</text><text x="169.677734375" y="0" dx="0em" dy="0.95em" style="text-anchor: middle; visibility: inherit; font-family: &quot;Helvetica Neue&quot;, sans-serif; font-size: 12px; font-weight: 200;" fill="rgb(50, 49, 63)" stroke="none" stroke-width="1px">2k</text><text x="203.61328125" y="0" dx="0em" dy="0.95em" style="text-anchor: middle; visibility: inherit; font-family: &quot;Helvetica Neue&quot;, sans-serif; font-size: 12px; font-weight: 200;" fill="rgb(50, 49, 63)" stroke="none" stroke-width="1px">2.5k</text><text x="237.548828125" y="0" dx="0em" dy="0.95em" style="text-anchor: middle; visibility: inherit; font-family: &quot;Helvetica Neue&quot;, sans-serif; font-size: 12px; font-weight: 200;" fill="rgb(50, 49, 63)" stroke="none" stroke-width="1px">3k</text><text x="271.484375" y="0" dx="0em" dy="0.95em" style="text-anchor: middle; visibility: hidden; font-family: &quot;Helvetica Neue&quot;, sans-serif; font-size: 12px; font-weight: 200;" fill="rgb(50, 49, 63)" stroke="none" stroke-width="1px">3.5k</text></g><line x1="0" y1="0" x2="271.484375" y2="0" fill="rgb(0, 0, 0)" stroke="rgb(204, 204, 204)" stroke-width="1px"></line></g></g></g></g></svg>