<svg viewBox="0 0 330 200" xmlns="http://www.w3.org/2000/svg"><g><g><g><g><g><line x1="48.8125" y1="177" x2="43.8125" y2="177" style="visibility: inherit;" fill="rgb(0, 0, 0)" stroke="rgb(204, 204, 204)" stroke-width="1px"></line><line x1="48.8125" y1="162.25000000000003" x2="43.8125" y2="162.25000000000003" style="visibility: inherit;" fill="rgb(0, 0, 0)" stroke="rgb(204, 204, 204)" stroke-width="1px"></line><line x1="48.8125" y1="147.5" x2="43.8125" y2="147.5" style="visibility: inherit;" fill="rgb(0, 0, 0)" stroke="rgb(204, 204, 204)" stroke-width="1px"></line><line x1="48.8125" y1="132.75" x2="43.8125" y2="132.75" style="visibility: inherit;" fill="rgb(0, 0, 0)" stroke="rgb(204, 204, 204)" stroke-width="1px"></line><line x1="48.8125" y1="118.00000000000001" x2="43.8125" y2="118.00000000000001" style="visibility: inherit;" fill="rgb(0, 0, 0)" stroke="rgb(204, 204, 204)" stroke-width="1px"></line><line x1="48.8125" y1="103.25" x2="43.8125" y2="103.25" style="visibility: inherit;" fill="rgb(0, 0, 0)" stroke="rgb(204, 204, 204)" stroke-width="1px"></line><line x1="48.8125" y1="88.49999999999999" x2="43.8125" y2="88.49999999999999" style="visibility: inherit;" fill="rgb(0, 0, 0)" stroke="rgb(204, 204, 204)" stroke-width="1px"></line><line x1="48.8125" y1="73.75000000000001" x2="43.8125" y2="73.75000000000001" style="visibility: inherit;" fill="rgb(0, 0, 0)" stroke="rgb(204, 204, 204)" stroke-width="1px"></line><line x1="48.8125" y1="58.999999999999986" x2="43.8125" y2="58.999999999999986" style="visibility: inherit;" fill="rgb(0, 0, 0)" stroke="rgb(204, 204, 204)" stroke-width="1px"></line><line x1="48.8125" y1="44.24999999999997" x2="43.8125" y2="44.24999999999997" style="visibility: inherit;" fill="rgb(0, 0, 0)" stroke="rgb(204, 204, 204)" stroke-width="1px"></line><line x1="48.8125" y1="29.499999999999943" x2="43.8125" y2="29.499999999999943" style="visibility: inherit;" fill="rgb(0, 0, 0)" stroke="rgb(204, 204, 204)" stroke-width="1px"></line><line x1="48.8125" y1="14.749999999999915" x2="43.8125" y2="14.749999999999915" style="visibility: inherit;" fill="rgb(0, 0, 0)" stroke="rgb(204, 204, 204)" stroke-width="1px"></line></g><g transform="translate(38.8125, 0)"><text x="0" y="177" dx="0em" dy="0.3em" style="text-anchor: end; visibility: hidden; font-family: &quot;Helvetica Neue&quot;, sans-serif; font-size: 12px; font-weight: 200;" fill="rgb(50, 49, 63)" stroke="none" stroke-width="1px">0.34</text><text x="0" y="162.25000000000003" dx="0em" dy="0.3em" style="text-anchor: end; visibility: inherit; font-family: &quot;Helvetica Neue&quot;, sans-serif; font-size: 12px; font-weight: 200;" fill="rgb(50, 49, 63)" stroke="none" stroke-width="1px">0.36</text><text x="0" y="147.5" dx="0em" dy="0.3em" style="text-anchor: end; visibility: hidden; font-family: &quot;Helvetica Neue&quot;, sans-serif; font-size: 12px; font-weight: 200;" fill="rgb(50, 49, 63)" stroke="none" stroke-width="1px">0.38</text><text x="0" y="132.75" dx="0em" dy="0.3em" style="text-anchor: end; visibility: inherit; font-family: &quot;Helvetica Neue&quot;, sans-serif; font-size: 12px; font-weight: 200;" fill="rgb(50, 49, 63)" stroke="none" stroke-width="1px">0.4</text><text x="0" y="118.00000000000001" dx="0em" dy="0.3em" style="text-anchor: end; visibility: hidden; font-family: &quot;Helvetica Neue&quot;, sans-serif; font-size: 12px; font-weight: 200;" fill="rgb(50, 49, 63)" stroke="none" stroke-width="1px">0.42</text><text x="0" y="103.25" dx="0em" dy="0.3em" style="text-anchor: end; visibility: inherit; font-family: &quot;Helvetica Neue&quot;, sans-serif; font-size: 12px; font-weight: 200;" fill="rgb(50, 49, 63)" stroke="none" stroke-width="1px">0.44</text><text x="0" y="88.49999999999999" dx="0em" dy="0.3em" style="text-anchor: end; visibility: hidden; font-family: &quot;Helvetica Neue&quot;, sans-serif; font-size: 12px; font-weight: 200;" fill="rgb(50, 49, 63)" stroke="none" stroke-width="1px">0.46</text><text x="0" y="73.75000000000001" dx="0em" dy="0.3em" style="text-anchor: end; visibility: inherit; font-family: &quot;Helvetica Neue&quot;, sans-serif; font-size: 12px; font-weight: 200;" fill="rgb(50, 49, 63)" stroke="none" stroke-width="1px">0.48</text><text x="0" y="58.999999999999986" dx="0em" dy="0.3em" style="text-anchor: end; visibility: hidden; font-family: &quot;Helvetica Neue&quot;, sans-serif; font-size: 12px; font-weight: 200;" fill="rgb(50, 49, 63)" stroke="none" stroke-width="1px">0.5</text><text x="0" y="44.24999999999997" dx="0em" dy="0.3em" style="text-anchor: end; visibility: inherit; font-family: &quot;Helvetica Neue&quot;, sans-serif; font-size: 12px; font-weight: 200;" fill="rgb(50, 49, 63)" stroke="none" stroke-width="1px">0.52</text><text x="0" y="29.499999999999943" dx="0em" dy="0.3em" style="text-anchor: end; visibility: hidden; font-family: &quot;Helvetica Neue&quot;, sans-serif; font-size: 12px; font-weight: 200;" fill="rgb(50, 49, 63)" stroke="none" stroke-width="1px">0.54</text><text x="0" y="14.749999999999915" dx="0em" dy="0.3em" style="text-anchor: end; visibility: inherit; font-family: &quot;Helvetica Neue&quot;, sans-serif; font-size: 12px; font-weight: 200;" fill="rgb(50, 49, 63)" stroke="none" stroke-width="1px">0.56</text></g><line x1="48.8125" y1="0" x2="48.8125" y2="177" fill="rgb(0, 0, 0)" stroke="rgb(204, 204, 204)" stroke-width="1px"></line></g></g><g transform="translate(48, 0)" clip-path="url(#clip_0)"><clipPath id="clip_0"><rect width="281" height="177"></rect></clipPath><g><g><g><line x1="0" y1="0" x2="0" y2="177" fill="rgb(0, 0, 0)" stroke="rgb(60, 60, 60)" stroke-width="1px" opacity="0.25"></line><line x1="35.1484375" y1="0" x2="35.1484375" y2="177" fill="rgb(0, 0, 0)" stroke="rgb(60, 60, 60)" stroke-width="1px" opacity="0.25"></line><line x1="70.296875" y1="0" x2="70.296875" y2="177" fill="rgb(0, 0, 0)" stroke="rgb(60, 60, 60)" stroke-width="1px" opacity="0.25"></line><line x1="105.4453125" y1="0" x2="105.4453125" y2="177" fill="rgb(0, 0, 0)" stroke="rgb(60, 60, 60)" stroke-width="1px" opacity="0.25"></line><line x1="140.59375" y1="0" x2="140.59375" y2="177" fill="rgb(0, 0, 0)" stroke="rgb(60, 60, 60)" stroke-width="1px" opacity="0.25"></line><line x1="175.7421875" y1="0" x2="175.7421875" y2="177" fill="rgb(0, 0, 0)" stroke="rgb(60, 60, 60)" stroke-width="1px" opacity="0.25"></line><line x1="210.890625" y1="0" x2="210.890625" y2="177" fill="rgb(0, 0, 0)" stroke="rgb(60, 60, 60)" stroke-width="1px" opacity="0.25"></line><line x1="246.0390625" y1="0" x2="246.0390625" y2="177" fill="rgb(0, 0, 0)" stroke="rgb(60, 60, 60)" stroke-width="1px" opacity="0.25"></line><line x1="281.1875" y1="0" x2="281.1875" y2="177" fill="rgb(0, 0, 0)" stroke="rgb(60, 60, 60)" stroke-width="1px" opacity="0.25"></line></g><g><line x1="0" y1="177" x2="281.1875" y2="177" fill="rgb(0, 0, 0)" stroke="rgb(60, 60, 60)" stroke-width="1px" opacity="0.25"></line><line x1="0" y1="162.25000000000003" x2="281.1875" y2="162.25000000000003" fill="rgb(0, 0, 0)" stroke="rgb(60, 60, 60)" stroke-width="1px" opacity="0.25"></line><line x1="0" y1="147.5" x2="281.1875" y2="147.5" fill="rgb(0, 0, 0)" stroke="rgb(60, 60, 60)" stroke-width="1px" opacity="0.25"></line><line x1="0" y1="132.75" x2="281.1875" y2="132.75" fill="rgb(0, 0, 0)" stroke="rgb(60, 60, 60)" stroke-width="1px" opacity="0.25"></line><line x1="0" y1="118.00000000000001" x2="281.1875" y2="118.00000000000001" fill="rgb(0, 0, 0)" stroke="rgb(60, 60, 60)" stroke-width="1px" opacity="0.25"></line><line x1="0" y1="103.25" x2="281.1875" y2="103.25" fill="rgb(0, 0, 0)" stroke="rgb(60, 60, 60)" stroke-width="1px" opacity="0.25"></line><line x1="0" y1="88.49999999999999" x2="281.1875" y2="88.49999999999999" fill="rgb(0, 0, 0)" stroke="rgb(60, 60, 60)" stroke-width="1px" opacity="0.25"></line><line x1="0" y1="73.75000000000001" x2="281.1875" y2="73.75000000000001" fill="rgb(0, 0, 0)" stroke="rgb(60, 60, 60)" stroke-width="1px" opacity="0.25"></line><line x1="0" y1="58.999999999999986" x2="281.1875" y2="58.999999999999986" fill="rgb(0, 0, 0)" stroke="rgb(60, 60, 60)" stroke-width="1px" opacity="0.25"></line><line x1="0" y1="44.24999999999997" x2="281.1875" y2="44.24999999999997" fill="rgb(0, 0, 0)" stroke="rgb(60, 60, 60)" stroke-width="1px" opacity="0.25"></line><line x1="0" y1="29.499999999999943" x2="281.1875" y2="29.499999999999943" fill="rgb(0, 0, 0)" stroke="rgb(60, 60, 60)" stroke-width="1px" opacity="0.25"></line><line x1="0" y1="14.749999999999915" x2="281.1875" y2="14.749999999999915" fill="rgb(0, 0, 0)" stroke="rgb(60, 60, 60)" stroke-width="1px" opacity="0.25"></line></g></g></g><g><g><line x1="0" y1="427.7500000000001" x2="281.1875" y2="427.7500000000001" fill="rgb(0, 0, 0)" stroke="rgb(153, 153, 153)" stroke-width="1.5px"></line></g></g><g><g><line x1="35.1484375" y1="0" x2="35.1484375" y2="177" fill="rgb(0, 0, 0)" stroke="rgb(153, 153, 153)" stroke-width="1.5px"></line></g></g><g><g><g><g><g><path stroke="rgb(255, 112, 67)" stroke-width="2px" d="M43.44346875,-3.0153573211729565L44.00584375,6.12692061760842L44.216734375,11.97580850030127L44.28703125,15.875814918442273L44.919703125,12.920942284613488L45.060296875,15.128062917659719L45.13059375,18.16584771118545L45.200890625,19.50232129219262L45.69296875,19.797166287950972L46.044453125000004,22.73958611457104L46.185046875000005,20.808620416236465L46.25534375,22.319473441182055L46.53653125,26.335148299220066L46.888015625,26.852111238303593L46.958312500000005,28.150780662668097L47.169203125,30.22377190241295L47.590984375000005,30.497601449957756L47.66128125,33.375639228787065L47.801875,35.27858068551194L48.012765625,33.672739666489974L48.153359375,34.673283499516316L48.223656250000005,34.374255900031415L48.36425,37.15382057388638L48.50484375,36.33575265461292L48.575140624999996,39.673306915156445L49.067218749999995,41.784634267179825L49.62959375,42.35811751884566L49.699890624999995,43.51136349793629L49.7701875,41.84450083227216L50.051375,40.14713020388055L50.75434375,37.78939820069283L50.824640625,40.585863141350075L50.965234375,43.086263994607805L51.246421874999996,45.5159724132061L51.4573125,45.324417441318815L51.527609375,45.52667878482623L51.59790625,45.50074755794509L51.808796875,45.02962215387788L52.652359375,40.90569611957193L53.074140625,41.882427772893266L53.28503125,42.34242204912198L53.425625000000004,41.43173219159186L53.495921875,40.36465374269372L53.636515625,42.21731066084777L53.917703125,40.37640054246731L54.198890625000004,42.89466251437676L54.339484375000005,44.80388306090532L54.69096875,46.460670267465105L55.675125,48.713534017004804L56.026609375,45.688422527111015L56.09690625,47.568185320418564L56.378093750000005,48.25886923597281L56.448390625,49.671542195739306L56.729578125,50.905937910778746L56.799875,52.92589347196319L56.94046875,55.47140684660165L57.151359375,49.74888825423676L57.50284375,49.36778745320862L57.57314062499999,50.535337317255895L57.6434375,50.355060475808L57.994921874999996,50.4715611517107L58.06521875,49.33141115781514L58.135515625,50.57573331333221L58.346406249999994,49.933850378333275L58.979078125,53.066870837387214L59.119671874999995,53.84826607811358L59.541453125,54.26599867021784L59.963234375,57.374973931675896L60.033531249999996,56.215902234059115L60.4553125,57.00256162662264L60.666203125,55.89060879461813L60.947390625,55.42328516674603L61.228578125,56.08361029425397L61.369171875,56.23234692782789L61.650359375,56.937035357102445L61.72065625,58.67600951205188L61.790953125,60.93927247638415L61.931546875,60.769281897032045L62.28303125,61.503322398629834L62.634515625,63.63799890471411L62.7048125,61.041058075586065L62.775109375,61.5295280837848L63.8295625,60.97199599944064L64.321640625,61.76555131675494L64.74342187500001,63.45846155137744L64.81371875,65.66671487116088L64.9543125,66.96529576220792L65.09490625000001,65.68282148174912L65.37609375000001,66.5839899363128L66.008765625,65.5528156250382L66.149359375,65.02667279740199L66.21965625,64.65962541734997L66.43054687499999,64.24938979393221L66.852328125,63.98170459683105L67.414703125,63.997549881463584L67.485,64.68195350133324L67.695890625,65.7108226126801L67.7661875,66.71663778420414L68.398859375,68.39461641211696L68.46915625,68.7826092100129L69.242421875,69.89073918711534L69.4533125,68.01520789571207L69.52360937499999,66.991546191948L69.664203125,68.52719038410568L69.804796875,69.83429430946437L70.78895312499999,70.7297552468995L71.1404375,72.21431282402318L71.28103125,74.65687134654411L71.49192187499999,75.87712374395757L71.632515625,74.40472831286438L71.984,75.22493466132899L72.05429687499999,75.80986586294249L72.476078125,76.77586918408251L72.616671875,79.12179899411323L72.68696875,81.44510711392012L72.8275625,81.51308853475999L72.897859375,80.07511490501172L73.10875,79.32166140496139L73.24934375000001,78.92185333254035L73.60082812499999,78.55406368079713L73.671125,79.48868047651952L74.30379687499999,81.42051617901308L74.444390625,81.37213646515045L74.725578125,78.990831725529L74.79587500000001,79.7157292864494L74.86617187499999,79.0931957622664L75.147359375,80.22231013531744L75.428546875,79.50406351940296L75.49884375,79.33025097683704L75.709734375,80.30026877166121L75.85032812499999,81.7453646453147L75.920625,82.72475058666619L75.990921875,81.25995881773544L76.06121875000001,82.33193371857486L76.13151562499999,83.60039675135543L76.2018125,84.21677294117946L76.34240625000001,85.51235137353335L76.412703125,87.24780148319871L76.7641875,86.47248156910922L76.834484375,85.31528915237138L77.115671875,87.05082611867324L77.32656250000001,87.08426333281804L77.46715625,88.00703442083042L77.88893750000001,87.36917200481427L78.02953125,89.84173475762907L78.381015625,91.45725044261522L78.662203125,91.88837672880923L78.7325,93.10602247397838L78.87309375000001,93.31962236346112L79.71665625,95.30934586172359L80.208734375,95.2357592514234L80.27903124999999,95.14936926444553L80.419625,95.49373033915727L80.48992187500001,92.75908300871053L80.56021874999999,93.99652148951284L80.630515625,94.69906019359533L80.771109375,95.95660554353039L80.982,94.85804422680278L81.2631875,95.09954111720046L81.333484375,94.81090386161166L81.614671875,94.91309476817374L81.82556249999999,95.77619553616603L82.10674999999999,94.95131478058384L82.31764062500001,96.76394090032913L82.38793749999999,97.44865339037243L82.458234375,97.41404659963007L82.52853125,98.3716934488055L82.598828125,98.88253628312206L82.739421875,96.98360908540954L82.80971875,97.38241412847432L82.880015625,98.63713472046292L83.09090624999999,97.59177268219972L83.161203125,99.36331509840453L83.2315,100.52390128926302L83.37209374999999,102.09771883523918L83.5126875,102.80613165317949L83.58298437500001,102.95588296957912L84.0750625,103.59544543051457L84.285953125,102.91920142769555L84.56714062500001,103.62171346374026L84.77803125,103.06572614729302L84.91862499999999,104.08603949105354L85.05921875,104.6038282455173L85.34040625,104.15842037947898L85.62159375,103.74044821329983L85.832484375,103.84096240120083L85.90278125,105.58478604443725L85.973078125,104.82201906449455L86.043375,101.74926685170699L86.46515624999999,101.94515267531781L86.8869375,102.80308841345065L87.02753125,103.24606127497644L87.097828125,101.30991336807695L87.37901562500001,101.96094447836319L87.58990625,103.98384317385336L87.66020312500001,102.06590032739425L87.87109375,102.9224802193486L87.941390625,103.13711877956877L88.0116875,104.98237121408026L88.15228125,103.0112269848677L88.292875,101.65553309944232L88.71465625,101.23830512181858L88.925546875,102.2392832887744L88.99584375,101.66070450436712L89.206734375,102.48431172930458L89.27703125000001,103.01105611598953L89.34732812499999,103.18128647656046L89.487921875,104.23488207054811L89.55821875,103.64420029555535L89.98,103.28981235284449L90.2611875,103.08810472230896L90.33148437499999,103.11146019715L90.472078125,102.8845000101414L90.61267187499999,103.50778853217254L90.753265625,102.88281901728075L90.82356250000001,103.03963906454742L90.89385937499999,103.98497321044863L90.96415625,105.39231052144045L91.034453125,106.1235150597524L91.24534375,107.953067404203L91.3859375,109.41608369853684L91.52653125,109.46653283541015L91.737421875,109.87686629606861L91.87801562499999,109.36268304819154L91.9483125,109.85895402998311L92.018609375,109.26091868477097L92.44039062499999,104.74937398290848L92.5106875,103.40630451198267L92.65128125000001,103.30722812630022L92.862171875,104.53457867508426L93.143359375,105.38249526173502L93.35425000000001,105.41955911310502L93.565140625,105.24879474844694L93.63543750000001,106.72402003127287L93.77603125,108.08607878244065L93.91662500000001,109.51675027831885L94.05721875,110.01371154479234L94.408703125,109.00992438834442L94.61959375,108.7155449589404L94.7601875,108.08260369085968L95.814640625,108.4464020498354L96.095828125,109.12144274356554L96.236421875,107.69226411770026L96.30671875,106.77363054569213L96.58790625,107.74412147746725L96.7285,105.91274241988984L96.798796875,107.4216341420715L97.0096875,107.25626198465112L97.15028124999999,108.36736339317741L97.290875,107.08289385110726L97.501765625,108.0531628258087L97.642359375,108.91750666763623L97.71265625,109.20706974332728L97.85324999999999,109.8166048441339L98.13443749999999,109.6007499254961L98.41562499999999,109.62657762732509L98.907703125,110.9868862750239L98.978,112.11292445022711L99.048296875,110.7613993210132L99.11859374999999,110.34992203689903L99.2591875,110.42039594678697L99.470078125,110.12693930695902L99.540375,110.04286417955593L99.61067187500001,110.18542534658467L99.8215625,107.99986811100163L99.89185937500001,108.97319128961287L99.96215624999999,109.10081516482812L100.032453125,108.4738075689944L100.594828125,108.31664302439299L100.66512499999999,108.10757461189571L100.87601562500001,109.0212894692669L101.36809375,108.64064024722512L101.578984375,109.30346202934827L102.14135937500001,110.962169107785L102.21165624999999,111.96138849355076L102.35225,112.81850811021603L102.42254687500001,113.80661277161363L102.49284374999999,113.5721866410678L102.70373437500001,114.88302994186844L102.77403125,115.55119003697405L102.914625,116.53895107846535L103.05521875,117.70227144947151L103.406703125,119.76922467456859L103.477,118.75193819886253L103.7581875,119.53582375024942L103.828484375,119.66952025566373L103.89878125,120.15120714613514L103.96907812500001,121.1567049578891L104.17996875,120.36393769482852L104.25026562500001,119.09557616886187L104.3205625,118.85573478119863L104.53145312500001,118.69150282604988L104.60175,118.29870439227825L105.164125,118.20892859296917L105.4453125,119.70370995260669L105.58590625,120.79036662026738L105.7265,122.32468541651947L105.796796875,122.78053092878122L106.0076875,123.43776988015102L106.218578125,124.06565445902012L106.288875,124.092183593583L106.35917187499999,124.11184105600631L106.42946875,123.64448863464494L106.64035937499999,124.27719424901895L107.20273437499999,125.33156147094981L107.343328125,125.33785701233967L107.483921875,126.17538170604588L107.624515625,121.90348564440751L107.6948125,122.17411930368888L107.90570312499999,122.35816922172373L108.046296875,122.0392684456731L108.18689062499999,122.36308153483822L108.538375,122.43366736584396L109.030453125,123.30770746623969L109.10075,124.37445291136878L109.311640625,124.11437401697694L109.45223437499999,123.99030617181108L109.874015625,124.04256513486632L109.94431250000001,123.35561891642415L110.08490625,122.54013572718638L110.22550000000001,122.37299970412948L110.5066875,122.79150417383161L110.787875,124.50661452676368L110.92846875000001,124.09024978430776L111.27995312499999,125.18465473683551L111.35025,124.46621301967937L111.420546875,124.69197603490214L111.912625,125.16008745569759L111.982921875,126.17039671498299L112.404703125,127.35713916166853L112.685890625,126.89724112597764L112.75618750000001,126.72940836214605L112.82648437499999,125.6748110503541L113.45915625,126.50505137425996L113.59975,128.08756578823272L113.810640625,126.91104399333776L114.232421875,127.70623549686003L114.30271875,127.12139618877075L114.58390625,127.39641920065993L114.794796875,127.23009215033306L114.86509375,127.3633098619275L114.935390625,127.86533193990955L115.919546875,126.76232786490255L116.1304375,125.73456313942853L116.341328125,126.71468227116559L116.411625,127.67265853167811L116.481921875,128.24233521919615L116.69281249999999,124.43131081435683L116.763109375,123.08035813496738L116.83340625,122.26797366700043L117.887859375,123.10100479054381L118.09875,123.87505857607553L118.23934374999999,120.68449092227327L118.309640625,119.9829479182733L118.45023437500001,120.29831830600249L118.52053124999999,121.19824797165276L118.73142187500001,122.49639286268194L118.9423125,121.38796748527142L119.01260937500001,121.50135643703882L119.153203125,121.00700276351346L119.293796875,120.07761142706829L119.434390625,121.15953245579007L119.574984375,121.50319027583703L119.78587499999999,120.68308709160715L119.92646875,121.36247982640798L120.06706249999999,122.24976414638019L120.20765625,122.74726730014876L120.34825,123.43174610318881L120.48884375,123.19516997433256L121.1918125,124.09147777629164L121.473,123.57958757504267L121.7541875,123.51108020249592L121.82448437500001,124.00889859548246L121.89478125,124.89799124169225L122.035375,124.46746111847936L122.246265625,124.93621457999134L122.45715625,125.10407403226631L122.59775,126.08264727872435L122.80864062500001,124.95203583461313L123.23042187499999,125.84252585761726L123.371015625,125.60791187505916L123.51160937499999,125.37739304340703L123.58190625,122.63898315650918L123.792796875,119.90138863080539L123.86309375,120.70770485762048L123.93339062499999,120.00939296906151L124.14428125,119.51777598554654L124.70665625,118.99960637240278L125.058140625,119.23785842512763L125.198734375,118.96565678224927L125.620515625,119.21323767818944L125.901703125,120.70587790443886L125.97200000000001,119.79239864515775L126.04229687499999,116.03831796125309L126.11259375,117.11375968300142L126.534375,117.57431967530556L126.745265625,118.17559927660795L127.23734375000001,118.27278663603536L127.3779375,118.58345064537309L127.58882812499999,118.19630735085612L127.659125,118.78483538042494L127.870015625,118.59343494080983L127.9403125,119.58369850126104L128.291796875,119.29417438586506L128.36209375,119.74617121051989L128.432390625,119.95593565238087L128.64328125,119.38246608044776L128.854171875,120.79028390851252L128.92446875000002,121.19208744634406L128.99476562499999,121.4310499916017L129.0650625,122.42764749773778L129.135359375,123.01221086122831L129.557140625,124.18439728127831L129.978921875,123.65846061142682L130.400703125,124.43727606944505L130.681890625,122.69586924927202L130.822484375,122.39071507054247L131.17396875,121.7766039095304L131.45515625000002,122.37738056648058L131.947234375,122.14644880730808L132.087828125,123.79430640297092L132.29871875,120.52932665886844L132.4393125,121.37394733504497L132.509609375,122.21976176460291L132.7205,122.7841612520248L132.790796875,123.65534474321764L132.931390625,123.27874555855404L133.0016875,120.71247902357403L133.212578125,121.43701869831808L134.407625,121.10907262811219L134.477921875,117.89846098828934L134.54821875,118.9499600248157L134.61851562500001,118.91338645671617L134.899703125,115.97696256300009L135.11059375,115.54938513332206L135.39178125,116.41402399692655L135.462078125,116.24932094858514L135.532375,116.7540753515417L135.8135625,117.81101041536768L135.88385937500001,117.61434685168129L135.95415624999998,117.99393543220648L136.09475,118.60726798096195L136.23534375,121.04022418814642L136.3759375,120.73643652286665L136.51653124999999,119.13119104699342L137.07890625,119.78888013709619L137.430390625,121.12598457361479L137.5006875,122.20931493002946L138.133359375,122.6393103834498L138.20365625,122.79790765533903L138.97692187500002,121.06896863708116L139.32840625,121.86297144722135L139.53929687500002,122.04347726282077L139.60959375,122.69523128692563L139.820484375,121.29304653399569L139.961078125,121.51801945940882L140.031375,122.95953239607715L140.59375,123.10654380194589L140.664046875,124.16786724721298L140.73434375,123.93852195677687L140.80464062500002,124.49670331607271L141.01553124999998,123.76172562758978L141.156125,123.39538390166942L141.226421875,122.5445982293975L141.29671875,121.83171281746499L141.85909375,120.34229258731446L142.210578125,120.82579620156802L142.280875,121.15013764593704L142.491765625,121.29932535719384L142.98384374999998,120.73316818413714L143.1244375,119.44619686670075L143.82740625,118.33075385427296L144.178890625,119.42454244127663L144.2491875,119.75929381999067L144.38978125,117.40173619009919L144.46007812500002,119.06588068528782L144.881859375,118.30086575131773L144.95215625,119.12920067828179L145.3739375,120.64711335778858L145.444234375,121.71726375220926L146.07690624999998,122.9068384961184L146.35809375,124.79212881402826L146.49868750000002,124.59699807100955L146.779875,124.06042734137887L147.412546875,124.75584745898477L147.55314062500003,125.75583091130802L147.76403125,126.1504488625209L147.904625,124.48854525028956L147.974921875,124.32183855146235L148.32640625,123.3876733285914L148.537296875,123.44177418302394L148.88878125,123.46499161409979L149.02937500000002,123.25961043253334L149.3105625,123.07328259477683L149.45115625,124.41257373094219L149.521453125,125.8102322200625L149.59175000000002,126.74371697880315L149.73234374999998,128.2141224460766L149.8729375,129.33993803925614L150.224421875,130.3764557849415L150.4353125,130.8097974863337L150.57590625,132.04699969930033L150.786796875,132.0784095221434L150.9976875,133.1939813940921L151.278875,133.0162452633068L151.489765625,132.3702812816799L151.77095312499998,132.05690733473904L151.84125,133.37119883721186L151.911546875,134.7715915112874L152.403625,135.1743620588847L152.54421875,134.5649581748015L152.68481250000002,133.26162636546562L152.89570312499998,134.74498661547761L152.966,136.06156598577203L153.38778125,132.9525109615949L153.458078125,131.7658693828214L153.739265625,131.29151597060007L154.020453125,130.5044497128468L154.23134375,129.10746550741268L154.30164062499998,128.2632907446261L154.3719375,128.18003106226035L154.442234375,126.08923287137708L154.582828125,127.13233185632635L154.79371875,127.36265966663571L155.28579687500002,127.30188569262779L155.35609374999999,127.94061658953021L155.707578125,128.65645109128494L155.84817187500002,127.73419767840713L155.91846875,128.30246988381026L155.98876562499998,128.24577398538358L156.6214375,128.2850925076409L156.902625,129.46672425777325L156.972921875,130.27904674199277L157.04321875,130.13379089905408L157.113515625,129.4173685602269L157.254109375,129.81650041972634L157.60559375,129.1853084447238L157.675890625,127.1362509446827L157.81648437500002,128.1213456309124L157.88678125,127.00320781994519L157.95707812499998,127.74342569923343L158.16796875,128.1871449699495L158.3085625,127.9091068119769L158.37885937500002,128.05633261875474L158.44915625,128.60341810385302L159.081828125,129.27761212912264L159.29271875,130.05654035423106L159.925390625,130.55361084376324L160.34717187500002,131.77254281266514L160.41746875,131.62892052230126L160.83925,132.019288850081L160.90954687500002,128.5857524108818L160.97984375000001,129.7677547374122L161.12043749999998,127.79548005348522L161.54221875,125.89095697898937L161.964,124.24660221127365L162.03429687500002,122.41389106063198L162.596671875,119.92684689379621L162.66696875,119.24047186049374L162.877859375,120.44583257876275L163.08874999999998,118.6563735130421L163.3699375,119.31181038108163L163.51053125,119.30777759624259L163.79171875,118.3017453040519L164.21349999999998,118.7650915084956L164.4946875,117.90357070801142L164.56498437500002,117.5048366522921L164.77587499999998,117.99545791317347L164.91646875,118.80250838767759L165.12735937500003,118.42166781147512L165.408546875,116.99303356222394L165.549140625,116.57231180421095L165.689734375,117.64691363484923L165.76003125,117.0515201462986L165.830328125,119.09822103795662L166.32240625,118.45121683802837L166.463,116.23974371804687L166.53329687500002,116.4400531555991L166.955078125,115.98855063804317L167.025375,117.41325555232402L167.095671875,117.9980023704407L167.236265625,119.03519100859754L167.37685937499998,119.46974994134436L168.220421875,120.1017500049905L168.85309375,120.0974867973018L169.13428125000002,119.59170210704616L169.485765625,119.3621087173467L169.5560625,120.45389722728582L169.90754687499998,121.6663981672022L169.97784375,121.89251531905434L170.048140625,122.1783907402931L170.329328125,122.56977606788328L170.399625,122.57211584553355L170.82140625000002,121.40051347165065L171.10259375,121.3582740673141L171.172890625,122.0378074448092L171.2431875,123.01362303188318L171.38378125,124.45257439284717L171.454078125,123.75485123074282L171.8055625,125.01275391012939L172.016453125,124.15247359192793L172.157046875,123.5889914504296L172.3679375,123.71971772343315L172.578828125,123.3351247978029L172.78971875000002,123.34665766148188L172.93031249999999,124.48342162983744L173.35209375000002,123.86352066613226L173.42239062500002,124.35630629208787L173.56298437499998,125.0834220795393L173.703578125,124.64579352908342L174.33625,121.50707815691143L174.406546875,121.78176470345886L174.47684375,123.2098953138722L174.547140625,122.81270153020427L175.53129687499998,123.45539856493627L175.812484375,122.82347836858727L176.09367187499998,123.24531347053346L176.16396874999998,122.6982854368978L176.374859375,123.01139300968251L176.44515625,123.54319264607071L176.656046875,124.55555789646914L176.796640625,125.16361183445423L176.937234375,125.11926660429995L177.28871875,125.47375257726114L177.499609375,126.5574807518554L177.640203125,126.66594432984877L177.7105,127.78142961454672L177.85109375,127.67651533106451L178.06198437499998,128.90933148771123L178.272875,129.20254497196055L178.41346875,129.40009084376L178.62435937499998,129.36548332824924L178.83525,128.92279948261415L178.905546875,125.8155117050693L179.1164375,126.13833788996487L179.327328125,125.50242605414144L179.889703125,124.57233386407455L179.96,122.74462980120805L180.10059375,124.63158349661323L180.452078125,124.43120748234452L180.8035625,124.8044825276385L180.873859375,124.94689887266068L180.94415625,124.14594744339058L181.08475,123.28680450865036L181.155046875,123.53478529917025L181.295640625,118.35724160495562L181.436234375,118.48802932280103L181.64712500000002,118.74324539225745L181.71742187499999,118.13217627386618L181.998609375,118.63081148462496L182.35009374999998,118.0130541133426L182.4906875,118.42759496281545L182.91246875,118.61975988071947L182.982765625,119.02964010220187L183.0530625,119.12213326968177L183.123359375,120.16575486243354L183.19365625,118.71039515618905L183.404546875,119.08304165168781L183.54514062500002,119.44528508357222L183.75603124999998,119.32806727565807L183.826328125,120.15061445483275L184.03721875,120.57130402620709L184.17781250000002,120.98091220142385L184.31840624999998,121.69108197490436L184.388703125,122.89205364000307L184.459,123.84640411860713L184.74018750000002,124.59872697334715L185.021375,124.10418596282287L185.091671875,124.29211446553649L185.16196875,124.3280746764016L185.44315625,124.87200863644135L185.51345312499998,125.95964454251522L185.654046875,125.48245249715862L185.72434375,124.07358527537178L185.8649375,125.38115027546218L185.935234375,124.7058203023924L186.00553125,123.24960627662362L186.146125,125.26820082708063L186.216421875,124.2296742688537L186.35701562499997,124.42432105412067L186.56790625,123.31664589001446L186.70850000000002,124.68035774350258L186.778796875,123.49601777977497L187.200578125,123.45970456100235L187.27087500000002,124.91131456291501L187.34117187500001,125.14777028890933L187.622359375,125.4973948101839L187.762953125,126.90854229912946L187.903546875,128.66436374414556L188.184734375,128.61824785247182L188.6768125,128.3732963910507L188.887703125,127.66247496322904L189.028296875,127.86889579933285L189.168890625,128.5293613542745L189.2391875,129.6574986251517L189.520375,128.3733551027192L189.66096875,128.3003943055868L189.731265625,128.93449000185154L189.80156250000002,129.29146918629627L190.01245312499998,129.6578398229276L190.08275,130.63273685756897L190.293640625,130.29891700030822L190.36393750000002,130.23677724753213L190.57482812499998,130.72403007995962L190.78571875,128.57457298639662L191.06690625,128.74200998327444L191.48868750000003,130.13069633013265L191.558984375,131.76325771056588L191.769875,132.5369520628827L191.840171875,130.86280269137043L191.980765625,131.16181175149396L192.121359375,130.25559858136307L192.19165625,130.126651351377L192.33225000000002,130.84371691416794L192.402546875,131.9491081396755L192.54314062499998,130.75466212187598L192.6134375,129.23609475181024L192.683734375,129.30298665971782L192.75403125,130.19612391668096L192.89462500000002,132.08351751810147L193.03521875,130.16578260033967L193.10551562499998,130.16883007836424L193.386703125,130.340010844711L193.457,128.77168997609314L193.59759375,128.50310389837577L193.808484375,126.44188035609704L193.949078125,127.10818882604755L194.15996875,127.82790125643606L195.00353125,129.12476113913272L195.28471875,127.85097933078993L195.49560937500002,127.9575948559559L195.84709375,127.86300781185824L195.9876875,128.66413611136431L196.19857812499998,129.5559349549552L196.62035937500002,129.36462390695326L196.69065625,130.6356268553841L196.83124999999998,130.5502455348088L197.042140625,130.2627101044486L197.25303125,130.43405056468472L197.323328125,131.51469420015616L197.393625,131.16273464780804L198.026296875,130.7137467345408L198.09659375,132.04339075760808L198.166890625,132.49230227724004L198.23718749999998,133.42818591566814L198.37778125,132.63317185769952L198.518375,133.39732472545677L198.729265625,132.93988005306937L199.08075,132.9782633372472L199.22134375000002,133.01027639046023L199.29164062499999,127.36342658855565L199.36193749999998,129.16695267557247L199.432234375,129.5064521251765L199.994609375,131.16124906983788L200.62728125,130.60415380193047L200.978765625,129.88974574178158L201.541140625,129.53857325425412L201.6114375,128.95851880084928L201.822328125,126.94133414020776L202.103515625,126.72431509581844L202.31440625000002,126.73493039042478L202.59559375,125.61866948239563L202.806484375,126.82254903772123L203.017375,127.41324472573416L203.08767187499998,127.51127886828863L203.15796875,127.1947255907501L203.2985625,127.28212305928938L203.8609375,128.93370491423562L204.00153125,130.1272555412076L204.142125,129.32894964941306L204.28271875000002,128.9596389314219L204.634203125,129.35423954705666L204.98568749999998,129.86257107261176L205.5480625,130.90064950747228L205.61835937499998,131.17642379293582L205.68865625,130.49610245823828L205.96984375000002,129.1246469288469L206.180734375,129.8252318775049L206.391625,127.02092937039848L206.954,127.04899091937995L207.09459375,126.13933277818282L207.37578125000002,127.29490028894165L207.446078125,126.3892057586616L207.516375,126.06491093812282L207.58667187499998,126.19938366200762L207.727265625,126.05203326372421L207.867859375,126.46154553855533L208.07874999999999,126.52766685344268L208.289640625,126.98888463895037L208.3599375,126.90780287358214L208.50053125000002,126.61272092682967L208.641125,126.23926448962698L209.133203125,126.09394228703123L209.414390625,126.42889617593397L209.554984375,127.53231817801826L209.695578125,128.77828779628547L209.836171875,127.55351397306649L209.90646875000002,127.6190814357931L210.0470625,126.44246887553095L210.257953125,126.7940525741142L210.398546875,126.4648040064014L210.6094375,126.49081778572545L210.75003125,125.18956550986641L210.960921875,125.60113281110645L211.03121875,125.58887291379003L211.10151562500002,123.79640536146678L211.804484375,125.23962674903194L211.87478124999998,127.0348132023762L212.015375,127.08409644585129L212.085671875,127.55972211012043L212.15596875,127.3681077589747L212.226265625,126.77787460418963L212.43715625,126.6956856797639L212.507453125,127.76863791177995L212.648046875,129.19883525030764L212.8589375,128.9721172425772L212.99953125,130.33241832909223L213.140125,131.1157178510647L213.28071874999998,132.14338122672893L213.913390625,132.9605043218079L213.9836875,133.65496791204782L214.19457812500002,132.79023818277201L214.335171875,131.76674975246578L214.475765625,132.31344919579104L214.616359375,131.7043241598112L214.75695312500002,132.19595427515245L214.82725,132.13341305142566L215.038140625,131.66553059127884L215.459921875,126.27329572175987L215.53021875,125.47487876552674L215.81140624999998,124.23901579209489L216.022296875,123.7535769633594L216.2331875,123.78650566836092L216.37378124999998,125.74560560588782L216.444078125,125.26823021942835L216.72526562500002,126.77636576363511L217.006453125,126.7882784942928L217.21734375,126.16251701127916L217.28764062500002,126.68396901813591L217.35793750000002,128.02238954237671L217.428234375,127.86313048547366L217.639125,129.95443118663758L217.9203125,132.52994088939735L218.06090625,132.67392854373804L218.34209375,133.53802536067144L218.412390625,134.1033695065451L218.552984375,133.88262225977954L218.62328125,133.5957352450297L218.974765625,134.2994885240728L219.18565625,130.73577829235163L219.25595312500002,130.0475468330336L219.396546875,129.11557899842356L219.537140625,130.5111404088949L219.677734375,130.632292629274L219.74803125,130.28570935605705L219.958921875,130.2857726533702L220.02921874999998,130.98084775454245L220.1698125,131.5990349537868L220.380703125,131.33209415909872L220.45100000000002,131.40313592273804L220.59159375,131.90721866886275L221.013375,130.87432100954157L221.224265625,132.332060263428L221.43515625,133.74412976629094L221.50545312499997,132.91121010747503L221.786640625,134.22536654364637L222.208421875,133.82282790226054L223.12228125,135.45733940674813L223.40346875,137.6991073480974L223.54406250000002,138.3362214323045L223.895546875,138.55216625155975L224.1064375,139.25545399103225L224.24703125,138.37088260595937L224.52821875,139.17260944376025L224.879703125,139.24989138604815L225.16089062499998,139.8095573939513L225.442078125,139.79736387236284L225.65296874999999,140.03310131310778L226.28564062499998,140.18973845929378L226.63712500000003,141.25356499093874L227.34009375,141.32933580475117L227.410390625,138.71262493429327L227.48068750000002,138.62789435195307L227.69157812499998,139.2500031519249L227.761875,138.9469738413648L228.11335937500002,139.62826630967712L228.25395312499998,139.77073458710083L228.535140625,137.31926993578492L228.6054375,139.37969541008576L228.67573437500002,140.49091132700954L228.74603125,141.2412657393989L228.81632812499998,140.6970446633768L228.88662499999998,140.274700701207L228.956921875,140.67076960383116L229.519296875,141.10359719584466L229.7301875,141.03397871768945L230.15196875,141.29314199618088L230.43315625,142.93111757953326L231.136125,142.84434268629673L231.20642187500002,144.67634636257404L231.27671875000001,143.68897390766838L231.76879687500002,145.05029968054248L232.12028125,146.07025072725634L232.33117187500002,145.39618593068457L232.471765625,146.1980314098425L232.5420625,147.75921741032823L232.612359375,147.3247811290119L232.68265625,148.05643760590118L232.96384375,146.24289801877535L233.52621875,146.49226168051206L233.596515625,147.98868519913512L233.80740625,146.8795172650744L233.94799999999998,148.10768326161326L234.018296875,147.79713175538507L234.158890625,148.0671428550889L234.51037499999998,148.91395916917708L235.002453125,149.9222752446876L235.143046875,150.68296803000914L235.3539375,151.58774539544584L235.49453125,151.99454099195222L235.846015625,152.8854786446427L236.05690625,152.63522677144798L236.26779687500002,152.27032954781424L236.90046875000002,152.65347111963504L236.970765625,152.4494627973409L237.18165625,153.51503518012345L237.392546875,153.32628781630675L237.533140625,153.74234995247633L237.60343749999998,153.4976270028479L238.02521875000002,153.93736114311068L238.23610937499998,154.30076711024464L238.30640625,155.28889002208274L238.447,156.30582493372663L238.657890625,157.9174423501252L238.798484375,158.56987312765418L238.939078125,158.32749139362397L239.14996875,157.76093301834956L239.220265625,159.42529838961383L239.2905625,159.45912795788828L239.782640625,160.14966151353693L240.13412499999998,159.78093618116756L240.27471875,159.57349988307737L240.345015625,161.0096969532382L240.4153125,162.34410456983613L240.6965,163.38241145142766L240.76679687499998,164.09370546156566L241.11828125000002,164.15376052713515L241.188578125,165.10431616672696L241.469765625,164.64418199647216L241.68065625,165.06332312887523L241.750953125,165.34559792035617L241.891546875,166.09513675106285L242.383625,168.29834428671694L242.453921875,165.52158010021748L242.80540625,166.21845336500496L243.64896875000002,166.20110185482434L244.000453125,166.10252704844368L244.141046875,166.1830846400898L244.21134375000003,166.23854095246003L244.422234375,167.85891144201088L244.49253125,167.83249911448044L245.125203125,168.63235698148216L245.546984375,168.45127516074103L245.82817187499998,168.47438573553666L245.89846875,169.1907929993098L245.968765625,169.08342706368379" style="fill: none;" fill="none"></path></g></g></g></g><g opacity="0.2"><g><g><g><path stroke="rgb(255, 112, 67)" stroke-width="2px" d="M36.554375,-13.429462522268352L36.8355625,34.359588116407366L37.679125,-43.8717711567879L38.452390625,-3.200468778610258L38.874171875,79.45306414365767L38.944468750000006,-108.16747432947164L39.155359375,-44.41004207730296L39.717734375,11.89168953895566L39.928625,-48.83845782279971L40.139515624999994,7.544816672801943L40.2098125,38.79960888624191L40.280109374999995,47.63358199596402L40.35040625,133.23074692487717L40.701890625,-366.55756121873856L41.264265625,76.86633059382437L41.3345625,2.4903010725974752L41.75634375,48.07079249620435L42.318718749999995,110.34177058935165L42.529609375,12.686941415071459L42.59990625,90.43324144184588L43.091984375,46.06202432513234L43.302875,109.60524716973305L43.44346875,146.8080978989601L44.00584375,274.53211659193045L44.216734375,187.76466847956183L44.28703125,135.7797201871872L44.919703125,-79.94212096929556L45.060296875,85.98286846280097L45.13059375,117.71951095759869L45.200890625,64.18608316779137L45.69296875,29.84835469722745L46.044453125000004,124.95583707094193L46.185046875000005,-47.51174858212474L46.25534375,76.736829072237L46.53653125,173.4994340837002L46.888015625,46.119829654693575L46.958312500000005,77.35512630641459L47.169203125,110.03267692029476L47.590984375000005,41.20554143190384L47.66128125,147.64339590072632L47.801875,111.96012200415134L48.012765625,-31.97943454980856L48.153359375,76.16035827994347L48.223656250000005,21.8031715750694L48.36425,155.58962860703468L48.50484375,1.016990482807131L48.575140624999996,185.63006931543353L49.067218749999995,135.28336362540722L49.62959375,68.06822755932808L49.699890624999995,95.83779798448086L49.7701875,-34.68024021387106L50.75434375,-72.94371983408934L50.824640625,173.37960341572764L50.965234375,163.1090689599514L51.246421874999996,163.38455641269684L51.4573125,35.93510204553601L51.527609375,55.541878581047044L51.59790625,44.20390167832372L51.808796875,21.23738268017766L52.652359375,-169.35619598627096L53.074140625,92.15089493989944L53.28503125,66.23513923585413L53.425625000000004,-6.299274027347593L53.495921875,-16.06011053919798L53.636515625,141.03622475266457L53.917703125,-58.65652820467952L54.198890625000004,179.50452865660193L54.339484375000005,149.22908620536327L54.69096875,137.8130171597004L55.675125,173.92064371705058L56.026609375,-123.7513955533505L56.09690625,153.66385394334793L56.378093750000005,87.53569984436034L56.448390625,130.6006264090538L56.729578125,122.13678324222565L56.799875,170.3216355443001L56.94046875,204.45216597616675L57.151359375,-287.48791477084166L57.50284375,26.756231129169464L57.57314062499999,120.27180308103561L57.6434375,39.516526848077746L57.994921874999996,57.521062731742845L58.06521875,-20.098351299762754L58.135515625,126.82323494553566L58.346406249999994,10.359474658966036L58.979078125,247.39884437620645L59.119671874999995,102.60480196774006L59.541453125,80.48406505584715L59.963234375,253.62956655770546L60.033531249999996,-17.366510987281828L60.4553125,107.22217300534248L60.666203125,-15.486409127712278L60.947390625,25.262787580490084L61.228578125,98.92774561047554L61.369171875,65.93362839519978L61.650359375,103.13803964853287L61.72065625,173.2686523497105L61.790953125,210.83002799749377L61.931546875,49.45548290014267L62.28303125,110.59587226808071L62.634515625,207.09059463441375L62.7048125,-114.30200448632246L62.775109375,94.66434979438782L63.8295625,22.978663831949206L64.321640625,116.08766430616379L64.74342187500001,179.86221836507323L64.81371875,218.17301923036578L64.9543125,157.03660809993744L65.09490625000001,-23.651422917842893L65.37609375000001,129.62176018953323L66.008765625,-6.878558158874512L66.149359375,27.918228149414034L66.21965625,38.667557775974245L66.43054687499999,35.083363592624664L66.852328125,44.87571829557416L67.414703125,65.13288171589375L67.485,113.90739233791828L67.695890625,139.9903658926487L67.7661875,139.6013997644186L68.398859375,190.43188990652564L68.46915625,97.10276761651039L69.242421875,151.0629657804966L69.4533125,-69.85326668620115L69.664203125,182.1898829340935L69.804796875,166.90784619748592L70.78895312499999,137.45365703105927L71.1404375,183.1973660886288L71.28103125,257.8505974411965L71.49192187499999,167.68982262909415L71.632515625,-36.72923034429553L71.984,137.3256720751524L72.05429687499999,120.23329550027847L72.476078125,150.3630597293377L72.616671875,258.36299882829195L72.68696875,259.4828397184611L72.8275625,86.73778848350047L72.897859375,-30.75853323936468L73.10875,21.083088606595965L73.24934375000001,47.93170803785324L73.60082812499999,49.96671938896178L73.671125,152.33285875618458L74.30379687499999,232.39493259787562L74.444390625,77.5811385512352L74.725578125,-108.09793210029608L74.79587500000001,136.81590819358826L74.86617187499999,29.93029320240018L75.147359375,169.61720177531245L75.428546875,22.496220111846895L75.49884375,65.50048404932022L75.709734375,157.67031276226044L75.85032812499999,197.28634917736056L75.920625,161.2169664502144L75.990921875,-36.41097134351736L76.06121875000001,168.64686349034312L76.13151562499999,185.97087898850444L76.2018125,134.07378160953522L76.34240625000001,190.54286295175555L76.412703125,228.2492134869099L76.7641875,23.341848343610735L76.834484375,-9.11278909444809L77.115671875,228.9743736535311L77.32656250000001,89.82435131072998L77.46715625,163.78295162320137L77.88893750000001,34.88163837790486L78.02953125,293.713782183826L78.381015625,224.92986881732944L78.662203125,127.57830882072449L78.7325,194.10386906564239L78.87309375000001,111.07099691033363L79.71665625,260.98301989585167L80.208734375,89.09701520204543L80.27903124999999,87.92908379435538L80.419625,124.32778106629848L80.48992187500001,-136.6360056996346L80.56021874999999,197.9857277274132L80.630515625,153.8426328599453L80.771109375,202.00998970866206L80.982,2.0512443184852316L81.2631875,115.53633773326874L81.333484375,70.34333983063698L81.614671875,103.59028393030167L81.82556249999999,169.18502451479438L82.10674999999999,24.6781405210495L82.31764062500001,251.43532679975038L82.38793749999999,155.96877002716064L82.458234375,94.45163497328758L82.52853125,180.47651538252833L82.598828125,142.7479218840599L82.739421875,-66.32406449317935L82.80971875,131.73147888481617L82.880015625,206.86765947937968L83.09090624999999,7.287044465541811L83.161203125,252.62338017672306L83.37209374999999,238.6432711184025L83.5126875,164.35524636507037L83.58298437500001,115.9848895072937L84.0750625,159.31684152781963L84.285953125,43.92164462804794L84.56714062500001,164.99356666207314L84.77803125,54.42964249849318L84.91862499999999,193.45752635598186L85.05921875,150.01715087890625L85.34040625,65.04305267333983L85.62159375,66.98772946000098L85.832484375,112.69040332734585L85.90278125,259.3050938248635L85.973078125,37.5003736615181L86.043375,-169.78118604421627L86.46515624999999,119.2758590131998L86.8869375,178.79798488318923L87.02753125,142.53021778166294L87.097828125,-70.59321886301046L87.37901562500001,159.82999020814896L87.58990625,284.0004097819329L87.87109375,179.3196614980698L87.941390625,122.30149546265602L88.0116875,269.9181743115187L88.292875,-19.781059384346037L88.71465625,63.82569001615046L88.925546875,192.08986984193328L88.99584375,49.672417730093L89.206734375,176.56498478353026L89.27703125000001,150.43761321902275L89.34732812499999,118.52359847724438L89.487921875,199.2855344116688L89.55821875,50.30366072058676L89.98,71.25657612085342L90.2611875,84.83832293748854L90.33148437499999,105.22657038271427L90.472078125,82.311460763216L90.61267187499999,160.05848610401154L90.753265625,46.127918004989624L90.82356250000001,117.29366371035576L90.89385937499999,189.98694272339347L90.96415625,233.5380494743586L91.034453125,172.76176774501803L91.24534375,274.8330339938403L91.3859375,242.97691249847415L91.52653125,114.07599487900734L91.737421875,147.3997343480587L91.87801562499999,62.30444276332854L91.9483125,155.31497636437416L92.018609375,54.439489185810075L92.44039062499999,-309.1511104106904L92.5106875,-19.90774756670001L92.65128125000001,94.20340174436569L92.862171875,217.39937292039397L93.143359375,183.41498227417472L93.35425000000001,108.83307346701622L93.565140625,89.50991669297217L93.63543750000001,242.79224315285688L93.91662500000001,241.66811631619933L94.05721875,155.95105478167534L94.408703125,16.157503068447085L94.61959375,81.46570065617561L94.7601875,49.452361851930604L95.814640625,142.168725669384L96.095828125,171.73696497082713L96.236421875,-24.96490067243579L96.30671875,21.44877874851224L96.58790625,197.94497826695445L96.798796875,247.84522020816806L97.0096875,91.85624161362648L97.15028124999999,211.90221795439723L97.642359375,189.608306825161L97.71265625,136.25557014346123L97.85324999999999,166.78821334242824L98.13443749999999,89.41342794895172L98.41562499999999,112.04346717894077L98.907703125,238.35481593012813L99.048296875,-15.928499013185558L99.11859374999999,71.75702081620692L99.2591875,117.03389139473438L99.470078125,82.57290349900721L99.540375,102.14435943961143L99.61067187500001,123.58565294742584L99.8215625,-97.54386579990393L99.89185937500001,200.55892208218577L99.96215624999999,121.11595870554447L100.032453125,49.41376635432242L100.594828125,93.50521007180214L100.66512499999999,88.39469143748283L100.87601562500001,195.21773160994056L101.36809375,72.71386386454105L101.578984375,171.89310529828074L102.14135937500001,267.66815131157637L102.42254687500001,207.29038567841056L102.49284374999999,91.38302916288376L102.70373437500001,239.01537919044497L103.406703125,315.8530805408955L103.477,22.203852623701067L103.7581875,193.96449887752536L103.828484375,132.36920574307442L103.89878125,165.92544132471085L103.96907812500001,216.748106867075L104.17996875,44.965393483638735L104.25026562500001,-1.5851724743843363L104.3205625,96.02631369233131L104.53145312500001,103.05273832380772L104.60175,80.88017442822456L105.164125,109.65340362489223L105.4453125,262.20988856256014L105.7265,268.71207600086933L105.796796875,166.28853791952136L106.0076875,186.1910667419434L106.218578125,184.0382907688618L106.288875,126.62704849243164L106.35917187499999,125.99079424142838L106.42946875,78.95677351951599L106.64035937499999,184.79718902707103L107.20273437499999,226.21991673111918L107.343328125,125.94046184420586L107.483921875,206.37013801932338L107.624515625,-287.2783209979535L107.6948125,148.10535499453545L107.90570312499999,139.99909164011478L108.046296875,91.46303349733353L108.18689062499999,153.42041218280792L108.538375,129.20582556724548L109.030453125,207.19174297153953L109.10075,226.78524406254294L109.311640625,99.13821855187416L109.45223437499999,112.07201817631721L109.874015625,129.0642354786396L109.94431250000001,57.325579613447175L110.08490625,44.13150215148923L110.22550000000001,106.29812294244766L110.5066875,163.05440665781498L110.787875,289.5595021694899L110.92846875000001,84.01005828380585L111.27995312499999,230.56445980072024L111.35025,55.26828134059906L111.420546875,146.44278140366077L111.912625,170.2720284610987L111.982921875,223.5605638623238L112.404703125,241.78572708368307L112.685890625,82.54090176522732L112.75618750000001,110.53795704245567L112.82648437499999,23.907241612672777L113.45915625,206.6431638002396L113.59975,280.87736146152025L113.810640625,13.290490597486468L114.232421875,204.51977403461936L114.30271875,70.61331050097941L114.58390625,153.9761126190424L114.794796875,111.15144082903862L114.86509375,140.24442361295223L114.935390625,176.41853728890422L115.919546875,20.059780418872805L116.1304375,26.287282645702362L116.341328125,221.57368698716166L116.763109375,-7.787090897560148L116.83340625,43.55459177494046L117.887859375,203.8324400931597L118.23934374999999,-188.655087709427L118.309640625,51.95091480016707L118.45023437500001,150.88770353794098L118.52053124999999,208.5050668716431L118.73142187500001,248.46189098060137L118.9423125,13.810123145580263L119.01260937500001,132.5084880143404L119.153203125,73.00853917002678L119.293796875,29.822155475616427L119.434390625,226.24794022738936L119.574984375,154.8895467221737L119.78587499999999,40.9948926568031L119.92646875,187.39049436151984L120.06706249999999,208.49818737804893L120.20765625,171.11596429347995L120.34825,189.9909209609032L120.48884375,100.18618741631508L121.1918125,211.28042602539065L121.473,73.77629505097865L121.7541875,116.84462839365005L121.82448437500001,172.4600151330233L121.89478125,211.4454899132252L122.035375,82.55096824467182L122.246265625,170.58182546496394L122.45715625,141.45237916707993L122.59775,221.40438111126426L122.80864062500001,14.802440643310518L123.23042187499999,212.61236631870273L123.371015625,102.74333694577217L123.51160937499999,102.9083568751812L123.58190625,-144.32002639770513L123.86309375,199.3372295200825L123.93339062499999,51.901769280433655L124.14428125,71.56226301193237L124.70665625,68.44644585251808L125.058140625,142.48540216684341L125.198734375,92.40158984065056L125.620515625,143.37806591391563L125.901703125,266.4140284210444L125.97200000000001,30.60800024867055L126.04229687499999,-250.52978059649467L126.11259375,222.1400913000107L126.534375,162.5582259297371L126.745265625,176.91188269853595L127.23734375000001,127.7678575515747L127.3779375,148.9389386177063L127.58882812499999,80.36291563510895L127.659125,176.30595976114276L127.870015625,99.8840611577034L127.9403125,216.3942415416241L128.291796875,90.98601864278316L128.36209375,163.94559779763222L128.432390625,140.47072158753872L128.64328125,63.2907379567623L128.854171875,258.50732532888657L128.92446875000002,160.50246620178223L128.99476562499999,144.81269308924675L129.0650625,219.95269806683066L129.557140625,238.91886846721178L129.978921875,72.1735049188137L130.400703125,200.68565422296527L130.681890625,-47.81220442056659L130.822484375,92.50854068994522L131.17396875,61.63326354324816L131.45515625000002,181.22119309008124L131.947234375,99.52511863410473L132.087828125,285.23031158000236L132.790796875,209.0468544661999L132.931390625,86.36161425709723L133.0016875,-130.87753987312323L133.212578125,192.4759566932917L134.407625,88.95182052254675L134.477921875,-196.95325157046324L134.54821875,222.07604387402537L134.61851562500001,115.32608458399773L134.899703125,-172.0677275061608L135.11059375,73.6028570830822L135.39178125,201.24524497985843L135.462078125,100.08855575323105L135.532375,166.28532895445824L135.8135625,221.53663003444674L135.88385937500001,98.3124595284462L135.95415624999998,155.25255540013313L136.09475,178.81427147984508L136.23534375,359.88859815150505L136.3759375,90.9104541093111L136.51653124999999,-38.48554527759555L137.5006875,228.60606798529628L138.133359375,164.87369203567505L138.20365625,138.37665209174156L138.97692187500002,-48.775157690048246L139.32840625,199.8687308430672L139.53929687500002,139.77839836478233L139.60959375,186.73575559258464L139.820484375,-16.494243949651775L139.961078125,143.62689258158207L140.031375,264.6325033307076L140.59375,137.55599224567413L140.664046875,228.49072107672694L140.73434375,101.3933956772089L140.80464062500002,179.3710049390793L141.01553124999998,51.50165969133377L141.156125,87.37562523782253L141.226421875,38.88717406988144L141.29671875,51.729188501834855L141.85909375,-26.131689161062297L142.210578125,168.37814563512805L142.280875,153.05107349157333L142.491765625,135.97379663586617L142.98384374999998,65.04094266891478L143.1244375,-7.15980416536334L143.82740625,8.591906368732424L144.178890625,227.03976334631446L144.2491875,152.6967246234417L144.38978125,-114.58140423893934L144.46007812500002,282.827313259244L144.881859375,43.01443064212796L144.95215625,200.65193811059L146.35809375,310.38114672154194L146.49868750000002,105.38712853193283L146.779875,71.2341353446245L147.412546875,193.22494232654574L147.55314062500003,224.21679721772674L147.76403125,165.00767731666565L147.904625,-39.164571076631574L147.974921875,107.9048033952713L148.32640625,31.387558966875076L148.537296875,128.7701096534729L148.88878125,125.75177030265331L149.02937500000002,103.02974806725979L149.3105625,104.71922421455383L149.45115625,256.34490048140293L150.224421875,232.50779585540297L150.4353125,173.51033577322963L150.57590625,253.96390335261827L150.786796875,135.17375329136848L150.9976875,243.13529470562938L151.278875,115.49928078055382L151.489765625,68.70377847552298L151.77095312499998,101.16925166547298L151.84125,262.91986109316355L151.911546875,272.8132102787495L152.403625,174.87858572602275L152.54421875,74.48870727419853L152.68481250000002,4.771127939224215L152.89570312499998,280.9899389892817L153.38778125,-173.5955465435983L153.458078125,14.760064721107454L153.739265625,84.51720663905142L154.020453125,52.89153718948363L154.23134375,-8.655137926340132L154.30164062499998,45.01234108209607L154.3719375,119.9687976539135L154.442234375,-80.11729529500013L154.582828125,230.01264968514445L154.79371875,150.0806268453598L155.28579687500002,121.30733171105385L155.35609374999999,190.94534629583362L155.707578125,199.26929177343848L155.84817187500002,36.75606960058212L155.91846875,184.3631874918938L155.98876562499998,122.65245953202248L156.6214375,132.1641836464405L156.902625,246.048320658505L156.972921875,210.42677538096908L157.04321875,115.80164881050587L157.113515625,58.72684234380722L157.254109375,169.20078361034396L157.60559375,66.90047198534012L157.675890625,-75.0674832463265L157.81648437500002,225.3349457085133L157.88678125,16.656782865524264L157.95707812499998,200.79612174630168L158.16796875,171.9795275628567L158.3085625,100.4675872772932L158.37885937500002,142.58751758933067L158.44915625,182.60238879919055L160.34717187500002,252.09903308749205L160.41746875,117.45088101923466L160.83925,170.5565933287144L160.90954687500002,-210.38382536172873L162.596671875,-125.64231118559843L162.66696875,51.46644899249077L162.877859375,239.46863451600078L163.3699375,184.03596097230914L163.51053125,118.90953147411346L163.79171875,18.951412677764864L164.21349999999998,164.52380494773388L164.4946875,32.82020801305768L164.56498437500002,78.12510208785534L164.77587499999998,166.45131596922877L164.91646875,198.5121738314629L165.12735937500003,80.80643416941165L165.408546875,-24.11500847339633L165.549140625,75.01612046360968L165.689734375,223.79160934686664L165.76003125,58.23969507217407L165.830328125,321.27194555103785L166.32240625,54.538527518510804L166.463,-102.21989935636526L166.53329687500002,136.22798623144627L166.955078125,71.38508857786655L167.025375,258.1613725200296L167.095671875,175.76698550581935L167.236265625,221.5044744461775L167.37685937499998,162.40298675000668L168.220421875,182.5429130494595L168.85309375,119.67627631127834L169.13428125000002,69.61850935220717L169.485765625,96.67707422375679L169.5560625,228.33047063648704L169.90754687499998,241.4725672602654L169.97784375,144.2353870868683L170.048140625,150.42657965421677L170.329328125,161.24444046616554L170.399625,122.80332484841347L170.82140625000002,5.624536812305422L171.10259375,117.18416327238083L171.172890625,189.1907237619162L171.38378125,266.6578658074141L171.454078125,54.80069556832312L171.8055625,249.33015780150896L172.016453125,39.130264163017245L172.157046875,67.89863595366478L172.3679375,136.6399426162243L172.578828125,85.32355801761149L172.78971875000002,124.48653692007065L172.93031249999999,236.84016244113448L173.35209375000002,62.592062741518006L173.42239062500002,173.06437754631045L173.56298437499998,196.95437514781955L173.703578125,81.38820195198058L174.33625,-188.74551019072538L174.406546875,148.93412517011166L174.47684375,264.3806655108929L174.547140625,83.54948388040066L175.53129687499998,186.9879450798035L175.812484375,60.35532617568968L176.09367187499998,164.9462234377861L176.16396874999998,68.62052121758461L176.374859375,153.96483728289604L176.44515625,176.11702644824985L176.656046875,224.63963331282142L176.796640625,185.27765461802485L176.937234375,120.73510290682316L177.28871875,160.52026936411858L177.499609375,233.7025199234486L177.640203125,137.3895656466484L177.7105,238.06915210187438L177.85109375,117.30353237688541L178.06198437499998,250.8007209897042L178.272875,158.1936158388853L178.41346875,148.9324107915163L178.62435937499998,125.94362685084343L178.83525,85.15139484405516L178.905546875,-181.42867422103888L179.1164375,158.05932284891605L179.327328125,62.622833639383316L179.889703125,32.602789640426636L179.96,-57.98488742113116L180.10059375,311.2221043705941L180.452078125,104.61688899993896L180.8035625,161.71646603941917L180.873859375,139.03016002476215L180.94415625,44.94060093164441L181.08475,38.326000809669466L181.155046875,148.05792385339737L181.295640625,-393.66232639551174L181.436234375,131.42207750678062L181.64712500000002,143.9827140569687L181.71742187499999,57.700149357318864L181.998609375,167.94414409995082L182.35009374999998,56.918304800987244L182.4906875,159.4251331090927L182.91246875,137.6248091608286L182.982765625,159.56707486510277L183.0530625,128.26986277103424L183.123359375,223.38270807266238L183.19365625,-25.229969978332548L183.404546875,155.9394937157631L183.54514062500002,155.27317190170288L183.75603124999998,107.73446449637413L183.826328125,201.5066437572241L184.03721875,162.1810186803341L184.17781250000002,161.49495953321457L184.31840624999998,191.9341031610966L184.74018750000002,199.0131240487099L185.021375,75.18729457259177L185.091671875,142.88098403811455L185.16196875,127.88509467244148L185.44315625,178.6759343147278L185.51345312499998,233.54545646905902L185.654046875,78.27959397435188L185.72434375,-15.28982704877859L185.8649375,254.7249335944653L185.935234375,57.90191853046416L186.00553125,-20.800806939601927L186.146125,324.95155149698263L186.216421875,21.495770305395098L186.35701562499997,143.6794668585062L186.56790625,13.74066883325574L186.70850000000002,259.5856145173312L186.778796875,6.3342455923557L187.200578125,119.86736358702183L187.27087500000002,268.51513126492506L187.34117187500001,148.53986205160618L187.622359375,160.08530074357986L187.762953125,266.5125612318516L187.903546875,302.3680202811957L188.184734375,124.05596414208412L188.6768125,104.1398741453886L188.887703125,57.339338600635514L189.028296875,148.29070569574833L189.168890625,193.87157076597217L189.2391875,241.2688858956099L189.520375,1.326765507459612L189.66096875,121.08197884261608L189.731265625,191.66949541866782L189.80156250000002,164.6098535656929L190.01245312499998,165.9056160748005L190.08275,227.08717250823977L190.293640625,97.27121630311012L190.36393750000002,124.0887131690979L190.57482812499998,178.93278339505198L190.78571875,-84.09381842613226L191.06690625,145.30841225385666L191.48868750000003,267.52968227118254L191.840171875,-34.78327876329425L191.980765625,160.74696296453476L192.121359375,40.59073889255524L192.19165625,117.36795344948769L192.33225000000002,201.79424175620082L192.402546875,241.32337236404425L192.54314062499998,12.568121790885897L192.6134375,-21.02200573682788L192.683734375,135.92179381847382L192.75403125,218.57055725157264L193.03521875,-59.592842668294935L193.10551562499998,130.47037759423256L193.386703125,147.2784090936184L193.457,-26.415001213550596L193.59759375,101.92614981532097L193.808484375,-77.51996776461607L195.00353125,257.45327921211725L195.28471875,1.8055167198180868L195.49560937500002,138.50764819979668L195.84709375,118.50317978858948L195.9876875,207.9398714154959L196.19857812499998,217.80438387393954L196.62035937500002,110.43324807286263L196.69065625,256.4095523357392L196.83124999999998,122.10117691755295L197.042140625,101.80897863209248L197.25303125,147.38951401412487L197.323328125,238.45319488644603L197.393625,96.33331933617592L198.026296875,86.28235721588133L198.09659375,263.62416298687464L198.166890625,176.91649833321574L198.23718749999998,226.04342365264895L198.37778125,53.9581004679203L198.518375,209.01865513622764L198.729265625,87.67052033543587L199.08075,136.7767412364483L199.22134375000002,136.1783571690321L199.29164062499999,-431.46314358711254L199.36193749999998,307.6491415649653L199.432234375,163.10443134605885L199.994609375,294.92599071562296L200.62728125,75.47177152335644L200.978765625,59.18880143761635L201.541140625,94.78488379716873L201.6114375,71.55338340997695L201.822328125,-72.6902115941048L202.103515625,105.2468571960926L202.31440625000002,127.78548488020897L202.59559375,15.146283447742434L202.806484375,245.96664590388542L203.017375,185.87269784510138L203.08767187499998,137.21346819400787L203.15796875,95.86615116894245L203.2985625,135.93168446421623L203.8609375,292.38814992457634L204.00153125,248.2514510080219L204.142125,50.32137596607208L204.28271875000002,92.40919464826584L204.634203125,168.40772965550426L204.98568749999998,180.17212526500228L205.5480625,233.63954947888854L205.61835937499998,158.46996048092842L205.68865625,63.16411571204662L205.96984375000002,-6.609884262084989L206.391625,-150.52572524547583L206.954,129.8262987434864L207.09459375,36.10838615894315L207.37578125000002,241.66437985003L207.446078125,36.7500472962856L207.516375,93.9684439599514L207.58667187499998,139.50860352814198L207.727265625,111.46822722256184L207.867859375,166.9925760626793L208.07874999999999,133.07196909189224L208.289640625,172.6376511305571L208.3599375,118.88276079297066L208.50053125000002,97.40700387954712L208.641125,89.27634359896183L209.133203125,111.71061398088932L209.414390625,159.58118551969528L209.554984375,236.7445308864117L209.695578125,252.09958256781107L209.836171875,6.329805791377993L209.90646875000002,134.1087285578251L210.0470625,9.985036790370913L210.257953125,161.59278900921345L210.398546875,93.87665876746178L210.6094375,129.06559818983078L210.75003125,-3.605501711368589L210.960921875,166.33724385499957L211.03121875,124.37541002035141L211.10151562500002,-53.619244307279644L211.87478124999998,304.7203455269337L212.015375,131.96210676431656L212.085671875,174.63681438565257L212.15596875,108.4022149592638L212.226265625,68.3567706644535L212.43715625,118.56063345074654L212.507453125,233.96956735849383L212.648046875,270.76020894199615L212.8589375,106.53145426511765L212.99953125,264.9759724885226L213.9836875,202.3939885348082L214.19457812500002,47.19786608219144L214.335171875,30.45999222993848L214.475765625,186.4268597364426L214.616359375,71.41179332137108L214.75695312500002,180.85866795480254L214.82725,125.94292351603508L215.038140625,85.35325193405151L215.459921875,-407.46571159362804L215.53021875,46.44512200355527L215.81140624999998,1.909302562475176L216.022296875,75.7031906545162L216.2331875,127.0459063500166L216.37378124999998,319.66462770104414L216.444078125,78.01575550436972L216.72526562500002,276.0577377080918L217.006453125,127.96745078265667L217.21734375,64.22190928459166L217.28764062500002,178.29965019226077L217.35793750000002,260.50552149862057L217.428234375,112.09889875352383L217.639125,336.96180658042437L217.9203125,387.46712525933987L218.06090625,146.92658783495426L218.34209375,219.0710239261389L218.412390625,190.06428757309916L218.552984375,112.03179621696472L218.62328125,105.19797542691231L218.974765625,203.96121630072597L219.18565625,-222.02217018604279L219.25595312500002,61.92207039892672L219.396546875,36.86341607570648L219.537140625,268.6529629081488L219.677734375,142.62475037574768L219.74803125,95.97853088378906L219.958921875,130.2920382618904L220.02921874999998,199.78430868685248L220.1698125,192.79166610538962L220.380703125,104.90833336114883L220.45100000000002,138.43538054823875L220.59159375,181.80515879392627L221.013375,28.630134850740404L221.224265625,276.6305269822479L221.43515625,273.5220179110766L221.50545312499997,50.462086886167526L221.786640625,264.31135406345135L222.208421875,93.97620262205601L223.12228125,297.2550839334727L223.54406250000002,201.40329749882224L223.895546875,159.9282812476158L224.1064375,208.87313076853755L224.24703125,50.808039695024476L224.52821875,218.53484103083613L224.879703125,146.89997100830078L225.16089062499998,195.21052242815497L225.442078125,138.59033399820328L225.65296874999999,163.36864346265793L226.28564062499998,155.6951947659254L226.63712500000003,246.5614913180471L227.34009375,148.8298777639866L227.410390625,-120.3154731392861L227.48068750000002,130.240409091115L227.69157812499998,200.83265119791034L227.761875,108.9500248581171L228.11335937500002,207.0696484446526L228.25395312499998,153.873733446002L228.535140625,-105.35255259275442L228.74603125,215.51946887373927L228.81632812499998,86.82410085201262L228.88662499999998,98.46644589304924L228.956921875,179.87806537747386L229.519296875,183.94971454143527L229.7301875,134.1423567533493L230.15196875,166.94806815683842L230.43315625,305.0766945034266L231.136125,134.25436282157898L231.20642187500002,326.0293571427465L231.27671875000001,45.94729283452031L231.76879687500002,279.81036958843475L232.12028125,247.03711049258715L232.33117187500002,78.66919749975203L232.471765625,225.5743432939053L232.5420625,302.30431353300816L232.612359375,104.31898275017738L232.68265625,220.48477084934714L232.96384375,-33.283637076616316L233.52621875,171.17737421393397L233.596515625,296.123385258019L233.80740625,37.08013111352918L233.94799999999998,269.68708486855036L234.018296875,117.05479362607002L234.158890625,174.79629555344584L234.51037499999998,232.7427316606045L235.846015625,241.08226040005687L236.05690625,127.86197254061699L236.26779687500002,116.14793130755424L236.90046875000002,190.58196397125724L236.970765625,132.2539687305689L237.18165625,258.999824538827L237.392546875,134.64150467514992L237.533140625,194.92986986041072L237.60343749999998,129.27158737182617L238.02521875000002,197.46831507980826L238.798484375,223.15667384862903L238.939078125,134.33311434090137L239.14996875,101.67492741346359L239.220265625,324.18794968724256L239.2905625,162.80806364119053L239.782640625,228.50861215591434L240.13412499999998,123.2791748046875L240.27471875,139.03844618797302L240.345015625,303.18539423495537L240.76679687499998,234.5080580711365L241.11828125000002,170.0988982021809L241.188578125,259.2044070512057L241.469765625,119.09325571358204L241.68065625,206.55617007613185L242.80540625,235.2055464088917L243.64896875000002,164.48338517546654L244.000453125,156.3440870642662L244.141046875,174.15790931880477L244.21134375000003,171.72845901548865L244.422234375,328.26815975457436L244.49253125,165.2177985906601L245.125203125,247.81469108164313L245.546984375,150.52498058974743L245.82817187499998,170.76223084330562L245.89846875,240.11198805272582L245.968765625,158.45466294884682" style="fill: none;" fill="none"></path></g></g></g></g></g></g><g transform="translate(48, 177)" clip-path="url(#clip_1)"><clipPath id="clip_1"><rect width="281" height="23"></rect></clipPath><g><g><line x1="0" y1="0" x2="0" y2="5" style="visibility: inherit;" fill="rgb(0, 0, 0)" stroke="rgb(204, 204, 204)" stroke-width="1px"></line><line x1="35.1484375" y1="0" x2="35.1484375" y2="5" style="visibility: inherit;" fill="rgb(0, 0, 0)" stroke="rgb(204, 204, 204)" stroke-width="1px"></line><line x1="70.296875" y1="0" x2="70.296875" y2="5" style="visibility: inherit;" fill="rgb(0, 0, 0)" stroke="rgb(204, 204, 204)" stroke-width="1px"></line><line x1="105.4453125" y1="0" x2="105.4453125" y2="5" style="visibility: inherit;" fill="rgb(0, 0, 0)" stroke="rgb(204, 204, 204)" stroke-width="1px"></line><line x1="140.59375" y1="0" x2="140.59375" y2="5" style="visibility: inherit;" fill="rgb(0, 0, 0)" stroke="rgb(204, 204, 204)" stroke-width="1px"></line><line x1="175.7421875" y1="0" x2="175.7421875" y2="5" style="visibility: inherit;" fill="rgb(0, 0, 0)" stroke="rgb(204, 204, 204)" stroke-width="1px"></line><line x1="210.890625" y1="0" x2="210.890625" y2="5" style="visibility: inherit;" fill="rgb(0, 0, 0)" stroke="rgb(204, 204, 204)" stroke-width="1px"></line><line x1="246.0390625" y1="0" x2="246.0390625" y2="5" style="visibility: inherit;" fill="rgb(0, 0, 0)" stroke="rgb(204, 204, 204)" stroke-width="1px"></line><line x1="281.1875" y1="0" x2="281.1875" y2="5" style="visibility: inherit;" fill="rgb(0, 0, 0)" stroke="rgb(204, 204, 204)" stroke-width="1px"></line></g><g transform="translate(0, 8)"><text x="0" y="0" dx="0em" dy="0.95em" style="text-anchor: middle; visibility: hidden; font-family: &quot;Helvetica Neue&quot;, sans-serif; font-size: 12px; font-weight: 200;" fill="rgb(50, 49, 63)" stroke="none" stroke-width="1px">-500</text><text x="35.1484375" y="0" dx="0em" dy="0.95em" style="text-anchor: middle; visibility: inherit; font-family: &quot;Helvetica Neue&quot;, sans-serif; font-size: 12px; font-weight: 200;" fill="rgb(50, 49, 63)" stroke="none" stroke-width="1px">0</text><text x="70.296875" y="0" dx="0em" dy="0.95em" style="text-anchor: middle; visibility: inherit; font-family: &quot;Helvetica Neue&quot;, sans-serif; font-size: 12px; font-weight: 200;" fill="rgb(50, 49, 63)" stroke="none" stroke-width="1px">500</text><text x="105.4453125" y="0" dx="0em" dy="0.95em" style="text-anchor: middle; visibility: inherit; font-family: &quot;Helvetica Neue&quot;, sans-serif; font-size: 12px; font-weight: 200;" fill="rgb(50, 49, 63)" stroke="none" stroke-width="1px">1k</text><text x="140.59375" y="0" dx="0em" dy="0.95em" style="text-anchor: middle; visibility: inherit; font-family: &quot;Helvetica Neue&quot;, sans-serif; font-size: 12px; font-weight: 200;" fill="rgb(50, 49, 63)" stroke="none" stroke-width="1px">1.5k</text><text x="175.7421875" y="0" dx="0em" dy="0.95em" style="text-anchor: middle; visibility: inherit; font-family: &quot;Helvetica Neue&quot;, sans-serif; font-size: 12px; font-weight: 200;" fill="rgb(50, 49, 63)" stroke="none" stroke-width="1px">2k</text><text x="210.890625" y="0" dx="0em" dy="0.95em" style="text-anchor: middle; visibility: inherit; font-family: &quot;Helvetica Neue&quot;, sans-serif; font-size: 12px; font-weight: 200;" fill="rgb(50, 49, 63)" stroke="none" stroke-width="1px">2.5k</text><text x="246.0390625" y="0" dx="0em" dy="0.95em" style="text-anchor: middle; visibility: inherit; font-family: &quot;Helvetica Neue&quot;, sans-serif; font-size: 12px; font-weight: 200;" fill="rgb(50, 49, 63)" stroke="none" stroke-width="1px">3k</text><text x="281.1875" y="0" dx="0em" dy="0.95em" style="text-anchor: middle; visibility: hidden; font-family: &quot;Helvetica Neue&quot;, sans-serif; font-size: 12px; font-weight: 200;" fill="rgb(50, 49, 63)" stroke="none" stroke-width="1px">3.5k</text></g><line x1="0" y1="0" x2="281.1875" y2="0" fill="rgb(0, 0, 0)" stroke="rgb(204, 204, 204)" stroke-width="1px"></line></g></g></g></g></svg>