<svg viewBox="0 0 330 200" xmlns="http://www.w3.org/2000/svg"><g><g><g><g><g><line x1="39.109375" y1="160.36721601739973" x2="34.109375" y2="160.36721601739973" style="visibility: inherit;" fill="rgb(0, 0, 0)" stroke="rgb(204, 204, 204)" stroke-width="1px"></line><line x1="39.109375" y1="108.66934413122353" x2="34.109375" y2="108.66934413122353" style="visibility: inherit;" fill="rgb(0, 0, 0)" stroke="rgb(204, 204, 204)" stroke-width="1px"></line><line x1="39.109375" y1="71.98912028914057" x2="34.109375" y2="71.98912028914057" style="visibility: inherit;" fill="rgb(0, 0, 0)" stroke="rgb(204, 204, 204)" stroke-width="1px"></line><line x1="39.109375" y1="43.53772830156919" x2="34.109375" y2="43.53772830156919" style="visibility: inherit;" fill="rgb(0, 0, 0)" stroke="rgb(204, 204, 204)" stroke-width="1px"></line><line x1="39.109375" y1="20.291248402964385" x2="34.109375" y2="20.291248402964385" style="visibility: inherit;" fill="rgb(0, 0, 0)" stroke="rgb(204, 204, 204)" stroke-width="1px"></line><line x1="39.109375" y1="0.63662970085241" x2="34.109375" y2="0.63662970085241" style="visibility: inherit;" fill="rgb(0, 0, 0)" stroke="rgb(204, 204, 204)" stroke-width="1px"></line></g><g transform="translate(29.109375, 0)"><text x="0" y="160.36721601739973" dx="0em" dy="0.3em" style="text-anchor: end; visibility: inherit; font-family: &quot;Helvetica Neue&quot;, sans-serif; font-size: 12px; font-weight: 200;" fill="rgb(50, 49, 63)" stroke="none" stroke-width="1px">0.2</text><text x="0" y="108.66934413122353" dx="0em" dy="0.3em" style="text-anchor: end; visibility: inherit; font-family: &quot;Helvetica Neue&quot;, sans-serif; font-size: 12px; font-weight: 200;" fill="rgb(50, 49, 63)" stroke="none" stroke-width="1px">0.3</text><text x="0" y="71.98912028914057" dx="0em" dy="0.3em" style="text-anchor: end; visibility: inherit; font-family: &quot;Helvetica Neue&quot;, sans-serif; font-size: 12px; font-weight: 200;" fill="rgb(50, 49, 63)" stroke="none" stroke-width="1px">0.4</text><text x="0" y="43.53772830156919" dx="0em" dy="0.3em" style="text-anchor: end; visibility: inherit; font-family: &quot;Helvetica Neue&quot;, sans-serif; font-size: 12px; font-weight: 200;" fill="rgb(50, 49, 63)" stroke="none" stroke-width="1px">0.5</text><text x="0" y="20.291248402964385" dx="0em" dy="0.3em" style="text-anchor: end; visibility: inherit; font-family: &quot;Helvetica Neue&quot;, sans-serif; font-size: 12px; font-weight: 200;" fill="rgb(50, 49, 63)" stroke="none" stroke-width="1px">0.6</text><text x="0" y="0.63662970085241" dx="0em" dy="0.3em" style="text-anchor: end; visibility: hidden; font-family: &quot;Helvetica Neue&quot;, sans-serif; font-size: 12px; font-weight: 200;" fill="rgb(50, 49, 63)" stroke="none" stroke-width="1px">0.7</text></g><line x1="39.109375" y1="0" x2="39.109375" y2="177" fill="rgb(0, 0, 0)" stroke="rgb(204, 204, 204)" stroke-width="1px"></line></g></g><g transform="translate(39, 0)" clip-path="url(#clip_0)"><clipPath id="clip_0"><rect width="290" height="177"></rect></clipPath><g><g><g><line x1="0" y1="0" x2="0" y2="177" fill="rgb(0, 0, 0)" stroke="rgb(60, 60, 60)" stroke-width="1px" opacity="0.25"></line><line x1="36.361328125" y1="0" x2="36.361328125" y2="177" fill="rgb(0, 0, 0)" stroke="rgb(60, 60, 60)" stroke-width="1px" opacity="0.25"></line><line x1="72.72265625" y1="0" x2="72.72265625" y2="177" fill="rgb(0, 0, 0)" stroke="rgb(60, 60, 60)" stroke-width="1px" opacity="0.25"></line><line x1="109.083984375" y1="0" x2="109.083984375" y2="177" fill="rgb(0, 0, 0)" stroke="rgb(60, 60, 60)" stroke-width="1px" opacity="0.25"></line><line x1="145.4453125" y1="0" x2="145.4453125" y2="177" fill="rgb(0, 0, 0)" stroke="rgb(60, 60, 60)" stroke-width="1px" opacity="0.25"></line><line x1="181.806640625" y1="0" x2="181.806640625" y2="177" fill="rgb(0, 0, 0)" stroke="rgb(60, 60, 60)" stroke-width="1px" opacity="0.25"></line><line x1="218.16796875" y1="0" x2="218.16796875" y2="177" fill="rgb(0, 0, 0)" stroke="rgb(60, 60, 60)" stroke-width="1px" opacity="0.25"></line><line x1="254.529296875" y1="0" x2="254.529296875" y2="177" fill="rgb(0, 0, 0)" stroke="rgb(60, 60, 60)" stroke-width="1px" opacity="0.25"></line><line x1="290.890625" y1="0" x2="290.890625" y2="177" fill="rgb(0, 0, 0)" stroke="rgb(60, 60, 60)" stroke-width="1px" opacity="0.25"></line></g><g><line x1="0" y1="160.36721601739973" x2="290.890625" y2="160.36721601739973" fill="rgb(0, 0, 0)" stroke="rgb(60, 60, 60)" stroke-width="1px" opacity="0.25"></line><line x1="0" y1="108.66934413122353" x2="290.890625" y2="108.66934413122353" fill="rgb(0, 0, 0)" stroke="rgb(60, 60, 60)" stroke-width="1px" opacity="0.25"></line><line x1="0" y1="71.98912028914057" x2="290.890625" y2="71.98912028914057" fill="rgb(0, 0, 0)" stroke="rgb(60, 60, 60)" stroke-width="1px" opacity="0.25"></line><line x1="0" y1="43.53772830156919" x2="290.890625" y2="43.53772830156919" fill="rgb(0, 0, 0)" stroke="rgb(60, 60, 60)" stroke-width="1px" opacity="0.25"></line><line x1="0" y1="20.291248402964385" x2="290.890625" y2="20.291248402964385" fill="rgb(0, 0, 0)" stroke="rgb(60, 60, 60)" stroke-width="1px" opacity="0.25"></line><line x1="0" y1="0.63662970085241" x2="290.890625" y2="0.63662970085241" fill="rgb(0, 0, 0)" stroke="rgb(60, 60, 60)" stroke-width="1px" opacity="0.25"></line></g></g></g><g><g><line x1="36.361328125" y1="0" x2="36.361328125" y2="177" fill="rgb(0, 0, 0)" stroke="rgb(153, 153, 153)" stroke-width="1.5px"></line></g></g><g><g><g><g><g><path stroke="rgb(255, 112, 67)" stroke-width="2px" d="M36.724941406250004,54.86834172836731L36.7976640625,65.67517618887368L37.16127734375,75.67922324614057L37.3794453125,82.64110498894507L37.452167968750004,89.98924856675357L37.6703359375,92.10563949221427L37.81578125,98.8456605136373L38.106671875,106.69946612693128L38.979343750000005,109.27493412913732L39.270234375,103.3352801601355L39.4156796875,104.35534891427847L39.561125000000004,107.84487191492542L39.633847656250005,110.01969898505163L39.779292968750006,112.69033232587432L40.215628906250004,117.26735464617695L40.288351562500004,120.58919211462691L40.361074218750005,124.1914215308877L40.433796875000006,126.63728673435347L40.50651953125001,126.86989740613998L41.08830078125,126.92477148536216L41.30646874999999,124.23531798285181L41.524636718749996,125.54206286037402L41.597359374999996,128.10008326500963L41.67008203125,129.52187416770832L41.7428046875,133.0055510314985L42.106417968749994,135.27507462100374L42.68819921875,139.87644854786217L42.760921875,137.73543263269613L43.1972578125,139.3426819533087L43.7790390625,140.3388492180413L43.99720703125,140.83854110485657L44.0699296875,141.64410863328283L44.57898828125,142.18270002538898L44.79715625,144.3382470992684L44.9426015625,145.70447880926525L45.5243828125,149.33874175371736L45.74255078125,151.08707386374257L45.815273437500004,152.91832772500211L46.46977734375,152.3799337897027L46.61522265625,151.08436248898056L46.6879453125,150.70736323599675L46.76066796875,150.31903856484263L47.269726562500004,152.17332250357177L47.63333984375,151.56529929538726L47.77878515625,151.3193833311529L47.8515078125,150.19263635920987L48.1423984375,151.04904567719814L48.50601171875,152.47092673311423L48.578734375,153.4743182398438L48.796902343750006,153.4454835924346L49.23323828125,151.9423612193344L49.305960937500004,153.00986826259663L49.451406250000005,152.738277301567L49.66957421875,153.8872866349608L49.81501953125,154.99001259384573L49.8877421875,155.69838509525374L50.0331875,157.52944221206693L50.1786328125,157.63636707859905L50.25135546875,158.54615645552613L50.7604140625,160.01524476622168L51.342195312499996,161.2353257060391L51.41491796875,161.392238977909L51.487640625,160.53190802390895L51.77853125,160.94562843226544L52.5057578125,162.41511084042526L52.57848046875,163.00016609754852L52.723925781249996,164.26154015396193L53.01481640625,164.2843506886099L53.232984375,159.4516513699833L53.30570703125,157.202060617161L53.3784296875,154.21607381956693L53.59659765625,154.81903658930952L54.46926953125,156.43656132154615L54.905605468750004,156.91222783189804L55.1237734375,155.94153167309534L55.26921875,153.99761574350185L55.34194140625,149.8674491895102L55.48738671875,148.90455110099566L55.77827734375,148.71416031603104L56.06916796875,147.3830219394453L56.21461328125,146.54325490689382L56.5782265625,147.24092147556695L57.59634375,147.68268042407686L57.959957031250006,149.51005899614458L58.0326796875,150.89010628665136L58.3235703125,150.74009427290903L58.396292968750004,150.85518981888129L58.68718359375001,151.24156712478944L58.75990625,151.48987899406782L58.9053515625,152.90326206339918L59.12351953125,153.82399172415793L59.48713281249999,153.66828561551043L59.559855468749994,151.8907330057704L59.632578124999995,151.02016681526882L59.99619140625,150.01994511078817L60.0689140625,149.0476903391075L60.14163671875,149.26611604711584L60.359804687499995,149.42098056355456L61.014308593749995,150.0788369246746L61.159753906249996,150.45471938682877L61.59608984375,151.71428571428572L62.03242578125,153.0018955707243L62.1051484375,154.02362047429682L62.541484374999996,153.18081800408274L62.75965234375,151.5293778177725L63.05054296875,152.76027996430025L63.34143359375,151.26840329723075L63.48687890625,151.13916035712637L63.77776953125,151.80529182696412L63.8504921875,152.04126442283683L63.92321484375,153.01336823055445L64.06866015625,152.63063014899438L64.4322734375,151.87826579265396L64.79588671875,152.56735997735814L64.868609375,152.7760837487699L64.94133203125,152.42852800925465L66.032171875,150.4094781136867L66.54123046875,150.38306023994L66.97756640625,149.90459548721356L67.0502890625,149.6997579334532L67.195734375,150.8874655034749L67.3411796875,152.29559051729723L67.6320703125,153.18691212992275L68.28657421874999,150.0186055555899L68.43201953124999,148.60028531021857L68.5047421875,147.46000966799568L68.72291015625,146.21197317654094L69.15924609375,145.8493881612922L69.74102734374999,144.52880868971582L69.81375,143.99230848294053L70.03191796875,142.30895928483125L70.104640625,141.44872227847108L70.75914453125,141.56400648097667L70.8318671875,140.12695367709085L71.63181640625,139.98631417121712L71.849984375,139.51996474040254L71.92270703125,139.32644109255364L72.06815234375,138.40274079454517L72.21359765625,138.80798441737267L73.23171484375,138.26425427190168L73.595328125,137.2576631531063L73.7407734375,137.8016520019494L73.95894140624999,139.19782366001098L74.10438671874999,140.04628441784044L74.468,140.01615797683206L74.54072265625,140.1972985313102L74.97705859374999,140.50087132052101L75.12250390624999,141.9606458251066L75.1952265625,141.01170969232263L75.340671875,141.2550062014942L75.41339453124999,141.40783916828224L75.6315625,140.85030916179545L75.7770078125,138.5618252967594L76.14062109375,138.41651904021185L76.21334375,136.7939747424739L76.86784765624999,136.13411699283645L77.01329296875,135.68159902919726L77.30418359375,136.602961366535L77.37690625,135.94410984949693L77.44962890625,135.06424300251885L77.74051953125,133.22163279063778L78.03141015624999,133.89246278035216L78.1041328125,133.0813922440805L78.32230078125,131.45541859328367L78.46774609375,130.19653045271875L78.54046875,130.48919235306903L78.61319140625,129.65378438751452L78.6859140625,128.83914167829323L78.75863671875,127.5663030535261L78.831359375,126.67022203725223L78.9768046875,125.69526942113211L79.04952734375,125.41470295629007L79.41314062500001,124.935916506707L79.48586328125,124.23056113303909L79.77675390625,123.67142900142348L79.994921875,123.34527132767496L80.1403671875,122.79667314369298L80.57670312500001,121.378610790398L80.72214843750001,121.45888531257374L81.08576171874999,119.78569864262161L81.37665234375,119.2751380148119L81.449375,119.01191761375671L81.5948203125,118.13907201919687L82.4674921875,117.40266987795124L82.97655078125,116.7763864164923L83.04927343749999,116.51787399385428L83.19471874999999,115.76968105685623L83.26744140625,117.05998779921137L83.3401640625,116.94239611158532L83.41288671875,116.47875287292854L83.55833203125,115.11559246745972L83.7765,113.83714084863004L84.06739062499999,112.28577760831499L84.14011328125,110.84742756239461L84.43100390625,110.77429993825434L84.649171875,110.32528929370567L84.9400625,109.83250068787625L85.15823046875,109.32347174759215L85.230953125,108.02251826667786L85.30367578125,106.82997415381624L85.3763984375,106.38673976018995L85.44912109375001,104.533240691013L85.59456640625001,103.88323585311976L85.66728906249999,103.34462673244674L85.74001171875,102.74011236203857L85.95817968749999,101.73992512889052L86.03090234375,102.79543197061933L86.103625,102.3374250797475L86.2490703125,101.27318526552905L86.394515625,101.26033651660856L86.46723828125,100.92695358980322L86.976296875,100.99183254712668L87.19446484375,101.25414355826366L87.48535546875,100.66217550260706L87.7035234375,99.58372752890199L87.84896875,98.85573545032956L87.9944140625,99.5275420793116L88.2853046875,98.06012391678107L88.5761953125,96.91572218589914L88.79436328125,96.5081979951749L88.8670859375,96.35258988916468L88.93980859375,95.74731736560639L89.01253125,96.34693357439455L89.4488671875,96.12942994526964L89.885203125,95.1888874402812L90.0306484375,94.52558681589123L90.10337109375001,95.2111784864409L90.39426171875,94.93111662855543L90.6124296875,95.4133699495267L90.68515234375,95.10762037036706L90.9033203125,95.75109550886107L90.97604296875,95.86880814708555L91.048765625,95.4728213094081L91.1942109375,95.32974382606243L91.33965625,95.10575013771737L91.7759921875,94.40077209147715L91.99416015624999,93.47227973556822L92.0668828125,92.9346639086725L92.28505078124999,93.7930770412631L92.3577734375,92.32664515634262L92.43049609375,92.30275503528313L92.57594140625,92.21539251554074L92.6486640625,91.97430130821557L93.08500000000001,91.4780406862229L93.375890625,90.4142468890168L93.44861328124999,89.57884207173674L93.59405859374999,89.02174521441891L93.73950390625,89.28323591704545L93.88494921875,88.3420223355201L93.957671875,87.88527065389792L94.03039453125,87.52105722729868L94.1031171875,87.29782268094291L94.17583984375,87.13510545721984L94.3940078125,87.2719625635649L94.53945312500001,86.96343918867407L94.68489843750001,86.44059001745718L94.90306640624999,86.68942886476962L95.04851171874999,85.70091108860096L95.121234375,85.23667810697994L95.19395703125,84.48660718786748L95.63029296875,84.78463225944604L95.703015625,84.3308940539279L95.84846093750001,84.49715200660181L96.06662890625,84.60085415373679L96.35751953124999,83.99447655541388L96.5756875,83.73047249804885L96.79385546875,83.9812985498098L96.866578125,84.44251289830214L97.0120234375,84.5726597763912L97.15746875,84.59211523815512L97.30291406250001,84.71950022974647L97.66652734375,84.16450375314788L97.8846953125,84.06361242248974L98.030140625,83.44976547153743L99.12098046875,82.86625322746863L99.41187109375,82.24594818453828L99.55731640625,82.7789060364297L99.6300390625,82.63018406434226L99.9209296875,82.02258826230751L100.066375,81.39628267315399L100.13909765625,81.20428635434156L100.357265625,80.25269474127137L100.5027109375,79.50518950718158L100.64815625,79.50073426443569L100.86632421875,80.83936774901267L101.01176953125,80.63899642524181L101.08449218749999,79.75356272923243L101.22993749999999,79.79506013798327L101.520828125,79.21576626712665L101.81171875,79.69034238543753L102.32077734375,79.22765068661036L102.39349999999999,78.61640394629299L102.46622265625,78.3483514308309L102.53894531249999,78.14412441284243L102.68439062499999,77.5440405411113L102.90255859375,76.70787398192635L102.97528125,76.19887597079932L103.04800390625,76.09700245349246L103.266171875,76.41639011311665L103.33889453125,75.04512942735973L103.4116171875,74.59407406208864L103.48433984375,74.4475636718161L104.06612109375,74.4726356170752L104.13884374999999,74.17736662163713L104.35701171875,73.27352254920962L104.8660703125,72.31438700612414L105.08423828125001,71.95828592139591L105.66601953125,71.81032359369694L105.7387421875,72.22738202430483L105.8841875,71.89861675150132L105.95691015625,71.85989375868436L106.0296328125,71.50278721694812L106.24780078125,71.8688830980596L106.3205234375,72.36530314239641L106.46596875,71.49987947943607L106.6114140625,71.26977218803891L106.97502734375,71.86831006281938L107.04775,71.80880771769311L107.338640625,71.85176002548951L107.41136328125,71.08010002582886L107.4840859375,70.75898964000113L107.55680859375,70.94933444365975L107.7749765625,71.33880255072775L107.84769921875001,71.27540781766729L107.920421875,70.49139369838116L108.13858984375001,69.4808693156157L108.2113125,69.5045362108769L108.79309375,68.88481750409363L109.083984375,69.08560362097688L109.2294296875,69.22506993177133L109.374875,69.3274246555902L109.44759765625,69.09808285351892L109.665765625,68.95213950668403L109.88393359374999,68.31875722944089L109.95665625,68.39435043344183L110.02937890624999,67.6950017375827L110.1021015625,66.93298366283214L110.32026953124999,66.70259981281583L110.90205078125,66.30197946150021L111.04749609375,66.03663089822832L111.19294140625,66.04668843912093L111.33838671874999,66.1165071174481L111.411109375,65.54134776893599L111.62927734374999,65.6168735597449L111.77472265624999,64.62983629293741L111.92016796875,64.47551436589494L112.28378125,64.39302605965425L112.79283984375,64.39819755476356L112.86556250000001,64.7330530349496L113.08373046874999,64.93198179371416L113.22917578124999,65.45943361982812L113.66551171875,65.34694979147412L113.738234375,65.21467050842939L113.8836796875,65.38020704816924L114.02912500000001,64.96586953043203L114.32001562500001,64.44553709414465L114.61090625,65.67537396267099L114.7563515625,65.93278246848114L115.11996484375,65.41055411255674L115.1926875,65.13021510205473L115.26541015625,65.45399754585368L115.77446875000001,64.80284589325409L115.84719140625,64.53580318448158L116.28352734375,64.94395808403242L116.57441796875,64.30623116185151L116.647140625,64.16495233216494L116.71986328125,64.33555923241335L117.37436718750001,63.60699552648455L117.5198125,63.333672280857684L117.73798046875,63.39569075993161L118.17431640625,63.24312541982886L118.2470390625,63.059116507673735L118.5379296875,62.534615598184715L118.75609765625,62.504474560877014L118.8288203125,62.17992345802962L118.90154296875001,62.466915324044834L119.91966015625,62.284017499440324L120.137828125,62.58798715247656L120.35599609375001,62.939997694659496L120.42871874999999,62.17088987081071L120.50144140625,61.6783183228181L120.71960937499999,61.972032071719724L120.79233203125,61.26929335318428L120.86505468749999,61.17906026142393L121.95589453125001,60.9755158778251L122.17406249999999,60.524002790573675L122.31950781249999,60.165726294479725L122.39223046875,60.0585835911054L122.53767578125,59.22448286005053L122.6103984375,58.83155844030475L122.82856640625,59.125627466531014L123.046734375,58.54083687240016L123.11945703125001,58.64240589222089L123.26490234375001,58.41996115496339L123.41034765625001,58.418545289659164L123.55579296875,58.43557051789179L123.70123828125,58.02463824672469L123.91940625,57.66146900127619L124.0648515625,57.492078983236055L124.210296875,57.67994641615307L124.3557421875,58.098624214485895L124.5011875,57.91302380796397L124.6466328125,57.21064587631189L125.373859375,56.751074848032474L125.66475,56.340413231709505L125.955640625,55.92891275683503L126.02836328125001,55.29209640789226L126.1010859375,55.07218846749943L126.24653125,54.86299083153047L126.46469921875001,54.742950976295546L126.6828671875,54.59816552432093L126.8283125,54.065345665878326L127.04648046875,53.467306432699914L127.48281640625,53.44577555487611L127.62826171875,53.06161158964565L127.77370703125,52.61173606673465L127.8464296875,52.552790861728724L128.06459765625,52.751481587483056L128.1373203125,52.90789484864189L128.21004296875,52.37862061159639L128.4282109375,51.96584085027567L129.0099921875,52.095150073952254L129.37360546875,51.63467851130599L129.51905078125,51.32990081959609L129.95538671875,51.60271193678781L130.24627734375,51.902861691739176L130.31900000000002,51.89889362802187L130.39172265624998,52.447515043629096L130.4644453125,52.58330660104524L130.90078125,53.28918562175578L131.11894921875,53.26402005913562L131.62800781250002,53.847372427689535L131.773453125,53.47211013016636L131.99162109374998,52.68495415104522L132.06434375,52.72908638838784L132.28251171875,52.13548175188866L132.355234375,52.22803138941289L132.71884765625,52.12306002363465L132.7915703125,52.75774840644375L132.86429296875,52.518730531697074L133.0824609375,52.00797791403012L133.30062890624998,52.246825598652876L133.3733515625,53.11853905847704L133.44607421875,52.99074177133956L133.518796875,52.8188503798242L133.59151953125,52.77729586098927L134.02785546875,52.427026886491646L134.46419140625,52.17727553953921L134.90052734374999,52.12543328771328L135.19141796875,52.49720032327859L135.33686328125,52.137631198317806L135.7004765625,51.682828601495714L135.9913671875,50.75213397719938L136.50042578125,50.78051731800315L136.64587109375,51.62495141215156L136.86403906249998,52.102292822676944L137.009484375,51.43099966186962L137.08220703125,50.81259939584126L137.300375,50.47394732322627L137.37309765625,50.17849205070257L137.51854296875,49.715061751422155L137.591265625,49.75836410142642L137.80943359375001,50.11838931866485L139.04571875,49.698359302570665L139.11844140625,49.84245398950404L139.1911640625,49.27823479912753L139.26388671875,49.171518167553614L139.55477734375,48.58231496186053L139.77294531249998,48.387852013270646L140.0638359375,47.575821141704836L140.13655859375,47.21435157255476L140.20928125,46.23875078996144L140.500171875,45.87176472542373L140.57289453125,45.61594924560336L140.6456171875,45.492764052278176L140.7910625,45.24636929682387L140.9365078125,45.0683696884868L141.08195312499998,45.91781313704436L141.2273984375,45.89900921646364L141.8091796875,45.99746307770491L142.17279296875,45.675351415428224L142.245515625,45.9237944654075L142.90001953125,45.91165805219978L142.9727421875,45.757518655384445L143.77269140625,45.887826061917366L144.1363046875,45.851585374530345L144.35447265625,45.85469436256554L144.4271953125,45.53332570646501L144.64536328125,44.97599708595112L144.79080859375,44.413761141156954L144.86353125,44.237686511310784L145.4453125,43.859045759336084L145.51803515625,43.80839344806074L145.5907578125,43.62242679207546L145.66348046875,43.85575684213569L145.8816484375,43.712745019047475L146.02709375,43.67787299106266L146.09981640625,43.32815762189921L146.1725390625,42.99919094277803L146.7543203125,42.97225814191589L147.11793359375,43.2774086102379L147.19065625,43.09627330364941L147.40882421875,42.7584750093784L147.91788281249998,42.40213994435621L148.063328125,42.10013460131589L148.7905546875,41.7438155554529L149.15416796875002,42.4115621899021L149.226890625,42.051029347793275L149.3723359375,41.97331828962018L149.44505859375002,41.63621021713098L149.88139453125,41.5267854674739L149.95411718749997,41.45550767370756L150.390453125,41.007753725909595L150.46317578125,41.126979741047506L151.1176796875,41.173635992848716L151.4085703125,41.0850610877429L151.554015625,40.75846576242873L151.84490625,40.89226695829544L152.49941015625,40.69703675032429L152.64485546875002,40.393603597537265L152.8630234375,40.43119223634844L153.00846875000002,40.745778258756786L153.08119140624999,40.76144255912419L153.44480468749998,41.11640779302033L153.66297265625,41.242959942766646L154.0265859375,41.990080428770455L154.17203125,42.14557553373186L154.462921875,42.18637847373739L154.6083671875,42.19498940323501L154.68108984375,41.824254869978176L154.7538125,41.679828925597576L154.8992578125,41.9498206874994L155.044703125,41.63275688100609L155.40831640625,41.19150433502159L155.62648437500002,41.4942579334743L155.7719296875,41.51158378719836L155.99009765625001,41.45104291399352L156.208265625,41.14814441283579L156.49915625,41.21196928739704L156.71732421874998,40.72083697363857L157.00821484374998,40.748126881308565L157.0809375,41.12829898159515L157.15366015625,41.977121134767856L157.66271875,41.55980981466897L157.8081640625,41.3757900749236L157.953609375,41.20320775991715L158.17177734375,40.82806830279591L158.24450000000002,40.1645741794581L158.6808359375,40.22163543213421L158.75355859375,39.73770165951498L159.04444921874997,39.52198905978972L159.33533984374998,38.98134478396432L159.5535078125,38.757764452146375L159.62623046874998,38.714335440707515L159.698953125,38.65904908642429L159.77167578125,38.766359908009235L159.91712109374998,38.705273299915575L160.1352890625,38.63894184154063L160.64434765625,38.637671566959L160.7170703125,38.29369649091822L161.08068359375,38.552089057760156L161.22612890625,38.4590418005497L161.2988515625,37.91369453910386L161.37157421875,37.47430512493989L162.02607812500003,37.32099671627179L162.31696875,37.85340222948409L162.38969140625,37.56688799309006L162.4624140625,37.4095873768253L162.53513671874998,37.18016237744297L162.68058203125,36.79796723789238L163.0441953125,36.96575170754778L163.11691796875,37.22403730044212L163.26236328125,37.07289727725282L163.3350859375,37.32636539025515L163.40780859375,37.65330403139717L163.6259765625,37.325966666647474L163.771421875,36.842975770643164L163.84414453125,36.72265565614549L163.9168671875,36.94451062186971L164.57137109375,36.581082023590454L164.7895390625,36.59414821828875L165.44404296874998,36.37327667571003L165.88037890625,36.15601564872483L165.9531015625,35.72443136808488L166.38943749999999,35.94513513161414L166.46216015625,36.337726940329134L166.5348828125,36.51773945246006L166.680328125,36.51460499967101L167.1166640625,36.342947398338026L167.553,36.8185755152644L167.62572265625002,36.53154530562384L168.20750390625003,37.15410617442575L168.2802265625,37.054099913348836L168.49839453125,37.18529347149638L168.71656249999998,37.6360418551956L169.00745312499998,37.59852642211945L169.1528984375,37.58193022744439L169.4437890625,37.37907786461571L169.880125,37.36321932262621L170.171015625,37.49266520078578L170.24373828125002,37.3901969041365L170.46190625,37.19963953059232L170.6073515625,37.18682309364462L170.82551953125002,37.113553087447855L171.11641015625003,37.42684095516003L171.26185546874999,37.62445051347078L171.40730078125,38.175890695375415L171.4800234375,38.09923619361618M172.0618046875,37.71347720465624L172.20725,38.41283583290016L172.27997265625,38.25413810545996L172.71630859375,37.81383963229098L172.78903125,37.38967790173234L172.86175390625,37.09006457727756L173.00719921875,37.33398784898188L173.15264453125,37.27688119421967L174.02531640625,36.922011576023124L174.6798203125,37.10278162103185L174.9707109375,36.803955503933L175.33432421875,36.581653080200624L175.407046875,36.74911298425991L175.77066015625,36.435177663736766L175.8433828125,36.62393550650222L175.91610546875,36.49723949863679L176.20699609375,36.207491862570976L176.27971875,36.15138438732623L176.71605468750002,35.95536549707617L177.00694531250002,35.241801290601586L177.07966796875002,34.97855152142816L177.152390625,35.35377111995393L177.29783593750003,35.19488415024111L177.37055859375,34.997190498495996L177.734171875,35.39221206753061L177.95233984375,34.98517037820503L178.09778515624998,34.70375208291895L178.315953125,34.49196283908893L178.53412109375,34.33730130372223L178.7522890625,34.55565800232458L178.897734375,34.9247015531146L179.33407031250002,34.99460390777756L179.40679296875,34.82057706409009L179.55223828125,34.88022643307369L179.69768359375,34.61930512030736L180.35218749999999,34.53763188933601L180.42491015624998,34.256721580968275L180.4976328125,34.27659349930394L180.57035546875,34.32385652640198L181.58847265625,34.42111721154066L181.87936328125,34.116841547481044L182.17025390625,33.89692635429577L182.2429765625,33.78339408898515L182.46114453125,33.465750663071105L182.5338671875,33.289140873583904L182.75203515625,32.87898059885541L182.89748046875002,33.284883683945196L183.04292578125,33.13213732580243L183.40653906249997,33.22694960732005L183.62470703124998,33.034219855260034L183.77015234375,33.87141000503709L183.842875,33.48559899337158L183.98832031249998,33.083703843319626L184.20648828125,33.37854839401305L184.42465625,33.22748366529038L184.57010156249999,32.9162735349945L184.78826953125,33.088506303374686L185.0064375,33.08170455409493L185.07916015625,33.20969743431348L185.297328125,33.324864432395344L185.51549609375002,33.19108430740715L186.09727734375002,32.94732539287136L186.17000000000002,32.871185680067924L186.31544531249997,32.91281512345489L186.67905859375,32.40741569021296L187.042671875,32.18828401414538L187.11539453125,31.70826021817541L187.18811718749998,31.56118855862323L187.3335625,31.291766003932395L187.40628515625,31.085569772148432L187.55173046875,31.1463685791625L187.69717578125,31.042804319951557L187.91534375,30.791589884999013L187.98806640625,30.675331929585013L188.27895703125,30.57881944446018L188.6425703125,30.781730734329983L188.788015625,31.16761414893196L189.2243515625,31.061582328823476L189.29707421875003,31.05375202758799L189.36979687500002,31.221453777413046L189.44251953124999,31.92248975863376L189.51524218749998,31.771455709383986L189.73341015625,31.81397241808571L189.87885546875,32.09312933457966L190.09702343749998,32.50222733598497L190.16974609375,32.511023765591034L190.3879140625,32.15136389384199L190.533359375,32.42151838459719L190.6788046875,32.01855625838991L190.75152734375,31.797111473574574L190.82425,31.844060485062442L191.115140625,31.699350863032237L191.40603125,31.643553082035197L191.47875390625,31.516247771491408L191.5514765625,31.567380471596067L191.8423671875,31.560934980841722L191.91508984375,31.586304226242305L192.06053515625,31.448089017910746L192.1332578125,31.264011603639034L192.27870312500002,31.25267915245422L192.35142578125001,30.852876494357787L192.42414843749998,30.741794849039763L192.56959375,30.26585360772819L192.64231640625,30.205669023384388L192.78776171874998,29.831717379082477L193.0059296875,30.004174658916412L193.151375,30.421146557567795L193.22409765625,30.410816886568767L193.66043359374999,30.564695310781957L193.73315625,30.626891105691072L193.80587890625,30.48616316195907L194.09676953125,30.087622968894152L194.24221484375,30.372420347309145L194.38766015625,30.457169468877993L194.67855078125,30.131066152464285L195.18760937500002,29.951848490682664L195.40577734374997,30.01124099540189L195.55122265625,30.108783334357668L195.69666796874998,30.439757401209505L195.769390625,30.35027759395814L196.06028125,30.471466563712454L196.2057265625,30.737083200339185L196.27844921874998,30.4790243016092L196.351171875,30.450504487837577L196.56933984375,30.275359315285158L196.6420625,29.93927070064632L196.86023046875,29.794616846881297L196.932953125,30.028384828407667L197.15112109375,29.7617236067652L197.3692890625,29.752295707275692L197.6601796875,29.536015692802636L198.09651562500002,29.20348463179576L198.16923828125002,29.050837689847214L198.38740625000003,29.28142716306536L198.46012890625002,30.245228050193163L198.60557421874998,29.82772647861819L198.75101953125,29.821928062303698L198.8237421875,30.29259279235444L198.9691875,29.864835430980094L199.04191015625,29.774365833458035L199.18735546874998,29.698832674722354L199.260078125,29.480861818074914L199.33280078125,29.087380067233397L199.4055234375,28.94975297359059L199.55096875,29.35662970690862L199.6964140625,29.141901221238925L199.76913671875,28.85072975137402L200.06002734375,29.385771682606503L200.13275,30.25077659089112L200.2781953125,30.540533797676233L200.49636328125,30.740208473798333L200.64180859375,31.00379610821406L200.8599765625,31.140771291730772L201.7326484375,32.057320203797644L202.0235390625,31.998989700695063L202.24170703125,31.850037490579695L202.6053203125,31.75715764478474L202.75076562499999,31.641893473525386L202.96893359375,31.419062099671663L203.40526953125,31.337230711321297L203.4779921875,31.479174194905397L203.6234375,31.84556317838343L203.84160546875,31.69376849954523L204.0597734375,31.88127270046897L204.13249609375,31.261915163380962L204.20521875,31.255048664290797L204.85972265625,31.326006124833242L204.9324453125,30.78526726714759L205.00516796875,30.417912158302926L205.07789062499998,30.386622361915613L205.2233359375,30.20985201379898L205.36878124999998,30.168657934709785L205.58694921875,30.391707028107362L205.9505625,30.779803649376106L206.0960078125,30.58470816714754L206.16873046875,31.10786473054941L206.241453125,31.1265947518352L206.31417578125001,30.826603350280124L206.89595703125002,31.422529418843396L207.55046093750002,31.33437082736316L207.91407421875,31.20735177894315L208.49585546875,31.178625030859592L208.568578125,31.315691198938026L208.78674609375,31.110726443017057L209.07763671875,31.272164569310178L209.2958046875,31.257306983547977L209.5866953125,31.218598959315784L209.80486328125,31.034194469757182L210.02303125,30.89049909184493L210.09575390625,30.970321638366812L210.16847656250002,30.69668097574265L210.313921875,30.860646340534288L210.89570312499998,30.674578109749632L211.0411484375,30.611252352918314L211.18659375,30.667492497932244L211.3320390625,31.312427616102667L211.69565234375,31.519201855524898L212.059265625,31.103009573170027L212.641046875,31.15623361742297L212.71376953125,31.507126919759543L212.78649218750002,31.528134543603926L213.07738281250002,31.60004614028034L213.29555078125,31.52768555311704L213.51371875,31.78396343956257L214.0955,31.612663080527284L214.2409453125,31.548536220995288L214.5318359375,31.363373167717356L214.60455859375,32.03213611424192L214.67728125,32.045927568466965L214.75000390625,32.582276311288354L214.89544921875,32.43356399608757L215.04089453125,32.787867605780264L215.2590625,32.71620714942725L215.47723046875,32.484180911920646L215.549953125,32.17025825223428L215.69539843750002,32.15483687673776L215.84084375,32.55185931732697L216.34990234375002,32.288701533297115L216.64079296875002,32.37193545662399L216.78623828124998,32.03748163403003L216.93168359375,32.30714470105076L217.07712890624998,32.06131737804739L217.1498515625,31.81026134797483L217.295296875,31.853689142261686L217.51346484375,31.526707652255737L217.65891015625,31.434068845196265L217.877078125,31.721233818752978L218.0225234375,31.95126339381065L218.24069140625,31.91434865593581L218.3134140625,32.20745403879337L218.38613671875,32.24974582655935L219.11336328125,31.815805914012486L219.1860859375,32.019698382193724L219.33153125,31.39772873384075L219.40425390625,31.101279955533414L219.4769765625,30.890547387150832L219.54969921875002,30.667319486315336L219.76786718749997,30.357677762963846L219.84058984375,30.142558345457303L219.98603515624998,30.047460146413812L220.204203125,29.666417162389052L220.34964843749998,30.02632943361175L220.49509375,29.791584726954397L220.64053906249998,29.61586411309716L221.29504296875,29.399884196741965L221.367765625,29.165156883331548L221.58593359375,28.878327300258945L221.73137890625,28.834241773794872L221.87682421875002,28.714344517131337L222.02226953125,28.37606182663879L222.16771484375002,27.802267215865385L222.2404375,27.652949454059808L222.45860546875002,27.364079209211866L222.89494140624998,28.085076614624768L222.96766406249998,27.99242829024908L223.25855468749998,27.796855356374266L223.47672265625,27.464561901608846L223.694890625,27.393761453377863L223.8403359375,28.262611485278455L223.91305859375,27.828365781022427L224.20394921875,27.195062857084793L224.49483984375001,26.97941455484451L224.7130078125,26.88069619231959L224.78573046875002,26.83848793867938L224.858453125,27.06220587215671L224.93117578125,27.43413637450243L225.14934375,27.199356158819967L225.44023437500002,27.116303647259002L225.5856796875,27.154307267755115L225.87657031249998,26.662736945592684L225.94929296875,26.517266004523833L226.09473828125,26.262405360139326L226.16746093749998,26.295073933490926L226.53107421875,25.9358250079965L226.7492421875,26.187935008347267L226.82196484375,26.11499340568045L226.96741015625,26.45102519854484L227.11285546875,26.43306354984506L227.25830078125,26.39527644735253L227.3310234375,26.396603157050407L227.54919140625,26.37993040285781L227.6219140625,26.348220555098777L227.767359375,26.525972758989923L227.98552734375,27.129489831871837L228.05825000000002,26.9478338758868L228.2036953125,26.88996000696281L228.64003125000002,27.139152358924065L228.85819921874997,27.094255368852288L229.07636718749998,26.956005587156426L229.14908984374998,26.928808302606456L229.43998046874998,26.687066687290496L229.87631640625,26.453963755175096L230.8217109375,26.497425178667612L231.1126015625,26.199551611900915L231.25804687500002,26.608041688282498L231.62166015625002,26.26701031921226L231.83982812500003,26.696194079626196L231.98527343749998,26.45268583185856L232.2761640625,26.462514906303625L232.63977734374998,26.57237722935716L232.93066796875,26.44838268070211L233.22155859375,26.125637441562247L233.4397265625,25.831341443162927L234.09423046875,25.551342856358872L234.45784375000002,25.312909537160692L235.1850703125,25.864645779796348L235.25779296874998,26.03784143109388L235.330515625,25.693301891760342L235.54868359374998,25.47811661001441L235.62140625,25.341830125608254L235.98501953125,25.088019040528167L236.13046484375,24.90924853856572L236.42135546875,25.971278264618633L236.494078125,26.289094867216733L236.56680078125,26.238858734809867L236.6395234375,26.177326456819657L236.71224609375,26.300866657588728L236.78496875,25.787480731589994L236.85769140625,25.70362381786427L237.43947265625002,25.640070130036833L237.657640625,25.82047715046309L238.0939765625,25.606591129764297L238.3848671875,25.339423445877458L239.11209374999999,25.389729180535312L239.18481640625,25.448543696494767L239.2575390625,25.554519193916548L239.76659765625,26.04893394852465L240.1302109375,26.05511215442246L240.34837890625002,26.29392233245167L240.49382421875,26.727465244553997L240.566546875,26.43690132128765L240.63926953125002,26.154767293539408L240.71199218750002,26.013678908589725L241.0028828125,26.078409542708613L241.5846640625,25.801093698394794L241.65738671875,25.607111226217228L241.8755546875,25.452910467882674L242.021,25.089615267852082L242.09372265625,25.114224024239604L242.23916796875,24.816584478173866L242.60278125,24.884479308061117L243.11183984375,24.504329699339564L243.25728515625002,24.56337996497126L243.475453125,25.093829589964145L243.62089843750002,24.97827150298255L243.98451171874999,25.583204653327215L244.2026796875,25.475868788572626L244.42084765625,25.354818441333947L245.0753515625,25.20230774558405L245.14807421875,25.233633341047323L245.3662421875,25.057361834799906L245.58441015625,24.686391025226897L245.72985546875,24.58401841802123L245.802578125,24.4453463527951L246.23891406250002,24.329668544763393L246.45708203125,24.288304776334684L246.52980468750002,24.2107799136829L246.67525,24.268527450458578L246.89341796875001,25.119804611161555L247.03886328124997,24.713729411907707L247.18430859375,24.931131588226407L247.4024765625,25.214144861927878L247.47519921875,25.217872312969632L247.547921875,24.988147557104355L248.05698046875,24.79494616322583L248.42059375,24.907850497352683L248.5660390625,24.910761894277073L248.63876171875,24.598227932605L248.711484375,24.748633644834655L249.002375,24.71952947914241L249.07509765625,24.833450310093212L249.43871093750002,24.625895889788183L249.51143359375,24.825970910034556L249.80232421875002,24.850909359318877L250.02049218750003,25.020657475841148L250.09321484375,24.917450986037665L250.23866015624998,24.674267976818157L250.74771875,24.467506203008327L250.82044140624998,24.980130135748624L251.1840546875,24.74485886757205L252.05672656250002,24.926199957512324L252.42033984375,24.786440010324526L252.56578515625,25.112509330841874L252.63850781250002,24.571904487415622L252.85667578125,24.210632845655L252.92939843750003,24.7372703627141L253.58390234375,25.105050577939778L254.02023828125,25.114069530853385L254.31112890625,25.318356719680935L254.3838515625,25.3106413523017L254.45657421875,25.285714285714306" style="fill: none;" fill="none"></path></g></g></g></g><g opacity="0.2"><g><g><g><path stroke="rgb(255, 112, 67)" stroke-width="2px" d="M36.724941406250004,54.86834172836727L36.7976640625,77.35984921015618L37.16127734375,98.03167183114917L37.3794453125,105.6351768714046L37.452167968750004,123.5499644513359L37.6703359375,102.90471573768498L37.81578125,146.9900657176343L38.106671875,177.7683474391313L38.979343750000005,130.90893711111528L39.270234375,61.37571928074985L39.4156796875,114.43862926240126L39.561125000000004,151.06378743816333L39.633847656250005,137.4396778826196L39.779292968750006,150.50681131184763L40.215628906250004,199.40783258577608L40.361074218750005,193.95202667608768L40.433796875000006,172.32324077269456L40.50651953125001,130.74248784963197L41.08830078125,127.87283557313543L41.30646874999999,83.51378959448586L41.524636718749996,153.04836274945586L41.597359374999996,192.8026319451655L41.67008203125,162.7002445929917L41.7428046875,245.97807072338816L42.68819921875,370.84253270045974L42.760921875,95.5848686348716L43.1972578125,186.29205137377164L43.7790390625,168.20553300412465L43.99720703125,154.44116709092538L44.0699296875,165.09026656483903L44.57898828125,157.79602391236338L44.79715625,226.84712807565418L45.815273437500004,227.93374940543168L46.46977734375,136.52358009408044L46.61522265625,115.24690048739076L46.6879453125,138.93159088269766L46.76066796875,137.9730114409072L47.269726562500004,240.39674792317038L47.63333984375,132.06394555618107L47.77878515625,142.91039534579997L47.8515078125,115.09487140648974L48.1423984375,187.2172417200385L48.578734375,198.83131949029675L48.796902343750006,152.34029640422227L49.23323828125,103.83986468030191L49.305960937500004,204.7987543391375L49.451406250000005,142.24932116347873L49.66957421875,212.81657456092034L50.0331875,279.67243294855314L50.1786328125,162.34032614777905L50.25135546875,206.44324288273432L51.342195312499996,233.14307701578485L51.41491796875,168.72303704096996L51.487640625,126.22604445313934L51.77853125,181.80745160882637L52.723925781249996,246.96179339854982L53.01481640625,165.3958515954571L53.232984375,27.12561024776619L53.30570703125,77.6679756536635L53.3784296875,56.16698465937901L53.59659765625,189.70736892987014L54.905605468750004,184.15170230937025L55.1237734375,113.59394666715892L55.26921875,79.54893624094186L55.34194140625,23.915857868644082L55.48738671875,105.88526345191869L55.77827734375,138.86963317193045L56.06916796875,90.40647074689583L56.21461328125,107.42688750847765L56.5782265625,193.1798374589624L57.59634375,175.0061158178784L57.959957031250006,360.27895840054344L58.0326796875,272.3338588313912L58.3235703125,142.48737954796152L58.396292968750004,157.62851608876827L58.68718359375001,175.78981955233346L58.75990625,166.821209958512L58.9053515625,287.63064598119234L59.12351953125,224.84861899495306L59.48713281249999,144.75450841582733L59.559855468749994,75.05356227830255L59.632578124999995,107.29281866744319L59.99619140625,100.65277222044058L60.0689140625,100.57065598785928L60.14163671875,163.41914484836866L60.359804687499995,159.35161130548806L61.014308593749995,199.4129293399233L61.159753906249996,176.4155051244124L61.59608984375,276.12498012859623L62.1051484375,245.1764130435436L62.541484374999996,108.41819951938041L62.75965234375,74.75302184494417L63.05054296875,278.18304070125424L63.34143359375,79.56956152787373L63.48687890625,142.9803162693193L63.77776953125,205.44770215269207L63.8504921875,168.64059018390722L63.92321484375,243.15348519667344L64.06866015625,129.4386774907153L64.4322734375,109.57225017021403L64.79588671875,210.30457877633106L64.868609375,167.72334751281784L64.94133203125,130.8230405439687L66.032171875,57.60753729908056L66.54123046875,148.58753791026155L66.97756640625,120.68614507340148L67.0502890625,136.2946680420568L67.195734375,284.42627683433784L67.6320703125,239.21890468927114L68.28657421874999,22.2516208068339L68.43201953124999,75.06559007925631L68.5047421875,85.1275079323974L68.72291015625,79.1182116297741L69.15924609375,122.31809785563453L69.74102734374999,74.0331038397478L69.81375,110.34364128900252L70.03191796875,57.36233815057459L70.104640625,90.8391181976583L70.75914453125,150.24093312826386L70.8318671875,63.910323177421716L71.63181640625,130.08456355734015L71.849984375,109.20812007531794L71.92270703125,125.8051773502201L72.06815234375,83.82399569588844L72.21359765625,173.1996620569963L73.23171484375,103.14752146789658L73.595328125,78.3013734496123L73.7407734375,187.10100398636772L74.10438671874999,229.4336387299533L74.468,137.75560565734241L74.54072265625,154.7655067744048L74.97705859374999,166.0508688013633L75.12250390624999,412.0745213152059L75.1952265625,83.64392886935892L75.340671875,161.4962869724946L75.41339453124999,153.77560080808624L75.6315625,103.79593202141936L75.7770078125,28.06719735689913L76.14062109375,127.60066776693537L76.21334375,49.34048844331379L76.86784765624999,92.92331290392454L77.01329296875,104.44449548494714L77.30418359375,244.148841088501L77.37690625,92.49930097723245L77.44962890625,79.75494564806418L77.74051953125,36.45911186277294L78.03141015624999,203.05995542756804L78.1041328125,80.99848996018717L78.32230078125,42.397152413084626L78.46774609375,56.280994532392654L78.54046875,156.44222097674188L78.61319140625,75.87956236041194L78.6859140625,76.05640815338168L78.75863671875,52.50508019459947L78.831359375,69.44321675198945L78.9768046875,64.37936047973162L79.04952734375,104.4639308991892L79.41314062500001,90.97600923621319L79.48586328125,76.83963179133619L79.77675390625,84.67091127607186L79.994921875,99.10844558711244L80.1403671875,84.29057807414775L80.57670312500001,38.86409466628058L80.72214843750001,128.25800689148886L81.08576171874999,26.584181546107345L81.37665234375,82.83487275554272L81.449375,98.87828300294771L81.5948203125,60.87168258815889L82.4674921875,67.45797336326363L82.97655078125,73.08014771431515L83.04927343749999,96.57765612971642L83.19471874999999,64.9327495757777L83.26744140625,361.7059529266504L83.3401640625,107.42894464624183L83.41288671875,82.48134925557179L83.55833203125,33.490567685302494L83.7765,35.89377599920297L84.06739062499999,22.422961476078484L84.14011328125,25.638357922619832L84.43100390625,104.7130791789149L84.649171875,76.97204080897117L84.9400625,73.60329624198464L85.15823046875,72.00885076560203L85.230953125,28.376610180731717L85.30367578125,32.10460421542433L85.3763984375,73.17761744047688L85.44912109375001,1.7487733743013791L85.59456640625001,57.62870412852736L85.66728906249999,63.85190711342149L85.74001171875,59.11242476002711L85.95817968749999,35.972404156056626L86.03090234375,264.71445891068913L86.103625,67.84461509260476L86.2490703125,32.03936583096714L86.394515625,100.14891157307964L86.46723828125,74.8232872912136L86.976296875,106.77499439810742L87.19446484375,126.50580836796324L87.48535546875,57.33767562815781L87.7035234375,29.198020672464537L87.84896875,47.268972104947665L87.9944140625,178.88413517237333L88.2853046875,9.369342181023342L88.5761953125,22.988723422648917L88.79436328125,64.93830442274032L88.8670859375,83.33195869255701L88.93980859375,51.218393820725055L89.01253125,165.04483830484804L89.4488671875,78.22117476953983L89.885203125,31.26064387630359L90.0306484375,46.260570271972824L90.10337109375001,178.2691805315225L90.39426171875,72.21375576038228L90.6124296875,147.85715178539374L90.68515234375,70.44740609409268L90.9033203125,172.26728731752968L90.97604296875,106.84283827533227L91.048765625,64.27970419596953L91.1942109375,83.13642078953723L91.33965625,76.48712984351843L91.7759921875,43.17761401061847L91.99416015624999,29.522380160605707L92.0668828125,52.04593692151562L92.28505078124999,213.07158338467787L92.3577734375,2.0752179611930615L92.43049609375,90.16779195930206L92.57594140625,84.57047901486631L92.6486640625,71.89154645004744L93.08500000000001,53.107257228129015L93.375890625,18.935612559257493L93.44861328124999,30.337263712985276L93.59405859374999,46.558971037825756L93.73950390625,115.56415098739316L93.88494921875,23.11607487376304L93.957671875,52.00185461072529L94.03039453125,58.104168202625345L94.1031171875,68.45276934865201L94.17583984375,73.11519143027857L94.3940078125,100.41676812015984L94.53945312500001,61.543130810123145L94.68489843750001,45.93829155574332L94.90306640624999,111.78136225053603L95.04851171874999,17.534917939133663L95.121234375,48.59898601638727L95.19395703125,29.624823339917043L95.63029296875,115.59906495335032L95.703015625,48.338700024806286L95.84846093750001,100.78099876550328L96.06662890625,94.51675990912564L96.35751953124999,37.800220988578275L96.5756875,61.49749506288806L96.79385546875,109.5165047312799L96.866578125,136.3152767477918L97.0120234375,97.19658356181175L97.15746875,86.40214362866641L97.30291406250001,97.08069954376477L97.66652734375,41.10228360125643L97.8846953125,75.05403908700092L98.030140625,36.52442207559207L99.12098046875,37.865335128785375L99.41187109375,34.855152353341055L99.55731640625,145.55234183034852L99.6300390625,69.52208485784708L99.9209296875,35.36543021618618L100.066375,33.518511739052684L100.13909765625,64.49420490012582L100.357265625,13.165842809260937L100.5027109375,24.063446676864572L100.64815625,79.08600829859334L100.86632421875,613.646301471709L101.01176953125,63.197302136698696L101.08449218749999,16.178604718250227L101.22993749999999,83.73458151619054L101.520828125,34.15228767446632L101.81171875,134.41097892025624L102.32077734375,41.991248232598934L102.39349999999999,31.412483931888005L102.46622265625,55.435715903646084L102.53894531249999,60.311981873317436L102.68439062499999,30.995327113618487L102.90255859375,15.690113699892635L102.97528125,35.6610826633204L103.04800390625,66.86735528646595L103.266171875,110.71793234273238L103.33889453125,-13.750292333090329L103.4116171875,37.997365964071264L103.48433984375,61.35136933556677L104.06612109375,76.85785936471997L104.13884374999999,49.02197856611518L104.35701171875,8.164704897967965L104.8660703125,4.109356442559346L105.08423828125001,42.1511514760154L105.66601953125,58.55342607483938L105.7387421875,119.47971768415675L105.8841875,44.109804165108216L105.95691015625,68.24852952781085L106.0296328125,41.557551316573324L106.24780078125,112.39613533972923L106.3205234375,131.19088160041306L106.46596875,8.335006743839244L106.6114140625,51.14488253157087L106.97502734375,147.25734360361392L107.04775,66.28433848581027L107.338640625,75.99737021156584L107.41136328125,13.3114324473093L107.4840859375,43.43193808850626L107.55680859375,90.48115096173163L107.7749765625,115.17975395235817L107.84769921875001,65.38335183451102L107.920421875,11.88638115456692L108.13858984375001,-1.9964258891059217L108.2113125,71.77946177314223L108.79309375,20.45252331235008L109.083984375,89.84460091184984L109.2294296875,83.28061211663403L109.374875,79.49144297588721L109.44759765625,48.913712738157955L109.665765625,55.73478990820311L109.88393359374999,18.910375020279105L109.95665625,75.83222687947645L110.02937890624999,14.069940338709245L110.1021015625,9.439073301074927L110.32026953124999,46.392669673834234L110.90205078125,32.83225022680452L111.04749609375,42.896828535224984L111.19294140625,67.01341278568137L111.33838671874999,72.98775974650755L111.411109375,19.82531907078996L111.62927734374999,73.07181223521451L111.77472265624999,-5.945937072060332L111.92016796875,50.48023770279811L112.28378125,56.71723054621934L112.79283984375,64.89549880568765L112.86556250000001,101.83227097142463L113.08373046874999,85.64562074981468L113.22917578124999,130.21214560428626L113.66551171875,54.9763408466456L113.738234375,53.10058085079274L113.8836796875,82.39304659747444L114.02912500000001,30.338510837714722L114.32001562500001,22.292079786727072L114.61090625,409.80873933938886L114.7563515625,93.51615259723933L115.11996484375,23.09561551171305L115.1926875,40.663644145089364L115.26541015625,101.2815112559827L115.77446875000001,13.880486148640387L115.84719140625,41.110709118260104L116.28352734375,112.09989307571423L116.57441796875,14.216639052144842L116.647140625,51.22248619920843L116.71986328125,81.97588040004857L117.37436718750001,7.730341153667098L117.5198125,39.37234469029329L117.73798046875,69.53178489563003L118.17431640625,49.30488509248487L118.2470390625,46.42634171662314L118.5379296875,19.93000747410335L118.75609765625,59.62390401757972L118.8288203125,34.15645339441386L118.90154296875001,93.8098892395549L119.91966015625,45.7266559604615L120.137828125,96.07097842202086L120.35599609375001,102.64255635588927L120.42871874999999,3.6721342692627275L120.50144140625,21.22828201323307L120.71960937499999,94.20152326368779L120.79233203125,6.8434342994819986L120.86505468749999,52.7258230633157L121.95589453125001,42.64787018109806L122.17406249999999,22.955453609060953L122.31950781249999,29.4842982824934L122.39223046875,50.07413654315961L122.53767578125,-3.2626239152509413L122.6103984375,25.525539230661252L122.82856640625,91.4700950285972L123.046734375,11.683446908486133L123.11945703125001,68.90847799875915L123.26490234375001,38.48396203457284L123.41034765625001,58.28112200997589L123.55579296875,60.10018271360906L123.70123828125,23.342291823693927L123.91940625,26.547871694887448L124.0648515625,42.01861079034657L124.210296875,77.40509892327829L124.3557421875,107.22915588752662L124.5011875,41.04491541501642L124.6466328125,2.6303203316765007L125.373859375,18.487918846985536L125.66475,21.633393946889896L125.955640625,21.15460340437579L126.02836328125001,4.885061010879383L126.1010859375,35.299556696893944L126.24653125,35.98181529024802L126.46469921875001,43.56407935620774L126.6828671875,41.23094895523934L126.8283125,10.59975521253665L127.04648046875,5.574926489344506L127.48281640625,51.36504265200038L127.62826171875,20.278919671954213L127.77370703125,14.981114092006976L127.8464296875,46.93340553545943L128.06459765625,73.78221311914147L128.1373203125,69.16380346148635L128.21004296875,9.111600824540659L128.4282109375,17.022977042216183L129.0099921875,65.38639162788976L129.37360546875,13.20492044345869L129.51905078125,24.624835746893467L129.95538671875,81.50656022227477L130.24627734375,85.23904612761153L130.31900000000002,51.51207878377977L130.39172265624998,122.13390793945553L130.4644453125,66.59395217183341L130.90078125,152.9186992777528L131.11894921875,50.82934652049275L131.62800781250002,129.61419459638697L131.773453125,21.285624139473413L131.99162109374998,-7.3578779002829435L132.06434375,57.1178717069747L132.28251171875,4.406332374433276L132.355234375,61.61651478067452L132.71884765625,42.25559799148286L132.7915703125,138.1074959153277L132.86429296875,31.073816600891035L133.0824609375,9.926416843474243L133.30062890624998,78.08294875281359L133.3733515625,194.92938013902938L133.44607421875,41.067752255311206L133.518796875,37.028626482738076L133.59151953125,48.77453451184141L134.02785546875,22.099997812460288L134.46419140625,29.830475664388388L134.90052734374999,47.14933039865059L135.19141796875,95.43328224471962L135.33686328125,21.084574217067257L135.7004765625,13.540171586833509L135.9913671875,-17.82707842235294L136.50042578125,53.591936484886034L136.64587109375,185.83678137183162L136.86403906249998,110.50675889490182L137.009484375,-1.4971416154407393L137.08220703125,1.3313031529174566L137.300375,21.009883121375054L137.37309765625,24.108648047950197L137.51854296875,10.918272392144445L137.591265625,54.07664091705385L137.80943359375001,91.51631182245649L139.04571875,14.058842812368539L139.11844140625,64.82839400466474L139.1911640625,3.40305393886203L139.26388671875,39.11580824642513L139.55477734375,1.008791385292426L139.77294531249998,30.62226767015457L140.0638359375,-14.15987324234851L140.13655859375,15.960598575027603L140.20928125,-24.96669547389436L140.500171875,14.191304147592518L140.57289453125,22.718482854683117L140.6456171875,33.94628970627184L140.7910625,23.11883325408752L140.9365078125,28.702699540731572L141.08195312499998,182.080442102161L141.2273984375,44.06605401629818L141.8091796875,56.055524663800156L142.17279296875,17.450322811426446L142.245515625,73.0366271892735L142.90001953125,44.725207142244784L142.9727421875,31.45844590578878L143.77269140625,59.385100616731236L144.1363046875,42.34046360064693L144.35447265625,46.160526528332724L144.4271953125,17.352737039084985L144.64536328125,-0.5031176573347977L144.79080859375,-1.4038580102841536L144.86353125,28.021270685835304L145.4453125,11.248276730655164L145.51803515625,38.92522467055281L145.5907578125,26.550519077314192L145.66348046875,69.16974086797214L145.8816484375,30.382085633436304L146.02709375,40.294903970963105L146.09981640625,12.920175003974009L146.1725390625,14.202654721642546L146.7543203125,40.3510165031893L147.11793359375,77.54288931370526L147.19065625,26.431295050913292L147.40882421875,13.2657170389555L147.91788281249998,11.47284468737476L148.063328125,15.421810704161516L148.7905546875,10.81224673859279L149.15416796875002,135.09968151238797L149.226890625,10.792058569110196L149.3723359375,34.54929159696266L149.44505859375002,12.185618595034441L149.88139453125,31.193034979895145L149.95411718749997,34.628554626001176L150.390453125,3.21392605750421L150.46317578125,53.44401135626033L151.1176796875,45.851864719682936L151.4085703125,32.65374149576161L151.554015625,12.119014468922643L151.84490625,54.804243644813496L152.49941015625,22.805988888788193L152.64485546875002,13.580181273591421L152.8630234375,44.18781619944133L153.00846875000002,76.28566102542172L153.08119140624999,42.313543736161364L153.44480468749998,82.04166943477952L153.66297265625,54.36587178349539L154.0265859375,152.24538650018928L154.17203125,58.473256153481984L154.462921875,46.27101299571211L154.6083671875,43.04610714057162L154.68108984375,9.749767767908907L154.7538125,28.197799161278567L154.8992578125,71.81935805084827L155.044703125,13.722250977447771L155.40831640625,3.836591855319341L155.62648437500002,75.52547197153733L155.7719296875,43.230567116382446L155.99009765625001,35.621651273649576L156.208265625,14.355478666578165L156.49915625,47.66441703288976L156.71732421874998,-0.24570070913739528L157.00821484374998,43.46702463904805L157.0809375,85.57856962871786L157.15366015625,178.937706921768L157.66271875,5.957005661691284L157.8081640625,24.42608281130731L157.953609375,25.242486586751824L158.17177734375,8.395405173758462L158.24450000000002,-12.526472631405085L158.6808359375,45.97701063878449L158.75355859375,-0.7300197618466768L159.04444921874997,19.86545714010782L159.33533984374998,-5.481024951633657L159.5535078125,18.437638114399647L159.62623046874998,34.50251354596523L159.698953125,33.32109582164051L159.77167578125,49.820013563769706L159.91712109374998,32.819728870199185L160.1352890625,32.26040275837238L160.64434765625,38.51243781746453L160.7170703125,8.24555752428995L161.08068359375,67.02125180752496L161.22612890625,29.59861893246824L161.2988515625,-6.889713218405348L161.37157421875,0.2161478512151973L162.02607812500003,23.035939547375023L162.31696875,105.74246831046787L162.38969140625,12.060032624289391L162.4624140625,22.771901402389233L162.53513671874998,16.35923730492061L162.68058203125,3.803732335140296L163.0441953125,54.71308042870395L163.11691796875,65.69202147923244L163.26236328125,22.97543773975221L163.3350859375,65.20222262855619L163.40780859375,74.91026963923407L163.6259765625,8.563670325471634L163.771421875,-3.5904683044285264L163.84414453125,25.373125251362865L163.9168671875,60.99315198939435L164.57137109375,5.011468099957227L164.7895390625,37.890532177189726L165.44404296874998,16.262347735467273L165.88037890625,16.348786091140653L165.9531015625,-0.9798155110048583L166.38943749999999,59.861030623062064L166.46216015625,82.62708334097923L166.5348828125,55.67143341517752L166.680328125,36.20552337004818L167.1166640625,20.440589844699815L167.553,95.5269728712123L167.62572265625002,10.966261713501382L168.20750390625003,121.34232817920775L168.2802265625,27.546606489323125L168.49839453125,50.853755503560194L168.71656249999998,92.50500263147393L169.00745312499998,33.94722018150409L169.1528984375,35.95356964959967L169.4437890625,18.786377665194863L169.880125,35.80671299074476L170.171015625,50.97112549739127L170.24373828125002,27.65555203105299L170.46190625,19.657481987788827L170.6073515625,35.927291926619574L170.82551953125002,30.076635792576695L171.11641015625003,72.92090977954186L171.26185546874999,58.82734965804066L171.40730078125,109.42855532851843L171.4800234375,30.745903802208375M172.0618046875,4.417582531769625L172.20725,138.34471621536431L172.27997265625,23.477321404950885L172.71630859375,0.4456304433473406L172.78903125,1.211446172769456L172.86175390625,10.5012429792842L173.00719921875,64.07254508933381L173.15264453125,31.757485475361733L174.02531640625,5.986382881385623L174.6798203125,56.358973818954794L174.9707109375,10.275649982486101L175.33432421875,16.333018783455373L175.407046875,54.48407006773998L175.77066015625,8.701597595875626L175.8433828125,56.80481230890855L175.91610546875,24.561047588964755L176.20699609375,10.40531512943096L176.27971875,30.725461282677912L176.71605468750002,17.93580643055293L177.00694531250002,-20.759342344015806L177.07966796875002,11.326835254731947L177.152390625,79.24610074241424L177.29783593750003,20.39589682318811L177.37055859375,16.832711319404865L177.734171875,82.08742937181597L177.95233984375,0.07020147346906924L178.09778515624998,9.569974429758048L178.315953125,15.125800320598188L178.53412109375,19.908790143963046L178.7522890625,58.22225223958843L178.897734375,77.96426419825114L179.33407031250002,42.099937171029154L179.40679296875,18.695419445541887L179.55223828125,40.9182243970518L179.69768359375,11.153365289663043L180.35218749999999,26.712313246162893L180.42491015624998,9.160354129973996L180.4976328125,36.25634716509566L180.57035546875,39.0844526291975L181.58847265625,44.421259048794724L181.87936328125,7.140308152212953L182.17025390625,13.839719858717075L182.2429765625,23.031409974811112L182.46114453125,5.42569503668642L182.5338671875,16.936709778657246L182.75203515625,-2.279074645736898L182.89748046875002,81.56590146830139L183.04292578125,18.868632520301844L183.40653906249997,42.96670215268915L183.62470703124998,15.288503931277376L183.77015234375,168.2021387734061L183.842875,0.15962044808634346L183.98832031249998,-1.457546607730734L184.20648828125,66.52117876858543L184.42465625,19.111285876938723L184.57010156249999,5.382349036868504L184.78826953125,51.38114892669654L185.0064375,32.41095936021176L185.07916015625,46.54535329973112L185.297328125,45.2590490059097L185.51549609375002,20.611366321962578L186.09727734375002,10.890066349004087L186.17000000000002,25.55835131904186L186.31544531249997,37.09788516256947L186.67905859375,-9.688437668362468L187.042671875,12.191324045100941L187.11539453125,-8.57889044898073L187.18811718749998,17.79643078023676L187.3335625,7.120076193940719L187.40628515625,12.184144728595726L187.55173046875,37.30672673593432L187.69717578125,21.19549385663808L187.91534375,8.1143160335927L187.98806640625,19.67203979953908L188.27895703125,21.377887657422093L188.6425703125,52.63517839825211L188.788015625,76.60172819622117L189.2243515625,20.98815421654146L189.29707421875003,30.281703665708022L189.36979687500002,49.00232020348035L189.44251953124999,132.40382467195897L189.51524218749998,17.653869807191427L189.73341015625,36.090659607638884L189.87885546875,63.2474976460626L190.09702343749998,81.27320026186844L190.16974609375,33.3840599338819L190.3879140625,0.8150576427310909L190.533359375,62.44295859661503L190.6788046875,-2.615000331898841L190.75152734375,11.60047994643702L190.82425,36.57540195485791L191.115140625,18.141077092980794L191.40603125,26.241705146382742L191.47875390625,19.513405200160435L191.5514765625,36.72925650887311L191.8423671875,30.924981192171686L191.91508984375,34.12101381883829L192.06053515625,18.467414599555013L192.1332578125,14.2552427982788L192.27870312500002,30.13663554272344L192.35142578125001,-3.546181015816643L192.42414843749998,20.205888729221073L192.56959375,-9.739650137821968L192.64231640625,24.388250245355636L192.78776171874998,-2.6066603311554957L193.0059296875,48.33217403247613L193.151375,80.35422258396427L193.22409765625,29.393067865267398L193.66043359374999,46.78587746876988L193.73315625,36.93469475569478L193.80587890625,17.280150277329426L194.09676953125,-4.218903551161674L194.24221484375,62.251477050541766L194.38766015625,39.13270765914234L194.67855078125,1.4043200011749661L195.18760937500002,13.361830706424087L195.40577734374997,36.02816487462428L195.55122265625,40.14758165135754L195.69666796874998,68.3406009836554L195.769390625,21.79442075364838L196.06028125,43.06925984104697L196.2057265625,60.19949067393301L196.27844921874998,7.228504888470923L196.351171875,27.65994023960951L196.56933984375,14.03815815394293L196.6420625,0.4264658199291773L196.86023046875,16.237903714223705L196.932953125,55.57485403742632L197.15112109375,5.804579251781689L197.3692890625,28.822929943305382L197.6601796875,9.769779902757449L198.09651562500002,-0.0314674812736655L198.16923828125002,14.785376916692627L198.38740625000003,54.44454256512104L198.46012890625002,207.3842555416067L198.60557421874998,-5.904430531843644L198.75101953125,29.249509479127198L198.8237421875,88.38027482867629L198.9691875,-6.629779496849267L199.04191015625,21.126015937214362L199.18735546874998,22.438044609480357L199.260078125,9.570521733528835L199.33280078125,-4.843195748407595L199.4055234375,16.017762934594288L199.55096875,77.83040360577758L199.6964140625,9.505443990146091L199.76913671875,2.9015747315420413L200.06002734375,97.9849543716632L200.13275,172.99991904756848L200.2781953125,63.06091629968461L200.49636328125,52.22663295608881L200.64180859375,60.21863221041954L200.8599765625,45.47885985782139L201.7326484375,191.60785688050154L202.0235390625,26.355093176249966L202.24170703125,17.909870899113002L202.6053203125,22.885579050654087L202.75076562499999,20.72234512152278L202.96893359375,11.097102851917384L203.40526953125,23.488750252644763L203.4779921875,46.36978366856624L203.6234375,74.57788615146958L203.84160546875,17.501578750429104L204.0597734375,51.94944192220487L204.13249609375,-18.684161590796748L204.20521875,30.577374982522628L204.85972265625,38.550683391851294L204.9324453125,-13.816301491797674L205.00516796875,-1.5254314864848766L205.07789062499998,27.327562085267004L205.2233359375,13.827727295863241L205.36878124999998,26.156518048037697L205.58694921875,54.65265900180151L205.9505625,76.56331051932479L206.0960078125,12.61969967854921L206.16873046875,97.7112848477261L206.241453125,32.99390845765424L206.31417578125001,4.165754116424296L206.89595703125002,110.8456162044546L207.55046093750002,22.89823483263754L207.91407421875,19.22444536312119L208.49585546875,28.367244667239106L208.568578125,45.665770685618156L208.78674609375,12.30094201807404L209.07763671875,48.353876023963096L209.2958046875,29.795413028511234L209.5866953125,27.44480069216482L209.80486328125,13.989336371762903L210.02303125,17.415271996234168L210.09575390625,39.12809717145882L210.16847656250002,6.163423395033789L210.313921875,48.22945142869932L210.89570312499998,13.485692096071432L211.0411484375,24.49464696285625L211.18659375,36.359937698030905L211.3320390625,120.1694133285044L211.69565234375,53.84558102310727L212.059265625,-4.539787525919991L212.641046875,36.53686659506582L212.71376953125,72.11410050694099L212.78649218750002,33.62458346944271L213.07738281250002,38.92567911501712L213.29555078125,24.561898935672616L213.51371875,60.09689426045139L214.0955,15.705080791152568L214.2409453125,25.356201605748197L214.5318359375,14.252005239160525L214.60455859375,125.74374755293415L214.67728125,33.418340524295246L214.75000390625,101.42548503401291L214.89544921875,18.51203616160103L215.04089453125,73.86273250170235L215.2590625,25.815821809589153L215.47723046875,11.386376517566504L215.549953125,4.395508110376284L215.69539843750002,30.63766583556665L215.84084375,79.61832547313573L216.34990234375002,8.610700492346552L216.64079296875002,40.89111183261454L216.78623828124998,2.6425839251677985L216.93168359375,62.29003208443184L217.07712890624998,9.812835298935312L217.1498515625,9.128658299438001L217.295296875,36.226906796425084L217.51346484375,2.718629093952387L217.65891015625,22.58274526591771L217.877078125,63.920069221576796L218.0225234375,57.05668039263131L218.24069140625,28.31249582105599L218.3134140625,65.1674143739236L218.38613671875,36.506685339689255L219.11336328125,-5.146713717084879L219.1860859375,54.00845131942856L219.33153125,-18.73094402155769L219.40425390625,4.7206252206467525L219.4769765625,11.587418456901474L219.54969921875002,10.307327746030495L219.76786718749997,2.9219992939420933L219.84058984375,10.467277135308791L219.98603515624998,20.969141278531396L220.204203125,-3.3300283482587645L220.34964843749998,71.87520155058289L220.49509375,8.465078847250453L220.64053906249998,13.321805520233369L221.29504296875,9.651536953767078L221.367765625,7.839991040118008L221.58593359375,3.271846392832373L221.73137890625,24.544323053332022L221.87682421875002,17.372060050109667L222.02226953125,-1.3203212119241812L222.16771484375002,-19.083614714002636L222.2404375,13.676568449506732L222.45860546875002,1.5925854949973939L222.89494140624998,133.14229981221587L222.96766406249998,19.139726377208433L223.25855468749998,9.78726393622253L223.47672265625,-1.7628615359239177L223.694890625,20.573353907004076L223.8403359375,172.28030337937037L223.91305859375,-9.158439673846175L224.20394921875,-23.68690057409495L224.49483984375001,7.258588246352474L224.7130078125,17.46899161256499L224.78573046875002,22.72819130600962L224.858453125,51.409762179072445L224.93117578125,70.95251050024982L225.14934375,5.869061643317849L225.44023437500002,19.152028294133146L225.5856796875,30.973288194428278L225.87657031249998,-14.486014737333846L225.94929296875,12.881782086041738L226.09473828125,3.2646644823341546L226.16746093749998,29.570935050636223L226.53107421875,-5.390788035354916L226.7492421875,53.9903846710028L226.82196484375,19.093767878887775L226.96741015625,65.05332974677968L227.11285546875,24.6675100069057L227.25830078125,22.709214039096764L227.3310234375,26.527998126786684L227.54919140625,24.74024381293762L227.6219140625,23.247753719536746L227.767359375,45.4741298320439L227.98552734375,107.99486248188373L228.05825000000002,10.137507515815315L228.2036953125,21.287385779309318L228.64003125000002,54.58271870798676L228.85819921874997,22.726461288481175L229.07636718749998,13.963419831281215L229.14908984374998,24.2649145225771L229.43998046874998,4.775600507592998L229.87631640625,5.26327412470215L230.8217109375,30.87461433378394L231.1126015625,-0.2977128364978512L231.25804687500002,75.34037800739657L231.62166015625002,-3.645952766339491L231.83982812500003,78.47671487172155L231.98527343749998,4.394155141978416L232.2761640625,27.43925437020883L232.63977734374998,37.94465069027788L232.93066796875,14.735116244198906L233.22155859375,-2.351571871048378L233.4397265625,-0.3788201828656099L234.09423046875,0.49609227206616424L234.45784375000002,3.6766817588333254L235.1850703125,97.37576011096571L235.25779296874998,44.46360023397176L235.330515625,-4.49362839045952L235.54868359374998,5.795387908191714L235.62140625,12.524405797631118L235.98501953125,2.1758891540407035L236.13046484375,8.348685012697814L236.42135546875,250.39565710329384L236.494078125,62.46952801404328L236.56680078125,21.36142218578277L236.6395234375,20.22862411540035L236.71224609375,39.16367859971234L236.78496875,-16.911537277119322L236.85769140625,17.664143167736228L237.43947265625002,19.500602613559124L237.657640625,45.07518672829494L238.0939765625,6.033717649708507L238.3848671875,1.3293382704802355L239.11209374999999,30.470446029302963L239.18481640625,31.409208477808278L239.2575390625,36.506771643865875L239.76659765625,87.95002004577405L240.1302109375,26.668190198783464L240.34837890625002,52.46813393296134L240.49382421875,79.16159753387252L240.566546875,0.5265807201402026L240.63926953125002,0.9257499081023752L240.71199218750002,12.76730548924371L241.0028828125,32.654578850238806L241.5846640625,0.9631004512041272L241.65738671875,7.732499022727012L241.8755546875,11.043233001587964L242.021,-6.550901681336342L242.09372265625,27.574122480741636L242.23916796875,-1.6629375766431735L242.60278125,31.791095811899936L243.11183984375,-8.427718331903435L243.25728515625002,30.548599242424444L243.475453125,92.95296005667146L243.62089843750002,14.027979880500226L243.98451171874999,106.72120682024848L244.2026796875,15.274060580085091L244.42084765625,13.90698821646339L245.0753515625,10.941846934345534L245.14807421875,28.373384803754703L245.3662421875,8.713441419919633L245.58441015625,-7.544182915791936L245.72985546875,14.836154974750542L245.802578125,11.414326333227109L246.23891406250002,13.368440808687978L246.45708203125,20.25856860161076L246.52980468750002,16.760592404030916L246.67525,30.118657278893693L246.89341796875001,163.85733979617777L247.03886328124997,-10.17968312273473L247.18430859375,48.52542802934266L247.4024765625,56.89003232175196L247.47519921875,25.58740881325909L247.547921875,4.079270777578699L248.05698046875,6.987134664693912L248.42059375,36.61070987657686L248.5660390625,25.19930356364665L248.63876171875,-3.071248827406521L248.711484375,40.59151578238948L249.002375,21.87076562359701L249.07509765625,36.64679076762883L249.43871093750002,5.590230583481656L249.51143359375,46.36965934155626L249.80232421875002,27.34414704414141L250.02049218750003,43.053147902854136L250.09321484375,15.093072909995783L250.23866015624998,2.641525151150688L250.74771875,5.499279470460493L250.82044140624998,89.85923391377868L251.1840546875,3.3714817092397027L252.05672656250002,44.28948825630005L252.42033984375,11.658136854454483L252.56578515625,62.38741343422829L252.63850781250002,-20.03417128799103L252.85667578125,-7.27472518330535L252.92939843750003,91.95495903407192L253.58390234375,68.05068607576189L254.02023828125,26.010077843955685L254.31112890625,47.35771994279631L254.3838515625,24.549155524640355L254.45657421875,22.841855817292213" style="fill: none;" fill="none"></path></g></g></g></g></g></g><g transform="translate(39, 177)" clip-path="url(#clip_1)"><clipPath id="clip_1"><rect width="290" height="23"></rect></clipPath><g><g><line x1="0" y1="0" x2="0" y2="5" style="visibility: inherit;" fill="rgb(0, 0, 0)" stroke="rgb(204, 204, 204)" stroke-width="1px"></line><line x1="36.361328125" y1="0" x2="36.361328125" y2="5" style="visibility: inherit;" fill="rgb(0, 0, 0)" stroke="rgb(204, 204, 204)" stroke-width="1px"></line><line x1="72.72265625" y1="0" x2="72.72265625" y2="5" style="visibility: inherit;" fill="rgb(0, 0, 0)" stroke="rgb(204, 204, 204)" stroke-width="1px"></line><line x1="109.083984375" y1="0" x2="109.083984375" y2="5" style="visibility: inherit;" fill="rgb(0, 0, 0)" stroke="rgb(204, 204, 204)" stroke-width="1px"></line><line x1="145.4453125" y1="0" x2="145.4453125" y2="5" style="visibility: inherit;" fill="rgb(0, 0, 0)" stroke="rgb(204, 204, 204)" stroke-width="1px"></line><line x1="181.806640625" y1="0" x2="181.806640625" y2="5" style="visibility: inherit;" fill="rgb(0, 0, 0)" stroke="rgb(204, 204, 204)" stroke-width="1px"></line><line x1="218.16796875" y1="0" x2="218.16796875" y2="5" style="visibility: inherit;" fill="rgb(0, 0, 0)" stroke="rgb(204, 204, 204)" stroke-width="1px"></line><line x1="254.529296875" y1="0" x2="254.529296875" y2="5" style="visibility: inherit;" fill="rgb(0, 0, 0)" stroke="rgb(204, 204, 204)" stroke-width="1px"></line><line x1="290.890625" y1="0" x2="290.890625" y2="5" style="visibility: inherit;" fill="rgb(0, 0, 0)" stroke="rgb(204, 204, 204)" stroke-width="1px"></line></g><g transform="translate(0, 8)"><text x="0" y="0" dx="0em" dy="0.95em" style="text-anchor: middle; visibility: hidden; font-family: &quot;Helvetica Neue&quot;, sans-serif; font-size: 12px; font-weight: 200;" fill="rgb(50, 49, 63)" stroke="none" stroke-width="1px">-500</text><text x="36.361328125" y="0" dx="0em" dy="0.95em" style="text-anchor: middle; visibility: inherit; font-family: &quot;Helvetica Neue&quot;, sans-serif; font-size: 12px; font-weight: 200;" fill="rgb(50, 49, 63)" stroke="none" stroke-width="1px">0</text><text x="72.72265625" y="0" dx="0em" dy="0.95em" style="text-anchor: middle; visibility: inherit; font-family: &quot;Helvetica Neue&quot;, sans-serif; font-size: 12px; font-weight: 200;" fill="rgb(50, 49, 63)" stroke="none" stroke-width="1px">500</text><text x="109.083984375" y="0" dx="0em" dy="0.95em" style="text-anchor: middle; visibility: inherit; font-family: &quot;Helvetica Neue&quot;, sans-serif; font-size: 12px; font-weight: 200;" fill="rgb(50, 49, 63)" stroke="none" stroke-width="1px">1k</text><text x="145.4453125" y="0" dx="0em" dy="0.95em" style="text-anchor: middle; visibility: inherit; font-family: &quot;Helvetica Neue&quot;, sans-serif; font-size: 12px; font-weight: 200;" fill="rgb(50, 49, 63)" stroke="none" stroke-width="1px">1.5k</text><text x="181.806640625" y="0" dx="0em" dy="0.95em" style="text-anchor: middle; visibility: inherit; font-family: &quot;Helvetica Neue&quot;, sans-serif; font-size: 12px; font-weight: 200;" fill="rgb(50, 49, 63)" stroke="none" stroke-width="1px">2k</text><text x="218.16796875" y="0" dx="0em" dy="0.95em" style="text-anchor: middle; visibility: inherit; font-family: &quot;Helvetica Neue&quot;, sans-serif; font-size: 12px; font-weight: 200;" fill="rgb(50, 49, 63)" stroke="none" stroke-width="1px">2.5k</text><text x="254.529296875" y="0" dx="0em" dy="0.95em" style="text-anchor: middle; visibility: inherit; font-family: &quot;Helvetica Neue&quot;, sans-serif; font-size: 12px; font-weight: 200;" fill="rgb(50, 49, 63)" stroke="none" stroke-width="1px">3k</text><text x="290.890625" y="0" dx="0em" dy="0.95em" style="text-anchor: middle; visibility: hidden; font-family: &quot;Helvetica Neue&quot;, sans-serif; font-size: 12px; font-weight: 200;" fill="rgb(50, 49, 63)" stroke="none" stroke-width="1px">3.5k</text></g><line x1="0" y1="0" x2="290.890625" y2="0" fill="rgb(0, 0, 0)" stroke="rgb(204, 204, 204)" stroke-width="1px"></line></g></g></g></g></svg>