<svg viewBox="0 0 330 200" xmlns="http://www.w3.org/2000/svg"><g><g><g><g><g><line x1="39.109375" y1="173.56531044604432" x2="34.109375" y2="173.56531044604432" style="visibility: inherit;" fill="rgb(0, 0, 0)" stroke="rgb(204, 204, 204)" stroke-width="1px"></line><line x1="39.109375" y1="122.90441006059709" x2="34.109375" y2="122.90441006059709" style="visibility: inherit;" fill="rgb(0, 0, 0)" stroke="rgb(204, 204, 204)" stroke-width="1px"></line><line x1="39.109375" y1="86.95992920709102" x2="34.109375" y2="86.95992920709102" style="visibility: inherit;" fill="rgb(0, 0, 0)" stroke="rgb(204, 204, 204)" stroke-width="1px"></line><line x1="39.109375" y1="59.07922381784108" x2="34.109375" y2="59.07922381784108" style="visibility: inherit;" fill="rgb(0, 0, 0)" stroke="rgb(204, 204, 204)" stroke-width="1px"></line><line x1="39.109375" y1="36.299028821643816" x2="34.109375" y2="36.299028821643816" style="visibility: inherit;" fill="rgb(0, 0, 0)" stroke="rgb(204, 204, 204)" stroke-width="1px"></line><line x1="39.109375" y1="17.038648387146793" x2="34.109375" y2="17.038648387146793" style="visibility: inherit;" fill="rgb(0, 0, 0)" stroke="rgb(204, 204, 204)" stroke-width="1px"></line><line x1="39.109375" y1="0.35454796813775147" x2="34.109375" y2="0.35454796813775147" style="visibility: inherit;" fill="rgb(0, 0, 0)" stroke="rgb(204, 204, 204)" stroke-width="1px"></line></g><g transform="translate(29.109375, 0)"><text x="0" y="173.56531044604432" dx="0em" dy="0.3em" style="text-anchor: end; visibility: hidden; font-family: &quot;Helvetica Neue&quot;, sans-serif; font-size: 12px; font-weight: 200;" fill="rgb(50, 49, 63)" stroke="none" stroke-width="1px">0.2</text><text x="0" y="122.90441006059709" dx="0em" dy="0.3em" style="text-anchor: end; visibility: inherit; font-family: &quot;Helvetica Neue&quot;, sans-serif; font-size: 12px; font-weight: 200;" fill="rgb(50, 49, 63)" stroke="none" stroke-width="1px">0.3</text><text x="0" y="86.95992920709102" dx="0em" dy="0.3em" style="text-anchor: end; visibility: hidden; font-family: &quot;Helvetica Neue&quot;, sans-serif; font-size: 12px; font-weight: 200;" fill="rgb(50, 49, 63)" stroke="none" stroke-width="1px">0.4</text><text x="0" y="59.07922381784108" dx="0em" dy="0.3em" style="text-anchor: end; visibility: inherit; font-family: &quot;Helvetica Neue&quot;, sans-serif; font-size: 12px; font-weight: 200;" fill="rgb(50, 49, 63)" stroke="none" stroke-width="1px">0.5</text><text x="0" y="36.299028821643816" dx="0em" dy="0.3em" style="text-anchor: end; visibility: hidden; font-family: &quot;Helvetica Neue&quot;, sans-serif; font-size: 12px; font-weight: 200;" fill="rgb(50, 49, 63)" stroke="none" stroke-width="1px">0.6</text><text x="0" y="17.038648387146793" dx="0em" dy="0.3em" style="text-anchor: end; visibility: inherit; font-family: &quot;Helvetica Neue&quot;, sans-serif; font-size: 12px; font-weight: 200;" fill="rgb(50, 49, 63)" stroke="none" stroke-width="1px">0.7</text><text x="0" y="0.35454796813775147" dx="0em" dy="0.3em" style="text-anchor: end; visibility: hidden; font-family: &quot;Helvetica Neue&quot;, sans-serif; font-size: 12px; font-weight: 200;" fill="rgb(50, 49, 63)" stroke="none" stroke-width="1px">0.8</text></g><line x1="39.109375" y1="0" x2="39.109375" y2="177" fill="rgb(0, 0, 0)" stroke="rgb(204, 204, 204)" stroke-width="1px"></line></g></g><g transform="translate(39, 0)" clip-path="url(#clip_0)"><clipPath id="clip_0"><rect width="290" height="177"></rect></clipPath><g><g><g><line x1="0" y1="0" x2="0" y2="177" fill="rgb(0, 0, 0)" stroke="rgb(60, 60, 60)" stroke-width="1px" opacity="0.25"></line><line x1="36.361328125" y1="0" x2="36.361328125" y2="177" fill="rgb(0, 0, 0)" stroke="rgb(60, 60, 60)" stroke-width="1px" opacity="0.25"></line><line x1="72.72265625" y1="0" x2="72.72265625" y2="177" fill="rgb(0, 0, 0)" stroke="rgb(60, 60, 60)" stroke-width="1px" opacity="0.25"></line><line x1="109.083984375" y1="0" x2="109.083984375" y2="177" fill="rgb(0, 0, 0)" stroke="rgb(60, 60, 60)" stroke-width="1px" opacity="0.25"></line><line x1="145.4453125" y1="0" x2="145.4453125" y2="177" fill="rgb(0, 0, 0)" stroke="rgb(60, 60, 60)" stroke-width="1px" opacity="0.25"></line><line x1="181.806640625" y1="0" x2="181.806640625" y2="177" fill="rgb(0, 0, 0)" stroke="rgb(60, 60, 60)" stroke-width="1px" opacity="0.25"></line><line x1="218.16796875" y1="0" x2="218.16796875" y2="177" fill="rgb(0, 0, 0)" stroke="rgb(60, 60, 60)" stroke-width="1px" opacity="0.25"></line><line x1="254.529296875" y1="0" x2="254.529296875" y2="177" fill="rgb(0, 0, 0)" stroke="rgb(60, 60, 60)" stroke-width="1px" opacity="0.25"></line><line x1="290.890625" y1="0" x2="290.890625" y2="177" fill="rgb(0, 0, 0)" stroke="rgb(60, 60, 60)" stroke-width="1px" opacity="0.25"></line></g><g><line x1="0" y1="173.56531044604432" x2="290.890625" y2="173.56531044604432" fill="rgb(0, 0, 0)" stroke="rgb(60, 60, 60)" stroke-width="1px" opacity="0.25"></line><line x1="0" y1="122.90441006059709" x2="290.890625" y2="122.90441006059709" fill="rgb(0, 0, 0)" stroke="rgb(60, 60, 60)" stroke-width="1px" opacity="0.25"></line><line x1="0" y1="86.95992920709102" x2="290.890625" y2="86.95992920709102" fill="rgb(0, 0, 0)" stroke="rgb(60, 60, 60)" stroke-width="1px" opacity="0.25"></line><line x1="0" y1="59.07922381784108" x2="290.890625" y2="59.07922381784108" fill="rgb(0, 0, 0)" stroke="rgb(60, 60, 60)" stroke-width="1px" opacity="0.25"></line><line x1="0" y1="36.299028821643816" x2="290.890625" y2="36.299028821643816" fill="rgb(0, 0, 0)" stroke="rgb(60, 60, 60)" stroke-width="1px" opacity="0.25"></line><line x1="0" y1="17.038648387146793" x2="290.890625" y2="17.038648387146793" fill="rgb(0, 0, 0)" stroke="rgb(60, 60, 60)" stroke-width="1px" opacity="0.25"></line><line x1="0" y1="0.35454796813775147" x2="290.890625" y2="0.35454796813775147" fill="rgb(0, 0, 0)" stroke="rgb(60, 60, 60)" stroke-width="1px" opacity="0.25"></line></g></g></g><g><g><line x1="36.361328125" y1="0" x2="36.361328125" y2="177" fill="rgb(0, 0, 0)" stroke="rgb(153, 153, 153)" stroke-width="1.5px"></line></g></g><g><g><g><g><g><path stroke="rgb(255, 112, 67)" stroke-width="2px" d="M36.724941406250004,118.9575609928796L36.7976640625,132.18448480501996L37.16127734375,144.59628389374885L37.3794453125,153.18977863762697L37.452167968750004,161.94346273353403L37.6703359375,162.35392802140154L37.81578125,167.95818954819168L38.106671875,174.3821614397082L38.979343750000005,173.72193298759606L39.270234375,163.30901440306587L39.4156796875,164.7028622760833L39.561125000000004,168.17201524069273L39.633847656250005,169.0586348178505L39.779292968750006,168.8573913183172L40.215628906250004,169.91735601402493L40.288351562500004,166.78454398352824L40.361074218750005,166.15519058559033L40.433796875000006,165.975327653884L40.50651953125001,163.0008413228002L41.08830078125,164.29618655605609L41.30646874999999,160.568562817851L41.524636718749996,161.090473332727L41.597359374999996,163.1883978089801L41.67008203125,163.2874838270278L41.7428046875,166.4103859892532L42.106417968749994,161.89542729532647L42.68819921875,166.76244834818232L42.760921875,165.22869980757295L43.1972578125,164.9658163952727L43.7790390625,164.90487831043552L43.99720703125,163.1215062464256L44.0699296875,162.16198336743568L44.57898828125,160.33865947385087L44.79715625,161.34611639281218L44.9426015625,161.54311569595242L45.5243828125,165.3232062581003L45.74255078125,167.0484737860342L45.815273437500004,168.02772838257104L46.46977734375,162.33827088287504L46.61522265625,159.64411115992084L46.6879453125,159.81661986098442L46.76066796875,159.3614417845023L47.269726562500004,159.03830645060825L47.63333984375,157.73811715965385L47.77878515625,154.51621068598405L47.8515078125,153.22531290929987L48.1423984375,153.56974369298325L48.50601171875,153.06092073633525L48.578734375,152.81104920039903L48.796902343750006,152.46968840850926L49.23323828125,151.32766744130478L49.305960937500004,152.9287847439522L49.451406250000005,152.1572983905342L49.66957421875,151.21832963743748L49.81501953125,150.67645645738483L49.8877421875,149.84411257672153L50.0331875,151.71428571428572L50.1786328125,149.35353909221436L50.25135546875,150.4854653776637L50.7604140625,151.43266208921125L51.342195312499996,152.18929070281501L51.41491796875,151.69933190747113L51.487640625,148.3695030318887L51.77853125,147.37705981123105L52.5057578125,146.90383616168992L52.57848046875,145.848448936176L52.723925781249996,146.28206812250815L53.01481640625,147.1769786271202L53.232984375,144.69673847137946L53.30570703125,144.02516720472127L53.3784296875,141.46087713831216L53.59659765625,141.55996564672705L54.46926953125,140.5636753798403L54.905605468750004,140.91510446368693L55.1237734375,140.2722716181675L55.26921875,138.17834096740359L55.34194140625,134.06771620170443L55.48738671875,133.3963371127639L55.77827734375,131.5851617370492L56.06916796875,131.81660707125653L56.21461328125,130.7918193531266L56.5782265625,130.75706006222006L57.59634375,131.1652861816475L57.959957031250006,131.56875582536847L58.0326796875,132.48339393838705L58.3235703125,131.85649654096233L58.396292968750004,132.1835055832553L58.68718359375001,133.2802262880096L58.75990625,132.73433018370574L58.9053515625,133.82810254080923L59.12351953125,132.41031020842394L59.48713281249999,131.34106584425118L59.559855468749994,130.6673369592321L59.632578124999995,130.49231654157106L59.99619140625,129.3518914980296L60.0689140625,127.9958777872233L60.14163671875,128.47433716456408L60.359804687499995,127.00025381500089L61.014308593749995,127.61568740315649L61.159753906249996,127.07648881844474L61.59608984375,128.21754607897319L62.03242578125,129.82751533437786L62.1051484375,130.09033218909846L62.541484374999996,129.2307158742148L62.75965234375,126.50026038657771L63.05054296875,127.27095769172443L63.34143359375,125.39614970194066L63.48687890625,123.80292410776984L63.77776953125,123.1644024458343L63.8504921875,123.08626096587247L63.92321484375,123.46899041365398L64.06866015625,121.60022812591166L64.4322734375,121.2670126988597L64.79588671875,121.02205591256333L64.868609375,119.14215601192534L64.94133203125,117.95477130385333L66.032171875,116.43970213595091L66.54123046875,115.41232766606043L66.97756640625,115.85607111962526L67.0502890625,116.46041069108233L67.195734375,117.30296073074526L67.3411796875,117.56383142177688L67.6320703125,117.82969771228733L68.28657421874999,115.47688233372469L68.43201953124999,115.45344813504713L68.5047421875,115.48231999844748L68.72291015625,114.75245930565451L69.15924609375,114.04144664183079L69.74102734374999,113.2014554923415L69.81375,113.7282585127781L70.03191796875,113.135742672687L70.104640625,112.17239944237271L70.75914453125,112.46734009652337L70.8318671875,111.00166179310342L71.63181640625,110.27983881949038L71.849984375,108.72456077529218L71.92270703125,107.84954615246916L72.06815234375,108.1769992714277L72.21359765625,109.27541491079614L73.23171484375,109.80136573371247L73.595328125,108.69385228427261L73.7407734375,109.0106070105215L73.95894140624999,110.05853125194619L74.10438671874999,109.33820583981726L74.468,110.0246382485402L74.54072265625,110.99025765123399L74.97705859374999,111.91852344161516L75.12250390624999,113.46860016244771L75.1952265625,112.48331358125621L75.340671875,110.92867827531072L75.41339453124999,109.86484773760124L75.6315625,108.9595364023618L75.7770078125,107.0571330662302L76.14062109375,106.80571139520339L76.21334375,105.99241898600569L76.86784765624999,105.37579095539287L77.01329296875,105.01137557062202L77.30418359375,105.33173724714638L77.37690625,104.98874675164089L77.44962890625,104.40922527328155L77.74051953125,102.82373262005704L78.03141015624999,102.85384741226437L78.1041328125,101.99958644830225L78.32230078125,101.33187262095457L78.46774609375,101.50560718820628L78.54046875,102.50080921617374L78.61319140625,101.86483789030231L78.6859140625,101.94998622528551L78.75863671875,101.65067472767666L78.831359375,101.18720786618343L78.9768046875,100.35149570814876L79.04952734375,100.08630444334034L79.41314062500001,98.8568661660187L79.48586328125,98.25744519348147L79.77675390625,98.43787571406804L79.994921875,98.17599969307938L80.1403671875,98.06453814230544L80.57670312500001,96.94362375440434L80.72214843750001,97.69494841509515L81.08576171874999,96.82387160273731L81.37665234375,96.49056738098608L81.449375,95.99131185988843L81.5948203125,94.81947737457479L82.4674921875,94.4516229646408L82.97655078125,94.69878850595543L83.04927343749999,95.23463800238115L83.19471874999999,93.79759744903967L83.26744140625,93.43245579059744L83.3401640625,92.74262253835467L83.41288671875,92.08524200842061L83.55833203125,90.95990620082313L83.7765,89.60760643508011L84.06739062499999,89.1797255291333L84.14011328125,88.51053478532967L84.43100390625,88.32623876645461L84.649171875,87.78497254673754L84.9400625,86.85831643111929L85.15823046875,86.68325707577759L85.230953125,86.11200845121414L85.30367578125,85.78723266735781L85.3763984375,85.59117098056744L85.44912109375001,84.68261762004495L85.59456640625001,83.59941474994027L85.66728906249999,83.9601195231005L85.74001171875,83.58094916020848L85.95817968749999,82.53397525470271L86.03090234375,83.7592622898719L86.103625,83.72679416153323L86.2490703125,82.97092022051451L86.394515625,82.533260362893L86.46723828125,82.18501228210067L86.976296875,82.67115996265014L87.19446484375,82.59171257776254L87.48535546875,82.56800760662578L87.7035234375,81.9357081938174L87.84896875,81.49020604755175L87.9944140625,82.40782872973645L88.2853046875,80.83572689913362L88.5761953125,80.48013585414043L88.79436328125,80.36502695362142L88.8670859375,80.60759382047503L88.93980859375,79.9399442707327L89.01253125,79.23050735767869L89.4488671875,78.50611911395431L89.885203125,77.80594900454409L90.0306484375,76.8813679764877L90.10337109375001,76.98248224149836L90.39426171875,77.13116192102565L90.6124296875,78.0080407743985L90.68515234375,77.09374254918914L90.9033203125,76.91819389932358L90.97604296875,76.85876565161858L91.048765625,76.63213959480899L91.1942109375,75.65111606293904L91.33965625,75.11282151237799L91.7759921875,74.54253079110022L91.99416015624999,73.68762310125908L92.0668828125,73.60381992407191L92.28505078124999,74.67854529288938L92.3577734375,74.15066860706672L92.43049609375,74.36791054681966L92.57594140625,74.88693237012947L92.6486640625,74.74911439780573L93.08500000000001,73.65842255335292L93.375890625,72.93190943146392L93.44861328124999,72.91441570868322L93.59405859374999,72.86496128850361L93.73950390625,73.65318361233525L93.88494921875,73.31461639592585L93.957671875,73.4606424475644L94.03039453125,73.45956619485541L94.1031171875,73.89933325701357L94.17583984375,73.65797928487503L94.3940078125,74.01999378752802L94.53945312500001,73.55391986825731L94.68489843750001,73.27546575857883L94.90306640624999,73.87440926404439L95.04851171874999,73.15678896921597L95.121234375,72.89193970961689L95.19395703125,72.64279558057505L95.63029296875,71.77283623375519L95.703015625,71.40725055325862L95.84846093750001,71.88042933752976L96.06662890625,72.1488173674959L96.35751953124999,71.9397439594589L96.5756875,71.58331611578258L96.79385546875,70.68352847087706L96.866578125,71.43130161814514L97.0120234375,71.18955437919139L97.15746875,70.38061922533845L97.30291406250001,70.21674799723452L97.66652734375,69.918586082097L97.8846953125,70.24049373761899L98.030140625,69.62373261678141L99.12098046875,69.54443333863442L99.41187109375,69.23458056290832L99.55731640625,68.95062966549611L99.6300390625,68.32849855159414L99.9209296875,68.08396544288966L100.066375,67.20490691600614L100.13909765625,67.57579562486579L100.357265625,67.06343791817494L100.5027109375,66.5029282039251L100.64815625,66.34762648083029L100.86632421875,67.66825674487681L101.01176953125,67.69982731264128L101.08449218749999,66.94270935099394L101.22993749999999,66.13410008892768L101.520828125,65.12182151598357L101.81171875,65.9578129044844L102.32077734375,65.6221307492154L102.39349999999999,64.6354151851968L102.46622265625,63.925934537386L102.53894531249999,63.14366635689689L102.68439062499999,63.12503336659498L102.90255859375,62.909089693485015L102.97528125,62.613930735707584L103.04800390625,62.82724196228692L103.266171875,62.320020444735164L103.33889453125,61.58716408337375L103.4116171875,61.88343217929426L103.48433984375,62.297860296788784L104.06612109375,61.4335562763775L104.13884374999999,60.28420743488516L104.35701171875,59.63564688539678L104.8660703125,59.289459290054936L105.08423828125001,59.05846075085918L105.66601953125,58.86068463497624L105.7387421875,58.978404783677775L105.8841875,58.93651096283668L105.95691015625,59.459202001110725L106.0296328125,59.17845807172593L106.24780078125,59.16225555122213L106.3205234375,59.62321449001041L106.46596875,59.089029633895166L106.6114140625,59.02452842069452L106.97502734375,59.84273789491115L107.04775,59.585796296608294L107.338640625,59.75267017794012L107.41136328125,59.114753162325655L107.4840859375,58.87107753383789L107.55680859375,59.162617127917855L107.7749765625,58.96055418052211L107.84769921875001,58.138208873806576L107.920421875,57.888432227776974L108.13858984375001,57.47538316529618L108.2113125,58.09601909478144L108.79309375,57.41649010945203L109.083984375,57.77158801387084L109.2294296875,58.343121431762015L109.374875,58.282454616635405L109.44759765625,58.16176301937308L109.665765625,58.32432378773764L109.88393359374999,58.13601682326275L109.95665625,58.11459640172231L110.02937890624999,57.689609546320824L110.1021015625,57.345934136892325L110.32026953124999,57.468280736796785L110.90205078125,57.17556868263034L111.04749609375,57.36019880336073L111.19294140625,57.16538139065585L111.33838671874999,56.526167141504786L111.411109375,56.39529891637183L111.62927734374999,56.99249844204776L111.77472265624999,56.22501431328533L111.92016796875,56.380295804730224L112.28378125,56.651095235823774L112.79283984375,56.9655400125596L112.86556250000001,57.38261447833004L113.08373046874999,56.69008239101181L113.22917578124999,56.60435681197242L113.66551171875,57.09824850868323L113.738234375,57.56908193385824L113.8836796875,58.219075806674226L114.02912500000001,58.44314475687682L114.32001562500001,58.027065602842114L114.61090625,58.67816821899871L114.7563515625,57.78475068507697L115.11996484375,57.06937093573521L115.1926875,56.22890553278663L115.26541015625,55.75014613304231L115.77446875000001,55.635130929744705L115.84719140625,55.275107198538535L116.28352734375,55.45970046133067L116.57441796875,54.816357857511036L116.647140625,54.5544387599363L116.71986328125,54.87515366816598L117.37436718750001,54.309149610122674L117.5198125,54.35994162025669L117.73798046875,53.851090124624804L118.17431640625,53.99192266860966L118.2470390625,54.28909179379619L118.5379296875,53.864463282147625L118.75609765625,53.26458291709697L118.8288203125,52.53110852385552L118.90154296875001,52.547308545363265L119.91966015625,52.31014389777751L120.137828125,52.355088583256375L120.35599609375001,53.08923556536422L120.42871874999999,52.93870904399081L120.50144140625,52.704620063293646L120.71960937499999,52.525165916832776L120.79233203125,52.21842153778603L120.86505468749999,52.6179979450134L121.95589453125001,52.616275923282174L122.17406249999999,52.514128698958785L122.31950781249999,51.91580143303244L122.39223046875,51.96062092612232L122.53767578125,51.24712471962425L122.6103984375,51.23996813800184L122.82856640625,51.731090071624166L123.046734375,51.33366473636711L123.11945703125001,51.15404000222104L123.26490234375001,51.11767650789973L123.41034765625001,51.07481888646541L123.55579296875,51.54321036542386L123.70123828125,51.72100194996618L123.91940625,51.22615121171057L124.0648515625,50.8088964591134L124.210296875,50.92770339338898L124.3557421875,51.09634289656924L124.5011875,51.22694336196069L124.6466328125,50.7384346650265L125.373859375,50.385431205096125L125.66475,50.030007444306975L125.955640625,49.30047442772248L126.02836328125001,49.15202616085082L126.1010859375,49.09362466896374L126.24653125,48.99979179201486L126.46469921875001,49.265445491895136L126.6828671875,49.26018669647405L126.8283125,49.10063264476848L127.04648046875,48.49772043874853L127.48281640625,48.74555588399181L127.62826171875,48.17990143696116L127.77370703125,47.980774878831795L127.8464296875,47.527715545762845L128.06459765625,47.85124175469966L128.1373203125,48.508555069520554L128.21004296875,48.430195725815054L128.4282109375,48.239327988385725L129.0099921875,47.661907231579534L129.37360546875,47.12669736233639L129.51905078125,47.30789284310404L129.95538671875,47.70323315774374L130.24627734375,47.55938308340697L130.31900000000002,47.07699396225735L130.39172265624998,46.205012458129914L130.4644453125,45.57818091330097L130.90078125,46.52017235517502L131.11894921875,46.92160371839583L131.62800781250002,47.19441715645695L131.773453125,47.05075935894067L131.99162109374998,46.794197292451855L132.06434375,47.26107207884394L132.28251171875,46.970796825227694L132.355234375,47.26080531593473L132.71884765625,47.26366085887412L132.7915703125,47.92184774550614L132.86429296875,47.77057066481447L133.0824609375,47.30473710421293L133.30062890624998,47.849343435741105L133.3733515625,48.787687379711286L133.44607421875,48.640201756642284L133.518796875,48.84002915048046L133.59151953125,48.66691059531337L134.02785546875,48.33716138590043L134.46419140625,48.44568314205881L134.90052734374999,48.29357292433647L135.19141796875,47.63184084906155L135.33686328125,46.95810274140422L135.7004765625,46.72868996390167L135.9913671875,46.273710380486904L136.50042578125,45.902792791517186L136.64587109375,46.51573357285642L136.86403906249998,45.704938096307785L137.009484375,45.471837147293826L137.08220703125,45.14129782781322L137.300375,45.25072219213462L137.37309765625,45.339653394260466L137.51854296875,45.10721895068397L137.591265625,44.91947917754911L137.80943359375001,45.11880614458843L139.04571875,45.17253424963343L139.11844140625,45.22771276911757L139.1911640625,45.14383667809469L139.26388671875,45.351753272101774L139.55477734375,44.57967686053496L139.77294531249998,44.134651476935545L140.0638359375,43.571139047218566L140.13655859375,43.37442732705969L140.20928125,42.7833579519006L140.500171875,42.39896493875082L140.57289453125,42.13463833563986L140.6456171875,41.72425006148805L140.7910625,41.67505626756949L140.9365078125,41.217679391064166L141.08195312499998,41.462126882395836L141.2273984375,41.296190765839896L141.8091796875,41.20720554339184L142.17279296875,40.74133675193312L142.245515625,40.17002621501635L142.90001953125,40.58664278250055L142.9727421875,40.84796779265571L143.77269140625,40.261529948488004L144.1363046875,40.49090003514402L144.35447265625,40.59803407238661L144.4271953125,40.46740099588661L144.64536328125,40.024966863160245L144.79080859375,39.63093497082889L144.86353125,39.70114060793509L145.4453125,39.61800460686342L145.51803515625,40.04859860550283L145.5907578125,39.79780603824668L145.66348046875,39.4765171855565L145.8816484375,39.53936798852445L146.02709375,40.0286157381951L146.09981640625,40.20928695774987L146.1725390625,40.3289554491179L146.7543203125,39.7618143902379L147.11793359375,40.315801446974376L147.19065625,40.40541539818261L147.40882421875,40.318080999824105L147.91788281249998,39.8032837148813L148.063328125,39.26210588470312L148.7905546875,38.877165865353106L149.15416796875002,39.05811640568396L149.226890625,38.385119580405274L149.3723359375,38.037335930120065L149.44505859375002,37.849670126026496L149.88139453125,38.03982374111371L149.95411718749997,38.42982113815182L150.390453125,38.1525519663478L150.46317578125,38.314496730421325L151.1176796875,38.32531507840139L151.4085703125,38.31147715277095L151.554015625,37.74534011786332L151.84490625,37.94290217143737L152.49941015625,38.18746679984346L152.64485546875002,38.17194201424297L152.8630234375,38.01862636662517L153.00846875000002,37.903027459984344L153.08119140624999,37.381444701522724L153.44480468749998,37.964157008784554L153.66297265625,38.510994158080905L154.0265859375,38.90982608034227L154.17203125,38.46590300936708L154.462921875,38.06399765722523L154.6083671875,37.95443752022413L154.68108984375,37.63101248691447L154.7538125,37.37927607450453L154.8992578125,37.567825686133574L155.044703125,37.650555128009216L155.40831640625,37.66871409091675L155.62648437500002,37.72279878361755L155.7719296875,38.131318453045765L155.99009765625001,38.10420244565037L156.208265625,37.87008373630343L156.49915625,38.33664391323643L156.71732421874998,38.0254377836288L157.00821484374998,37.861882834082564L157.0809375,38.121029837646574L157.15366015625,38.58516157613005L157.66271875,38.00595850532062L157.8081640625,37.991415774931454L157.953609375,37.71002435022311L158.17177734375,37.43306369556262L158.24450000000002,37.0507233375599L158.6808359375,36.76956682346719L158.75355859375,36.28883427047043L159.04444921874997,36.60533791836576L159.33533984374998,36.46946713443188L159.5535078125,36.02582601431254L159.62623046874998,35.918856600531484L159.698953125,35.74850539353886L159.77167578125,35.629898453757335L159.91712109374998,35.56299088107454L160.1352890625,35.410386980869646L160.64434765625,35.443863107318776L160.7170703125,35.363621214043604L161.08068359375,35.45728315708601L161.22612890625,35.55244201065801L161.2988515625,35.51813668309805L161.37157421875,35.441873848382215L162.02607812500003,35.69589737977279L162.31696875,36.534149369206744L162.38969140625,36.518709284047304L162.4624140625,36.68296237714324L162.53513671874998,36.3096460379177L162.68058203125,35.91075059392705L163.0441953125,35.94370310817004L163.11691796875,35.54817881065358L163.26236328125,35.327922239984986L163.3350859375,35.42883539511786L163.40780859375,35.24438076216464L163.6259765625,35.18285100653259L163.771421875,35.059771267110534L163.84414453125,35.09112011225454L163.9168671875,35.74838210069191L164.57137109375,35.49385421210553L164.7895390625,35.599275459043696L165.44404296874998,35.72055524890834L165.88037890625,35.871603662989315L165.9531015625,35.562814177299686L166.38943749999999,35.230687625541634L166.46216015625,34.7758566250244L166.5348828125,34.53192855008825L166.680328125,34.454785761395556L167.1166640625,34.78858443146058L167.553,35.63044663379438L167.62572265625002,35.876278308521364L168.20750390625003,35.95269870154897L168.2802265625,35.32091321875802L168.49839453125,34.92421652843163L168.71656249999998,34.4687575824685L169.00745312499998,34.82365834654061L169.1528984375,35.22375534659088L169.4437890625,34.83212579904446L169.880125,34.57640529119129L170.171015625,34.77896345499113L170.24373828125002,34.79649316664512L170.46190625,34.62122378373229L170.6073515625,34.7976869248069L170.82551953125002,34.550705766185104L171.11641015625003,34.16219078348982L171.26185546874999,34.296830619923895L171.40730078125,34.88570289957798L171.4800234375,35.043274279213364L171.55274609375,36.30179397146222L172.0618046875,36.05867064754307L172.20725,36.563705702035264L172.27997265625,36.72289741390347L172.71630859375,36.52294861500158L172.78903125,36.50014233258315L172.86175390625,36.412401875770655L173.00719921875,36.869080214613064L173.15264453125,36.5706532453996L174.02531640625,36.445197332852814L174.6798203125,36.190965877620926L174.9707109375,35.90877659043625L175.33432421875,35.76593957909904L175.407046875,36.08853618601566L175.77066015625,35.66555353885656L175.8433828125,36.02291097601821L175.91610546875,35.706930241355195L176.20699609375,35.18331906717438L176.27971875,35.092129978655464L176.71605468750002,35.14660022056799L177.00694531250002,34.75045951098306L177.07966796875002,34.84692252618194L177.152390625,35.616110378388015L177.29783593750003,35.473981483722355L177.37055859375,35.277544764672115L177.734171875,35.25554923993573L177.95233984375,34.81864553416716L178.09778515624998,34.815418570019176L178.315953125,34.95211016187483L178.53412109375,35.03222678272948L178.7522890625,35.0615880207902L178.897734375,35.377076528536975L179.33407031250002,35.13223937899366L179.40679296875,35.20476616148602L179.55223828125,35.68721396395861L179.69768359375,35.737540697985025L180.35218749999999,35.034993903886885L180.42491015624998,34.84926568214283L180.4976328125,35.22712307701789L180.57035546875,35.48315921091094L181.58847265625,35.087074160340535L181.87936328125,34.89133919482907L182.17025390625,34.64976593053126L182.2429765625,34.86911773769586L182.46114453125,34.41575031266112L182.5338671875,34.386382439682535L182.75203515625,34.279661199726576L182.89748046875002,34.04907689400923L183.04292578125,34.03363706379463L183.40653906249997,34.03304714041195L183.62470703124998,34.057694842465736L183.77015234375,34.70624604227092L183.842875,34.43291330748636L183.98832031249998,34.36073933255554L184.20648828125,35.008159058131696L184.42465625,35.23909327779617L184.57010156249999,35.05185473358216L184.78826953125,35.01363620672123L185.0064375,34.72772016259512L185.07916015625,34.0829740742997L185.297328125,34.45240739437949L185.51549609375002,34.651269647991256L186.09727734375002,34.20249992405286L186.17000000000002,33.811944894153356L186.31544531249997,33.870656767829246L186.67905859375,33.57540697443977L187.042671875,33.770407715838104L187.11539453125,33.51411165278097L187.18811718749998,33.58472155912244L187.3335625,33.402398917346915L187.40628515625,33.09898254169653L187.55173046875,32.732397781066425L187.69717578125,32.66751150420677L187.91534375,32.83343214414077L187.98806640625,33.1655070687346L188.27895703125,33.46330548393067L188.6425703125,32.82339884568725L188.788015625,33.000887877407195L189.2243515625,33.09296658503652L189.29707421875003,33.50486930558736L189.36979687500002,34.07418433590425L189.44251953124999,34.861921325443404L189.51524218749998,34.643892589899L189.73341015625,34.33446809566411L189.87885546875,34.52996543130746L190.09702343749998,34.66932986276416L190.16974609375,34.51391341778992L190.3879140625,34.399413324981396L190.533359375,34.808887290404726L190.6788046875,34.62544167453481L190.75152734375,34.3330396228298L190.82425,34.79222672359731L191.115140625,34.75940133805878L191.40603125,34.56659311550865L191.47875390625,34.40263309759521L191.5514765625,34.384423493255184L191.8423671875,34.390002734607435L191.91508984375,34.42597796300143L192.06053515625,34.30439186453222L192.1332578125,33.99546230402433L192.27870312500002,34.065995648103836L192.35142578125001,33.82395465293027L192.42414843749998,33.865290537502574L192.56959375,33.79776755662684L192.64231640625,33.589671951113104L192.78776171874998,33.058567718272315L193.0059296875,32.892558685295L193.151375,33.43169625049339L193.22409765625,33.33054739672252L193.66043359374999,33.578955154208245L193.73315625,33.955829720785545L193.80587890625,33.87541461945065L194.09676953125,33.6236185799076L194.24221484375,33.228650045619986L194.38766015625,32.662157037064844L194.67855078125,32.612019878409995L195.18760937500002,32.50105080782046L195.40577734374997,32.779298691516715L195.55122265625,33.15070044096851L195.69666796874998,33.57332399820194L195.769390625,33.52800321437772L196.06028125,33.32157584425275L196.2057265625,33.033809326316174L196.27844921874998,33.06008204374601L196.351171875,33.34908502501327L196.56933984375,33.024441016493995L196.6420625,32.89471222212916L196.86023046875,32.894858265376826L196.932953125,33.15105896168072L197.15112109375,33.044256727776485L197.3692890625,32.639713134643415L197.6601796875,32.748256757033886L198.09651562500002,32.5191583251019L198.16923828125002,32.60586537783993L198.38740625000003,32.42003937497509L198.46012890625002,32.39032007911845L198.60557421874998,32.06762888998321L198.75101953125,31.974094597993258L198.8237421875,32.721215681520306L198.9691875,32.715739825291195L199.04191015625,32.87989384942111L199.18735546874998,32.74046813947933L199.260078125,32.47036039705688L199.33280078125,32.13389542197601L199.4055234375,32.241051322551016L199.55096875,32.968916095141L199.6964140625,32.40248450992158L199.76913671875,32.22826523773796L200.06002734375,32.67621524378188L200.13275,33.36429814839599L200.2781953125,33.45293782756707L200.49636328125,33.39563533198199L200.64180859375,33.99466979373577L200.8599765625,34.239335339934996L201.7326484375,35.13266430018052L202.0235390625,35.00599245276581L202.24170703125,35.08477032719176L202.6053203125,35.19643684265063L202.75076562499999,35.48668077205653L202.96893359375,35.20467718903495L203.40526953125,34.9277420667575L203.4779921875,34.6233637650129L203.6234375,35.01086825102328L203.84160546875,34.99746614267684L204.0597734375,35.534522900974196L204.13249609375,34.91216049310435L204.20521875,35.28283860580376L204.85972265625,35.11159599182761L204.9324453125,34.735212590223114L205.00516796875,34.62330333504025L205.07789062499998,34.63733777298694L205.2233359375,34.03880659608086L205.36878124999998,34.32502828939391L205.58694921875,34.09282964050871L205.9505625,34.52116455796184L206.0960078125,34.236255666724816L206.16873046875,33.79948181885294L206.241453125,33.81740601870075L206.31417578125001,33.54705652292199L206.89595703125002,34.423881098210245L207.55046093750002,33.86919638902049L207.91407421875,33.9908976932729L208.49585546875,34.01151316584293L208.568578125,34.06630833653159L208.78674609375,34.018566875059975L209.07763671875,34.611307560789186L209.2958046875,34.60470190846402L209.5866953125,34.50458426246274L209.80486328125,34.5527427927471L210.02303125,34.5133699923048L210.09575390625,34.34651025974571L210.16847656250002,34.05403267313102L210.313921875,33.581689956877796L210.89570312499998,33.84871744253604L211.0411484375,34.183488148574696L211.18659375,34.37295292093046L211.3320390625,34.76379524826976L211.69565234375,35.23096361700419L212.059265625,35.09270441634004L212.641046875,35.238386367014215L212.71376953125,35.30320302785219L212.78649218750002,34.87603626337406L213.07738281250002,34.39559655132729L213.29555078125,34.27162979464771L213.51371875,34.0350074293209L214.0955,34.04209114923003L214.2409453125,33.742678981111084L214.5318359375,33.55690131873078L214.60455859375,33.19817496825445L214.67728125,32.95909806062704L214.75000390625,32.99542770023274L214.89544921875,32.72585242788793L215.04089453125,33.006843516079186L215.2590625,33.35604646009048L215.47723046875,33.173114279234085L215.549953125,33.10930045427389L215.69539843750002,32.72762647991166L215.84084375,32.68570051039373L216.34990234375002,32.79922926008746L216.64079296875002,33.303670129272945L216.78623828124998,33.09793778422704L216.93168359375,32.95053145713504L217.07712890624998,32.31220783519217L217.1498515625,31.91935677912744L217.295296875,32.079342652968194L217.51346484375,32.08882789729188L217.65891015625,32.456454086267144L217.877078125,33.058126205001486L218.0225234375,33.00723625678697L218.24069140625,32.63948011511562L218.3134140625,32.59724872884988L218.38613671875,32.20109810695919L219.11336328125,32.091836822110224L219.1860859375,32.702762542734064L219.33153125,32.22618899629035L219.40425390625,32.07746600239611L219.4769765625,32.276294816973405L219.54969921875002,32.298420524158615L219.76786718749997,32.20172900988925L219.84058984375,32.04334143103904L219.98603515624998,31.796658745930927L220.204203125,31.45811000090967L220.34964843749998,31.84278577481922L220.49509375,31.564215255131415L220.64053906249998,31.56622820072974L221.29504296875,31.710964308361156L221.367765625,31.867378824382996L221.58593359375,31.40058162926408L221.73137890625,31.22793859504469L221.87682421875002,31.17166890931236L222.02226953125,31.158617916702724L222.16771484375002,30.71323823166705L222.2404375,30.742384142343866L222.45860546875002,30.649371654834823L222.89494140624998,30.429822092708008L222.96766406249998,30.114485645039593L223.25855468749998,30.052426622160453L223.47672265625,30.078359894001466L223.694890625,29.983573710462906L223.8403359375,30.883291041311367L223.91305859375,30.540488854504417L224.20394921875,30.01958523419313L224.49483984375001,29.98024868425452L224.7130078125,30.05497328638924L224.78573046875002,30.235469509208258L224.858453125,30.763356757459945L224.93117578125,31.486826701948473L225.14934375,31.400175008747L225.44023437500002,31.289874115327933L225.5856796875,30.906553972171338L225.87657031249998,30.553110760370686L225.94929296875,30.358559566502407L226.09473828125,30.403100170570212L226.16746093749998,30.804249783403122L226.53107421875,30.648198028178058L226.7492421875,30.224682468622035L226.82196484375,29.951176165694164L226.96741015625,30.084279554020156L227.11285546875,30.387659980223305L227.25830078125,30.61286178217179L227.3310234375,30.695483169758973L227.54919140625,30.53466586331146L227.6219140625,30.462826298623753L227.767359375,29.99675623750906L227.98552734375,30.00835063359662L228.05825000000002,29.815297653998385L228.2036953125,30.167839197734793L228.64003125000002,30.057503638497536L228.85819921874997,29.87901306572971L229.07636718749998,29.588247351467686L229.14908984374998,29.397327426108944L229.43998046874998,29.155077748887265L229.87631640625,28.675897313504464L230.8217109375,28.49342346743657L231.1126015625,28.23364984560928L231.25804687500002,27.854505328650077L231.62166015625002,27.765077249045532L231.83982812500003,28.545785244888634L231.98527343749998,28.428228952769672L232.2761640625,28.827095456158133L232.63977734374998,29.130708117774674L232.93066796875,28.9630692590203L233.22155859375,28.837833536468963L233.4397265625,28.798036399186998L234.09423046875,28.637032637608854L234.45784375000002,28.24560870003998L235.1850703125,27.798602201749674L235.25779296874998,27.85492008167722L235.330515625,27.435729945755554L235.54868359374998,27.68099108829003L235.62140625,27.897153799658952L235.98501953125,27.83378512263741L236.13046484375,27.364328998485632L236.42135546875,26.782061747926917L236.494078125,26.48578812533256L236.56680078125,26.164313103634754L236.6395234375,25.771814172595555L236.71224609375,25.517968622358808L236.78496875,24.966711808020136L236.85769140625,24.983299957714962L237.43947265625002,25.0845391893574L237.657640625,25.122126453952376L238.0939765625,24.788702713016676L238.3848671875,24.667797476492353L239.11209374999999,24.873558857298946L239.18481640625,24.6951273709754L239.2575390625,24.15373484865634L239.76659765625,24.883683344799493L240.1302109375,25.013029558520827L240.34837890625002,24.75869416363878L240.49382421875,25.142538734824882L240.566546875,25.048969368971342L240.63926953125002,24.903348357465376L240.71199218750002,25.102023174167215L241.0028828125,25.05586829484878L241.5846640625,24.75933219064237L241.65738671875,24.878186709764833L241.8755546875,24.387291832076244L242.021,24.255327400957867L242.09372265625,24.420976345161364L242.23916796875,24.396204434316587L242.60278125,24.74647035568853L243.11183984375,24.251281876107896L243.25728515625002,24.419316703229356L243.475453125,25.245349312783475L243.62089843750002,25.33865838161148L243.98451171874999,25.484154308850492L244.2026796875,24.97548074397332L244.42084765625,24.82684603043387L245.0753515625,24.68211283934133L245.14807421875,24.92354305456655L245.3662421875,24.78087888546031L245.58441015625,24.66973656645078L245.72985546875,24.89629023413525L245.802578125,24.893981402476896L246.23891406250002,24.760990055510263L246.45708203125,24.627515755467186L246.52980468750002,24.265954913305933L246.67525,24.425631471096324L246.89341796875001,25.38488647168097L247.03886328124997,25.317223053940182L247.18430859375,25.579942829877183L247.4024765625,25.941394817159875L247.47519921875,25.6294424235422L247.547921875,25.155262001695604L248.05698046875,25.16339243148161L248.42059375,25.152600696016293L248.5660390625,24.87408116113471L248.63876171875,24.527756005786046L248.711484375,24.892861386755357L249.002375,25.291571408163776L249.07509765625,25.762856834437372L249.43871093750002,25.480649423328543L249.51143359375,25.643701758642436L249.80232421875002,25.323291667038916L250.02049218750003,25.573656898186897L250.09321484375,25.731487627929454L250.23866015624998,25.74827559244602L250.74771875,25.58677491544381L250.82044140624998,25.285714285714306L251.1840546875,25.392407177575393L252.05672656250002,25.115814731330147L252.42033984375,25.063702833818155L252.56578515625,25.33479305940986L252.63850781250002,24.926053128805705L252.85667578125,24.890023046494576L252.92939843750003,25.015214379446633L253.58390234375,25.725094012103654L254.02023828125,25.831016653646117L254.31112890625,26.076028245424794L254.3838515625,26.322451044540912L254.45657421875,26.632154934438205" style="fill: none;" fill="none"></path></g></g></g></g><g opacity="0.2"><g><g><g><path stroke="rgb(255, 112, 67)" stroke-width="2px" d="M36.724941406250004,118.9575609928796L36.7976640625,146.8222815389149L37.16127734375,173.37926437826863L37.3794453125,182.53970717127982L37.452167968750004,203.52861641556882L37.6703359375,164.3648705604835L37.81578125,206.55866640136003L38.106671875,229.13873942799455L38.979343750000005,168.78449580275566L39.270234375,98.14548867348627L39.4156796875,178.72985588681158L39.633847656250005,179.490308067445L39.779292968750006,166.44267833422725L40.215628906250004,184.57658131151894L40.288351562500004,129.93235650946653L40.361074218750005,157.24852415362466L40.433796875000006,163.21151326987868L40.50651953125001,122.26861012596044L41.08830078125,188.9914896564095L41.30646874999999,107.44307694285891L41.524636718749996,171.3523370278317L41.597359374999996,213.69892559977518L41.67008203125,165.3294256520974L41.7428046875,262.6233699389255L42.106417968749994,89.80572260140477L42.68819921875,459.9478301007095L42.760921875,133.69839916354726L43.1972578125,158.74637853467468L43.7790390625,163.38920262600865L43.99720703125,124.22559276421117L44.0699296875,139.0964318389577L44.57898828125,118.79549244243486L44.79715625,193.3928022106301L44.9426015625,167.32433833204098L45.5243828125,455.27685018962694L45.815273437500004,202.63107717561965L46.46977734375,53.006855081331764L46.61522265625,94.46574860676566L46.6879453125,165.60602417938028L46.76066796875,145.0254870967409L47.269726562500004,148.49459674742613L47.63333984375,119.35423780827028L47.77878515625,74.27344342126186L47.8515078125,113.87224642449068L48.1423984375,166.89570310593217L48.50601171875,135.43844775144623L48.578734375,143.69416376796627L48.796902343750006,139.98996763135497L49.23323828125,113.29607451540741L49.305960937500004,242.58348837187106L49.451406250000005,124.47195131089242L49.66957421875,117.85334768378141L49.81501953125,130.05579030590243L49.8877421875,119.0855615669123L50.0331875,280.26111985317823L50.1786328125,75.35343340882156L50.25135546875,213.89110364728953L51.342195312499996,191.90672262615692L51.41491796875,131.27586992169947L51.487640625,49.43928754913388L51.77853125,108.27886753056988L52.5057578125,126.48385138471073L52.57848046875,103.85981765489818L52.723925781249996,169.09383470148637L53.01481640625,200.75286632702557L53.232984375,60.398356827434526L53.30570703125,114.61141240422805L53.3784296875,53.86420838469907L53.59659765625,146.66905320629263L54.46926953125,98.08340017868706L54.905605468750004,160.48246140834277L55.1237734375,110.74836933931327L55.26921875,59.90078810244316L55.34194140625,9.44185257755447L55.48738671875,101.98333416414827L55.77827734375,59.94902952157294L56.06916796875,145.06146614834324L56.21461328125,84.64539736460137L56.5782265625,128.85530688386802L57.59634375,156.24756774523908L57.959957031250006,156.54140996184105L58.0326796875,199.4039874778223L58.3235703125,100.5636596587371L58.396292968750004,152.5087875278549L58.68718359375001,222.08951763666494L58.75990625,104.5173697101492L58.9053515625,224.13463595013064L59.12351953125,68.7150030700886L59.48713281249999,80.21610595176128L59.559855468749994,95.86475872611597L59.632578124999995,120.39628453910069L59.99619140625,74.61099323857906L60.0689140625,64.87370207494527L60.14163671875,161.96069796285371L60.359804687499995,59.0140917158063L61.014308593749995,173.30575098388263L61.159753906249996,97.34124066715913L61.59608984375,235.3655648691378L62.03242578125,343.15421906858523L62.1051484375,148.01954117982675L62.541484374999996,83.8698582729938L62.75965234375,17.76413131657742L63.05054296875,190.9554302449249L63.34143359375,40.913365119389795L63.48687890625,48.540952827574756L63.77776953125,87.13910774731262L63.8504921875,118.04182040071555L63.92321484375,151.84709814016756L64.06866015625,35.74426581603967L64.4322734375,100.78559273938092L64.79588671875,105.57259639845532L64.868609375,32.02091182242029L64.94133203125,56.02388444802126L66.032171875,41.52639427552512L66.54123046875,59.805896700874996L66.97756640625,150.90981430978943L67.0502890625,167.40602226379363L67.195734375,196.46513300225405L67.3411796875,137.22307224918143L67.6320703125,137.989477685359L68.28657421874999,10.849054217675189L68.43201953124999,113.81164155555894L68.5047421875,117.54400279954723L68.72291015625,71.46052831157537L69.15924609375,71.55436441695012L69.74102734374999,64.21043766297039L69.81375,158.99004255394084L70.03191796875,76.42321031696629L70.104640625,56.88739524477867L70.75914453125,136.03216309407262L70.8318671875,34.05421104549055L71.63181640625,66.29437603018364L71.849984375,27.914943948543595L71.92270703125,55.96369574201891L72.06815234375,135.16046282473937L72.21359765625,242.5208957867L73.23171484375,156.94907974861906L73.595328125,45.38981745573315L73.7407734375,135.39771399182223L73.95894140624999,235.54244519623728L74.10438671874999,64.30903024992436L74.468,177.46358696822682L75.12250390624999,497.62322269798625L75.1952265625,53.60896880463784L75.340671875,27.464548911215132L75.41339453124999,47.032854928309206L75.6315625,53.55578879847478L75.7770078125,10.186222488837387L76.14062109375,88.66589600198208L76.21334375,54.85927634039811L76.86784765624999,64.70471795369765L77.01329296875,79.32793818265063L77.30418359375,133.47858689204003L77.37690625,80.56007405702908L77.44962890625,65.49156247978515L77.74051953125,16.323746974545116L78.03141015624999,105.26753650701635L78.1041328125,47.87598708630085L78.32230078125,57.06993218905528L78.46774609375,116.24184546450981L78.54046875,230.46652247826808L78.61319140625,59.12512258089369L78.6859140625,109.0038484853899L78.75863671875,79.59105478385176L78.831359375,68.4556161438842L78.9768046875,46.36769291003992L79.04952734375,80.22808409201693L79.41314062500001,25.60462875519417L79.48586328125,57.0639083021362L79.77675390625,114.15115348126879L79.994921875,78.39098885435266L80.1403671875,89.23509730257712L80.57670312500001,28.104228918268035L80.72214843750001,183.6293027813302L81.08576171874999,40.14695126601555L81.37665234375,71.59002695856483L81.449375,60.2871893562085L81.5948203125,23.07046685972361L82.4674921875,67.09365420448208L82.97655078125,117.25749831569584L83.04927343749999,150.84152108457445L83.19471874999999,9.874885455191077L83.26744140625,66.07379997875869L83.3401640625,45.22874622437152L83.41288671875,46.37167530546586L83.55833203125,20.60013593379591L83.7765,8.793625307816342L84.06739062499999,57.43039857434849L84.14011328125,41.84443339183824L84.43100390625,73.59276929598306L84.649171875,48.66514069517609L84.9400625,25.85179220345003L85.15823046875,72.5823862311603L85.230953125,44.9795579822906L85.30367578125,60.71458508067191L85.3763984375,69.83180868793454L85.44912109375001,24.240922483594517L85.59456640625001,14.225671110331774L85.66728906249999,119.73949475318994L85.74001171875,54.568691984872785L85.95817968749999,14.71181441348051L86.03090234375,322.9495669151953L86.103625,80.94540434656098L86.2490703125,30.385172525444943L86.394515625,49.38712212896897L86.46723828125,55.09029243916876L86.976296875,134.52176352393363L87.19446484375,75.8479969357809L87.48535546875,80.514295404936L87.7035234375,36.23924866065826L87.84896875,47.583776732713744L87.9944140625,212.3361421887942L88.2853046875,-11.749572192787724L88.5761953125,52.61003606469875L88.79436328125,70.62500798884189L88.8670859375,104.08472070812621L88.93980859375,31.772515262371968L89.01253125,28.54246275165781L89.4488671875,26.894730801643902L89.885203125,27.56295842066754L90.0306484375,14.022785582440065L90.10337109375001,86.30280404948834L90.39426171875,91.10834664626107L90.6124296875,201.13704661986003L90.68515234375,14.559005571101153L90.9033203125,62.17706192535664L90.97604296875,71.66340050986423L91.048765625,57.87491792381563L91.1942109375,9.365398693452363L91.33965625,34.410762555136245L91.7759921875,31.75910894886269L91.99416015624999,14.022827123613865L92.0668828125,66.29424189978376L92.28505078124999,262.1801942151603L92.3577734375,33.94479441179672L92.43049609375,95.68330839443503L92.57594140625,133.71848249222057L92.6486640625,62.89144595602639L93.08500000000001,1.219784784424661L93.375890625,20.241590173414295L93.44861328124999,71.34022476322698L93.59405859374999,68.46151663740945L93.73950390625,180.32394825862832L93.88494921875,45.8601169236768L93.957671875,87.50150423175063L94.03039453125,73.36169264743157L94.1031171875,122.2792185264286L94.17583984375,53.415457260157865L94.3940078125,112.43163722761904L94.53945312500001,36.99527298665302L94.68489843750001,50.14195833213931L94.90306640624999,146.18766202025637L95.04851171874999,20.501195610180673L95.121234375,50.74318106284507L95.19395703125,51.68663365032536L95.63029296875,10.2253151149377L95.703015625,41.7149921974364L95.84846093750001,125.44429607306243L96.06662890625,99.67744707392758L96.35751953124999,54.058001803087194L96.5756875,42.474030233317706L96.79385546875,7.257218124859804L96.866578125,172.22345017451107L97.0120234375,50.67694571410357L97.15746875,11.960677719490405L97.30291406250001,55.92807861576901L97.66652734375,45.02413828767152L97.8846953125,104.33235361056583L98.030140625,22.671946401496825L99.12098046875,62.40408205997731L99.41187109375,43.39487767038034L99.55731640625,45.06077258016299L99.6300390625,20.930635713501715L99.9209296875,47.22131445047407L100.066375,4.481151043763305L100.13909765625,108.04302089391763L100.357265625,26.722407760988915L100.5027109375,22.94695125362881L100.64815625,52.65472198174926L100.86632421875,661.3191900373095L101.01176953125,70.68279568464598L101.08449218749999,11.035479737986265L101.22993749999999,7.1800046368365145L101.520828125,-5.1302390080745965L101.81171875,189.58292520931423L102.32077734375,37.619885378304986L102.39349999999999,-4.349709728680665L102.46622265625,10.727908781330171L102.53894531249999,5.5658075264031766L102.68439062499999,61.3887054880193L102.90255859375,44.13456246334505L102.97528125,37.5978724269614L103.04800390625,84.70280809375038L103.266171875,21.985620793337375L103.33889453125,6.8053942796369995L103.4116171875,93.48938599068994L103.48433984375,109.19530666587059L104.06612109375,-1.110394531340603L104.13884374999999,-17.480158279889537L104.35701171875,9.94404242359289L104.8660703125,30.299551163426656L105.08423828125001,38.97056982922149L105.66601953125,41.460469663779634L105.7387421875,70.63805343330746L105.8841875,55.03698304137663L105.95691015625,122.58118819501185L106.0296328125,35.10958373909568L106.24780078125,57.63737519375847L106.3205234375,113.47963343381517L106.46596875,16.659721335058435L106.6114140625,53.054734732009365L106.97502734375,181.81885836579096L107.04775,37.3303771348337L107.338640625,76.70774812115455L107.41136328125,9.815888106120951L107.4840859375,37.64664480295548L107.55680859375,90.5413727014896L107.7749765625,41.09817584378516L107.84769921875001,-2.4596333539413138L107.920421875,36.143905807173184L108.13858984375001,23.32975770459305L108.2113125,138.45450871459656L108.79309375,5.356826297521621L109.083984375,97.3214661389348L109.2294296875,130.1785699420157L109.374875,52.62572170300851L109.44759765625,47.14797054748078L109.665765625,74.9093657493635L109.88393359374999,41.34402532530618L109.95665625,56.08462566885807L110.02937890624999,22.569195062415247L110.1021015625,28.20725041522178L110.32026953124999,69.76226876806291L110.90205078125,31.930938347807597L111.04749609375,76.4298843961513L111.19294140625,39.79164450668762L111.33838671874999,6.803482828515087L111.411109375,44.45195226637452L111.62927734374999,133.80240997315724L111.77472265624999,-1.4917393417563574L111.92016796875,72.24918962050597L112.28378125,85.81364249993196L112.79283984375,91.55716960471639L112.86556250000001,105.75303223166901L113.08373046874999,3.4889251935890115L113.22917578124999,48.63199633288838L113.66551171875,116.94563517369934L113.738234375,113.89765149341005L113.8836796875,145.19925440544597L114.02912500000001,82.12144552214447L114.32001562500001,23.353065350120147L114.61090625,145.98459258129625L114.7563515625,-7.471508013598083L115.11996484375,2.3328550838534454L115.1926875,-6.015781356701154L115.26541015625,16.556729340609706L115.77446875000001,45.02015868252073L115.84719140625,24.688907863150035L116.28352734375,74.67666200266251L116.57441796875,4.544603211272062L116.647140625,31.563743567001495L116.71986328125,90.48957567072706L117.37436718750001,9.073105793789097L117.5198125,59.363714519863535L117.73798046875,12.48126997351963L118.17431640625,68.40378405629076L118.2470390625,86.95799105929972L118.5379296875,18.430779325144016L118.75609765625,5.723506850521659L118.8288203125,-3.5063772229903805L118.90154296875001,54.12410754618634L119.91966015625,31.26521647619859L120.137828125,56.78226795304147L120.35599609375001,158.64032852319605L120.42871874999999,39.163740693439394L120.50144140625,31.893236858906278L120.71960937499999,36.26338114469209L120.79233203125,25.5905807560967L120.86505468749999,99.04532876603405L121.95589453125001,52.44950236065844L122.17406249999999,42.989128763543846L122.31950781249999,4.360370147383094L122.39223046875,56.38518952751265L122.53767578125,-3.696750332594519L122.6103984375,50.547612935807805L122.82856640625,111.89663563079858L123.046734375,17.76489108780396L123.11945703125001,34.842302754945734L123.26490234375001,47.636485649622216L123.41034765625001,46.98131935020223L123.55579296875,108.24660965415227L123.70123828125,70.32445802348961L123.91940625,10.614611418696398L124.0648515625,15.740752422223352L124.210296875,63.05144353010965L124.3557421875,68.68490464196883L124.5011875,64.62678493144216L124.6466328125,10.539446604186622L125.373859375,20.085184951095982L125.66475,19.54088807260601L125.955640625,-6.782029546350827L126.02836328125001,35.48777142413374L126.1010859375,43.53542279424639L126.24653125,40.18594733777499L126.46469921875001,78.28499884482869L126.6828671875,48.749075392378245L126.8283125,34.46075249858552L127.04648046875,0.4475510864462535L127.48281640625,75.61059878366851L127.62826171875,2.601430332664023L127.77370703125,29.952566439577282L127.8464296875,9.767266870509701L128.06459765625,84.26197743450192L128.1373203125,138.75762583278802L128.21004296875,41.01454603057087L128.4282109375,30.89638019737538L129.0099921875,1.2516879948080941L129.37360546875,3.571359740515362L129.51905078125,66.38911594263244L129.95538671875,93.94244959254739L130.24627734375,34.2588733368479L130.31900000000002,7.177851486363835L130.39172265624998,-18.54771366628026L130.90078125,214.42600573329133L131.11894921875,94.07522963267647L131.62800781250002,77.21024373102964L131.773453125,33.75498371236014L131.99162109374998,23.965970536240917L132.06434375,104.17807980315352L132.28251171875,21.427699775606527L132.355234375,79.46007158040399L132.71884765625,47.54317654296824L132.7915703125,138.71541532186995L132.86429296875,33.796195409127336L133.0824609375,8.51990632582914L133.30062890624998,117.49688789454662L133.3733515625,215.90711823181846L133.44607421875,34.99118152391071L133.518796875,70.12460888496068L133.59151953125,32.78867566893123L134.02785546875,19.661189114367403L134.46419140625,59.55310754232224L134.90052734374999,34.23234130272027L135.19141796875,-4.453554848429917L135.33686328125,-5.900397458359464L135.7004765625,26.084964363019083L135.9913671875,8.221521939725704L136.50042578125,14.050891342749196L136.64587109375,128.64823743922028L136.86403906249998,-15.627003776649161L137.009484375,24.51258403992358L137.08220703125,16.373305637631688L137.300375,56.46872854708431L137.37309765625,54.37882478590758L137.51854296875,24.195263545160117L137.591265625,27.761691160887835L137.80943359375001,66.3899292345828L139.04571875,50.55640532718198L139.11844140625,50.76076614252827L139.1911640625,37.17972403701566L139.26388671875,67.63636048435012L139.55477734375,-14.479067055971L139.77294531249998,6.7493763867993835L140.0638359375,-2.1189253757498534L140.13655859375,25.439251948268634L140.20928125,-4.766968035440442L140.500171875,9.477828808556637L140.57289453125,18.58486744057265L140.6456171875,6.858936593342634L140.7910625,36.93790849674346L140.9365078125,2.917173463478605L141.08195312499998,68.14163049046454L141.2273984375,25.990877512095125L141.8091796875,32.76407079387471L142.17279296875,1.8199019663325942L142.245515625,-6.087010030057513L142.90001953125,90.26176290662465L142.9727421875,69.61600427977324L143.77269140625,-7.021978885512425L144.1363046875,65.36534767632622L144.35447265625,51.598991329435904L144.4271953125,28.25502799968615L144.64536328125,2.7740691852966677L144.79080859375,5.946643794966974L144.86353125,46.80088927979125L145.4453125,31.705378433444906L145.51803515625,91.83943535859164L145.5907578125,17.318237280886734L145.66348046875,11.349054939026644L145.8816484375,45.878274267851054L146.02709375,100.92257293652042L146.09981640625,59.38671410732606L146.1725390625,52.694555286427814L146.7543203125,-6.2644186801547335L147.11793359375,112.10138135893207L147.19065625,49.54921777254013L147.40882421875,32.0128998290167L147.91788281249998,-2.635065850988127L148.063328125,-5.005125025302249L148.7905546875,5.843113402571419L149.15416796875002,58.27985982806797L149.226890625,-14.632128312762973L149.3723359375,7.828095361474794L149.44505859375002,20.6379841959768L149.88139453125,58.3290931147437L149.95411718749997,84.37223313657543L150.390453125,13.49446197945835L150.46317578125,55.378927058640116L151.1176796875,39.39482859700158L151.4085703125,36.95671096523694L151.554015625,-8.253213981723462L151.84490625,59.103452271173595L152.49941015625,64.96516899549655L152.64485546875002,36.652700275183065L152.8630234375,23.77485276088882L153.00846875000002,27.01351303532769L153.08119140624999,-5.569799655088133L153.44480468749998,115.04062967978388L153.66297265625,109.18267230048879L154.0265859375,86.16304233088255L154.17203125,1.030314717000806L154.462921875,3.7217401490919997L154.6083671875,27.607039911931253L154.68108984375,9.28366211098978L154.7538125,14.776889510056634L154.8992578125,57.69607776635037L155.044703125,46.08268950424912L155.40831640625,39.47104055838554L155.62648437500002,43.17038886673788L155.7719296875,86.81890833175149L155.99009765625001,35.46045934895281L156.208265625,16.715313331961084L156.49915625,95.80974836724L156.71732421874998,10.627133178285106L157.00821484374998,22.70882442869214L157.0809375,66.73059514927647L157.15366015625,95.69115473480936L157.66271875,-8.927790256666754L157.8081640625,36.56600953146133L157.953609375,12.682611024989086L158.17177734375,12.761945020062456L158.24450000000002,4.150054212694613L158.6808359375,11.758241787226325L158.75355859375,-3.831553204174668L159.04444921874997,72.5665892392593L159.33533984374998,23.74859242314278L159.5535078125,-1.4270558304691292L159.62623046874998,25.795646805919404L159.698953125,19.995703831530818L159.77167578125,24.4529163674149L159.91712109374998,29.133973287469104L160.1352890625,21.20659324882834L160.64434765625,38.79071321555435L160.7170703125,27.691507278851503L161.08068359375,45.05965422334131L161.22612890625,45.314858951203206L161.2988515625,32.179350133161904L161.37157421875,28.138176275465128L162.02607812500003,63.69909312033408L162.31696875,172.8575046409025L162.38969140625,35.00461978348238L162.4624140625,54.05360935044153L162.53513671874998,4.070296321980408L162.68058203125,1.7414666579711593L163.0441953125,39.23889682942763L163.11691796875,1.6294545390253177L163.26236328125,15.304809980415456L163.3350859375,45.81142003047469L163.40780859375,18.262053817831486L163.6259765625,29.254622980890474L163.771421875,23.472457908792165L163.84414453125,38.22460458215218L163.9168671875,127.60680636360811L164.57137109375,12.623012631204773L164.7895390625,46.469081693346084L165.44404296874998,48.31176179069146L165.88037890625,51.76003665150482L165.9531015625,8.316505567251596L166.38943749999999,6.149505976792483L166.46216015625,-3.5255106174562627L166.5348828125,12.529563475900034L166.680328125,27.063902604749444L167.1166640625,73.10772683138637L167.553,173.21023240776702L167.62572265625002,62.894317575858835L168.20750390625003,43.73831671704096L168.2802265625,-15.175685739914002L168.49839453125,0.8985445568261525L168.71656249999998,-3.8860689514515627L169.00745312499998,76.023604201367L169.1528984375,82.81084245477565L169.4437890625,1.1838975502170115L169.880125,11.596909801382509L170.171015625,56.5987486939614L170.24373828125002,36.53999040431677L170.46190625,18.420258230391426L170.6073515625,53.582596902465L170.82551953125002,12.287452801922598L171.11641015625003,0.7434628955488733L171.26185546874999,48.36606381696984L171.40730078125,113.41962132612356L171.4800234375,51.67741041917148M172.0618046875,14.111289220626077L172.20725,100.40993406248697L172.27997265625,53.54183831816856L172.71630859375,18.197994812379022L172.78903125,34.267360381504545L172.86175390625,28.03454947992833L173.00719921875,92.97461582103465L173.15264453125,10.128356431956803L174.02531640625,24.632852861837534L174.6798203125,13.32427459651393L174.9707109375,10.767090338471576L175.33432421875,22.401843313182184L175.407046875,72.94267455572822L175.77066015625,-0.33553953860291585L175.8433828125,77.59228291845193L175.91610546875,7.8684342004535495L176.20699609375,-8.033282889066271L176.27971875,26.394306903118547L176.71605468750002,40.64987817484024L177.00694531250002,0.743649658907799L177.07966796875002,44.76685625155008L177.152390625,153.34772669212674L177.29783593750003,22.170095018174692L177.37055859375,17.245569768287794L177.734171875,33.10063251804752L177.95233984375,-2.212912903381806L178.09778515624998,34.496900055215946L178.315953125,49.257905272176856L178.53412109375,43.21537768707623L178.7522890625,37.99816018617037L178.897734375,71.30251454431274L179.33407031250002,13.03125848662961L179.40679296875,42.58956193696511L179.55223828125,95.90035245740881L179.69768359375,40.81489132732341L180.35218749999999,-20.064261485139752L180.42491015624998,17.731904149505766L180.4976328125,79.68370216493145L180.57035546875,63.79772371173462L181.58847265625,1.0745842222237343L181.87936328125,16.914724892538572L182.17025390625,12.815767465252094L182.2429765625,58.70907526171871L182.46114453125,-3.824828217411209L182.5338671875,31.516619367357464L182.75203515625,24.15504972344425L182.89748046875002,13.127465616507692L183.04292578125,32.51653001639687L183.40653906249997,33.97473767646221L183.62470703124998,36.518863177991534L183.77015234375,124.99612871817422L183.842875,9.992330285976863L183.98832031249998,27.423107298682282L184.20648828125,125.07184416098977L184.42465625,60.47961518908696L184.57010156249999,17.800284425430704L184.78826953125,31.29131659350014L185.0064375,9.268724858955778L185.07916015625,-17.318920160304145L185.297328125,77.73806936034809L185.51549609375002,56.06515560443327L186.09727734375002,-3.711880791601459L186.17000000000002,0.20618138435472133L186.31544531249997,39.8169964637371L186.67905859375,7.365649302948896L187.042671875,54.73253453938361L187.11539453125,10.459562849917205L187.18811718749998,40.772057762329126L187.3335625,16.57185368805409L187.40628515625,6.236379169062303L187.55173046875,0.9430573361766506L187.69717578125,26.41161064182336L187.91534375,50.436787269405656L187.98806640625,71.32704830272824L188.27895703125,67.09609201159036L188.6425703125,-18.27068389548529L188.788015625,51.93106559204766L189.2243515625,42.552066029093965L189.29707421875003,82.90658516839322L189.36979687500002,109.15227053419653L189.44251953124999,157.5843730597888L189.51524218749998,14.767173097689522L189.73341015625,6.991435012802583L189.87885546875,55.554609142331216L190.09702343749998,49.283352353282694L190.16974609375,20.025131481404344L190.3879140625,23.563355116698006L190.533359375,83.85846121565105L190.6788046875,17.6948189565056L190.75152734375,8.345241999620384L190.82425,91.37257670116264L191.115140625,31.554434412003218L191.40603125,16.830490785383887L191.47875390625,19.16352511876991L191.5514765625,32.596201591374125L191.8423671875,34.94311534137387L191.91508984375,38.03673037442826L192.06053515625,22.82687834106912L192.1332578125,6.688153922283021L192.27870312500002,41.247587751395685L192.35142578125001,11.938134589608921L192.42414843749998,38.02338990861293L192.56959375,27.292397292780834L192.64231640625,14.548857634596175L192.78776171874998,-10.719256470408567L193.0059296875,17.472987049294346L193.151375,103.18075395853332L193.22409765625,23.70855575081498L193.66043359374999,60.97252749551788L193.73315625,78.31496476937178L193.80587890625,26.165512970836744L194.09676953125,10.930332305591406L194.24221484375,-0.7229724156418342L194.38766015625,-13.549661655597873L194.67855078125,27.74878948157354L195.18760937500002,21.982986470803837L195.40577734374997,63.9136550129471L195.55122265625,76.74070065400205L195.69666796874998,84.58581170782008L195.769390625,29.12358942169672L196.06028125,14.420155717151488L196.2057265625,7.4123794035351125L196.27844921874998,35.68710214268225L196.351171875,65.86094046823307L196.56933984375,4.472366714103259L196.6420625,20.68295280344401L196.86023046875,32.90930843757587L196.932953125,61.514313412929994L197.15112109375,22.90456136898885L197.3692890625,-2.0327947528333823L197.6601796875,43.98261055261867L198.09651562500002,11.706381652706341L198.16923828125002,41.49679829737369L198.38740625000003,15.2789908503253L198.46012890625002,29.484201189192362L198.60557421874998,3.667307424574915L198.75101953125,23.049321718553415L198.8237421875,145.16986600867065L198.9691875,32.17511081418283L199.04191015625,50.29176394103327L199.18735546874998,19.6615041906158L199.260078125,8.274444808183716L199.33280078125,2.654348065120786L199.4055234375,43.325990497525055L199.55096875,140.7967753724579L199.6964140625,-13.812656661946306L199.76913671875,16.08991008865607L200.06002734375,87.54102179474191L200.13275,132.14760300736978L200.2781953125,42.5503696477505L200.49636328125,27.851587807301968L200.64180859375,114.63587619087667L200.8599765625,61.17987140522476L201.7326484375,189.81121646723673L202.0235390625,23.066737731216307L202.24170703125,43.13658577189614L202.6053203125,46.77125908440476L202.75076562499999,68.16517488985235L202.96893359375,10.042890170134825L203.40526953125,10.17567833774413L203.4779921875,7.6682815621383895L203.6234375,80.90011397772379L203.84160546875,33.67828927602278L204.0597734375,104.95347874312661L204.13249609375,-15.05490097986754L204.20521875,78.78460430944249L204.85972265625,19.230625586449293L204.9324453125,2.1795923887789286L205.00516796875,24.016934436768167L205.07789062499998,36.03404422192321L205.2233359375,-14.346012748728299L205.36878124999998,66.48858211492407L205.58694921875,13.017267519868739L205.9505625,86.4077674185921L206.0960078125,8.838630974920534L206.16873046875,-3.2652621154767303L206.241453125,35.604077944158604L206.31417578125001,9.327914452198968L206.89595703125002,183.5853786826891L207.55046093750002,-11.549646468193913L207.91407421875,46.662207611371514L208.49585546875,36.068729527618956L208.568578125,39.61155885604248L208.78674609375,29.381824669867598L209.07763671875,114.0800960824563L209.2958046875,33.95268762721639L209.5866953125,24.973233706792172L209.80486328125,39.413075525278L210.02303125,30.676879079103685L210.09575390625,18.846317215055507L210.16847656250002,8.046729429814945L210.313921875,-6.065063828534164L210.89570312499998,63.57614973514484L211.0411484375,72.7417454983216L211.18659375,54.70667232653773L211.3320390625,81.1394179105464L211.69565234375,93.10670324134134L212.059265625,22.114726362754055L212.641046875,50.568078460937144L212.71376953125,41.89043993794775L212.78649218750002,-1.4851165550791734L213.07738281250002,-5.832109969862955L213.29555078125,22.573654469561546L213.51371875,12.588799030171458L214.0955,34.74517547347901L214.2409453125,7.179503214918981L214.5318359375,16.415208834141367L214.60455859375,1.9886434919418434L214.67728125,11.308552324009412L214.75000390625,36.64438570884889L214.89544921875,8.567408220338194L215.04089453125,64.50574911404613L215.2590625,73.88235362043015L215.47723046875,16.27652371527708L215.549953125,26.949333800208535L215.69539843750002,-0.2341340288807885L215.84084375,28.604162876580688L216.34990234375002,44.579155500697084L216.64079296875002,97.21261561435573L216.78623828124998,14.248287472582064L216.93168359375,19.15933727003906L217.07712890624998,-18.711690419546272L217.1498515625,-1.8871579719490228L217.295296875,49.02302625282262L217.51346484375,33.03123068396579L217.65891015625,75.53964562154266L217.877078125,114.22955786096296L218.0225234375,28.07012808710826L218.24069140625,0.7362540432478113L218.3134140625,28.48634303722679L218.38613671875,-1.8540903075763708L219.11336328125,21.724307684238426L219.1860859375,115.65067410155262L219.33153125,-7.727704887874324L219.40425390625,18.16934859588025L219.4769765625,53.70951818888388L219.54969921875002,34.50803389653805L219.76786718749997,22.983486567042235L219.84058984375,17.28324670725712L219.98603515624998,9.514446486176837L220.204203125,1.8075354845060474L220.34964843749998,77.34050009082948L220.49509375,6.6740916858845765L220.64053906249998,31.765632377096694L221.29504296875,46.93654893127794L221.367765625,48.407205829846646L221.58593359375,-7.852041252321811L221.73137890625,15.221685362483925L221.87682421875002,25.723752712760756L222.02226953125,29.873501251113908L222.16771484375002,-6.987249587022717L222.2404375,33.66149281667276L222.45860546875002,21.76933755566961L222.89494140624998,10.41028696348971L222.96766406249998,2.2839304834233474L223.25855468749998,24.057306390695686L223.47672265625,32.672330938729544L223.694890625,20.940173902388437L223.8403359375,187.87371451178737L223.91305859375,0.5582750591809429L224.20394921875,-13.070682455934957L224.49483984375001,26.14658395725033L224.7130078125,37.68186859035785L224.78573046875002,49.53078126029743L224.858453125,98.62854112876883L224.93117578125,138.34363262637055L225.14934375,23.10732869467421L225.44023437500002,20.827101575526967L225.5856796875,-2.18295076601774L225.87657031249998,-0.25308029921507114L225.94929296875,12.461083958712209L226.09473828125,34.89246568874492L226.16746093749998,78.68173877151409L226.53107421875,16.092634221107204L226.7492421875,-5.871820452904501L226.82196484375,5.470331015344243L226.96741015625,44.01528343666223L227.11285546875,64.78283213358212L227.25830078125,55.19140621230518L227.3310234375,39.15675585736662L227.54919140625,15.560351229699052L227.6219140625,23.548570853488997L227.767359375,-9.205376360438237L227.98552734375,31.16140654009746L228.05825000000002,12.045881923089752L228.2036953125,71.1598920133256L228.64003125000002,19.591316139986986L228.85819921874997,13.364361643901645L229.07636718749998,3.7135158735762843L229.14908984374998,11.81081726162654L229.43998046874998,7.238193075222853L229.87631640625,-11.467755600556046L230.8217109375,11.634174285066422L231.1126015625,4.87241483696755L231.25804687500002,-4.919391175058649L231.62166015625002,19.21518679764938L231.83982812500003,149.59179455925045L231.98527343749998,17.306892523575556L232.2761640625,76.3743378302672L232.63977734374998,63.55729835302921L232.93066796875,13.391637690746023L233.22155859375,17.02360785097966L233.4397265625,24.91997458077344L234.09423046875,13.64598397548562L234.45784375000002,-5.457344170381845L235.1850703125,-10.022956880752474L235.25779296874998,33.55934071284565L235.330515625,-8.34194472735814L235.54868359374998,54.706197708583474L235.62140625,51.39017475104828L235.98501953125,21.714797807267786L236.13046484375,-12.082667995714047L236.42135546875,-20.522342240267534L236.494078125,0.16900384693337855L236.56680078125,-2.152315375307495L236.6395234375,-8.012433363127599L236.71224609375,2.642922687698075L236.78496875,-20.227445550013016L236.85769140625,26.636375493212512L237.43947265625002,35.5355418323789L237.657640625,28.90004174921117L238.0939765625,-4.465056022486522L238.3848671875,13.243571424145784L239.11209374999999,47.12832830014639L239.18481640625,8.185003656526249L239.2575390625,-20.361712016560546L239.76659765625,133.27891724628023L240.1302109375,38.52929725253935L240.34837890625002,1.8431407004095206L240.49382421875,70.52779412439632L240.566546875,16.116826700611455L240.63926953125002,11.268215216707603L240.71199218750002,46.520136974958376L241.0028828125,20.569259281241614L241.5846640625,-1.5788760883852433L241.65738671875,37.24147671646759L241.8755546875,-16.592758114489726L242.021,11.836827552034293L242.09372265625,42.01209821164477L242.23916796875,21.967956398848912L242.60278125,65.4278671481642L243.11183984375,-17.033503999373153L243.25728515625002,42.28304695815606L243.475453125,158.80410253629452L243.62089843750002,34.93859703950676L243.98451171874999,40.796785953259274L244.2026796875,-17.26125520205943L244.42084765625,10.924668978224958L245.0753515625,11.125554823422192L245.14807421875,51.47891805174547L245.3662421875,11.407987582948522L245.58441015625,14.129592018919425L245.72985546875,49.640073881514425L245.802578125,24.665632428997526L246.23891406250002,12.250443515012819L246.45708203125,12.07376115525031L246.52980468750002,-7.167207197038721L246.67525,41.33734399397787L246.89341796875001,205.2376116627931L247.03886328124997,18.79404173832239L247.18430859375,54.77510809232213L247.4024765625,68.17090149447395L247.47519921875,-1.9362220850534584L247.547921875,-14.632376019863216L248.05698046875,25.970889323692717L248.42059375,24.088865908369513L248.5660390625,-0.015019558348711826L248.63876171875,-5.730619506709843L248.711484375,67.63218153474966L249.002375,72.81932338789068L249.07509765625,84.30915937706366L249.43871093750002,0.2933721119726158L249.51143359375,42.93927332365672L249.80232421875002,-2.910541584229918L250.02049218750003,53.23044585572458L250.09321484375,42.43407891025424L250.23866015624998,27.421465642845533L250.74771875,10.55138509016939L250.82044140624998,-1.4145281313376472L251.1840546875,36.43271252887834L252.05672656250002,0.3826163140846859L252.42033984375,20.00956152812458L252.56578515625,55.58376144164467L252.63850781250002,-10.076533186036698L252.85667578125,21.37367240116339L252.92939843750003,38.074066078576294L253.58390234375,129.457089127549L254.02023828125,36.78802665345253L254.31112890625,53.072165550067254L254.3838515625,53.49246128804758L254.45657421875,61.86014595536919" style="fill: none;" fill="none"></path></g></g></g></g></g></g><g transform="translate(39, 177)" clip-path="url(#clip_1)"><clipPath id="clip_1"><rect width="290" height="23"></rect></clipPath><g><g><line x1="0" y1="0" x2="0" y2="5" style="visibility: inherit;" fill="rgb(0, 0, 0)" stroke="rgb(204, 204, 204)" stroke-width="1px"></line><line x1="36.361328125" y1="0" x2="36.361328125" y2="5" style="visibility: inherit;" fill="rgb(0, 0, 0)" stroke="rgb(204, 204, 204)" stroke-width="1px"></line><line x1="72.72265625" y1="0" x2="72.72265625" y2="5" style="visibility: inherit;" fill="rgb(0, 0, 0)" stroke="rgb(204, 204, 204)" stroke-width="1px"></line><line x1="109.083984375" y1="0" x2="109.083984375" y2="5" style="visibility: inherit;" fill="rgb(0, 0, 0)" stroke="rgb(204, 204, 204)" stroke-width="1px"></line><line x1="145.4453125" y1="0" x2="145.4453125" y2="5" style="visibility: inherit;" fill="rgb(0, 0, 0)" stroke="rgb(204, 204, 204)" stroke-width="1px"></line><line x1="181.806640625" y1="0" x2="181.806640625" y2="5" style="visibility: inherit;" fill="rgb(0, 0, 0)" stroke="rgb(204, 204, 204)" stroke-width="1px"></line><line x1="218.16796875" y1="0" x2="218.16796875" y2="5" style="visibility: inherit;" fill="rgb(0, 0, 0)" stroke="rgb(204, 204, 204)" stroke-width="1px"></line><line x1="254.529296875" y1="0" x2="254.529296875" y2="5" style="visibility: inherit;" fill="rgb(0, 0, 0)" stroke="rgb(204, 204, 204)" stroke-width="1px"></line><line x1="290.890625" y1="0" x2="290.890625" y2="5" style="visibility: inherit;" fill="rgb(0, 0, 0)" stroke="rgb(204, 204, 204)" stroke-width="1px"></line></g><g transform="translate(0, 8)"><text x="0" y="0" dx="0em" dy="0.95em" style="text-anchor: middle; visibility: hidden; font-family: &quot;Helvetica Neue&quot;, sans-serif; font-size: 12px; font-weight: 200;" fill="rgb(50, 49, 63)" stroke="none" stroke-width="1px">-500</text><text x="36.361328125" y="0" dx="0em" dy="0.95em" style="text-anchor: middle; visibility: inherit; font-family: &quot;Helvetica Neue&quot;, sans-serif; font-size: 12px; font-weight: 200;" fill="rgb(50, 49, 63)" stroke="none" stroke-width="1px">0</text><text x="72.72265625" y="0" dx="0em" dy="0.95em" style="text-anchor: middle; visibility: inherit; font-family: &quot;Helvetica Neue&quot;, sans-serif; font-size: 12px; font-weight: 200;" fill="rgb(50, 49, 63)" stroke="none" stroke-width="1px">500</text><text x="109.083984375" y="0" dx="0em" dy="0.95em" style="text-anchor: middle; visibility: inherit; font-family: &quot;Helvetica Neue&quot;, sans-serif; font-size: 12px; font-weight: 200;" fill="rgb(50, 49, 63)" stroke="none" stroke-width="1px">1k</text><text x="145.4453125" y="0" dx="0em" dy="0.95em" style="text-anchor: middle; visibility: inherit; font-family: &quot;Helvetica Neue&quot;, sans-serif; font-size: 12px; font-weight: 200;" fill="rgb(50, 49, 63)" stroke="none" stroke-width="1px">1.5k</text><text x="181.806640625" y="0" dx="0em" dy="0.95em" style="text-anchor: middle; visibility: inherit; font-family: &quot;Helvetica Neue&quot;, sans-serif; font-size: 12px; font-weight: 200;" fill="rgb(50, 49, 63)" stroke="none" stroke-width="1px">2k</text><text x="218.16796875" y="0" dx="0em" dy="0.95em" style="text-anchor: middle; visibility: inherit; font-family: &quot;Helvetica Neue&quot;, sans-serif; font-size: 12px; font-weight: 200;" fill="rgb(50, 49, 63)" stroke="none" stroke-width="1px">2.5k</text><text x="254.529296875" y="0" dx="0em" dy="0.95em" style="text-anchor: middle; visibility: inherit; font-family: &quot;Helvetica Neue&quot;, sans-serif; font-size: 12px; font-weight: 200;" fill="rgb(50, 49, 63)" stroke="none" stroke-width="1px">3k</text><text x="290.890625" y="0" dx="0em" dy="0.95em" style="text-anchor: middle; visibility: hidden; font-family: &quot;Helvetica Neue&quot;, sans-serif; font-size: 12px; font-weight: 200;" fill="rgb(50, 49, 63)" stroke="none" stroke-width="1px">3.5k</text></g><line x1="0" y1="0" x2="290.890625" y2="0" fill="rgb(0, 0, 0)" stroke="rgb(204, 204, 204)" stroke-width="1px"></line></g></g></g></g></svg>