<svg viewBox="0 0 330 200" xmlns="http://www.w3.org/2000/svg"><g><g><g><g><g><line x1="39.109375" y1="168.00265295128324" x2="34.109375" y2="168.00265295128324" style="visibility: inherit;" fill="rgb(0, 0, 0)" stroke="rgb(204, 204, 204)" stroke-width="1px"></line><line x1="39.109375" y1="112.98167880831016" x2="34.109375" y2="112.98167880831016" style="visibility: inherit;" fill="rgb(0, 0, 0)" stroke="rgb(204, 204, 204)" stroke-width="1px"></line><line x1="39.109375" y1="73.94367639271435" x2="34.109375" y2="73.94367639271435" style="visibility: inherit;" fill="rgb(0, 0, 0)" stroke="rgb(204, 204, 204)" stroke-width="1px"></line><line x1="39.109375" y1="43.66344926215922" x2="34.109375" y2="43.66344926215922" style="visibility: inherit;" fill="rgb(0, 0, 0)" stroke="rgb(204, 204, 204)" stroke-width="1px"></line><line x1="39.109375" y1="18.922702249741292" x2="34.109375" y2="18.922702249741292" style="visibility: inherit;" fill="rgb(0, 0, 0)" stroke="rgb(204, 204, 204)" stroke-width="1px"></line></g><g transform="translate(29.109375, 0)"><text x="0" y="168.00265295128324" dx="0em" dy="0.3em" style="text-anchor: end; visibility: inherit; font-family: &quot;Helvetica Neue&quot;, sans-serif; font-size: 12px; font-weight: 200;" fill="rgb(50, 49, 63)" stroke="none" stroke-width="1px">0.2</text><text x="0" y="112.98167880831016" dx="0em" dy="0.3em" style="text-anchor: end; visibility: inherit; font-family: &quot;Helvetica Neue&quot;, sans-serif; font-size: 12px; font-weight: 200;" fill="rgb(50, 49, 63)" stroke="none" stroke-width="1px">0.3</text><text x="0" y="73.94367639271435" dx="0em" dy="0.3em" style="text-anchor: end; visibility: inherit; font-family: &quot;Helvetica Neue&quot;, sans-serif; font-size: 12px; font-weight: 200;" fill="rgb(50, 49, 63)" stroke="none" stroke-width="1px">0.4</text><text x="0" y="43.66344926215922" dx="0em" dy="0.3em" style="text-anchor: end; visibility: inherit; font-family: &quot;Helvetica Neue&quot;, sans-serif; font-size: 12px; font-weight: 200;" fill="rgb(50, 49, 63)" stroke="none" stroke-width="1px">0.5</text><text x="0" y="18.922702249741292" dx="0em" dy="0.3em" style="text-anchor: end; visibility: inherit; font-family: &quot;Helvetica Neue&quot;, sans-serif; font-size: 12px; font-weight: 200;" fill="rgb(50, 49, 63)" stroke="none" stroke-width="1px">0.6</text></g><line x1="39.109375" y1="0" x2="39.109375" y2="177" fill="rgb(0, 0, 0)" stroke="rgb(204, 204, 204)" stroke-width="1px"></line></g></g><g transform="translate(39, 0)" clip-path="url(#clip_0)"><clipPath id="clip_0"><rect width="290" height="177"></rect></clipPath><g><g><g><line x1="0" y1="0" x2="0" y2="177" fill="rgb(0, 0, 0)" stroke="rgb(60, 60, 60)" stroke-width="1px" opacity="0.25"></line><line x1="36.361328125" y1="0" x2="36.361328125" y2="177" fill="rgb(0, 0, 0)" stroke="rgb(60, 60, 60)" stroke-width="1px" opacity="0.25"></line><line x1="72.72265625" y1="0" x2="72.72265625" y2="177" fill="rgb(0, 0, 0)" stroke="rgb(60, 60, 60)" stroke-width="1px" opacity="0.25"></line><line x1="109.083984375" y1="0" x2="109.083984375" y2="177" fill="rgb(0, 0, 0)" stroke="rgb(60, 60, 60)" stroke-width="1px" opacity="0.25"></line><line x1="145.4453125" y1="0" x2="145.4453125" y2="177" fill="rgb(0, 0, 0)" stroke="rgb(60, 60, 60)" stroke-width="1px" opacity="0.25"></line><line x1="181.806640625" y1="0" x2="181.806640625" y2="177" fill="rgb(0, 0, 0)" stroke="rgb(60, 60, 60)" stroke-width="1px" opacity="0.25"></line><line x1="218.16796875" y1="0" x2="218.16796875" y2="177" fill="rgb(0, 0, 0)" stroke="rgb(60, 60, 60)" stroke-width="1px" opacity="0.25"></line><line x1="254.529296875" y1="0" x2="254.529296875" y2="177" fill="rgb(0, 0, 0)" stroke="rgb(60, 60, 60)" stroke-width="1px" opacity="0.25"></line><line x1="290.890625" y1="0" x2="290.890625" y2="177" fill="rgb(0, 0, 0)" stroke="rgb(60, 60, 60)" stroke-width="1px" opacity="0.25"></line></g><g><line x1="0" y1="168.00265295128324" x2="290.890625" y2="168.00265295128324" fill="rgb(0, 0, 0)" stroke="rgb(60, 60, 60)" stroke-width="1px" opacity="0.25"></line><line x1="0" y1="112.98167880831016" x2="290.890625" y2="112.98167880831016" fill="rgb(0, 0, 0)" stroke="rgb(60, 60, 60)" stroke-width="1px" opacity="0.25"></line><line x1="0" y1="73.94367639271435" x2="290.890625" y2="73.94367639271435" fill="rgb(0, 0, 0)" stroke="rgb(60, 60, 60)" stroke-width="1px" opacity="0.25"></line><line x1="0" y1="43.66344926215922" x2="290.890625" y2="43.66344926215922" fill="rgb(0, 0, 0)" stroke="rgb(60, 60, 60)" stroke-width="1px" opacity="0.25"></line><line x1="0" y1="18.922702249741292" x2="290.890625" y2="18.922702249741292" fill="rgb(0, 0, 0)" stroke="rgb(60, 60, 60)" stroke-width="1px" opacity="0.25"></line></g></g></g><g><g><line x1="36.361328125" y1="0" x2="36.361328125" y2="177" fill="rgb(0, 0, 0)" stroke="rgb(153, 153, 153)" stroke-width="1.5px"></line></g></g><g><g><g><g><g><path stroke="rgb(255, 112, 67)" stroke-width="2px" d="M38.106671875,-1.4085041585720717L38.979343750000005,7.354724201482952L39.270234375,9.934111643961074L39.4156796875,11.444645779324134L39.561125000000004,16.03409235554716L39.633847656250005,21.408636506510504L39.779292968750006,28.034773606423016L40.215628906250004,35.82275917216941L40.288351562500004,42.99231443230829L40.361074218750005,49.807234332425125L40.433796875000006,55.4329516861151L40.50651953125001,59.60959765179035L41.08830078125,59.05491067507347L41.30646874999999,59.868331855528325L41.524636718749996,63.34999915888547L41.597359374999996,67.45375051454702L41.67008203125,71.09185055044102L41.7428046875,75.6809303658142L42.106417968749994,80.3037549719505L42.68819921875,80.33032149698724L42.760921875,79.77847372957761L43.1972578125,83.40098107152885L43.7790390625,86.32622492829212L43.99720703125,89.17749070837101L44.0699296875,92.04522125962413L44.57898828125,94.79142936460482L44.79715625,98.27983281930739L44.9426015625,101.2051124527528L45.5243828125,104.66970016829694L45.74255078125,107.29451754311721L45.815273437500004,110.32316447512054L46.46977734375,112.3825891059036L46.61522265625,113.36869696536952L46.6879453125,113.81626928087353L46.76066796875,114.76349289730388L47.269726562500004,117.77171707315638L47.63333984375,118.82366751366044L47.77878515625,120.5558582569095L47.8515078125,120.91790875701204L48.1423984375,122.86094765848844L48.50601171875,125.4106283423404L48.578734375,127.58745016735729L48.796902343750006,128.7374089281704L49.23323828125,128.320249069913L49.305960937500004,129.38858146102922L49.451406250000005,130.3456402719096L49.66957421875,132.57118635108029L49.81501953125,134.7091114247814L49.8877421875,136.55612373509297L50.0331875,138.78831011049232L50.1786328125,140.29649417611492L50.25135546875,141.67676933711016L50.7604140625,143.81917116383943L51.342195312499996,145.75324883528828L51.41491796875,146.93874052597158L51.487640625,147.69817710191938L51.77853125,149.1776793632166L52.5057578125,151.3720465457844L52.57848046875,152.9662896268625L52.723925781249996,154.91759808332841L53.01481640625,154.68637355324603L53.232984375,149.2862204149108L53.30570703125,146.45280834935238L53.3784296875,144.58361509963203L53.59659765625,145.9294006618593L54.46926953125,148.11431505979692L54.905605468750004,149.22548768694995L55.1237734375,148.93109759513484L55.26921875,148.12153766448313L55.34194140625,145.45025949476204L55.48738671875,145.09255571513972L55.77827734375,145.94626440638348L56.06916796875,142.6340011350595L56.21461328125,142.63427826351105L56.5782265625,143.99619991047484L57.59634375,144.93400813425086L57.959957031250006,147.1011592491925L58.0326796875,148.91037557406554L58.3235703125,149.53151047873345L58.396292968750004,150.0343243976997L58.68718359375001,149.75876655752526L58.75990625,150.74483506877388L58.9053515625,152.52496663757702L59.12351953125,154.09787782138608L59.48713281249999,154.78205115416395L59.559855468749994,152.871045163088L59.632578124999995,152.1097273366431L59.99619140625,151.86055565250217L60.0689140625,151.7142857142857L60.14163671875,152.1946668219604L60.359804687499995,153.1471425670778L61.014308593749995,154.18127394187954L61.159753906249996,155.20486420752854L61.59608984375,156.75826861541583L62.03242578125,157.45272275072807L62.1051484375,158.93186738273815L62.541484374999996,158.70260561145108L62.75965234375,158.13920299375954L63.05054296875,159.72391402687907L63.34143359375,159.07641095829547L63.48687890625,159.734144136618L63.77776953125,160.96125682855606L63.8504921875,161.70167292982052L63.92321484375,163.08226216699117L64.06866015625,163.5261176787125L64.4322734375,163.05985183108464L64.79588671875,164.2481301255057L64.868609375,165.15942182613662L64.94133203125,165.51715178585982L66.032171875,163.95799783491418L66.54123046875,164.57880084714176L66.97756640625,163.5219234133374L67.0502890625,162.7988780084427L67.195734375,164.28180727166682L67.3411796875,165.96497877911924L67.6320703125,167.2470318277155L68.28657421874999,164.50375634416088L68.43201953124999,161.85677436231114L68.5047421875,159.9168625381707L68.72291015625,158.92318431042412L69.15924609375,159.11531946345895L69.74102734374999,158.0685467533302L69.81375,156.19140169855345L70.03191796875,154.12784140464703L70.104640625,153.79914542210588L70.75914453125,154.14240670771895L70.8318671875,153.26995531575585L71.63181640625,153.6766492760229L71.849984375,153.9028258010627L71.92270703125,154.277016086553L72.06815234375,151.59493523180703L72.21359765625,150.04510421446872L73.23171484375,147.93612987469805L73.595328125,147.49626272259138L73.7407734375,148.39729757274637L73.95894140624999,149.99944095424945L74.10438671874999,151.2652543798229L74.468,150.60509096389504L74.54072265625,148.84414877019563L74.97705859374999,148.35037403748814L75.12250390624999,148.62096057681848L75.1952265625,148.2437349345065L75.340671875,149.10683941030862L75.41339453124999,149.86252006251053L75.6315625,149.91210053884012L75.7770078125,148.19876364805225L76.14062109375,148.49026239131805L76.21334375,146.91399322912886L76.86784765624999,146.69749104496373L77.01329296875,146.62407162035365L77.30418359375,147.87022391792183L77.37690625,147.47528561422686L77.44962890625,146.9004125304187L77.74051953125,145.5349887353055L78.03141015624999,146.58191932117018L78.1041328125,146.23373139701556L78.32230078125,144.3425447487177L78.46774609375,140.48749348780987L78.54046875,138.4097399713192L78.61319140625,137.9523634268928L78.6859140625,136.56415958880484L78.75863671875,134.8313714607114L78.831359375,134.12672187452853L78.9768046875,133.56324209352923L79.04952734375,133.64501858732615L79.41314062500001,133.79587481107853L79.48586328125,133.46015796066257L79.77675390625,132.47188070892844L79.994921875,132.47297088071102L80.1403671875,131.9843081740682L80.57670312500001,130.89602925773448L80.72214843750001,129.89867777841016L81.08576171874999,128.09718872369018L81.37665234375,127.85055391123527L81.449375,128.01996645118118L81.5948203125,127.68510363419756L82.4674921875,127.07539810393742L82.97655078125,125.49090297150997L83.04927343749999,124.00861983888947L83.19471874999999,123.89800498386309L83.26744140625,125.380201356257L83.3401640625,125.76534805819537L83.41288671875,125.74760044793626L83.55833203125,124.72669978246404L83.7765,123.94186455849191L84.06739062499999,121.50348575654215L84.14011328125,119.8567468914732L84.43100390625,120.12299306881413L84.649171875,120.05060732512405L84.9400625,120.05914550690119L85.15823046875,119.64066020550744L85.230953125,118.10576773077938L85.30367578125,116.35754033284874L85.3763984375,116.05763322548054L85.44912109375001,113.74830223366484L85.59456640625001,113.6053507039839L85.66728906249999,111.55881624223981L85.74001171875,111.13450377230187L85.95817968749999,110.5317720203313L86.03090234375,111.25769503016488L86.103625,110.73344808036627L86.2490703125,109.82830893263551L86.394515625,110.22617343560283L86.46723828125,110.18194043528736L86.976296875,109.99420877153919L87.19446484375,110.60138429301315L87.48535546875,109.72503388399515L87.7035234375,108.64800675592461L87.84896875,108.02596863840681L87.9944140625,108.52026189194585L88.2853046875,107.49212056832835L88.5761953125,105.78432467677973L88.79436328125,105.41020561309628L88.8670859375,105.08572764960823L88.93980859375,104.79596334408006L89.01253125,105.77689219124785L89.4488671875,105.99964493136592L89.885203125,105.2094535666433L90.0306484375,104.95340910138403L90.10337109375001,105.94194825945475L90.39426171875,105.48169975363761L90.6124296875,105.30963320074828L90.68515234375,105.47540964623413L90.9033203125,106.451999754081L90.97604296875,106.86048651170773L91.048765625,106.60708825537418L91.1942109375,106.94768563868888L91.33965625,107.09577333743229L91.7759921875,106.5874962912421L91.99416015624999,105.91249938432122L92.0668828125,105.21705630548087L92.28505078124999,105.76262911532679L92.3577734375,103.51501256948157L92.43049609375,103.5037666960084L92.57594140625,102.5401282029646L92.6486640625,102.46303166806572L93.08500000000001,102.4476499601633L93.375890625,101.43790620833201L93.44861328124999,99.69120608687352L93.59405859374999,98.86756768270058L93.73950390625,97.82475191921144L93.88494921875,96.56988195285174L93.957671875,95.577232634946L94.03039453125,95.12378718995392L94.1031171875,93.81874872020799L94.17583984375,93.93098677999724L94.3940078125,94.06361449933283L94.53945312500001,94.07924309962945L94.68489843750001,93.6249521134417L94.90306640624999,93.58587438249366L95.04851171874999,92.69241962292244L95.121234375,92.32233272309975L95.19395703125,91.3265949704247L95.63029296875,92.0605409316335L95.703015625,91.7917333743018L95.84846093750001,91.79861892928515L96.06662890625,91.95701097397256L96.35751953124999,91.22906500375322L96.5756875,91.23637640693208L96.79385546875,91.92727751337239L96.866578125,92.13696118959412L97.0120234375,92.60765507897177L97.15746875,93.07543547146082L97.30291406250001,93.51801326145582L97.66652734375,93.00909414783007L97.8846953125,92.60442208993466L98.030140625,92.23992370657771L99.12098046875,91.35289549439935L99.41187109375,90.71636197156633L99.55731640625,91.59048530916913L99.6300390625,91.83644742100206L99.9209296875,91.15089067108566L100.066375,90.89177051105882L100.13909765625,90.00892117859293L100.357265625,88.93246892761891L100.5027109375,88.29658559916616L100.64815625,88.55514852929802L100.86632421875,89.96216051428954L101.01176953125,89.76391970361409L101.08449218749999,89.03937112565794L101.22993749999999,89.51235093854237L101.520828125,89.35058432951607L101.81171875,89.16145310799537L102.32077734375,88.82712964020783L102.39349999999999,88.61733656177937L102.46622265625,88.73428333263209L102.53894531249999,88.94145001057393L102.68439062499999,87.86074828824772L102.90255859375,86.54761498182104L102.97528125,86.08923105802381L103.04800390625,85.85447466060626L103.266171875,86.54710102052184L103.33889453125,84.81807534575255L103.4116171875,83.02563976900443L103.48433984375,82.09177789914695L104.06612109375,82.5620299044223L104.13884374999999,82.75936076620106L104.35701171875,81.92662547250704L104.8660703125,80.55683889297421L105.08423828125001,80.32311649050668L105.66601953125,80.3965101869678L105.7387421875,81.08319161154145L105.8841875,80.7062256489542L105.95691015625,79.69284775976188L106.0296328125,79.494094277328L106.24780078125,80.15809427326812L106.3205234375,80.81433171812971L106.46596875,79.92089493821486L106.6114140625,79.75607580499202L106.97502734375,80.16889718851421L107.04775,80.38964542722593L107.338640625,80.50604242542995L107.41136328125,79.8689602604989L107.4840859375,79.68593966959146L107.55680859375,79.95024431531411L107.7749765625,80.6658038357738L107.84769921875001,81.0259610330229L107.920421875,79.88951594073936L108.13858984375001,78.4659134505498L108.2113125,76.89004364705181L108.79309375,76.53182467286776L109.083984375,76.75814489234234L109.2294296875,76.30466900598236L109.374875,76.66070096954843L109.44759765625,76.54353033136961L109.665765625,76.26866113412667L109.88393359374999,75.38845669729972L109.95665625,75.68459999877756L110.02937890624999,74.97542437538988L110.1021015625,74.02335118409226L110.32026953124999,73.59124008928528L110.90205078125,73.3031331403004L111.04749609375,72.63229730681932L111.19294140625,72.91301454856368L111.33838671874999,73.38154892235943L111.411109375,72.52307794681096L111.62927734374999,71.46210042807908L111.77472265624999,70.54543202884079L111.92016796875,70.24029679606359L112.28378125,69.90173204671684L112.79283984375,69.71125894597489L112.86556250000001,70.11749723482572L113.08373046874999,70.72382209766695L113.22917578124999,71.56068245030171L113.66551171875,70.09883360546698L113.738234375,68.69724547935351L113.8836796875,67.76520302081424L114.02912500000001,66.39258161377708L114.32001562500001,66.03634952826404L114.61090625,67.3893222448647L114.7563515625,68.08594727740025L115.11996484375,67.91843788874479L115.1926875,68.08832803218995L115.26541015625,68.79856631851662L115.77446875000001,67.77012782739173L115.84719140625,67.77996945897537L116.28352734375,68.44835708084673L116.57441796875,68.06844381791633L116.647140625,68.20001635544513L116.71986328125,68.41582382682198L117.37436718750001,67.82094703005579L117.5198125,67.4319241289004L117.73798046875,67.88386161653175L118.17431640625,67.63704701733236L118.2470390625,66.94472901600345L118.5379296875,66.5791831817562L118.75609765625,66.95144666530838L118.8288203125,67.02348893569456L118.90154296875001,67.59086499456701L119.91966015625,67.63741742460665L120.137828125,68.2139757541137L120.35599609375001,67.87156521439925L120.42871874999999,66.54825421345745L120.50144140625,66.05868914628105L120.71960937499999,66.68356655116386L120.79233203125,65.83739183381634L120.86505468749999,65.11254471413159L121.95589453125001,64.93441169109968L122.17406249999999,64.35120398409869L122.31950781249999,64.32850411223876L122.39223046875,64.28184208243233L122.53767578125,63.602939454636214L122.6103984375,62.99056571530204L122.82856640625,63.223876142287025L123.046734375,62.70448876703799L123.11945703125001,63.103914266853835L123.26490234375001,62.90645473710755L123.41034765625001,63.09800304931093L123.55579296875,62.4756483970621L123.70123828125,61.272160868490346L123.91940625,61.186365157993706L124.0648515625,61.32968370693118L124.210296875,61.713450490815006L124.3557421875,62.38450528005927L124.5011875,62.03498322925297L124.6466328125,61.37204211913728L125.373859375,61.02695296308234L125.66475,60.76579973690649L125.955640625,60.7066378647678L126.02836328125001,59.67969813076867L126.1010859375,59.49419101478061L126.24653125,59.36173649821795L126.46469921875001,58.88574902193565L126.6828671875,58.78637226324065L126.8283125,58.036816344281334L127.04648046875,57.63285978901378L127.48281640625,57.460492074864135L127.62826171875,57.35770173292816L127.77370703125,56.84687750509322L127.8464296875,57.12475828410177L128.06459765625,57.343131180067545L128.1373203125,55.97287025213775L128.21004296875,55.07298525693868L128.4282109375,54.63830555103574L129.0099921875,55.1603172603928L129.37360546875,54.935082557047L129.51905078125,54.06199922809766L129.95538671875,54.35549729968909L130.24627734375,54.97094239412796L130.31900000000002,55.32927676834427L130.39172265624998,56.23460820453579L130.4644453125,56.76975488455493L130.90078125,56.93253501386687L131.11894921875,56.40003346300736L131.62800781250002,57.23271814447462L131.773453125,56.84787532659118L131.99162109374998,55.646076800397935L132.06434375,55.121360387657674L132.28251171875,54.453430534148836L132.355234375,54.50795710560568L132.71884765625,54.48865109419954L132.7915703125,55.21954218870674L132.86429296875,55.09291617531731L133.0824609375,54.74811677815818L133.30062890624998,54.66946479252185L133.3733515625,55.55689360354977L133.44607421875,55.61168734534053L133.518796875,55.13007900635377L133.59151953125,55.330059207957504L134.02785546875,55.14635059748923L134.46419140625,54.634766724490575L134.90052734374999,54.80511968659296L135.19141796875,55.55940229427233L135.33686328125,55.54795488789193L135.7004765625,55.0784057599257L135.9913671875,53.8399960924737L136.50042578125,54.20400393470695L136.64587109375,55.239239224964095L136.86403906249998,56.08560972998626L137.009484375,55.13626052570636L137.08220703125,54.45375687749706L137.300375,53.696583595695344L137.37309765625,53.11187299428366L137.51854296875,52.628441683264725L137.591265625,52.948988328850504L137.80943359375001,53.52875003852995L139.04571875,52.64580368112138L139.11844140625,52.99105952504648L139.1911640625,52.00061473804767L139.26388671875,51.678992226566876L139.55477734375,51.39356707829312L139.77294531249998,51.50187810718275L140.0638359375,50.67339361724197L140.13655859375,50.3409083733673L140.20928125,49.18657928415213L140.500171875,48.99989911072896L140.57289453125,48.909307549273876L140.6456171875,49.08926859261308L140.7910625,48.81416894063298L140.9365078125,48.938421303473945L141.08195312499998,50.01780101552454L141.2273984375,50.23076302670319L141.8091796875,50.570815777565514L142.17279296875,50.495898606382355L142.245515625,51.118653332779616L142.90001953125,50.52242360812514L142.9727421875,49.924145254501L143.77269140625,50.437888776912246L144.1363046875,50.259345009879524L144.35447265625,50.32136291382311L144.4271953125,49.99427925728895L144.64536328125,49.52261614249471L144.79080859375,48.99336910388911L144.86353125,48.71595642604481L145.4453125,48.190514230402044L145.51803515625,47.31414768647048L145.5907578125,47.32388615742855L145.66348046875,47.89519012217875L145.8816484375,47.70268860594143L146.02709375,46.52413228640461L146.09981640625,45.4492403360851L146.1725390625,44.650735686152785L146.7543203125,45.00385885892135L147.11793359375,45.095677924177465L147.19065625,44.78332550143227L147.40882421875,44.36616438029651L147.91788281249998,44.27931552802295L148.063328125,44.280551214108215L148.7905546875,44.11211962004188L149.15416796875002,45.03980552931819L149.226890625,45.0156837124525L149.3723359375,45.232316433715454L149.44505859375002,44.9316158120169L149.88139453125,44.61962461761678L149.95411718749997,43.84116425343163L150.390453125,43.416555298058114L150.46317578125,43.637461873530356L151.1176796875,43.84836012436628L151.4085703125,43.8446203795242L151.554015625,43.81463357876444L151.84490625,44.02611924040917L152.49941015625,43.29307593115519L152.64485546875002,42.833129419307454L152.8630234375,43.11843592729048L153.00846875000002,43.73417805816416L153.08119140624999,44.11326390419717L153.44480468749998,44.2769861157133L153.66297265625,43.63916746120054L154.0265859375,44.61119641507494L154.17203125,45.12831890465978L154.462921875,45.50881003976039L154.6083671875,45.73491363702547L154.68108984375,45.49456356069996L154.7538125,45.568665848107884L154.8992578125,46.015739634464296L155.044703125,45.34600923647051L155.40831640625,44.44987829520261L155.62648437500002,45.00285681830775L155.7719296875,44.52290412025101L155.99009765625001,44.58187322872135L156.208265625,44.38280966319445L156.49915625,43.8543327755695L156.71732421874998,43.37411306366536L157.00821484374998,43.65055468909429L157.0809375,44.221413704966295L157.15366015625,45.28037115457485L157.66271875,45.12638614628912L157.8081640625,44.93536823522453L157.953609375,44.979057368045574L158.17177734375,44.68021261844311L158.24450000000002,43.91383937067201L158.6808359375,44.26858255043345L158.75355859375,43.93966207263486L159.04444921874997,42.81161515047452L159.33533984374998,41.94988389327105L159.5535078125,42.001663874805615L159.62623046874998,42.137333491028926L159.698953125,42.29114133182338L159.77167578125,42.64973600215373L159.91712109374998,42.72654811875353L160.1352890625,42.85014351510807L160.64434765625,42.94993729567875L160.7170703125,42.478344621323174L161.08068359375,42.94731085275953L161.22612890625,42.79933558894493L161.2988515625,41.66189046429383L161.37157421875,40.939530931808946L162.02607812500003,40.29661193406949L162.31696875,39.93775448664405L162.38969140625,39.504377518360315L162.4624140625,39.07939945253068L162.53513671874998,39.08696770850767L162.68058203125,38.86750669372134L163.0441953125,39.2413734882559L163.11691796875,39.850292634639146L163.26236328125,39.88494312955697L163.3350859375,40.34708798088991L163.40780859375,40.98653972249059L163.6259765625,40.52668410373974L163.771421875,39.77859157807984L163.84414453125,39.65051377476499L163.9168671875,38.66745029447151L164.57137109375,38.366079508011495L164.7895390625,38.430324989508534L165.44404296874998,37.914619302746274L165.88037890625,37.337972785238975L165.9531015625,36.95463452008099L166.38943749999999,37.51636366341589L166.46216015625,38.26330260799517L166.5348828125,38.75935134952172L166.680328125,38.94235954237314L167.1166640625,37.916702003567195L167.553,36.74484815038164L167.62572265625002,35.61469370610584L168.20750390625003,36.51985894500578L168.2802265625,36.81599088310401L168.49839453125,37.30944307211561L168.71656249999998,38.11564138486017L169.00745312499998,37.63717839411561L169.1528984375,37.07186015421337L169.4437890625,37.15923553913237L169.880125,37.43792800489396L170.171015625,37.65838322456611L170.24373828125002,37.62055594528164L170.46190625,37.59110806103931L170.6073515625,37.54844931417179L170.82551953125002,37.73944866175975L171.11641015625003,38.41283029806888L171.26185546874999,38.79477094905559L171.40730078125,39.430736544983915L171.4800234375,39.26968487120146M172.0618046875,38.92860869421011L172.20725,39.824930041518456L172.27997265625,39.42790951861522L172.71630859375,38.92040295524262L172.78903125,38.14773151523477L172.86175390625,37.79788414252022L173.00719921875,37.902945527580925L173.15264453125,38.12730672043085L174.02531640625,37.701331101239276L174.6798203125,38.204871652813125L174.9707109375,38.04849075732065L175.33432421875,37.90892771517804L175.407046875,38.041459659728446L175.77066015625,37.9522048640014L175.8433828125,38.081633698542106L175.91610546875,38.209973227870194L176.20699609375,38.20613519328293L176.27971875,38.30874807099434L176.71605468750002,37.97862151643503L177.00694531250002,37.09682753054105L177.07966796875002,36.50030062557249L177.152390625,35.384082853108225L177.29783593750003,35.35905829218649L177.37055859375,35.308025903302706L177.734171875,35.99416542705097L177.95233984375,35.76762304056845L178.09778515624998,35.32353436571512L178.315953125,34.79320231557932L178.53412109375,34.522270507831564L178.7522890625,34.97421850552536L178.897734375,35.49410074815063L179.33407031250002,35.85848398801312L179.40679296875,35.55059150394794L179.55223828125,34.83532750387607L179.69768359375,34.34268349743181L180.35218749999999,34.66377783924034L180.42491015624998,34.4510301835646L180.4976328125,34.02148892196092L180.57035546875,33.962831124867904L181.58847265625,34.40922831876057L181.87936328125,34.161108285108185L182.17025390625,34.10261243972505L182.2429765625,33.66792530639347L182.46114453125,33.590356763946005L182.5338671875,33.413266698066366L182.75203515625,32.80511703994384L182.89748046875002,33.539638845360656L183.04292578125,33.396627934690855L183.40653906249997,33.681826543673225L183.62470703124998,33.396564866541524L183.77015234375,34.41133484373984L183.842875,34.07398201574645L183.98832031249998,33.421865018278226L184.20648828125,32.979377537826934L184.42465625,32.377307959604735L184.57010156249999,32.10001322587706L184.78826953125,32.51860445677099L185.0064375,32.800177938516384L185.07916015625,33.32664111049621L185.297328125,33.23171826494533L185.51549609375002,32.780083623325055L186.09727734375002,32.80930295457617L186.17000000000002,33.040964006393125L186.31544531249997,33.1967115133896L186.67905859375,32.6402660722959L187.042671875,31.907183227681884L187.11539453125,31.354115818734357L187.18811718749998,31.10294835565736L187.3335625,30.896924445774175L187.40628515625,30.89491706929121L187.55173046875,31.285422736328883L187.69717578125,31.279112225643473L187.91534375,30.50811576937366L187.98806640625,29.650200613463028L188.27895703125,29.016926970837886L188.6425703125,29.619005047287573L188.788015625,30.235428946653997L189.2243515625,30.05535923163734L189.29707421875003,29.34145929606845L189.36979687500002,28.646022777314187L189.44251953124999,29.33629534885327L189.51524218749998,29.382001831778013L189.73341015625,29.74471329470839L189.87885546875,30.203824489857823L190.09702343749998,30.8665156805867L190.16974609375,31.116803320445854L190.3879140625,30.64945056512508L190.533359375,30.88636108953898L190.6788046875,30.412834896153043L190.75152734375,30.387831781819955L190.82425,29.690959770975297L191.115140625,29.5844232169037L191.40603125,29.757719656985586L191.47875390625,29.797729189656252L191.5514765625,30.02799344498689L191.8423671875,30.142064886058535L191.91508984375,30.286251684129155L192.06053515625,30.26913097515063L192.1332578125,30.30716079562896L192.27870312500002,30.346736770615536L192.35142578125001,29.938468877612706L192.42414843749998,29.80090757519889L192.56959375,28.89774932655999L192.64231640625,29.06279918896547L192.78776171874998,28.934966693739085L193.0059296875,29.397848405031766L193.151375,29.775433111001036L193.22409765625,29.950869554019448L193.66043359374999,30.12454049300993L193.73315625,29.805323101935812L193.80587890625,29.736499055063348L194.09676953125,29.331712867362484L194.24221484375,29.97097162690858L194.38766015625,30.435540259918156L194.67855078125,29.9251816727986L195.18760937500002,29.814160015033025L195.40577734374997,29.72300636020185L195.55122265625,29.54107350116672L195.69666796874998,29.88220815405799L195.769390625,29.87644034056018L196.06028125,30.286358910475684L196.2057265625,30.885046864311846L196.27844921874998,30.41316560677052L196.351171875,30.037103601245235L196.56933984375,30.089782594251602L196.6420625,29.66975275197879L196.86023046875,29.50334996676102L196.932953125,29.82340723813033L197.15112109375,29.522445023152017L197.3692890625,29.83389419865736L197.6601796875,29.301761634760055L198.09651562500002,29.0018229122374L198.16923828125002,28.684742310638256L198.38740625000003,29.218859905585333L198.46012890625002,30.39215089401651L198.60557421874998,30.029176325886652L198.75101953125,30.204591455169464L198.8237421875,30.117854226367996L198.9691875,29.216353913627245L199.04191015625,28.937133951082473L199.18735546874998,29.033307612190015L199.260078125,28.984053285225144L199.33280078125,28.677182735842678L199.4055234375,28.370260680142565L199.55096875,27.980506697230794L199.6964140625,28.09578076864284L199.76913671875,27.829495015084888L200.06002734375,28.521279550836425L200.13275,29.556989743159647L200.2781953125,30.07456937333447L200.49636328125,30.531290302297634L200.64180859375,30.176763306145205L200.8599765625,30.32192798727715L201.7326484375,31.33584018683848L202.0235390625,31.451618818435634L202.24170703125,31.167466666827124L202.6053203125,30.96725516560423L202.75076562499999,30.25539395735032L202.96893359375,30.20795347087102L203.40526953125,30.375352095318334L203.4779921875,30.843198982641724L203.6234375,31.293597996893595L203.84160546875,31.12984492964216L204.0597734375,30.701368188197762L204.13249609375,30.23235113770727L204.20521875,29.657350815114626L204.85972265625,29.991854682774488L204.9324453125,29.436502522680172L205.00516796875,28.912203918108958L205.07789062499998,28.95991281082007L205.2233359375,29.133364419186847L205.36878124999998,28.708484599189546L205.58694921875,29.251352373331656L205.9505625,29.70324286519667L206.0960078125,29.700518630749286L206.16873046875,30.561177147766955L206.241453125,30.701472810338686L206.31417578125001,30.51126047073788L206.89595703125002,30.06282271753156L207.55046093750002,30.33661032354786L207.91407421875,30.047982880509664L208.49585546875,30.1045398757272L208.568578125,30.419544319864144L208.78674609375,30.19254024725319L209.07763671875,29.207709342750206L209.2958046875,29.31724323871694L209.5866953125,29.45560876540449L209.80486328125,29.143163821813744L210.02303125,29.0361284648815L210.09575390625,29.38456241972102L210.16847656250002,29.264897402402198L210.313921875,29.79923149524805L210.89570312499998,28.90418390502495L211.0411484375,28.257267496109364L211.18659375,28.304584788510056L211.3320390625,29.170974638818933L211.69565234375,29.102223749700613L212.059265625,28.518826809676483L212.641046875,28.61029226491854L212.71376953125,29.224199435859504L212.78649218750002,29.593556490409725L213.07738281250002,30.034439991979724L213.29555078125,30.135021560893648L213.51371875,30.720026002054425L214.0955,30.505240351401625L214.2409453125,30.715849041482272L214.5318359375,30.66927161524518L214.60455859375,31.64196770695088L214.67728125,31.933424497438835L214.75000390625,32.75515655289081L214.89544921875,32.829361649077015L215.04089453125,33.34810577635372L215.2590625,32.66065116742169L215.47723046875,32.53559774174636L215.549953125,32.10228506471108L215.69539843750002,32.40851230670427L215.84084375,33.09973767854294L216.34990234375002,32.466488357177724L216.64079296875002,31.74964836000089L216.78623828124998,31.45561944474494L216.93168359375,32.03413095716081L217.07712890624998,32.14393791758084L217.1498515625,32.13570128793049L217.295296875,32.20221761100444L217.51346484375,31.612607094542852L217.65891015625,30.739297570490777L217.877078125,30.53830532358637L218.0225234375,31.042935278000584L218.24069140625,31.32318147084044L218.3134140625,31.90075412543473L218.38613671875,32.285220127192304L219.11336328125,31.642687703639695L219.1860859375,30.926357359163717L219.33153125,30.35829601008365L219.40425390625,30.084501273723248L219.4769765625,29.392577960073112L219.54969921875002,29.05257146919689L219.76786718749997,28.682437659571065L219.84058984375,28.570791298346478L219.98603515624998,28.717379824471493L220.204203125,28.45933237137004L220.34964843749998,28.91208745060115L220.49509375,28.856357258664218L220.64053906249998,28.64225029045886L221.29504296875,28.059338809180986L221.367765625,27.379752804224864L221.58593359375,27.35832645584526L221.73137890625,27.534808005061905L221.87682421875002,27.495984320205338L222.02226953125,26.896339043704955L222.16771484375002,26.364268411605337L222.2404375,26.162859098584818L222.45860546875002,25.8100785950665L222.89494140624998,26.817021662580004L222.96766406249998,26.995580514085674L223.25855468749998,26.81265512369785L223.47672265625,26.148156296934246L223.694890625,26.22743627515959L223.8403359375,27.143425303727298L223.91305859375,26.776898474034653L224.20394921875,26.199735635129656L224.49483984375001,25.93678986934026L224.7130078125,25.781841011026785L224.78573046875002,25.59898455715563L224.858453125,25.382820264385884L224.93117578125,24.74424420782165L225.14934375,24.503221546448287L225.44023437500002,24.573278020289024L225.5856796875,24.948318049411625L225.87657031249998,24.478413281645317L225.94929296875,24.502709783603166L226.09473828125,24.002972136746962L226.16746093749998,23.475409290575953L226.53107421875,23.044153073084516L226.7492421875,23.66309789456031L226.82196484375,23.849173606500386L226.96741015625,24.415752381679056L227.11285546875,24.036841746536595L227.25830078125,23.783726701356528L227.3310234375,23.834960387118258L227.54919140625,24.042575173135816L227.6219140625,24.167775545674004L227.767359375,24.71624464068833L227.98552734375,25.607201845483758L228.05825000000002,25.571193879887772L228.2036953125,24.875986877293826L228.64003125000002,25.420370203984277L228.85819921874997,25.597365178968886L229.07636718749998,25.696020269531147L229.14908984374998,25.904035265338365L229.43998046874998,25.80083496441489L229.87631640625,25.854558551980745L230.8217109375,26.155807311961553L231.1126015625,25.964160708454074L231.25804687500002,26.717932601843643L231.62166015625002,26.245898603824514L231.83982812500003,25.499749211786423L231.98527343749998,25.285714285714306L232.2761640625,24.714674863450767L232.63977734374998,24.72704728533975L232.93066796875,24.775374317477116L233.22155859375,24.39983778205209L233.4397265625,23.96388514712251L234.09423046875,23.7174243159499L234.45784375000002,23.72234930067293L235.1850703125,24.60908182324721L235.25779296874998,24.983381647305265L235.330515625,24.842211989610604L235.54868359374998,23.93899119017351L235.62140625,23.427980218280652L235.98501953125,23.125705031804102L236.13046484375,23.257386637793445L236.42135546875,24.498548785787477L236.494078125,25.162521310690266L236.56680078125,25.411245850233342L236.6395234375,25.671517537194404L236.71224609375,26.112218118656017L236.78496875,25.801466324274372L236.85769140625,25.777356278372793L237.43947265625002,25.698056878457237L237.657640625,26.09612443462248L238.0939765625,26.11202979758272L238.3848671875,25.865388112411182L239.11209374999999,25.894640468940338L239.18481640625,26.21965881540666L239.2575390625,26.702172413459067L239.76659765625,26.888018137651414L240.1302109375,26.918185255681323L240.34837890625002,27.483424795904114L240.49382421875,28.063977243633616L240.566546875,27.737331039183942L240.63926953125002,27.485078460878356L240.71199218750002,27.036401323779614L241.0028828125,27.30390698642566L241.5846640625,27.18833124236221L241.65738671875,26.75402079146062L241.8755546875,26.91828753433316L242.021,26.472581619065522L242.09372265625,26.489773861102833L242.23916796875,26.035886688345073L242.60278125,25.849064704260996L243.11183984375,25.69349904128518L243.25728515625002,25.775210391499655L243.475453125,25.492708131403504L243.62089843750002,25.293140801554188L243.98451171874999,26.163005275033584L244.2026796875,26.394441409201193L244.42084765625,26.431315310666406L245.0753515625,26.410692221911688L245.14807421875,26.336156258466332L245.3662421875,26.269961277746035L245.58441015625,25.76827554545295L245.72985546875,25.34977055586137L245.802578125,25.216029249778416L246.23891406250002,25.243847027170858L246.45708203125,25.391729251835898L246.52980468750002,25.600366863575175L246.67525,25.68365209423473L246.89341796875001,26.422816762415607L247.03886328124997,25.748948656204675L247.18430859375,26.03845262871124L247.4024765625,26.355334110275237L247.47519921875,26.64966828862609L247.547921875,26.695965129316704L248.05698046875,26.42243547323696L248.42059375,26.73008411722617L248.5660390625,27.00722535721323L248.63876171875,26.849481732321237L248.711484375,26.849485755297962L249.002375,26.10962814996742L249.07509765625,25.69034832666486L249.43871093750002,25.665942067950937L249.51143359375,26.004212430137727L249.80232421875002,26.32791673384517L250.02049218750003,26.534704846319443L250.09321484375,26.241815093075218L250.23866015624998,25.831359939850216L250.74771875,25.71203624322601L250.82044140624998,26.5455624941402L251.1840546875,25.990772202758166L252.05672656250002,26.489611066265468L252.42033984375,26.399220392361684L252.56578515625,26.869476021957155L252.63850781250002,26.353448214784095L252.85667578125,25.73135227182695L252.92939843750003,26.51861192489369L253.58390234375,26.084760682238965L254.02023828125,26.12671909054228L254.31112890625,26.40753814621769L254.3838515625,26.20669993037069L254.45657421875,25.80398909893134" style="fill: none;" fill="none"></path></g></g></g></g><g opacity="0.2"><g><g><g><path stroke="rgb(255, 112, 67)" stroke-width="2px" d="M37.452167968750004,-32.985306042571295L37.6703359375,23.741637985136265L37.81578125,73.56028718182718L38.106671875,125.7247625410693L38.979343750000005,104.21413781099896L39.270234375,34.29020884091997L39.4156796875,26.643801700720218L39.561125000000004,75.83958076070475L39.633847656250005,103.63159893483616L39.779292968750006,154.69259357623912L40.215628906250004,233.83219862810978L40.433796875000006,201.09157065899566L40.50651953125001,156.99151020920203L41.08830078125,49.84812893943406L41.30646874999999,75.43586166716301L41.524636718749996,154.60485095645618L41.597359374999996,192.80612270662826L42.106417968749994,275.2305759932516L42.68819921875,80.936539092767L42.760921875,67.40280826458692L43.1972578125,228.58814191579123L46.46977734375,201.27352337549908L46.61522265625,149.56668724249926L46.6879453125,129.36609063909376L46.76066796875,150.9721751271048L47.269726562500004,313.79932127928737L47.63333984375,161.59378447684648L47.77878515625,202.80598823301818L47.8515078125,134.64721325327753L48.1423984375,224.89044292035254L48.796902343750006,182.60534220302804L49.23323828125,112.93821948020133L49.305960937500004,180.4930938129443L49.451406250000005,175.908235011781L49.66957421875,285.523092600416L52.723925781249996,316.1563335016667L53.01481640625,143.9177130855785L53.232984375,4.231712091337272L53.30570703125,50.829586675203345L53.3784296875,73.84859990490698L53.59659765625,240.89590902668425L54.905605468750004,223.88587238422278L55.1237734375,134.45680352665607L55.26921875,111.29790261431515L55.34194140625,49.32130847949942L55.48738671875,127.26252862514822L55.77827734375,202.22973767367404L56.06916796875,29.132369826706025L56.21461328125,142.64943672220144L56.5782265625,254.2274271521433L58.396292968750004,182.4803797941706L58.68718359375001,134.7368452045744L58.75990625,225.56940108758127L59.48713281249999,203.1629961156049L59.559855468749994,70.47746411743015L59.632578124999995,112.76405823441081L59.99619140625,137.57586491326998L60.0689140625,143.09177472752955L60.14163671875,185.44270537943788L62.1051484375,320.41122346787813L62.541484374999996,144.8146553955757L62.75965234375,126.13744280581786L63.05054296875,352.31904700424457L63.34143359375,122.55205955820597L63.48687890625,211.4531523114495L64.06866015625,196.90352710260063L64.4322734375,135.03368893640723L64.79588671875,285.5838238759647L64.94133203125,192.2912481514054L66.032171875,85.8268062683942L66.54123046875,215.69800090023563L66.97756640625,105.50822558653246L67.0502890625,120.3764378822764L67.195734375,359.15819667263236L67.6320703125,315.25261324527264L68.28657421874999,45.379542308567494L68.43201953124999,45.19769686014976L68.5047421875,65.50978267845375L68.72291015625,102.21994787513205L69.15924609375,173.58322181688388L69.74102734374999,98.54661694547147L69.81375,62.94238770996046L70.03191796875,54.124030491352016L70.104640625,131.87925535496035L70.75914453125,181.76983327325922L70.8318671875,101.19539933896677L71.63181640625,187.36937957390745L71.849984375,171.65484028891848L71.92270703125,185.1838812429587L72.06815234375,30.07641869089852L72.21359765625,67.05192893887747L73.23171484375,44.119664997059516L73.595328125,118.09415671567594L73.7407734375,242.3641824553682L74.10438671874999,318.0160502884886L74.468,108.13891422388105L74.54072265625,56.205161766512205L74.97705859374999,115.20359944739965L75.12250390624999,171.0752048611288L75.1952265625,122.0710676480748L75.340671875,240.58243408082222L75.41339453124999,226.24157026071242L75.6315625,153.8003262085861L75.7770078125,56.01680117754694L76.14062109375,173.3095096786646L76.21334375,59.807381717574145L76.86784765624999,130.76429181696264L77.01329296875,140.99108716868483L77.30418359375,322.9614498103298L77.37690625,119.50300816004977L77.44962890625,107.80976051425522L77.74051953125,66.32811200126291L78.03141015624999,276.01061065865804L78.1041328125,121.05276527053209L78.32230078125,43.411007099730654L78.46774609375,-19.012712574236275L78.54046875,30.32461072601231L78.61319140625,105.48512267089927L78.6859140625,55.33869303047952L78.75863671875,39.154060338921795L78.831359375,86.64448707451398L78.9768046875,94.2608192761132L79.04952734375,140.45945015498893L79.41314062500001,146.67885597396233L79.48586328125,108.5351250707554L79.77675390625,69.25444543415153L79.994921875,132.5623372470791L80.1403671875,96.88574380062265L80.57670312500001,62.34373744874968L80.72214843750001,65.79853280836446L81.08576171874999,28.09260444306284L81.37665234375,108.84693991383313L81.449375,142.86375106129196L81.5948203125,102.3995964285371L82.4674921875,84.0319139502197L82.97655078125,33.59169695212208L83.04927343749999,36.341138396824505L83.19471874999999,114.94193329186965L83.26744140625,470.2920657236658L83.3401640625,162.80152812527052L83.41288671875,124.26177100295817L83.55833203125,58.25352226213758L83.7765,70.08416605496375L84.06739062499999,-3.2185826972735185L84.14011328125,24.28087127212521L84.43100390625,144.87954210446765L84.649171875,114.03116888362105L84.9400625,120.78850909483124L85.15823046875,87.98364937389336L85.230953125,26.700235789417917L85.30367578125,15.952527649010136L85.3763984375,92.53503535552231L85.44912109375001,-7.791709446172121L85.59456640625001,101.84284607565591L85.66728906249999,-0.8282551223774703L85.74001171875,78.77519765148945L85.95817968749999,66.54557097813385L86.03090234375,195.89221137988795L86.103625,71.62136173034102L86.2490703125,48.032634985826974L86.394515625,150.192449455751L86.46723828125,106.38765124591325L86.976296875,94.56135653603096L87.19446484375,177.95249805121608L87.48535546875,49.17646280650327L87.7035234375,37.318820657554426L87.84896875,62.30892525704756L87.9944140625,160.8660800052812L88.2853046875,38.483989345929245L88.5761953125,5.124137610538469L88.79436328125,75.95800856590893L88.8670859375,79.15909609241733L88.93980859375,81.38877767023712L89.01253125,244.82783453307647L89.4488671875,127.31303858432736L89.885203125,48.90023028242493L90.0306484375,83.97629617961323L90.10337109375001,248.07322656925L90.39426171875,69.7778760504327L90.6124296875,90.81021249314055L90.68515234375,121.12171169996569L90.9033203125,246.67523954288336L90.97604296875,149.41403115806133L91.048765625,85.67864590358775L91.1942109375,141.5139688453066L91.33965625,121.06275160396288L91.7759921875,67.35547236237296L91.99416015624999,55.92372365791935L92.0668828125,53.92684438369746L92.28505078124999,166.8236467432875L92.3577734375,-19.68122980806436L92.43049609375,102.49402062657822L92.57594140625,35.54472608650005L92.6486640625,95.67555113887306L93.08500000000001,101.06444507683058L93.375890625,31.78809331348384L93.44861328124999,-4.700177297768391L93.59405859374999,39.526613014010735L93.73950390625,26.253730106003246L93.88494921875,14.127281396698152L93.957671875,26.60071407742754L94.03039453125,59.15730586595194L94.1031171875,8.771025532407265L94.17583984375,104.57042487714705L94.3940078125,106.74114972082542L94.53945312500001,95.51363676472494L94.68489843750001,57.4629543199879L94.90306640624999,90.05916102625005L95.04851171874999,28.86264374326049L95.121234375,62.1002116483844L95.19395703125,21.721385385063968L95.63029296875,185.4556745015051L95.703015625,69.13653190649573L95.84846093750001,92.43280722977606L96.06662890625,107.37453303689074L96.35751953124999,36.90105957830704L96.5756875,91.9114380308178L96.79385546875,178.19735517715094L96.866578125,113.01968005968459L97.0120234375,145.08636872177848L97.15746875,145.20352736983693L97.30291406250001,142.30104708212812L97.66652734375,52.66109901188709L97.8846953125,59.56922538147347L98.030140625,62.124526037332316L99.12098046875,27.239582969769856L99.41187109375,41.7928890606066L99.55731640625,215.87834457950905L99.6300390625,116.87735172052786L99.9209296875,39.021728976718094L100.066375,68.72821010038504L100.13909765625,25.93312321752458L100.357265625,14.099385756561674L100.5027109375,39.22746830154071L100.64815625,115.12628190579244L100.86632421875,577.1516563688983L101.01176953125,72.4268796475768L101.08449218749999,34.250902330912965L101.22993749999999,143.1194366992471L101.520828125,75.0153323500908L101.81171875,72.53664141125795L102.32077734375,60.69166680996368L102.39349999999999,70.27539297444486L102.46622265625,100.17002784469982L102.53894531249999,109.92916655952543L102.68439062499999,12.3568123010634L102.90255859375,-0.8522378681616942L102.97528125,48.743396930499586L103.04800390625,65.42526843705741L103.266171875,175.61174589739403L103.33889453125,-21.638755375114243L103.4116171875,-26.131711231530687L103.48433984375,14.466390559646555L104.06612109375,136.33083502392287L104.13884374999999,102.7868662779992L104.35701171875,20.100904135817757L104.8660703125,-9.923191911673285L105.08423828125001,59.890445584643544L105.66601953125,87.51576696120758L105.7387421875,169.6938961945062L105.8841875,49.09364174739427L105.95691015625,7.37669606114639L106.0296328125,61.888367944065024L106.24780078125,164.9104235660672L106.3205234375,164.2465502705172L106.46596875,14.289421188957277L106.6114140625,64.97209090692826L106.97502734375,126.46111420552779L107.04775,103.16624066019308L107.338640625,92.03898752952381L107.41136328125,29.92533523287605L107.4840859375,63.33170567030115L107.55680859375,107.76784053019368L107.7749765625,175.49899836933812L107.84769921875001,120.58332219735243L107.920421875,0.5937875800757126L108.13858984375001,-15.169198369088605L108.2113125,-23.78158591285697L108.79309375,46.11709579381804L109.083984375,100.27802332071546L109.2294296875,38.81740934704041L109.374875,115.8168206247805L109.44759765625,65.80165583517696L109.665765625,52.298166320179334L109.88393359374999,10.129106279276186L109.95665625,107.45772903048405L110.02937890624999,20.114326006032485L110.1021015625,4.554038249245167L110.32026953124999,37.56078880225769L110.90205078125,48.230358881697555L111.04749609375,20.165700381209263L111.19294140625,102.90281002074447L111.33838671874999,127.98785572861004L111.411109375,8.384056819283131L111.62927734374999,-4.20394696703147L111.77472265624999,2.9611666930993294L111.92016796875,43.766209012553986L112.28378125,40.81268112154078L112.79283984375,52.57312718114571L112.86556250000001,116.17943524158247L113.08373046874999,147.01501814565657L113.22917578124999,193.96471021418753L114.02912500000001,-25.47513773146906L114.32001562500001,35.51446864265944L114.61090625,519.6184512332909L114.7563515625,160.9142805004717L115.11996484375,52.686735792659334L115.1926875,85.53707802434401L115.26541015625,164.3801265341833L115.77446875000001,-6.421807656361665L115.84719140625,68.73203369457818L116.28352734375,156.17219734572024L116.57441796875,35.671923779610694L116.647140625,81.53359735954766L116.71986328125,91.04354843727918L117.37436718750001,20.025646589965106L117.5198125,34.316495006521905L117.73798046875,120.65120313121139L118.17431640625,45.691280108760566L118.2470390625,12.676984827923803L118.5379296875,35.21834474255277L118.75609765625,108.83385159710636L118.8288203125,74.17652260328397L118.90154296875001,138.09668358630364L119.91966015625,72.21803352371656L120.137828125,140.27223508339273L120.35599609375001,38.254406737310745L120.42871874999999,-23.338489002774793L120.50144140625,25.465857674761168L120.71960937499999,147.0729329174503L120.79233203125,1.8742234638012008L120.86505468749999,8.635885796010427L121.95589453125001,48.694125154699435L122.17406249999999,17.17820030093131L122.31950781249999,62.14548957553848L122.39223046875,59.83136158715607L122.53767578125,10.031968619439766L122.6103984375,13.80913799346473L122.82856640625,88.01545149556266L123.046734375,19.90913141429195L123.11945703125001,108.84671762419002L123.26490234375001,44.985594095994855L123.41034765625001,83.11990315700864L123.55579296875,12.575073641427906L123.70123828125,-22.77836461448581L123.91940625,53.09826066943978L124.0648515625,76.03442708803352L124.210296875,105.4066965050768L124.3557421875,151.63810562815948L124.5011875,31.739222340828007L124.6466328125,8.725013652411093L125.373859375,31.06587766212266L125.66475,37.496129018033486L125.955640625,55.069574610067576L126.02836328125001,-14.995004153429107L126.1010859375,42.5516910398249L126.24653125,47.04819796285284L126.46469921875001,19.072938466443873L126.6828671875,49.44067410213418L126.8283125,-0.2530793395358444L127.04648046875,23.121478555563584L127.48281640625,41.63526493504784L127.62826171875,47.696195934062956L127.77370703125,14.5011858274504L127.8464296875,87.37723767025811L128.06459765625,80.52391802303141L128.1373203125,-36.70555764384508L128.21004296875,-12.440148472614368L128.4282109375,17.792285531560253L129.0099921875,119.1619283207139L129.37360546875,34.58161902204512L129.51905078125,-11.893782908272897L129.95538671875,86.57176427599335L130.24627734375,134.56067479310627L130.31900000000002,95.85051426469792L130.39172265624998,200.10939231444124L130.4644453125,122.93424018291866L130.90078125,73.85365161834187L131.11894921875,12.440180628330722L131.62800781250002,182.03070766379057L131.773453125,23.697618788032145L131.99162109374998,-28.686623821651096L132.06434375,11.69083405886218L132.28251171875,1.2577132924818102L132.355234375,59.94724807022351L132.71884765625,52.614151141699196L132.7915703125,157.1320238173938L132.86429296875,43.24718729760116L133.0824609375,24.661775029025364L133.30062890624998,47.187808325669636L133.3733515625,194.91462085793202L133.44607421875,61.082976678749134L133.518796875,14.739172973048227L133.59151953125,76.48263592610222L134.02785546875,38.27114907404882L134.46419140625,12.07814646045955L134.90052734374999,72.61260843464387L135.19141796875,162.64675154250799L135.33686328125,54.43162114289518L135.7004765625,15.536367994956919L135.9913671875,-32.52880097467482L136.50042578125,95.63674192202804L136.64587109375,243.4898209312447L137.009484375,-15.515997022712412L137.08220703125,0.1903700375082451L137.300375,-5.365680226080514L137.37309765625,5.390735816938445L137.51854296875,12.044889526919803L137.591265625,88.74351882161726L137.80943359375001,127.39937744434522L139.04571875,-14.148282284837535L139.11844140625,91.99753176214466L139.1911640625,-21.056968148918912L139.26388671875,23.34526804677921L139.55477734375,25.96349004638725L139.77294531249998,62.57117833955175L140.0638359375,-12.866002419030877L140.13655859375,21.137648255451836L140.20928125,-32.907471423077055L140.500171875,31.826129419982124L140.57289453125,40.29998426190784L140.6456171875,68.02720270230645L140.7910625,24.208684187096907L140.9365078125,61.726167639588596L141.08195312499998,258.0137912598808L141.2273984375,72.95904228676417L141.8091796875,88.95614716239217L142.17279296875,43.333122849797064L142.245515625,132.67882603194062L142.90001953125,1.9283881314648568L142.9727421875,1.186899352599454L143.77269140625,113.7006254510963L144.1363046875,33.77334222101615L144.35447265625,56.557201858237605L144.4271953125,21.181543716993048L144.64536328125,9.710386494489228L144.79080859375,5.037914946026973L144.86353125,23.894573185523456L145.4453125,4.499239789145463L145.51803515625,-19.215214729731656L145.5907578125,48.284625753425814L145.66348046875,120.59418656847294L145.8816484375,29.99713338628075L146.02709375,-36.9737418565536L146.1725390625,-17.159033936892683L146.7543203125,85.17698807903982L147.11793359375,54.443819136533534L147.19065625,17.11869891987476L147.40882421875,8.5635390329916L147.91788281249998,35.99681553269724L148.063328125,44.402167057116884L148.7905546875,28.486993166262636L149.15416796875002,197.5216425809075L149.226890625,42.66297332559387L149.3723359375,68.44240734030285L149.44505859375002,18.190491389062345L149.88139453125,16.96975389242101L149.95411718749997,-16.760567139926252L150.390453125,7.034363695311754L150.46317578125,67.35602134107431L151.1176796875,66.39827073294875L151.4085703125,43.47698136948051L151.554015625,40.89452052574157L151.84490625,66.64862498716317L152.49941015625,-14.453389014167044L152.64485546875002,3.811585089357294L152.8630234375,74.6335434796216L153.00846875000002,124.32918731571758L153.08119140624999,87.84403701150781L153.44480468749998,61.4533130611122L153.66297265625,-7.884777625291008L154.0265859375,211.68457640390335L154.17203125,109.14146643167834L154.462921875,89.44472749415958L154.6083671875,70.08672105090726L154.68108984375,23.687635455531193L154.7538125,53.07496469852266L154.8992578125,99.3776602033566L155.044703125,-8.318672889526653L155.40831640625,-23.385515841345494L155.62648437500002,114.85730169627286L155.7719296875,4.008447878841935L155.99009765625001,50.52252361240457L156.208265625,26.072065502684126L156.49915625,-0.15436738137026396L156.71732421874998,2.833795358277513L157.00821484374998,74.10028256868523L157.0809375,117.0997243650076L157.15366015625,246.04888188809744L157.66271875,30.745197669387778L157.8081640625,27.313114172374412L157.953609375,49.35675541015219L158.17177734375,18.04352673655754L158.24450000000002,-16.015898002578524L158.6808359375,84.77892671993489L158.75355859375,14.890202876943704L159.04444921874997,-38.17397063804475L159.33533984374998,-23.868068975850093L159.5535078125,47.20747499966231L159.62623046874998,56.23066953939124L159.698953125,58.38646726883694L159.77167578125,83.68751150008102L159.91712109374998,50.5244548507996L160.1352890625,55.62960773066587L160.64434765625,53.17245815175173L160.7170703125,2.539895165385957L161.08068359375,99.64049925140812L161.22612890625,28.9421250548194L161.2988515625,-39.85651406509021L162.02607812500003,-11.642934082413603L162.31696875,8.515112867271995L162.38969140625,2.386327266154069L162.4624140625,2.590095253653061L162.53513671874998,39.835822822960864L162.68058203125,18.790922291785733L163.0441953125,82.36525683708673L163.11691796875,119.45652452585318L163.26236328125,43.34867998502139L163.3350859375,96.04918996076375L163.40780859375,126.15843141237686L163.6259765625,1.4322021833484087L163.771421875,-19.04337925571909L163.84414453125,27.56931495007771L163.9168671875,-34.32950016420895L164.57137109375,11.496781198746646L164.7895390625,44.92646649447002L165.44404296874998,-5.242836185144171L165.88037890625,-10.111297008589872L165.9531015625,3.6177290874465484L166.38943749999999,109.00125753741963L166.46216015625,145.09340529501355L166.5348828125,99.6499930983141L166.680328125,58.346175340274115L167.1166640625,-37.512198630389605L168.20750390625003,183.24607110514518L168.2802265625,69.7888773243273L168.49839453125,97.81207198598047L168.71656249999998,158.57983220324226L169.00745312499998,-2.8421719799268033L169.1528984375,-9.605126342527143L169.4437890625,46.077478975188626L169.880125,68.23344419368316L170.171015625,61.41074518159728L170.24373828125002,33.935669914697684L170.46190625,34.7137470509351L170.6073515625,33.399915405748516L170.82551953125002,58.06677775709667L171.11641015625003,130.14557714440218L171.26185546874999,83.07151362738607L171.40730078125,124.05774814636962L171.4800234375,24.23523290548954M172.0618046875,8.868804103527822L172.20725,184.09602928356236L172.27997265625,5.02097631299273L172.71630859375,-3.6768996506428664L172.78903125,-22.27450118872605L172.86175390625,7.04434260451427L173.00719921875,48.70507102679994L173.15264453125,62.35033708762583L174.02531640625,1.0951624108149076L174.6798203125,100.32178098029787L174.9707109375,23.423908783836993L175.33432421875,24.782571810707907L175.407046875,51.819053612236374L175.77066015625,29.410642869749722L175.8433828125,51.52050991733155L175.91610546875,51.530220524428884L176.20699609375,37.82742205765118L176.27971875,48.85138893853596L176.71605468750002,8.776466946614107L177.00694531250002,-30.03758219407797L177.152390625,-45.09563245989088L177.29783593750003,32.90852262124608L177.37055859375,30.357091057786846L177.734171875,130.31717656918474L177.95233984375,15.060725403851308L178.09778515624998,-2.64912426826848L178.315953125,-9.452785929712064L178.53412109375,10.106138584869399L178.7522890625,89.2626590548162L178.897734375,100.22901528971131L179.33407031250002,77.77903234809213L179.40679296875,8.121539540117084L179.55223828125,-21.94955975934326L179.69768359375,-7.20233635699654L180.35218749999999,70.86718091725899L180.42491015624998,14.914387456471985L180.4976328125,-2.8693030422770676L180.57035546875,28.286167387993515L181.58847265625,87.88934093333029L181.87936328125,11.633881927033627L182.17025390625,28.441046156094387L182.2429765625,-3.611114346692659L182.46114453125,26.13303878858079L182.5338671875,16.95717092149107L182.75203515625,-16.870674847624457L182.89748046875002,137.90788679852858L183.04292578125,19.953962360932536L183.40653906249997,65.3263269742601L183.62470703124998,7.797455577827293L183.77015234375,218.31383345891632L183.842875,4.284635705233114L183.98832031249998,-19.225636196624777L184.42465625,-16.887935496116086L184.57010156249999,7.151551006329271L184.78826953125,81.98374624128863L185.0064375,63.99612701908998L185.07916015625,99.15192014614927L185.297328125,24.159315140238277L185.51549609375002,-5.769916497436498L186.09727734375002,35.730059154101895L186.17000000000002,58.154596395095766L186.31544531249997,49.55378401643101L186.67905859375,-13.46903168176965L187.11539453125,-14.519044116837591L187.18811718749998,8.313851277069801L187.3335625,11.92858641165401L187.40628515625,30.696553759871847L187.55173046875,76.80739054845311L187.69717578125,30.656495919075837L187.91534375,-29.860164890707807L188.27895703125,-22.37791940809484L188.6425703125,108.24315993760293L188.788015625,111.42872433487148L189.2243515625,13.33259262423394L189.29707421875003,-27.382036325696504L189.36979687500002,-26.876687563823197L189.44251953124999,124.58817442028763L189.51524218749998,33.98029250538815L189.73341015625,71.47166711964645L189.87885546875,85.60378349957918L190.09702343749998,120.7017793846443L190.16974609375,58.47647775218225L190.3879140625,-9.071091761736199L190.533359375,56.634632603894076L190.6788046875,-9.76167167305178L190.75152734375,27.937258246985152L190.82425,-25.930329273429606L191.115140625,19.43965711558937L191.40603125,48.0949119228917L191.47875390625,33.81467694832875L191.5514765625,54.98422167756192L191.8423671875,41.92752074933858L191.91508984375,45.36370146652649L192.06053515625,28.586185874672935L192.1332578125,34.12266177427077L192.27870312500002,34.31971129713335L192.35142578125001,-5.367833008225915L192.42414843749998,16.839396688352707L192.56959375,-39.56532077459343L192.64231640625,46.470031635288336L192.78776171874998,16.849857830591645L193.0059296875,85.37508812438165L193.151375,73.53421816244261L193.22409765625,48.533346111876284L193.66043359374999,48.50677208096093L193.73315625,1.444728442686511L193.80587890625,23.094868797903615L194.09676953125,-5.712243738505123L194.24221484375,115.39281861785788L194.38766015625,86.6701247136355L194.67855078125,-12.93027655178264L195.18760937500002,19.256734726397383L195.40577734374997,20.99487724956151L195.55122265625,12.650338196815056L195.69666796874998,68.74337863099704L195.769390625,29.30701852322275L196.06028125,78.55345972655334L196.2057265625,108.95023938358463L196.27844921874998,-9.649909454024225L196.351171875,-2.802849294088105L196.56933984375,35.405454591673475L196.6420625,-6.533566250748692L196.86023046875,13.973419384129642L196.932953125,65.93168703799498L197.15112109375,2.628609313279469L197.3692890625,64.8333133876956L197.6601796875,-15.113455788922067L198.09651562500002,2.1904435611622546L198.16923828125002,0.491470277569249L198.38740625000003,96.34093485929652L198.46012890625002,296.4173616985675L198.60557421874998,-1.79531399203114L198.75101953125,48.78846155255138L198.8237421875,21.798718612367566L198.9691875,-39.16130183098596L199.04191015625,3.8139970781840873L199.18735546874998,38.903083039156286L199.260078125,24.196827250642457L199.33280078125,1.3037947352526373L199.4055234375,0.9925846320016944L199.55096875,-5.919463691069382L199.6964140625,40.0153663121981L199.76913671875,3.771058029768767L200.06002734375,124.14433768768185L200.13275,222.1568661295414L200.2781953125,94.53637261826555L200.49636328125,85.60700064256432L200.64180859375,-0.9891310333939884L200.8599765625,45.51348524531454L201.7326484375,215.24527323290908L202.0235390625,43.42633094279654L202.24170703125,5.638336837315876L202.6053203125,12.487521276530572L202.75076562499999,-26.36170634666948L202.96893359375,25.593645281066927L203.40526953125,48.053719388078974L203.4779921875,87.59012673498162L203.6234375,85.4341212215616L203.84160546875,15.830891225869607L204.0597734375,-6.144949601055146L204.20521875,-17.776326231931478L204.85972265625,67.99151131819237L204.9324453125,-16.625516904166915L205.00516796875,-14.952455127570545L205.07789062499998,33.7661234728489L205.2233359375,47.497559284931754L205.36878124999998,-7.8681807717745755L205.58694921875,97.82325915299413L205.9505625,84.06797750897293L206.0960078125,29.431193708545948L206.16873046875,165.3534586744349L206.241453125,45.35625674572623L206.31417578125001,12.895065849374163L206.89595703125002,-8.278004450548309L207.55046093750002,60.595199732506714L207.91407421875,4.150769459810448L208.49585546875,35.82159160070168L208.568578125,65.88620481592037L208.78674609375,9.420078085846939L209.07763671875,-44.04052654744018L209.2958046875,40.61961537958217L209.5866953125,43.89809821234252L209.80486328125,1.3158592232724118L210.02303125,18.84018130086241L210.09575390625,69.22923937349148L210.16847656250002,17.91531900828167L210.313921875,96.97897077493654L210.89570312499998,-39.102156693083856L211.0411484375,-24.085935747883127L211.18659375,33.07107524844952L211.3320390625,165.52972039516732L211.69565234375,22.46472715273103L212.059265625,-19.501605247641606L212.641046875,37.98196968990118L212.71376953125,110.0444664524609L212.78649218750002,72.2536959270328L213.07738281250002,82.78369641532534L213.29555078125,40.47770994503304L213.51371875,106.42688626405807L214.0955,10.771398515288212L214.2409453125,53.365761505299176L214.5318359375,26.136735019919968L214.60455859375,200.55453534908895L214.67728125,64.4032507826766L214.75000390625,157.48760872982245L214.89544921875,40.38203602042202L215.04089453125,98.01511546084978L215.2590625,-22.372858255729568L215.47723046875,20.69608566824823L215.549953125,-5.112778211895858L215.69539843750002,66.75310929410286L215.84084375,128.64546730503406L216.34990234375002,-18.961157772733827L216.64079296875002,-25.199739667592667L216.78623828124998,5.115565236316286L216.93168359375,106.62267857544079L217.07712890624998,43.476949060886994L217.1498515625,31.32293296152403L217.295296875,38.95254139550363L217.51346484375,-16.839927438336304L217.65891015625,-35.97071948006783L217.877078125,11.987212241233067L218.0225234375,93.47339755136795L218.24069140625,62.38958882829435L218.3134140625,106.3297890618233L218.38613671875,77.01857592381626L219.11336328125,-20.410959483345636L219.33153125,-16.600762994996302L219.40425390625,5.399642838933033L219.4769765625,-25.936421768078617L219.76786718749997,-3.710231024722674L219.84058984375,17.95118408448664L219.98603515624998,44.07134583160524L220.204203125,5.077312746182571L220.34964843749998,83.41798607935374L220.49509375,23.450401957638434L220.64053906249998,8.964711541487532L221.29504296875,-19.932171771577345L221.367765625,-27.139577051607148L221.58593359375,25.25408229387935L221.73137890625,46.24752348687784L221.87682421875002,23.707086179023264L222.02226953125,-22.24851737074721L222.16771484375002,-18.062502368315762L222.2404375,7.5749347995558765L222.45860546875002,-5.227357210235311L222.89494140624998,208.17370587321568L222.96766406249998,45.94508414532447L223.25855468749998,9.827160506809292L223.47672265625,-27.374072496657107L223.694890625,34.31332409040522L223.8403359375,177.75888329841922L224.20394921875,-21.394528001155237L224.49483984375001,2.1472407769334154L224.7130078125,11.258751576111308L224.78573046875002,8.619291729136961L224.858453125,5.528848186768698L224.93117578125,-27.046278214243387L225.14934375,2.5435033120905644L225.44023437500002,31.69316815037871L225.5856796875,68.39053428019724L225.87657031249998,-15.456922936987127L225.94929296875,26.929496040868997L226.09473828125,-18.10726841903366L226.53107421875,-14.020345448748088L226.7492421875,105.41284143940592L226.82196484375,43.65879050663929L226.96741015625,96.97471763667173L227.11285546875,-9.03847022750955L227.25830078125,0.8111572183885869L227.3310234375,29.00460525778621L227.54919140625,46.34589063790767L227.6219140625,37.17020727115002L227.767359375,94.23772224943785L227.98552734375,168.8675182690181L228.05825000000002,22.0533292029387L228.2036953125,-30.67169369565852L228.64003125000002,94.26619779578799L228.85819921874997,44.36973889246403L229.07636718749998,35.83472287780967L229.14908984374998,48.2544023017883L229.43998046874998,15.95509944495035L229.87631640625,31.280666896829587L230.8217109375,59.87108529138291L231.1126015625,8.219249724716263L231.25804687500002,135.49320770567329L231.62166015625002,-13.847019869116593L231.83982812500003,-33.33934861161737L231.98527343749998,5.612853686561181L232.2761640625,-22.455970488075707L232.63977734374998,25.957399099715303L232.93066796875,29.646472653712408L233.22155859375,-8.415061454533372L233.4397265625,-13.453974759605956L234.09423046875,1.3004443366339729L234.45784375000002,24.210758556691076L235.1850703125,166.67138476070858L235.25779296874998,68.32687516781036L235.330515625,11.548096348648727L235.54868359374998,-44.5652210992441L235.98501953125,-3.8870094126362176L236.13046484375,36.96890083439874L236.42135546875,350.60161019595125L236.494078125,115.35482746198622L236.56680078125,52.6071617657319L236.6395234375,54.27406526037329L236.71224609375,78.84768490733893L236.78496875,-1.8957769472372377L236.85769140625,23.411632533355856L237.43947265625002,18.068949735770133L237.657640625,72.72722995356474L238.0939765625,27.69582092524257L238.3848671875,3.432880389552139L239.11209374999999,28.8220359991075L239.18481640625,62.99400968772595L239.2575390625,85.70657145982827L239.76659765625,46.67245294877412L240.1302109375,29.938171299159762L240.34837890625002,99.82073909899286L240.49382421875,103.02068174595132L240.566546875,-1.2341083132064625L240.63926953125002,4.583289316940892L240.71199218750002,-11.331985157079828L241.0028828125,56.795712249751844L241.5846640625,16.208521753944126L241.65738671875,-10.541776752518388L241.8755546875,44.250541744233175L242.021,-11.67479568488389L242.09372265625,28.202551156150605L242.23916796875,-12.719565962495892L242.60278125,8.522541752392044L243.11183984375,11.114418397553749L243.25728515625002,34.11776144005859L243.475453125,0.08943582911402359L243.62089843750002,6.862194911140051L243.98451171874999,163.528268725184L244.2026796875,51.51221402674558L244.42084765625,30.13208800028403L245.0753515625,24.38450140449524L245.14807421875,19.153124589739917L245.3662421875,19.87191709060022L245.58441015625,-16.485679999250635L245.72985546875,-10.756305200679321L245.802578125,12.58913512384268L246.23891406250002,28.02624667423771L246.45708203125,40.89158834905089L246.52980468750002,48.02498392889464L246.67525,34.19217510870658L246.89341796875001,132.00401432261557L247.03886328124997,-28.398794056984173L247.18430859375,58.27026612701766L247.4024765625,62.07617026183533L247.47519921875,59.490556827877555L247.547921875,31.359080741753957L248.05698046875,1.7559331017189095L248.42059375,61.26424302868956L248.5660390625,57.69280226394956L248.63876171875,12.0768903665047L248.711484375,26.849884008697785L249.002375,-32.330184784695234L249.07509765625,-10.47465682379044L249.43871093750002,23.27132186423208L249.51143359375,64.51546059882725L249.80232421875002,62.93279467609079L250.02049218750003,48.74342212085227L250.09321484375,-0.01019224739479796L250.23866015624998,-9.664924871697849L250.74771875,14.3904773061914L250.82044140624998,154.30216424004624L251.1840546875,-20.046059164007602L252.05672656250002,88.02557905302903L252.42033984375,17.73644302750668L252.56578515625,84.00844674274923L252.63850781250002,-16.933235549028268L252.85667578125,-24.950624070657625L252.92939843750003,142.9492034822772L253.58390234375,-11.177609122738374L254.02023828125,30.345975017289902L254.31112890625,57.551682109672285L254.3838515625,7.665688445055196L254.45657421875,-9.102795361431248" style="fill: none;" fill="none"></path></g></g></g></g></g></g><g transform="translate(39, 177)" clip-path="url(#clip_1)"><clipPath id="clip_1"><rect width="290" height="23"></rect></clipPath><g><g><line x1="0" y1="0" x2="0" y2="5" style="visibility: inherit;" fill="rgb(0, 0, 0)" stroke="rgb(204, 204, 204)" stroke-width="1px"></line><line x1="36.361328125" y1="0" x2="36.361328125" y2="5" style="visibility: inherit;" fill="rgb(0, 0, 0)" stroke="rgb(204, 204, 204)" stroke-width="1px"></line><line x1="72.72265625" y1="0" x2="72.72265625" y2="5" style="visibility: inherit;" fill="rgb(0, 0, 0)" stroke="rgb(204, 204, 204)" stroke-width="1px"></line><line x1="109.083984375" y1="0" x2="109.083984375" y2="5" style="visibility: inherit;" fill="rgb(0, 0, 0)" stroke="rgb(204, 204, 204)" stroke-width="1px"></line><line x1="145.4453125" y1="0" x2="145.4453125" y2="5" style="visibility: inherit;" fill="rgb(0, 0, 0)" stroke="rgb(204, 204, 204)" stroke-width="1px"></line><line x1="181.806640625" y1="0" x2="181.806640625" y2="5" style="visibility: inherit;" fill="rgb(0, 0, 0)" stroke="rgb(204, 204, 204)" stroke-width="1px"></line><line x1="218.16796875" y1="0" x2="218.16796875" y2="5" style="visibility: inherit;" fill="rgb(0, 0, 0)" stroke="rgb(204, 204, 204)" stroke-width="1px"></line><line x1="254.529296875" y1="0" x2="254.529296875" y2="5" style="visibility: inherit;" fill="rgb(0, 0, 0)" stroke="rgb(204, 204, 204)" stroke-width="1px"></line><line x1="290.890625" y1="0" x2="290.890625" y2="5" style="visibility: inherit;" fill="rgb(0, 0, 0)" stroke="rgb(204, 204, 204)" stroke-width="1px"></line></g><g transform="translate(0, 8)"><text x="0" y="0" dx="0em" dy="0.95em" style="text-anchor: middle; visibility: hidden; font-family: &quot;Helvetica Neue&quot;, sans-serif; font-size: 12px; font-weight: 200;" fill="rgb(50, 49, 63)" stroke="none" stroke-width="1px">-500</text><text x="36.361328125" y="0" dx="0em" dy="0.95em" style="text-anchor: middle; visibility: inherit; font-family: &quot;Helvetica Neue&quot;, sans-serif; font-size: 12px; font-weight: 200;" fill="rgb(50, 49, 63)" stroke="none" stroke-width="1px">0</text><text x="72.72265625" y="0" dx="0em" dy="0.95em" style="text-anchor: middle; visibility: inherit; font-family: &quot;Helvetica Neue&quot;, sans-serif; font-size: 12px; font-weight: 200;" fill="rgb(50, 49, 63)" stroke="none" stroke-width="1px">500</text><text x="109.083984375" y="0" dx="0em" dy="0.95em" style="text-anchor: middle; visibility: inherit; font-family: &quot;Helvetica Neue&quot;, sans-serif; font-size: 12px; font-weight: 200;" fill="rgb(50, 49, 63)" stroke="none" stroke-width="1px">1k</text><text x="145.4453125" y="0" dx="0em" dy="0.95em" style="text-anchor: middle; visibility: inherit; font-family: &quot;Helvetica Neue&quot;, sans-serif; font-size: 12px; font-weight: 200;" fill="rgb(50, 49, 63)" stroke="none" stroke-width="1px">1.5k</text><text x="181.806640625" y="0" dx="0em" dy="0.95em" style="text-anchor: middle; visibility: inherit; font-family: &quot;Helvetica Neue&quot;, sans-serif; font-size: 12px; font-weight: 200;" fill="rgb(50, 49, 63)" stroke="none" stroke-width="1px">2k</text><text x="218.16796875" y="0" dx="0em" dy="0.95em" style="text-anchor: middle; visibility: inherit; font-family: &quot;Helvetica Neue&quot;, sans-serif; font-size: 12px; font-weight: 200;" fill="rgb(50, 49, 63)" stroke="none" stroke-width="1px">2.5k</text><text x="254.529296875" y="0" dx="0em" dy="0.95em" style="text-anchor: middle; visibility: inherit; font-family: &quot;Helvetica Neue&quot;, sans-serif; font-size: 12px; font-weight: 200;" fill="rgb(50, 49, 63)" stroke="none" stroke-width="1px">3k</text><text x="290.890625" y="0" dx="0em" dy="0.95em" style="text-anchor: middle; visibility: hidden; font-family: &quot;Helvetica Neue&quot;, sans-serif; font-size: 12px; font-weight: 200;" fill="rgb(50, 49, 63)" stroke="none" stroke-width="1px">3.5k</text></g><line x1="0" y1="0" x2="290.890625" y2="0" fill="rgb(0, 0, 0)" stroke="rgb(204, 204, 204)" stroke-width="1px"></line></g></g></g></g></svg>